%TF.GenerationSoftware,KiCad,Pcbnew,10.0.0*%
%TF.CreationDate,2026-05-07T12:35:11-07:00*%
%TF.ProjectId,SDR-ENGR356-v2,5344522d-454e-4475-9233-35362d76322e,rev?*%
%TF.SameCoordinates,Original*%
%TF.FileFunction,Legend,Top*%
%TF.FilePolarity,Positive*%
%FSLAX46Y46*%
G04 Gerber Fmt 4.6, Leading zero omitted, Abs format (unit mm)*
G04 Created by KiCad (PCBNEW 10.0.0) date 2026-05-07 12:35:11*
%MOMM*%
%LPD*%
G01*
G04 APERTURE LIST*
%ADD10C,0.300000*%
%ADD11C,0.400000*%
%ADD12C,0.150000*%
%ADD13C,0.120000*%
%ADD14C,0.250000*%
%ADD15C,0.060000*%
%ADD16C,0.200000*%
G04 APERTURE END LIST*
D10*
X114154510Y-76525912D02*
X114154510Y-75025912D01*
X114511654Y-76668769D02*
X115654511Y-76668769D01*
X116868796Y-76383055D02*
X116797368Y-76454484D01*
X116797368Y-76454484D02*
X116583082Y-76525912D01*
X116583082Y-76525912D02*
X116440225Y-76525912D01*
X116440225Y-76525912D02*
X116225939Y-76454484D01*
X116225939Y-76454484D02*
X116083082Y-76311626D01*
X116083082Y-76311626D02*
X116011653Y-76168769D01*
X116011653Y-76168769D02*
X115940225Y-75883055D01*
X115940225Y-75883055D02*
X115940225Y-75668769D01*
X115940225Y-75668769D02*
X116011653Y-75383055D01*
X116011653Y-75383055D02*
X116083082Y-75240198D01*
X116083082Y-75240198D02*
X116225939Y-75097341D01*
X116225939Y-75097341D02*
X116440225Y-75025912D01*
X116440225Y-75025912D02*
X116583082Y-75025912D01*
X116583082Y-75025912D02*
X116797368Y-75097341D01*
X116797368Y-75097341D02*
X116868796Y-75168769D01*
X118225939Y-76525912D02*
X117511653Y-76525912D01*
X117511653Y-76525912D02*
X117511653Y-75025912D01*
X118725939Y-76525912D02*
X118725939Y-75025912D01*
X119583082Y-76525912D02*
X118940225Y-75668769D01*
X119583082Y-75025912D02*
X118725939Y-75883055D01*
X119868797Y-76668769D02*
X121011654Y-76668769D01*
X121797368Y-75025912D02*
X121797368Y-76097341D01*
X121797368Y-76097341D02*
X121725939Y-76311626D01*
X121725939Y-76311626D02*
X121583082Y-76454484D01*
X121583082Y-76454484D02*
X121368796Y-76525912D01*
X121368796Y-76525912D02*
X121225939Y-76525912D01*
X118154510Y-90168769D02*
X118011653Y-90097341D01*
X118011653Y-90097341D02*
X117868796Y-89954484D01*
X117868796Y-89954484D02*
X117654510Y-89740198D01*
X117654510Y-89740198D02*
X117511653Y-89668769D01*
X117511653Y-89668769D02*
X117368796Y-89668769D01*
X117440225Y-90025912D02*
X117297368Y-89954484D01*
X117297368Y-89954484D02*
X117154510Y-89811626D01*
X117154510Y-89811626D02*
X117083082Y-89525912D01*
X117083082Y-89525912D02*
X117083082Y-89025912D01*
X117083082Y-89025912D02*
X117154510Y-88740198D01*
X117154510Y-88740198D02*
X117297368Y-88597341D01*
X117297368Y-88597341D02*
X117440225Y-88525912D01*
X117440225Y-88525912D02*
X117725939Y-88525912D01*
X117725939Y-88525912D02*
X117868796Y-88597341D01*
X117868796Y-88597341D02*
X118011653Y-88740198D01*
X118011653Y-88740198D02*
X118083082Y-89025912D01*
X118083082Y-89025912D02*
X118083082Y-89525912D01*
X118083082Y-89525912D02*
X118011653Y-89811626D01*
X118011653Y-89811626D02*
X117868796Y-89954484D01*
X117868796Y-89954484D02*
X117725939Y-90025912D01*
X117725939Y-90025912D02*
X117440225Y-90025912D01*
X118368797Y-90168769D02*
X119511654Y-90168769D01*
X120725939Y-89883055D02*
X120654511Y-89954484D01*
X120654511Y-89954484D02*
X120440225Y-90025912D01*
X120440225Y-90025912D02*
X120297368Y-90025912D01*
X120297368Y-90025912D02*
X120083082Y-89954484D01*
X120083082Y-89954484D02*
X119940225Y-89811626D01*
X119940225Y-89811626D02*
X119868796Y-89668769D01*
X119868796Y-89668769D02*
X119797368Y-89383055D01*
X119797368Y-89383055D02*
X119797368Y-89168769D01*
X119797368Y-89168769D02*
X119868796Y-88883055D01*
X119868796Y-88883055D02*
X119940225Y-88740198D01*
X119940225Y-88740198D02*
X120083082Y-88597341D01*
X120083082Y-88597341D02*
X120297368Y-88525912D01*
X120297368Y-88525912D02*
X120440225Y-88525912D01*
X120440225Y-88525912D02*
X120654511Y-88597341D01*
X120654511Y-88597341D02*
X120725939Y-88668769D01*
X122083082Y-90025912D02*
X121368796Y-90025912D01*
X121368796Y-90025912D02*
X121368796Y-88525912D01*
X122583082Y-90025912D02*
X122583082Y-88525912D01*
X123440225Y-90025912D02*
X122797368Y-89168769D01*
X123440225Y-88525912D02*
X122583082Y-89383055D01*
X123725940Y-90168769D02*
X124868797Y-90168769D01*
X125654511Y-88525912D02*
X125654511Y-89597341D01*
X125654511Y-89597341D02*
X125583082Y-89811626D01*
X125583082Y-89811626D02*
X125440225Y-89954484D01*
X125440225Y-89954484D02*
X125225939Y-90025912D01*
X125225939Y-90025912D02*
X125083082Y-90025912D01*
X121654510Y-85940828D02*
X121654510Y-84440828D01*
X122011654Y-86083685D02*
X123154511Y-86083685D01*
X124368796Y-85797971D02*
X124297368Y-85869400D01*
X124297368Y-85869400D02*
X124083082Y-85940828D01*
X124083082Y-85940828D02*
X123940225Y-85940828D01*
X123940225Y-85940828D02*
X123725939Y-85869400D01*
X123725939Y-85869400D02*
X123583082Y-85726542D01*
X123583082Y-85726542D02*
X123511653Y-85583685D01*
X123511653Y-85583685D02*
X123440225Y-85297971D01*
X123440225Y-85297971D02*
X123440225Y-85083685D01*
X123440225Y-85083685D02*
X123511653Y-84797971D01*
X123511653Y-84797971D02*
X123583082Y-84655114D01*
X123583082Y-84655114D02*
X123725939Y-84512257D01*
X123725939Y-84512257D02*
X123940225Y-84440828D01*
X123940225Y-84440828D02*
X124083082Y-84440828D01*
X124083082Y-84440828D02*
X124297368Y-84512257D01*
X124297368Y-84512257D02*
X124368796Y-84583685D01*
X125725939Y-85940828D02*
X125011653Y-85940828D01*
X125011653Y-85940828D02*
X125011653Y-84440828D01*
X126225939Y-85940828D02*
X126225939Y-84440828D01*
X127083082Y-85940828D02*
X126440225Y-85083685D01*
X127083082Y-84440828D02*
X126225939Y-85297971D01*
X133654510Y-84083685D02*
X133511653Y-84012257D01*
X133511653Y-84012257D02*
X133368796Y-83869400D01*
X133368796Y-83869400D02*
X133154510Y-83655114D01*
X133154510Y-83655114D02*
X133011653Y-83583685D01*
X133011653Y-83583685D02*
X132868796Y-83583685D01*
X132940225Y-83940828D02*
X132797368Y-83869400D01*
X132797368Y-83869400D02*
X132654510Y-83726542D01*
X132654510Y-83726542D02*
X132583082Y-83440828D01*
X132583082Y-83440828D02*
X132583082Y-82940828D01*
X132583082Y-82940828D02*
X132654510Y-82655114D01*
X132654510Y-82655114D02*
X132797368Y-82512257D01*
X132797368Y-82512257D02*
X132940225Y-82440828D01*
X132940225Y-82440828D02*
X133225939Y-82440828D01*
X133225939Y-82440828D02*
X133368796Y-82512257D01*
X133368796Y-82512257D02*
X133511653Y-82655114D01*
X133511653Y-82655114D02*
X133583082Y-82940828D01*
X133583082Y-82940828D02*
X133583082Y-83440828D01*
X133583082Y-83440828D02*
X133511653Y-83726542D01*
X133511653Y-83726542D02*
X133368796Y-83869400D01*
X133368796Y-83869400D02*
X133225939Y-83940828D01*
X133225939Y-83940828D02*
X132940225Y-83940828D01*
X133868797Y-84083685D02*
X135011654Y-84083685D01*
X136225939Y-83797971D02*
X136154511Y-83869400D01*
X136154511Y-83869400D02*
X135940225Y-83940828D01*
X135940225Y-83940828D02*
X135797368Y-83940828D01*
X135797368Y-83940828D02*
X135583082Y-83869400D01*
X135583082Y-83869400D02*
X135440225Y-83726542D01*
X135440225Y-83726542D02*
X135368796Y-83583685D01*
X135368796Y-83583685D02*
X135297368Y-83297971D01*
X135297368Y-83297971D02*
X135297368Y-83083685D01*
X135297368Y-83083685D02*
X135368796Y-82797971D01*
X135368796Y-82797971D02*
X135440225Y-82655114D01*
X135440225Y-82655114D02*
X135583082Y-82512257D01*
X135583082Y-82512257D02*
X135797368Y-82440828D01*
X135797368Y-82440828D02*
X135940225Y-82440828D01*
X135940225Y-82440828D02*
X136154511Y-82512257D01*
X136154511Y-82512257D02*
X136225939Y-82583685D01*
X137583082Y-83940828D02*
X136868796Y-83940828D01*
X136868796Y-83940828D02*
X136868796Y-82440828D01*
X138083082Y-83940828D02*
X138083082Y-82440828D01*
X138940225Y-83940828D02*
X138297368Y-83083685D01*
X138940225Y-82440828D02*
X138083082Y-83297971D01*
X161154510Y-75583685D02*
X161011653Y-75512257D01*
X161011653Y-75512257D02*
X160868796Y-75369400D01*
X160868796Y-75369400D02*
X160654510Y-75155114D01*
X160654510Y-75155114D02*
X160511653Y-75083685D01*
X160511653Y-75083685D02*
X160368796Y-75083685D01*
X160440225Y-75440828D02*
X160297368Y-75369400D01*
X160297368Y-75369400D02*
X160154510Y-75226542D01*
X160154510Y-75226542D02*
X160083082Y-74940828D01*
X160083082Y-74940828D02*
X160083082Y-74440828D01*
X160083082Y-74440828D02*
X160154510Y-74155114D01*
X160154510Y-74155114D02*
X160297368Y-74012257D01*
X160297368Y-74012257D02*
X160440225Y-73940828D01*
X160440225Y-73940828D02*
X160725939Y-73940828D01*
X160725939Y-73940828D02*
X160868796Y-74012257D01*
X160868796Y-74012257D02*
X161011653Y-74155114D01*
X161011653Y-74155114D02*
X161083082Y-74440828D01*
X161083082Y-74440828D02*
X161083082Y-74940828D01*
X161083082Y-74940828D02*
X161011653Y-75226542D01*
X161011653Y-75226542D02*
X160868796Y-75369400D01*
X160868796Y-75369400D02*
X160725939Y-75440828D01*
X160725939Y-75440828D02*
X160440225Y-75440828D01*
X161368797Y-75583685D02*
X162511654Y-75583685D01*
X163154511Y-73940828D02*
X163440225Y-73940828D01*
X163440225Y-73940828D02*
X163583082Y-74012257D01*
X163583082Y-74012257D02*
X163725939Y-74155114D01*
X163725939Y-74155114D02*
X163797368Y-74440828D01*
X163797368Y-74440828D02*
X163797368Y-74940828D01*
X163797368Y-74940828D02*
X163725939Y-75226542D01*
X163725939Y-75226542D02*
X163583082Y-75369400D01*
X163583082Y-75369400D02*
X163440225Y-75440828D01*
X163440225Y-75440828D02*
X163154511Y-75440828D01*
X163154511Y-75440828D02*
X163011654Y-75369400D01*
X163011654Y-75369400D02*
X162868796Y-75226542D01*
X162868796Y-75226542D02*
X162797368Y-74940828D01*
X162797368Y-74940828D02*
X162797368Y-74440828D01*
X162797368Y-74440828D02*
X162868796Y-74155114D01*
X162868796Y-74155114D02*
X163011654Y-74012257D01*
X163011654Y-74012257D02*
X163154511Y-73940828D01*
X164440225Y-73940828D02*
X164440225Y-75155114D01*
X164440225Y-75155114D02*
X164511654Y-75297971D01*
X164511654Y-75297971D02*
X164583083Y-75369400D01*
X164583083Y-75369400D02*
X164725940Y-75440828D01*
X164725940Y-75440828D02*
X165011654Y-75440828D01*
X165011654Y-75440828D02*
X165154511Y-75369400D01*
X165154511Y-75369400D02*
X165225940Y-75297971D01*
X165225940Y-75297971D02*
X165297368Y-75155114D01*
X165297368Y-75155114D02*
X165297368Y-73940828D01*
X165797369Y-73940828D02*
X166654512Y-73940828D01*
X166225940Y-75440828D02*
X166225940Y-73940828D01*
X175440225Y-117940828D02*
X175940225Y-119440828D01*
X175940225Y-119440828D02*
X176440225Y-117940828D01*
X177583082Y-119369400D02*
X177440224Y-119440828D01*
X177440224Y-119440828D02*
X177154510Y-119440828D01*
X177154510Y-119440828D02*
X177011653Y-119369400D01*
X177011653Y-119369400D02*
X176940224Y-119297971D01*
X176940224Y-119297971D02*
X176868796Y-119155114D01*
X176868796Y-119155114D02*
X176868796Y-118726542D01*
X176868796Y-118726542D02*
X176940224Y-118583685D01*
X176940224Y-118583685D02*
X177011653Y-118512257D01*
X177011653Y-118512257D02*
X177154510Y-118440828D01*
X177154510Y-118440828D02*
X177440224Y-118440828D01*
X177440224Y-118440828D02*
X177583082Y-118512257D01*
X178868796Y-119369400D02*
X178725938Y-119440828D01*
X178725938Y-119440828D02*
X178440224Y-119440828D01*
X178440224Y-119440828D02*
X178297367Y-119369400D01*
X178297367Y-119369400D02*
X178225938Y-119297971D01*
X178225938Y-119297971D02*
X178154510Y-119155114D01*
X178154510Y-119155114D02*
X178154510Y-118726542D01*
X178154510Y-118726542D02*
X178225938Y-118583685D01*
X178225938Y-118583685D02*
X178297367Y-118512257D01*
X178297367Y-118512257D02*
X178440224Y-118440828D01*
X178440224Y-118440828D02*
X178725938Y-118440828D01*
X178725938Y-118440828D02*
X178868796Y-118512257D01*
X180654509Y-119440828D02*
X180654509Y-117940828D01*
X180654509Y-117940828D02*
X181225938Y-117940828D01*
X181225938Y-117940828D02*
X181368795Y-118012257D01*
X181368795Y-118012257D02*
X181440224Y-118083685D01*
X181440224Y-118083685D02*
X181511652Y-118226542D01*
X181511652Y-118226542D02*
X181511652Y-118440828D01*
X181511652Y-118440828D02*
X181440224Y-118583685D01*
X181440224Y-118583685D02*
X181368795Y-118655114D01*
X181368795Y-118655114D02*
X181225938Y-118726542D01*
X181225938Y-118726542D02*
X180654509Y-118726542D01*
X182154509Y-119440828D02*
X182154509Y-118440828D01*
X182154509Y-117940828D02*
X182083081Y-118012257D01*
X182083081Y-118012257D02*
X182154509Y-118083685D01*
X182154509Y-118083685D02*
X182225938Y-118012257D01*
X182225938Y-118012257D02*
X182154509Y-117940828D01*
X182154509Y-117940828D02*
X182154509Y-118083685D01*
X183511653Y-119369400D02*
X183368795Y-119440828D01*
X183368795Y-119440828D02*
X183083081Y-119440828D01*
X183083081Y-119440828D02*
X182940224Y-119369400D01*
X182940224Y-119369400D02*
X182868795Y-119297971D01*
X182868795Y-119297971D02*
X182797367Y-119155114D01*
X182797367Y-119155114D02*
X182797367Y-118726542D01*
X182797367Y-118726542D02*
X182868795Y-118583685D01*
X182868795Y-118583685D02*
X182940224Y-118512257D01*
X182940224Y-118512257D02*
X183083081Y-118440828D01*
X183083081Y-118440828D02*
X183368795Y-118440828D01*
X183368795Y-118440828D02*
X183511653Y-118512257D01*
X184368795Y-119440828D02*
X184225938Y-119369400D01*
X184225938Y-119369400D02*
X184154509Y-119297971D01*
X184154509Y-119297971D02*
X184083081Y-119155114D01*
X184083081Y-119155114D02*
X184083081Y-118726542D01*
X184083081Y-118726542D02*
X184154509Y-118583685D01*
X184154509Y-118583685D02*
X184225938Y-118512257D01*
X184225938Y-118512257D02*
X184368795Y-118440828D01*
X184368795Y-118440828D02*
X184583081Y-118440828D01*
X184583081Y-118440828D02*
X184725938Y-118512257D01*
X184725938Y-118512257D02*
X184797367Y-118583685D01*
X184797367Y-118583685D02*
X184868795Y-118726542D01*
X184868795Y-118726542D02*
X184868795Y-119155114D01*
X184868795Y-119155114D02*
X184797367Y-119297971D01*
X184797367Y-119297971D02*
X184725938Y-119369400D01*
X184725938Y-119369400D02*
X184583081Y-119440828D01*
X184583081Y-119440828D02*
X184368795Y-119440828D01*
X175440225Y-123440828D02*
X175940225Y-124940828D01*
X175940225Y-124940828D02*
X176440225Y-123440828D01*
X177583082Y-124869400D02*
X177440224Y-124940828D01*
X177440224Y-124940828D02*
X177154510Y-124940828D01*
X177154510Y-124940828D02*
X177011653Y-124869400D01*
X177011653Y-124869400D02*
X176940224Y-124797971D01*
X176940224Y-124797971D02*
X176868796Y-124655114D01*
X176868796Y-124655114D02*
X176868796Y-124226542D01*
X176868796Y-124226542D02*
X176940224Y-124083685D01*
X176940224Y-124083685D02*
X177011653Y-124012257D01*
X177011653Y-124012257D02*
X177154510Y-123940828D01*
X177154510Y-123940828D02*
X177440224Y-123940828D01*
X177440224Y-123940828D02*
X177583082Y-124012257D01*
X178868796Y-124869400D02*
X178725938Y-124940828D01*
X178725938Y-124940828D02*
X178440224Y-124940828D01*
X178440224Y-124940828D02*
X178297367Y-124869400D01*
X178297367Y-124869400D02*
X178225938Y-124797971D01*
X178225938Y-124797971D02*
X178154510Y-124655114D01*
X178154510Y-124655114D02*
X178154510Y-124226542D01*
X178154510Y-124226542D02*
X178225938Y-124083685D01*
X178225938Y-124083685D02*
X178297367Y-124012257D01*
X178297367Y-124012257D02*
X178440224Y-123940828D01*
X178440224Y-123940828D02*
X178725938Y-123940828D01*
X178725938Y-123940828D02*
X178868796Y-124012257D01*
X181154509Y-124155114D02*
X181368795Y-124226542D01*
X181368795Y-124226542D02*
X181440224Y-124297971D01*
X181440224Y-124297971D02*
X181511652Y-124440828D01*
X181511652Y-124440828D02*
X181511652Y-124655114D01*
X181511652Y-124655114D02*
X181440224Y-124797971D01*
X181440224Y-124797971D02*
X181368795Y-124869400D01*
X181368795Y-124869400D02*
X181225938Y-124940828D01*
X181225938Y-124940828D02*
X180654509Y-124940828D01*
X180654509Y-124940828D02*
X180654509Y-123440828D01*
X180654509Y-123440828D02*
X181154509Y-123440828D01*
X181154509Y-123440828D02*
X181297367Y-123512257D01*
X181297367Y-123512257D02*
X181368795Y-123583685D01*
X181368795Y-123583685D02*
X181440224Y-123726542D01*
X181440224Y-123726542D02*
X181440224Y-123869400D01*
X181440224Y-123869400D02*
X181368795Y-124012257D01*
X181368795Y-124012257D02*
X181297367Y-124083685D01*
X181297367Y-124083685D02*
X181154509Y-124155114D01*
X181154509Y-124155114D02*
X180654509Y-124155114D01*
X182797367Y-123940828D02*
X182797367Y-124940828D01*
X182154509Y-123940828D02*
X182154509Y-124726542D01*
X182154509Y-124726542D02*
X182225938Y-124869400D01*
X182225938Y-124869400D02*
X182368795Y-124940828D01*
X182368795Y-124940828D02*
X182583081Y-124940828D01*
X182583081Y-124940828D02*
X182725938Y-124869400D01*
X182725938Y-124869400D02*
X182797367Y-124797971D01*
X183440224Y-124869400D02*
X183583081Y-124940828D01*
X183583081Y-124940828D02*
X183868795Y-124940828D01*
X183868795Y-124940828D02*
X184011652Y-124869400D01*
X184011652Y-124869400D02*
X184083081Y-124726542D01*
X184083081Y-124726542D02*
X184083081Y-124655114D01*
X184083081Y-124655114D02*
X184011652Y-124512257D01*
X184011652Y-124512257D02*
X183868795Y-124440828D01*
X183868795Y-124440828D02*
X183654510Y-124440828D01*
X183654510Y-124440828D02*
X183511652Y-124369400D01*
X183511652Y-124369400D02*
X183440224Y-124226542D01*
X183440224Y-124226542D02*
X183440224Y-124155114D01*
X183440224Y-124155114D02*
X183511652Y-124012257D01*
X183511652Y-124012257D02*
X183654510Y-123940828D01*
X183654510Y-123940828D02*
X183868795Y-123940828D01*
X183868795Y-123940828D02*
X184011652Y-124012257D01*
X176440225Y-129512257D02*
X176297368Y-129440828D01*
X176297368Y-129440828D02*
X176083082Y-129440828D01*
X176083082Y-129440828D02*
X175868796Y-129512257D01*
X175868796Y-129512257D02*
X175725939Y-129655114D01*
X175725939Y-129655114D02*
X175654510Y-129797971D01*
X175654510Y-129797971D02*
X175583082Y-130083685D01*
X175583082Y-130083685D02*
X175583082Y-130297971D01*
X175583082Y-130297971D02*
X175654510Y-130583685D01*
X175654510Y-130583685D02*
X175725939Y-130726542D01*
X175725939Y-130726542D02*
X175868796Y-130869400D01*
X175868796Y-130869400D02*
X176083082Y-130940828D01*
X176083082Y-130940828D02*
X176225939Y-130940828D01*
X176225939Y-130940828D02*
X176440225Y-130869400D01*
X176440225Y-130869400D02*
X176511653Y-130797971D01*
X176511653Y-130797971D02*
X176511653Y-130297971D01*
X176511653Y-130297971D02*
X176225939Y-130297971D01*
X177154510Y-130940828D02*
X177154510Y-129440828D01*
X177154510Y-129440828D02*
X178011653Y-130940828D01*
X178011653Y-130940828D02*
X178011653Y-129440828D01*
X178725939Y-130940828D02*
X178725939Y-129440828D01*
X178725939Y-129440828D02*
X179083082Y-129440828D01*
X179083082Y-129440828D02*
X179297368Y-129512257D01*
X179297368Y-129512257D02*
X179440225Y-129655114D01*
X179440225Y-129655114D02*
X179511654Y-129797971D01*
X179511654Y-129797971D02*
X179583082Y-130083685D01*
X179583082Y-130083685D02*
X179583082Y-130297971D01*
X179583082Y-130297971D02*
X179511654Y-130583685D01*
X179511654Y-130583685D02*
X179440225Y-130726542D01*
X179440225Y-130726542D02*
X179297368Y-130869400D01*
X179297368Y-130869400D02*
X179083082Y-130940828D01*
X179083082Y-130940828D02*
X178725939Y-130940828D01*
X177654510Y-75440828D02*
X177654510Y-73940828D01*
X178011654Y-75583685D02*
X179154511Y-75583685D01*
X179797368Y-73940828D02*
X180083082Y-73940828D01*
X180083082Y-73940828D02*
X180225939Y-74012257D01*
X180225939Y-74012257D02*
X180368796Y-74155114D01*
X180368796Y-74155114D02*
X180440225Y-74440828D01*
X180440225Y-74440828D02*
X180440225Y-74940828D01*
X180440225Y-74940828D02*
X180368796Y-75226542D01*
X180368796Y-75226542D02*
X180225939Y-75369400D01*
X180225939Y-75369400D02*
X180083082Y-75440828D01*
X180083082Y-75440828D02*
X179797368Y-75440828D01*
X179797368Y-75440828D02*
X179654511Y-75369400D01*
X179654511Y-75369400D02*
X179511653Y-75226542D01*
X179511653Y-75226542D02*
X179440225Y-74940828D01*
X179440225Y-74940828D02*
X179440225Y-74440828D01*
X179440225Y-74440828D02*
X179511653Y-74155114D01*
X179511653Y-74155114D02*
X179654511Y-74012257D01*
X179654511Y-74012257D02*
X179797368Y-73940828D01*
X181083082Y-73940828D02*
X181083082Y-75155114D01*
X181083082Y-75155114D02*
X181154511Y-75297971D01*
X181154511Y-75297971D02*
X181225940Y-75369400D01*
X181225940Y-75369400D02*
X181368797Y-75440828D01*
X181368797Y-75440828D02*
X181654511Y-75440828D01*
X181654511Y-75440828D02*
X181797368Y-75369400D01*
X181797368Y-75369400D02*
X181868797Y-75297971D01*
X181868797Y-75297971D02*
X181940225Y-75155114D01*
X181940225Y-75155114D02*
X181940225Y-73940828D01*
X182440226Y-73940828D02*
X183297369Y-73940828D01*
X182868797Y-75440828D02*
X182868797Y-73940828D01*
X156900828Y-125085489D02*
X155400828Y-125085489D01*
X157043685Y-124728346D02*
X157043685Y-123585488D01*
X156900828Y-123228346D02*
X155400828Y-123228346D01*
X155400828Y-123228346D02*
X155400828Y-122656917D01*
X155400828Y-122656917D02*
X155472257Y-122514060D01*
X155472257Y-122514060D02*
X155543685Y-122442631D01*
X155543685Y-122442631D02*
X155686542Y-122371203D01*
X155686542Y-122371203D02*
X155900828Y-122371203D01*
X155900828Y-122371203D02*
X156043685Y-122442631D01*
X156043685Y-122442631D02*
X156115114Y-122514060D01*
X156115114Y-122514060D02*
X156186542Y-122656917D01*
X156186542Y-122656917D02*
X156186542Y-123228346D01*
X156900828Y-121728346D02*
X155900828Y-121728346D01*
X155400828Y-121728346D02*
X155472257Y-121799774D01*
X155472257Y-121799774D02*
X155543685Y-121728346D01*
X155543685Y-121728346D02*
X155472257Y-121656917D01*
X155472257Y-121656917D02*
X155400828Y-121728346D01*
X155400828Y-121728346D02*
X155543685Y-121728346D01*
X156829400Y-120371203D02*
X156900828Y-120514060D01*
X156900828Y-120514060D02*
X156900828Y-120799774D01*
X156900828Y-120799774D02*
X156829400Y-120942631D01*
X156829400Y-120942631D02*
X156757971Y-121014060D01*
X156757971Y-121014060D02*
X156615114Y-121085488D01*
X156615114Y-121085488D02*
X156186542Y-121085488D01*
X156186542Y-121085488D02*
X156043685Y-121014060D01*
X156043685Y-121014060D02*
X155972257Y-120942631D01*
X155972257Y-120942631D02*
X155900828Y-120799774D01*
X155900828Y-120799774D02*
X155900828Y-120514060D01*
X155900828Y-120514060D02*
X155972257Y-120371203D01*
X156900828Y-119514060D02*
X156829400Y-119656917D01*
X156829400Y-119656917D02*
X156757971Y-119728346D01*
X156757971Y-119728346D02*
X156615114Y-119799774D01*
X156615114Y-119799774D02*
X156186542Y-119799774D01*
X156186542Y-119799774D02*
X156043685Y-119728346D01*
X156043685Y-119728346D02*
X155972257Y-119656917D01*
X155972257Y-119656917D02*
X155900828Y-119514060D01*
X155900828Y-119514060D02*
X155900828Y-119299774D01*
X155900828Y-119299774D02*
X155972257Y-119156917D01*
X155972257Y-119156917D02*
X156043685Y-119085489D01*
X156043685Y-119085489D02*
X156186542Y-119014060D01*
X156186542Y-119014060D02*
X156615114Y-119014060D01*
X156615114Y-119014060D02*
X156757971Y-119085489D01*
X156757971Y-119085489D02*
X156829400Y-119156917D01*
X156829400Y-119156917D02*
X156900828Y-119299774D01*
X156900828Y-119299774D02*
X156900828Y-119514060D01*
X162043685Y-125085489D02*
X161972257Y-125228346D01*
X161972257Y-125228346D02*
X161829400Y-125371203D01*
X161829400Y-125371203D02*
X161615114Y-125585489D01*
X161615114Y-125585489D02*
X161543685Y-125728346D01*
X161543685Y-125728346D02*
X161543685Y-125871203D01*
X161900828Y-125799774D02*
X161829400Y-125942632D01*
X161829400Y-125942632D02*
X161686542Y-126085489D01*
X161686542Y-126085489D02*
X161400828Y-126156917D01*
X161400828Y-126156917D02*
X160900828Y-126156917D01*
X160900828Y-126156917D02*
X160615114Y-126085489D01*
X160615114Y-126085489D02*
X160472257Y-125942632D01*
X160472257Y-125942632D02*
X160400828Y-125799774D01*
X160400828Y-125799774D02*
X160400828Y-125514060D01*
X160400828Y-125514060D02*
X160472257Y-125371203D01*
X160472257Y-125371203D02*
X160615114Y-125228346D01*
X160615114Y-125228346D02*
X160900828Y-125156917D01*
X160900828Y-125156917D02*
X161400828Y-125156917D01*
X161400828Y-125156917D02*
X161686542Y-125228346D01*
X161686542Y-125228346D02*
X161829400Y-125371203D01*
X161829400Y-125371203D02*
X161900828Y-125514060D01*
X161900828Y-125514060D02*
X161900828Y-125799774D01*
X162043685Y-124871203D02*
X162043685Y-123728345D01*
X161900828Y-123371203D02*
X160400828Y-123371203D01*
X160400828Y-123371203D02*
X160400828Y-122799774D01*
X160400828Y-122799774D02*
X160472257Y-122656917D01*
X160472257Y-122656917D02*
X160543685Y-122585488D01*
X160543685Y-122585488D02*
X160686542Y-122514060D01*
X160686542Y-122514060D02*
X160900828Y-122514060D01*
X160900828Y-122514060D02*
X161043685Y-122585488D01*
X161043685Y-122585488D02*
X161115114Y-122656917D01*
X161115114Y-122656917D02*
X161186542Y-122799774D01*
X161186542Y-122799774D02*
X161186542Y-123371203D01*
X161900828Y-121871203D02*
X160900828Y-121871203D01*
X160400828Y-121871203D02*
X160472257Y-121942631D01*
X160472257Y-121942631D02*
X160543685Y-121871203D01*
X160543685Y-121871203D02*
X160472257Y-121799774D01*
X160472257Y-121799774D02*
X160400828Y-121871203D01*
X160400828Y-121871203D02*
X160543685Y-121871203D01*
X161829400Y-120514060D02*
X161900828Y-120656917D01*
X161900828Y-120656917D02*
X161900828Y-120942631D01*
X161900828Y-120942631D02*
X161829400Y-121085488D01*
X161829400Y-121085488D02*
X161757971Y-121156917D01*
X161757971Y-121156917D02*
X161615114Y-121228345D01*
X161615114Y-121228345D02*
X161186542Y-121228345D01*
X161186542Y-121228345D02*
X161043685Y-121156917D01*
X161043685Y-121156917D02*
X160972257Y-121085488D01*
X160972257Y-121085488D02*
X160900828Y-120942631D01*
X160900828Y-120942631D02*
X160900828Y-120656917D01*
X160900828Y-120656917D02*
X160972257Y-120514060D01*
X161900828Y-119656917D02*
X161829400Y-119799774D01*
X161829400Y-119799774D02*
X161757971Y-119871203D01*
X161757971Y-119871203D02*
X161615114Y-119942631D01*
X161615114Y-119942631D02*
X161186542Y-119942631D01*
X161186542Y-119942631D02*
X161043685Y-119871203D01*
X161043685Y-119871203D02*
X160972257Y-119799774D01*
X160972257Y-119799774D02*
X160900828Y-119656917D01*
X160900828Y-119656917D02*
X160900828Y-119442631D01*
X160900828Y-119442631D02*
X160972257Y-119299774D01*
X160972257Y-119299774D02*
X161043685Y-119228346D01*
X161043685Y-119228346D02*
X161186542Y-119156917D01*
X161186542Y-119156917D02*
X161615114Y-119156917D01*
X161615114Y-119156917D02*
X161757971Y-119228346D01*
X161757971Y-119228346D02*
X161829400Y-119299774D01*
X161829400Y-119299774D02*
X161900828Y-119442631D01*
X161900828Y-119442631D02*
X161900828Y-119656917D01*
X165400828Y-130299774D02*
X166900828Y-129799774D01*
X166900828Y-129799774D02*
X165400828Y-129299774D01*
X166900828Y-128799775D02*
X165900828Y-128799775D01*
X166186542Y-128799775D02*
X166043685Y-128728346D01*
X166043685Y-128728346D02*
X165972257Y-128656918D01*
X165972257Y-128656918D02*
X165900828Y-128514060D01*
X165900828Y-128514060D02*
X165900828Y-128371203D01*
X166829400Y-127299775D02*
X166900828Y-127442632D01*
X166900828Y-127442632D02*
X166900828Y-127728347D01*
X166900828Y-127728347D02*
X166829400Y-127871204D01*
X166829400Y-127871204D02*
X166686542Y-127942632D01*
X166686542Y-127942632D02*
X166115114Y-127942632D01*
X166115114Y-127942632D02*
X165972257Y-127871204D01*
X165972257Y-127871204D02*
X165900828Y-127728347D01*
X165900828Y-127728347D02*
X165900828Y-127442632D01*
X165900828Y-127442632D02*
X165972257Y-127299775D01*
X165972257Y-127299775D02*
X166115114Y-127228347D01*
X166115114Y-127228347D02*
X166257971Y-127228347D01*
X166257971Y-127228347D02*
X166400828Y-127942632D01*
X165900828Y-126799775D02*
X165900828Y-126228347D01*
X166900828Y-126585490D02*
X165615114Y-126585490D01*
X165615114Y-126585490D02*
X165472257Y-126514061D01*
X165472257Y-126514061D02*
X165400828Y-126371204D01*
X165400828Y-126371204D02*
X165400828Y-126228347D01*
X167043685Y-126085490D02*
X167043685Y-124942632D01*
X166900828Y-124585490D02*
X165400828Y-124585490D01*
X165400828Y-124585490D02*
X165400828Y-124014061D01*
X165400828Y-124014061D02*
X165472257Y-123871204D01*
X165472257Y-123871204D02*
X165543685Y-123799775D01*
X165543685Y-123799775D02*
X165686542Y-123728347D01*
X165686542Y-123728347D02*
X165900828Y-123728347D01*
X165900828Y-123728347D02*
X166043685Y-123799775D01*
X166043685Y-123799775D02*
X166115114Y-123871204D01*
X166115114Y-123871204D02*
X166186542Y-124014061D01*
X166186542Y-124014061D02*
X166186542Y-124585490D01*
X166900828Y-123085490D02*
X165900828Y-123085490D01*
X165400828Y-123085490D02*
X165472257Y-123156918D01*
X165472257Y-123156918D02*
X165543685Y-123085490D01*
X165543685Y-123085490D02*
X165472257Y-123014061D01*
X165472257Y-123014061D02*
X165400828Y-123085490D01*
X165400828Y-123085490D02*
X165543685Y-123085490D01*
X166829400Y-121728347D02*
X166900828Y-121871204D01*
X166900828Y-121871204D02*
X166900828Y-122156918D01*
X166900828Y-122156918D02*
X166829400Y-122299775D01*
X166829400Y-122299775D02*
X166757971Y-122371204D01*
X166757971Y-122371204D02*
X166615114Y-122442632D01*
X166615114Y-122442632D02*
X166186542Y-122442632D01*
X166186542Y-122442632D02*
X166043685Y-122371204D01*
X166043685Y-122371204D02*
X165972257Y-122299775D01*
X165972257Y-122299775D02*
X165900828Y-122156918D01*
X165900828Y-122156918D02*
X165900828Y-121871204D01*
X165900828Y-121871204D02*
X165972257Y-121728347D01*
X166900828Y-120871204D02*
X166829400Y-121014061D01*
X166829400Y-121014061D02*
X166757971Y-121085490D01*
X166757971Y-121085490D02*
X166615114Y-121156918D01*
X166615114Y-121156918D02*
X166186542Y-121156918D01*
X166186542Y-121156918D02*
X166043685Y-121085490D01*
X166043685Y-121085490D02*
X165972257Y-121014061D01*
X165972257Y-121014061D02*
X165900828Y-120871204D01*
X165900828Y-120871204D02*
X165900828Y-120656918D01*
X165900828Y-120656918D02*
X165972257Y-120514061D01*
X165972257Y-120514061D02*
X166043685Y-120442633D01*
X166043685Y-120442633D02*
X166186542Y-120371204D01*
X166186542Y-120371204D02*
X166615114Y-120371204D01*
X166615114Y-120371204D02*
X166757971Y-120442633D01*
X166757971Y-120442633D02*
X166829400Y-120514061D01*
X166829400Y-120514061D02*
X166900828Y-120656918D01*
X166900828Y-120656918D02*
X166900828Y-120871204D01*
X170400828Y-126299774D02*
X171900828Y-125799774D01*
X171900828Y-125799774D02*
X170400828Y-125299774D01*
X171829400Y-124156918D02*
X171900828Y-124299775D01*
X171900828Y-124299775D02*
X171900828Y-124585489D01*
X171900828Y-124585489D02*
X171829400Y-124728346D01*
X171829400Y-124728346D02*
X171757971Y-124799775D01*
X171757971Y-124799775D02*
X171615114Y-124871203D01*
X171615114Y-124871203D02*
X171186542Y-124871203D01*
X171186542Y-124871203D02*
X171043685Y-124799775D01*
X171043685Y-124799775D02*
X170972257Y-124728346D01*
X170972257Y-124728346D02*
X170900828Y-124585489D01*
X170900828Y-124585489D02*
X170900828Y-124299775D01*
X170900828Y-124299775D02*
X170972257Y-124156918D01*
X171829400Y-122871204D02*
X171900828Y-123014061D01*
X171900828Y-123014061D02*
X171900828Y-123299775D01*
X171900828Y-123299775D02*
X171829400Y-123442632D01*
X171829400Y-123442632D02*
X171757971Y-123514061D01*
X171757971Y-123514061D02*
X171615114Y-123585489D01*
X171615114Y-123585489D02*
X171186542Y-123585489D01*
X171186542Y-123585489D02*
X171043685Y-123514061D01*
X171043685Y-123514061D02*
X170972257Y-123442632D01*
X170972257Y-123442632D02*
X170900828Y-123299775D01*
X170900828Y-123299775D02*
X170900828Y-123014061D01*
X170900828Y-123014061D02*
X170972257Y-122871204D01*
X171900828Y-121085490D02*
X170400828Y-121085490D01*
X170400828Y-121085490D02*
X170400828Y-120728347D01*
X170400828Y-120728347D02*
X170472257Y-120514061D01*
X170472257Y-120514061D02*
X170615114Y-120371204D01*
X170615114Y-120371204D02*
X170757971Y-120299775D01*
X170757971Y-120299775D02*
X171043685Y-120228347D01*
X171043685Y-120228347D02*
X171257971Y-120228347D01*
X171257971Y-120228347D02*
X171543685Y-120299775D01*
X171543685Y-120299775D02*
X171686542Y-120371204D01*
X171686542Y-120371204D02*
X171829400Y-120514061D01*
X171829400Y-120514061D02*
X171900828Y-120728347D01*
X171900828Y-120728347D02*
X171900828Y-121085490D01*
X171829400Y-119014061D02*
X171900828Y-119156918D01*
X171900828Y-119156918D02*
X171900828Y-119442633D01*
X171900828Y-119442633D02*
X171829400Y-119585490D01*
X171829400Y-119585490D02*
X171686542Y-119656918D01*
X171686542Y-119656918D02*
X171115114Y-119656918D01*
X171115114Y-119656918D02*
X170972257Y-119585490D01*
X170972257Y-119585490D02*
X170900828Y-119442633D01*
X170900828Y-119442633D02*
X170900828Y-119156918D01*
X170900828Y-119156918D02*
X170972257Y-119014061D01*
X170972257Y-119014061D02*
X171115114Y-118942633D01*
X171115114Y-118942633D02*
X171257971Y-118942633D01*
X171257971Y-118942633D02*
X171400828Y-119656918D01*
X171900828Y-118299776D02*
X170400828Y-118299776D01*
X170972257Y-118299776D02*
X170900828Y-118156919D01*
X170900828Y-118156919D02*
X170900828Y-117871204D01*
X170900828Y-117871204D02*
X170972257Y-117728347D01*
X170972257Y-117728347D02*
X171043685Y-117656919D01*
X171043685Y-117656919D02*
X171186542Y-117585490D01*
X171186542Y-117585490D02*
X171615114Y-117585490D01*
X171615114Y-117585490D02*
X171757971Y-117656919D01*
X171757971Y-117656919D02*
X171829400Y-117728347D01*
X171829400Y-117728347D02*
X171900828Y-117871204D01*
X171900828Y-117871204D02*
X171900828Y-118156919D01*
X171900828Y-118156919D02*
X171829400Y-118299776D01*
X170900828Y-116299776D02*
X171900828Y-116299776D01*
X170900828Y-116942633D02*
X171686542Y-116942633D01*
X171686542Y-116942633D02*
X171829400Y-116871204D01*
X171829400Y-116871204D02*
X171900828Y-116728347D01*
X171900828Y-116728347D02*
X171900828Y-116514061D01*
X171900828Y-116514061D02*
X171829400Y-116371204D01*
X171829400Y-116371204D02*
X171757971Y-116299776D01*
X170900828Y-114942633D02*
X172115114Y-114942633D01*
X172115114Y-114942633D02*
X172257971Y-115014061D01*
X172257971Y-115014061D02*
X172329400Y-115085490D01*
X172329400Y-115085490D02*
X172400828Y-115228347D01*
X172400828Y-115228347D02*
X172400828Y-115442633D01*
X172400828Y-115442633D02*
X172329400Y-115585490D01*
X171829400Y-114942633D02*
X171900828Y-115085490D01*
X171900828Y-115085490D02*
X171900828Y-115371204D01*
X171900828Y-115371204D02*
X171829400Y-115514061D01*
X171829400Y-115514061D02*
X171757971Y-115585490D01*
X171757971Y-115585490D02*
X171615114Y-115656918D01*
X171615114Y-115656918D02*
X171186542Y-115656918D01*
X171186542Y-115656918D02*
X171043685Y-115585490D01*
X171043685Y-115585490D02*
X170972257Y-115514061D01*
X170972257Y-115514061D02*
X170900828Y-115371204D01*
X170900828Y-115371204D02*
X170900828Y-115085490D01*
X170900828Y-115085490D02*
X170972257Y-114942633D01*
X104314717Y-117554510D02*
X104314717Y-118054510D01*
X103529003Y-118268796D02*
X103529003Y-117554510D01*
X103529003Y-117554510D02*
X105029003Y-117554510D01*
X105029003Y-117554510D02*
X105029003Y-118268796D01*
X103529003Y-118911653D02*
X105029003Y-118911653D01*
X105029003Y-118911653D02*
X103529003Y-119768796D01*
X103529003Y-119768796D02*
X105029003Y-119768796D01*
X104957574Y-121268797D02*
X105029003Y-121125940D01*
X105029003Y-121125940D02*
X105029003Y-120911654D01*
X105029003Y-120911654D02*
X104957574Y-120697368D01*
X104957574Y-120697368D02*
X104814717Y-120554511D01*
X104814717Y-120554511D02*
X104671860Y-120483082D01*
X104671860Y-120483082D02*
X104386146Y-120411654D01*
X104386146Y-120411654D02*
X104171860Y-120411654D01*
X104171860Y-120411654D02*
X103886146Y-120483082D01*
X103886146Y-120483082D02*
X103743289Y-120554511D01*
X103743289Y-120554511D02*
X103600432Y-120697368D01*
X103600432Y-120697368D02*
X103529003Y-120911654D01*
X103529003Y-120911654D02*
X103529003Y-121054511D01*
X103529003Y-121054511D02*
X103600432Y-121268797D01*
X103600432Y-121268797D02*
X103671860Y-121340225D01*
X103671860Y-121340225D02*
X104171860Y-121340225D01*
X104171860Y-121340225D02*
X104171860Y-121054511D01*
X103529003Y-122840225D02*
X104243289Y-122340225D01*
X103529003Y-121983082D02*
X105029003Y-121983082D01*
X105029003Y-121983082D02*
X105029003Y-122554511D01*
X105029003Y-122554511D02*
X104957574Y-122697368D01*
X104957574Y-122697368D02*
X104886146Y-122768797D01*
X104886146Y-122768797D02*
X104743289Y-122840225D01*
X104743289Y-122840225D02*
X104529003Y-122840225D01*
X104529003Y-122840225D02*
X104386146Y-122768797D01*
X104386146Y-122768797D02*
X104314717Y-122697368D01*
X104314717Y-122697368D02*
X104243289Y-122554511D01*
X104243289Y-122554511D02*
X104243289Y-121983082D01*
X105029003Y-124483082D02*
X105029003Y-125411654D01*
X105029003Y-125411654D02*
X104457574Y-124911654D01*
X104457574Y-124911654D02*
X104457574Y-125125939D01*
X104457574Y-125125939D02*
X104386146Y-125268797D01*
X104386146Y-125268797D02*
X104314717Y-125340225D01*
X104314717Y-125340225D02*
X104171860Y-125411654D01*
X104171860Y-125411654D02*
X103814717Y-125411654D01*
X103814717Y-125411654D02*
X103671860Y-125340225D01*
X103671860Y-125340225D02*
X103600432Y-125268797D01*
X103600432Y-125268797D02*
X103529003Y-125125939D01*
X103529003Y-125125939D02*
X103529003Y-124697368D01*
X103529003Y-124697368D02*
X103600432Y-124554511D01*
X103600432Y-124554511D02*
X103671860Y-124483082D01*
X105029003Y-126768796D02*
X105029003Y-126054510D01*
X105029003Y-126054510D02*
X104314717Y-125983082D01*
X104314717Y-125983082D02*
X104386146Y-126054510D01*
X104386146Y-126054510D02*
X104457574Y-126197368D01*
X104457574Y-126197368D02*
X104457574Y-126554510D01*
X104457574Y-126554510D02*
X104386146Y-126697368D01*
X104386146Y-126697368D02*
X104314717Y-126768796D01*
X104314717Y-126768796D02*
X104171860Y-126840225D01*
X104171860Y-126840225D02*
X103814717Y-126840225D01*
X103814717Y-126840225D02*
X103671860Y-126768796D01*
X103671860Y-126768796D02*
X103600432Y-126697368D01*
X103600432Y-126697368D02*
X103529003Y-126554510D01*
X103529003Y-126554510D02*
X103529003Y-126197368D01*
X103529003Y-126197368D02*
X103600432Y-126054510D01*
X103600432Y-126054510D02*
X103671860Y-125983082D01*
X105029003Y-128125939D02*
X105029003Y-127840224D01*
X105029003Y-127840224D02*
X104957574Y-127697367D01*
X104957574Y-127697367D02*
X104886146Y-127625939D01*
X104886146Y-127625939D02*
X104671860Y-127483081D01*
X104671860Y-127483081D02*
X104386146Y-127411653D01*
X104386146Y-127411653D02*
X103814717Y-127411653D01*
X103814717Y-127411653D02*
X103671860Y-127483081D01*
X103671860Y-127483081D02*
X103600432Y-127554510D01*
X103600432Y-127554510D02*
X103529003Y-127697367D01*
X103529003Y-127697367D02*
X103529003Y-127983081D01*
X103529003Y-127983081D02*
X103600432Y-128125939D01*
X103600432Y-128125939D02*
X103671860Y-128197367D01*
X103671860Y-128197367D02*
X103814717Y-128268796D01*
X103814717Y-128268796D02*
X104171860Y-128268796D01*
X104171860Y-128268796D02*
X104314717Y-128197367D01*
X104314717Y-128197367D02*
X104386146Y-128125939D01*
X104386146Y-128125939D02*
X104457574Y-127983081D01*
X104457574Y-127983081D02*
X104457574Y-127697367D01*
X104457574Y-127697367D02*
X104386146Y-127554510D01*
X104386146Y-127554510D02*
X104314717Y-127483081D01*
X104314717Y-127483081D02*
X104171860Y-127411653D01*
X104100432Y-130054509D02*
X104100432Y-131197367D01*
X103600432Y-132983081D02*
X103529003Y-133197367D01*
X103529003Y-133197367D02*
X103529003Y-133554509D01*
X103529003Y-133554509D02*
X103600432Y-133697367D01*
X103600432Y-133697367D02*
X103671860Y-133768795D01*
X103671860Y-133768795D02*
X103814717Y-133840224D01*
X103814717Y-133840224D02*
X103957574Y-133840224D01*
X103957574Y-133840224D02*
X104100432Y-133768795D01*
X104100432Y-133768795D02*
X104171860Y-133697367D01*
X104171860Y-133697367D02*
X104243289Y-133554509D01*
X104243289Y-133554509D02*
X104314717Y-133268795D01*
X104314717Y-133268795D02*
X104386146Y-133125938D01*
X104386146Y-133125938D02*
X104457574Y-133054509D01*
X104457574Y-133054509D02*
X104600432Y-132983081D01*
X104600432Y-132983081D02*
X104743289Y-132983081D01*
X104743289Y-132983081D02*
X104886146Y-133054509D01*
X104886146Y-133054509D02*
X104957574Y-133125938D01*
X104957574Y-133125938D02*
X105029003Y-133268795D01*
X105029003Y-133268795D02*
X105029003Y-133625938D01*
X105029003Y-133625938D02*
X104957574Y-133840224D01*
X104529003Y-134483080D02*
X103029003Y-134483080D01*
X104457574Y-134483080D02*
X104529003Y-134625938D01*
X104529003Y-134625938D02*
X104529003Y-134911652D01*
X104529003Y-134911652D02*
X104457574Y-135054509D01*
X104457574Y-135054509D02*
X104386146Y-135125938D01*
X104386146Y-135125938D02*
X104243289Y-135197366D01*
X104243289Y-135197366D02*
X103814717Y-135197366D01*
X103814717Y-135197366D02*
X103671860Y-135125938D01*
X103671860Y-135125938D02*
X103600432Y-135054509D01*
X103600432Y-135054509D02*
X103529003Y-134911652D01*
X103529003Y-134911652D02*
X103529003Y-134625938D01*
X103529003Y-134625938D02*
X103600432Y-134483080D01*
X103529003Y-135840223D02*
X104529003Y-135840223D01*
X104243289Y-135840223D02*
X104386146Y-135911652D01*
X104386146Y-135911652D02*
X104457574Y-135983081D01*
X104457574Y-135983081D02*
X104529003Y-136125938D01*
X104529003Y-136125938D02*
X104529003Y-136268795D01*
X103529003Y-136768794D02*
X104529003Y-136768794D01*
X105029003Y-136768794D02*
X104957574Y-136697366D01*
X104957574Y-136697366D02*
X104886146Y-136768794D01*
X104886146Y-136768794D02*
X104957574Y-136840223D01*
X104957574Y-136840223D02*
X105029003Y-136768794D01*
X105029003Y-136768794D02*
X104886146Y-136768794D01*
X104529003Y-137483080D02*
X103529003Y-137483080D01*
X104386146Y-137483080D02*
X104457574Y-137554509D01*
X104457574Y-137554509D02*
X104529003Y-137697366D01*
X104529003Y-137697366D02*
X104529003Y-137911652D01*
X104529003Y-137911652D02*
X104457574Y-138054509D01*
X104457574Y-138054509D02*
X104314717Y-138125938D01*
X104314717Y-138125938D02*
X103529003Y-138125938D01*
X104529003Y-139483081D02*
X103314717Y-139483081D01*
X103314717Y-139483081D02*
X103171860Y-139411652D01*
X103171860Y-139411652D02*
X103100432Y-139340223D01*
X103100432Y-139340223D02*
X103029003Y-139197366D01*
X103029003Y-139197366D02*
X103029003Y-138983081D01*
X103029003Y-138983081D02*
X103100432Y-138840223D01*
X103600432Y-139483081D02*
X103529003Y-139340223D01*
X103529003Y-139340223D02*
X103529003Y-139054509D01*
X103529003Y-139054509D02*
X103600432Y-138911652D01*
X103600432Y-138911652D02*
X103671860Y-138840223D01*
X103671860Y-138840223D02*
X103814717Y-138768795D01*
X103814717Y-138768795D02*
X104243289Y-138768795D01*
X104243289Y-138768795D02*
X104386146Y-138840223D01*
X104386146Y-138840223D02*
X104457574Y-138911652D01*
X104457574Y-138911652D02*
X104529003Y-139054509D01*
X104529003Y-139054509D02*
X104529003Y-139340223D01*
X104529003Y-139340223D02*
X104457574Y-139483081D01*
X104886146Y-141268795D02*
X104957574Y-141340223D01*
X104957574Y-141340223D02*
X105029003Y-141483081D01*
X105029003Y-141483081D02*
X105029003Y-141840223D01*
X105029003Y-141840223D02*
X104957574Y-141983081D01*
X104957574Y-141983081D02*
X104886146Y-142054509D01*
X104886146Y-142054509D02*
X104743289Y-142125938D01*
X104743289Y-142125938D02*
X104600432Y-142125938D01*
X104600432Y-142125938D02*
X104386146Y-142054509D01*
X104386146Y-142054509D02*
X103529003Y-141197366D01*
X103529003Y-141197366D02*
X103529003Y-142125938D01*
X105029003Y-143054509D02*
X105029003Y-143197366D01*
X105029003Y-143197366D02*
X104957574Y-143340223D01*
X104957574Y-143340223D02*
X104886146Y-143411652D01*
X104886146Y-143411652D02*
X104743289Y-143483080D01*
X104743289Y-143483080D02*
X104457574Y-143554509D01*
X104457574Y-143554509D02*
X104100432Y-143554509D01*
X104100432Y-143554509D02*
X103814717Y-143483080D01*
X103814717Y-143483080D02*
X103671860Y-143411652D01*
X103671860Y-143411652D02*
X103600432Y-143340223D01*
X103600432Y-143340223D02*
X103529003Y-143197366D01*
X103529003Y-143197366D02*
X103529003Y-143054509D01*
X103529003Y-143054509D02*
X103600432Y-142911652D01*
X103600432Y-142911652D02*
X103671860Y-142840223D01*
X103671860Y-142840223D02*
X103814717Y-142768794D01*
X103814717Y-142768794D02*
X104100432Y-142697366D01*
X104100432Y-142697366D02*
X104457574Y-142697366D01*
X104457574Y-142697366D02*
X104743289Y-142768794D01*
X104743289Y-142768794D02*
X104886146Y-142840223D01*
X104886146Y-142840223D02*
X104957574Y-142911652D01*
X104957574Y-142911652D02*
X105029003Y-143054509D01*
X104886146Y-144125937D02*
X104957574Y-144197365D01*
X104957574Y-144197365D02*
X105029003Y-144340223D01*
X105029003Y-144340223D02*
X105029003Y-144697365D01*
X105029003Y-144697365D02*
X104957574Y-144840223D01*
X104957574Y-144840223D02*
X104886146Y-144911651D01*
X104886146Y-144911651D02*
X104743289Y-144983080D01*
X104743289Y-144983080D02*
X104600432Y-144983080D01*
X104600432Y-144983080D02*
X104386146Y-144911651D01*
X104386146Y-144911651D02*
X103529003Y-144054508D01*
X103529003Y-144054508D02*
X103529003Y-144983080D01*
X105029003Y-146268794D02*
X105029003Y-145983079D01*
X105029003Y-145983079D02*
X104957574Y-145840222D01*
X104957574Y-145840222D02*
X104886146Y-145768794D01*
X104886146Y-145768794D02*
X104671860Y-145625936D01*
X104671860Y-145625936D02*
X104386146Y-145554508D01*
X104386146Y-145554508D02*
X103814717Y-145554508D01*
X103814717Y-145554508D02*
X103671860Y-145625936D01*
X103671860Y-145625936D02*
X103600432Y-145697365D01*
X103600432Y-145697365D02*
X103529003Y-145840222D01*
X103529003Y-145840222D02*
X103529003Y-146125936D01*
X103529003Y-146125936D02*
X103600432Y-146268794D01*
X103600432Y-146268794D02*
X103671860Y-146340222D01*
X103671860Y-146340222D02*
X103814717Y-146411651D01*
X103814717Y-146411651D02*
X104171860Y-146411651D01*
X104171860Y-146411651D02*
X104314717Y-146340222D01*
X104314717Y-146340222D02*
X104386146Y-146268794D01*
X104386146Y-146268794D02*
X104457574Y-146125936D01*
X104457574Y-146125936D02*
X104457574Y-145840222D01*
X104457574Y-145840222D02*
X104386146Y-145697365D01*
X104386146Y-145697365D02*
X104314717Y-145625936D01*
X104314717Y-145625936D02*
X104171860Y-145554508D01*
X100971230Y-118554510D02*
X101042658Y-118411653D01*
X101042658Y-118411653D02*
X101185516Y-118268796D01*
X101185516Y-118268796D02*
X101399801Y-118054510D01*
X101399801Y-118054510D02*
X101471230Y-117911653D01*
X101471230Y-117911653D02*
X101471230Y-117768796D01*
X101114087Y-117840225D02*
X101185516Y-117697368D01*
X101185516Y-117697368D02*
X101328373Y-117554510D01*
X101328373Y-117554510D02*
X101614087Y-117483082D01*
X101614087Y-117483082D02*
X102114087Y-117483082D01*
X102114087Y-117483082D02*
X102399801Y-117554510D01*
X102399801Y-117554510D02*
X102542658Y-117697368D01*
X102542658Y-117697368D02*
X102614087Y-117840225D01*
X102614087Y-117840225D02*
X102614087Y-118125939D01*
X102614087Y-118125939D02*
X102542658Y-118268796D01*
X102542658Y-118268796D02*
X102399801Y-118411653D01*
X102399801Y-118411653D02*
X102114087Y-118483082D01*
X102114087Y-118483082D02*
X101614087Y-118483082D01*
X101614087Y-118483082D02*
X101328373Y-118411653D01*
X101328373Y-118411653D02*
X101185516Y-118268796D01*
X101185516Y-118268796D02*
X101114087Y-118125939D01*
X101114087Y-118125939D02*
X101114087Y-117840225D01*
X101185516Y-119054511D02*
X101114087Y-119268797D01*
X101114087Y-119268797D02*
X101114087Y-119625939D01*
X101114087Y-119625939D02*
X101185516Y-119768797D01*
X101185516Y-119768797D02*
X101256944Y-119840225D01*
X101256944Y-119840225D02*
X101399801Y-119911654D01*
X101399801Y-119911654D02*
X101542658Y-119911654D01*
X101542658Y-119911654D02*
X101685516Y-119840225D01*
X101685516Y-119840225D02*
X101756944Y-119768797D01*
X101756944Y-119768797D02*
X101828373Y-119625939D01*
X101828373Y-119625939D02*
X101899801Y-119340225D01*
X101899801Y-119340225D02*
X101971230Y-119197368D01*
X101971230Y-119197368D02*
X102042658Y-119125939D01*
X102042658Y-119125939D02*
X102185516Y-119054511D01*
X102185516Y-119054511D02*
X102328373Y-119054511D01*
X102328373Y-119054511D02*
X102471230Y-119125939D01*
X102471230Y-119125939D02*
X102542658Y-119197368D01*
X102542658Y-119197368D02*
X102614087Y-119340225D01*
X102614087Y-119340225D02*
X102614087Y-119697368D01*
X102614087Y-119697368D02*
X102542658Y-119911654D01*
X101114087Y-120554510D02*
X102614087Y-120554510D01*
X102614087Y-120554510D02*
X102614087Y-120911653D01*
X102614087Y-120911653D02*
X102542658Y-121125939D01*
X102542658Y-121125939D02*
X102399801Y-121268796D01*
X102399801Y-121268796D02*
X102256944Y-121340225D01*
X102256944Y-121340225D02*
X101971230Y-121411653D01*
X101971230Y-121411653D02*
X101756944Y-121411653D01*
X101756944Y-121411653D02*
X101471230Y-121340225D01*
X101471230Y-121340225D02*
X101328373Y-121268796D01*
X101328373Y-121268796D02*
X101185516Y-121125939D01*
X101185516Y-121125939D02*
X101114087Y-120911653D01*
X101114087Y-120911653D02*
X101114087Y-120554510D01*
X101185516Y-123125939D02*
X101114087Y-123340225D01*
X101114087Y-123340225D02*
X101114087Y-123697367D01*
X101114087Y-123697367D02*
X101185516Y-123840225D01*
X101185516Y-123840225D02*
X101256944Y-123911653D01*
X101256944Y-123911653D02*
X101399801Y-123983082D01*
X101399801Y-123983082D02*
X101542658Y-123983082D01*
X101542658Y-123983082D02*
X101685516Y-123911653D01*
X101685516Y-123911653D02*
X101756944Y-123840225D01*
X101756944Y-123840225D02*
X101828373Y-123697367D01*
X101828373Y-123697367D02*
X101899801Y-123411653D01*
X101899801Y-123411653D02*
X101971230Y-123268796D01*
X101971230Y-123268796D02*
X102042658Y-123197367D01*
X102042658Y-123197367D02*
X102185516Y-123125939D01*
X102185516Y-123125939D02*
X102328373Y-123125939D01*
X102328373Y-123125939D02*
X102471230Y-123197367D01*
X102471230Y-123197367D02*
X102542658Y-123268796D01*
X102542658Y-123268796D02*
X102614087Y-123411653D01*
X102614087Y-123411653D02*
X102614087Y-123768796D01*
X102614087Y-123768796D02*
X102542658Y-123983082D01*
X101114087Y-124625938D02*
X102614087Y-124625938D01*
X102614087Y-124625938D02*
X102614087Y-124983081D01*
X102614087Y-124983081D02*
X102542658Y-125197367D01*
X102542658Y-125197367D02*
X102399801Y-125340224D01*
X102399801Y-125340224D02*
X102256944Y-125411653D01*
X102256944Y-125411653D02*
X101971230Y-125483081D01*
X101971230Y-125483081D02*
X101756944Y-125483081D01*
X101756944Y-125483081D02*
X101471230Y-125411653D01*
X101471230Y-125411653D02*
X101328373Y-125340224D01*
X101328373Y-125340224D02*
X101185516Y-125197367D01*
X101185516Y-125197367D02*
X101114087Y-124983081D01*
X101114087Y-124983081D02*
X101114087Y-124625938D01*
X101114087Y-126983081D02*
X101828373Y-126483081D01*
X101114087Y-126125938D02*
X102614087Y-126125938D01*
X102614087Y-126125938D02*
X102614087Y-126697367D01*
X102614087Y-126697367D02*
X102542658Y-126840224D01*
X102542658Y-126840224D02*
X102471230Y-126911653D01*
X102471230Y-126911653D02*
X102328373Y-126983081D01*
X102328373Y-126983081D02*
X102114087Y-126983081D01*
X102114087Y-126983081D02*
X101971230Y-126911653D01*
X101971230Y-126911653D02*
X101899801Y-126840224D01*
X101899801Y-126840224D02*
X101828373Y-126697367D01*
X101828373Y-126697367D02*
X101828373Y-126125938D01*
X101899801Y-129268795D02*
X101828373Y-129483081D01*
X101828373Y-129483081D02*
X101756944Y-129554510D01*
X101756944Y-129554510D02*
X101614087Y-129625938D01*
X101614087Y-129625938D02*
X101399801Y-129625938D01*
X101399801Y-129625938D02*
X101256944Y-129554510D01*
X101256944Y-129554510D02*
X101185516Y-129483081D01*
X101185516Y-129483081D02*
X101114087Y-129340224D01*
X101114087Y-129340224D02*
X101114087Y-128768795D01*
X101114087Y-128768795D02*
X102614087Y-128768795D01*
X102614087Y-128768795D02*
X102614087Y-129268795D01*
X102614087Y-129268795D02*
X102542658Y-129411653D01*
X102542658Y-129411653D02*
X102471230Y-129483081D01*
X102471230Y-129483081D02*
X102328373Y-129554510D01*
X102328373Y-129554510D02*
X102185516Y-129554510D01*
X102185516Y-129554510D02*
X102042658Y-129483081D01*
X102042658Y-129483081D02*
X101971230Y-129411653D01*
X101971230Y-129411653D02*
X101899801Y-129268795D01*
X101899801Y-129268795D02*
X101899801Y-128768795D01*
X101114087Y-130483081D02*
X101185516Y-130340224D01*
X101185516Y-130340224D02*
X101256944Y-130268795D01*
X101256944Y-130268795D02*
X101399801Y-130197367D01*
X101399801Y-130197367D02*
X101828373Y-130197367D01*
X101828373Y-130197367D02*
X101971230Y-130268795D01*
X101971230Y-130268795D02*
X102042658Y-130340224D01*
X102042658Y-130340224D02*
X102114087Y-130483081D01*
X102114087Y-130483081D02*
X102114087Y-130697367D01*
X102114087Y-130697367D02*
X102042658Y-130840224D01*
X102042658Y-130840224D02*
X101971230Y-130911653D01*
X101971230Y-130911653D02*
X101828373Y-130983081D01*
X101828373Y-130983081D02*
X101399801Y-130983081D01*
X101399801Y-130983081D02*
X101256944Y-130911653D01*
X101256944Y-130911653D02*
X101185516Y-130840224D01*
X101185516Y-130840224D02*
X101114087Y-130697367D01*
X101114087Y-130697367D02*
X101114087Y-130483081D01*
X101114087Y-132268796D02*
X101899801Y-132268796D01*
X101899801Y-132268796D02*
X102042658Y-132197367D01*
X102042658Y-132197367D02*
X102114087Y-132054510D01*
X102114087Y-132054510D02*
X102114087Y-131768796D01*
X102114087Y-131768796D02*
X102042658Y-131625938D01*
X101185516Y-132268796D02*
X101114087Y-132125938D01*
X101114087Y-132125938D02*
X101114087Y-131768796D01*
X101114087Y-131768796D02*
X101185516Y-131625938D01*
X101185516Y-131625938D02*
X101328373Y-131554510D01*
X101328373Y-131554510D02*
X101471230Y-131554510D01*
X101471230Y-131554510D02*
X101614087Y-131625938D01*
X101614087Y-131625938D02*
X101685516Y-131768796D01*
X101685516Y-131768796D02*
X101685516Y-132125938D01*
X101685516Y-132125938D02*
X101756944Y-132268796D01*
X101114087Y-132983081D02*
X102114087Y-132983081D01*
X101828373Y-132983081D02*
X101971230Y-133054510D01*
X101971230Y-133054510D02*
X102042658Y-133125939D01*
X102042658Y-133125939D02*
X102114087Y-133268796D01*
X102114087Y-133268796D02*
X102114087Y-133411653D01*
X101114087Y-134554510D02*
X102614087Y-134554510D01*
X101185516Y-134554510D02*
X101114087Y-134411652D01*
X101114087Y-134411652D02*
X101114087Y-134125938D01*
X101114087Y-134125938D02*
X101185516Y-133983081D01*
X101185516Y-133983081D02*
X101256944Y-133911652D01*
X101256944Y-133911652D02*
X101399801Y-133840224D01*
X101399801Y-133840224D02*
X101828373Y-133840224D01*
X101828373Y-133840224D02*
X101971230Y-133911652D01*
X101971230Y-133911652D02*
X102042658Y-133983081D01*
X102042658Y-133983081D02*
X102114087Y-134125938D01*
X102114087Y-134125938D02*
X102114087Y-134411652D01*
X102114087Y-134411652D02*
X102042658Y-134554510D01*
X98699171Y-117554510D02*
X100199171Y-117554510D01*
X100199171Y-117554510D02*
X100199171Y-118125939D01*
X100199171Y-118125939D02*
X100127742Y-118268796D01*
X100127742Y-118268796D02*
X100056314Y-118340225D01*
X100056314Y-118340225D02*
X99913457Y-118411653D01*
X99913457Y-118411653D02*
X99699171Y-118411653D01*
X99699171Y-118411653D02*
X99556314Y-118340225D01*
X99556314Y-118340225D02*
X99484885Y-118268796D01*
X99484885Y-118268796D02*
X99413457Y-118125939D01*
X99413457Y-118125939D02*
X99413457Y-117554510D01*
X98770600Y-119625939D02*
X98699171Y-119483082D01*
X98699171Y-119483082D02*
X98699171Y-119197368D01*
X98699171Y-119197368D02*
X98770600Y-119054510D01*
X98770600Y-119054510D02*
X98913457Y-118983082D01*
X98913457Y-118983082D02*
X99484885Y-118983082D01*
X99484885Y-118983082D02*
X99627742Y-119054510D01*
X99627742Y-119054510D02*
X99699171Y-119197368D01*
X99699171Y-119197368D02*
X99699171Y-119483082D01*
X99699171Y-119483082D02*
X99627742Y-119625939D01*
X99627742Y-119625939D02*
X99484885Y-119697368D01*
X99484885Y-119697368D02*
X99342028Y-119697368D01*
X99342028Y-119697368D02*
X99199171Y-118983082D01*
X99699171Y-120340224D02*
X98699171Y-120340224D01*
X99556314Y-120340224D02*
X99627742Y-120411653D01*
X99627742Y-120411653D02*
X99699171Y-120554510D01*
X99699171Y-120554510D02*
X99699171Y-120768796D01*
X99699171Y-120768796D02*
X99627742Y-120911653D01*
X99627742Y-120911653D02*
X99484885Y-120983082D01*
X99484885Y-120983082D02*
X98699171Y-120983082D01*
X99699171Y-121697367D02*
X98699171Y-121697367D01*
X99556314Y-121697367D02*
X99627742Y-121768796D01*
X99627742Y-121768796D02*
X99699171Y-121911653D01*
X99699171Y-121911653D02*
X99699171Y-122125939D01*
X99699171Y-122125939D02*
X99627742Y-122268796D01*
X99627742Y-122268796D02*
X99484885Y-122340225D01*
X99484885Y-122340225D02*
X98699171Y-122340225D01*
X98699171Y-123268796D02*
X98770600Y-123125939D01*
X98770600Y-123125939D02*
X98842028Y-123054510D01*
X98842028Y-123054510D02*
X98984885Y-122983082D01*
X98984885Y-122983082D02*
X99413457Y-122983082D01*
X99413457Y-122983082D02*
X99556314Y-123054510D01*
X99556314Y-123054510D02*
X99627742Y-123125939D01*
X99627742Y-123125939D02*
X99699171Y-123268796D01*
X99699171Y-123268796D02*
X99699171Y-123483082D01*
X99699171Y-123483082D02*
X99627742Y-123625939D01*
X99627742Y-123625939D02*
X99556314Y-123697368D01*
X99556314Y-123697368D02*
X99413457Y-123768796D01*
X99413457Y-123768796D02*
X98984885Y-123768796D01*
X98984885Y-123768796D02*
X98842028Y-123697368D01*
X98842028Y-123697368D02*
X98770600Y-123625939D01*
X98770600Y-123625939D02*
X98699171Y-123483082D01*
X98699171Y-123483082D02*
X98699171Y-123268796D01*
X98770600Y-125054511D02*
X98699171Y-124911653D01*
X98699171Y-124911653D02*
X98699171Y-124625939D01*
X98699171Y-124625939D02*
X98770600Y-124483082D01*
X98770600Y-124483082D02*
X98842028Y-124411653D01*
X98842028Y-124411653D02*
X98984885Y-124340225D01*
X98984885Y-124340225D02*
X99413457Y-124340225D01*
X99413457Y-124340225D02*
X99556314Y-124411653D01*
X99556314Y-124411653D02*
X99627742Y-124483082D01*
X99627742Y-124483082D02*
X99699171Y-124625939D01*
X99699171Y-124625939D02*
X99699171Y-124911653D01*
X99699171Y-124911653D02*
X99627742Y-125054511D01*
X98699171Y-125697367D02*
X100199171Y-125697367D01*
X99270600Y-125840225D02*
X98699171Y-126268796D01*
X99699171Y-126268796D02*
X99127742Y-125697367D01*
X98770600Y-126983082D02*
X98699171Y-126983082D01*
X98699171Y-126983082D02*
X98556314Y-126911653D01*
X98556314Y-126911653D02*
X98484885Y-126840225D01*
X98699171Y-129625939D02*
X99413457Y-129125939D01*
X98699171Y-128768796D02*
X100199171Y-128768796D01*
X100199171Y-128768796D02*
X100199171Y-129340225D01*
X100199171Y-129340225D02*
X100127742Y-129483082D01*
X100127742Y-129483082D02*
X100056314Y-129554511D01*
X100056314Y-129554511D02*
X99913457Y-129625939D01*
X99913457Y-129625939D02*
X99699171Y-129625939D01*
X99699171Y-129625939D02*
X99556314Y-129554511D01*
X99556314Y-129554511D02*
X99484885Y-129483082D01*
X99484885Y-129483082D02*
X99413457Y-129340225D01*
X99413457Y-129340225D02*
X99413457Y-128768796D01*
X98699171Y-130483082D02*
X98770600Y-130340225D01*
X98770600Y-130340225D02*
X98842028Y-130268796D01*
X98842028Y-130268796D02*
X98984885Y-130197368D01*
X98984885Y-130197368D02*
X99413457Y-130197368D01*
X99413457Y-130197368D02*
X99556314Y-130268796D01*
X99556314Y-130268796D02*
X99627742Y-130340225D01*
X99627742Y-130340225D02*
X99699171Y-130483082D01*
X99699171Y-130483082D02*
X99699171Y-130697368D01*
X99699171Y-130697368D02*
X99627742Y-130840225D01*
X99627742Y-130840225D02*
X99556314Y-130911654D01*
X99556314Y-130911654D02*
X99413457Y-130983082D01*
X99413457Y-130983082D02*
X98984885Y-130983082D01*
X98984885Y-130983082D02*
X98842028Y-130911654D01*
X98842028Y-130911654D02*
X98770600Y-130840225D01*
X98770600Y-130840225D02*
X98699171Y-130697368D01*
X98699171Y-130697368D02*
X98699171Y-130483082D01*
X99699171Y-132268797D02*
X98199171Y-132268797D01*
X98770600Y-132268797D02*
X98699171Y-132125939D01*
X98699171Y-132125939D02*
X98699171Y-131840225D01*
X98699171Y-131840225D02*
X98770600Y-131697368D01*
X98770600Y-131697368D02*
X98842028Y-131625939D01*
X98842028Y-131625939D02*
X98984885Y-131554511D01*
X98984885Y-131554511D02*
X99413457Y-131554511D01*
X99413457Y-131554511D02*
X99556314Y-131625939D01*
X99556314Y-131625939D02*
X99627742Y-131697368D01*
X99627742Y-131697368D02*
X99699171Y-131840225D01*
X99699171Y-131840225D02*
X99699171Y-132125939D01*
X99699171Y-132125939D02*
X99627742Y-132268797D01*
X99699171Y-133625940D02*
X98699171Y-133625940D01*
X99699171Y-132983082D02*
X98913457Y-132983082D01*
X98913457Y-132983082D02*
X98770600Y-133054511D01*
X98770600Y-133054511D02*
X98699171Y-133197368D01*
X98699171Y-133197368D02*
X98699171Y-133411654D01*
X98699171Y-133411654D02*
X98770600Y-133554511D01*
X98770600Y-133554511D02*
X98842028Y-133625940D01*
X98770600Y-134911654D02*
X98699171Y-134768797D01*
X98699171Y-134768797D02*
X98699171Y-134483083D01*
X98699171Y-134483083D02*
X98770600Y-134340225D01*
X98770600Y-134340225D02*
X98913457Y-134268797D01*
X98913457Y-134268797D02*
X99484885Y-134268797D01*
X99484885Y-134268797D02*
X99627742Y-134340225D01*
X99627742Y-134340225D02*
X99699171Y-134483083D01*
X99699171Y-134483083D02*
X99699171Y-134768797D01*
X99699171Y-134768797D02*
X99627742Y-134911654D01*
X99627742Y-134911654D02*
X99484885Y-134983083D01*
X99484885Y-134983083D02*
X99342028Y-134983083D01*
X99342028Y-134983083D02*
X99199171Y-134268797D01*
D11*
X166239347Y-133972533D02*
X167763157Y-133972533D01*
X168715537Y-133972533D02*
X170239347Y-133972533D01*
X169477442Y-134734438D02*
X169477442Y-133210628D01*
D12*
X173766666Y-114594819D02*
X173766666Y-115309104D01*
X173766666Y-115309104D02*
X173719047Y-115451961D01*
X173719047Y-115451961D02*
X173623809Y-115547200D01*
X173623809Y-115547200D02*
X173480952Y-115594819D01*
X173480952Y-115594819D02*
X173385714Y-115594819D01*
X174242857Y-115594819D02*
X174242857Y-114594819D01*
X174242857Y-114594819D02*
X174623809Y-114594819D01*
X174623809Y-114594819D02*
X174719047Y-114642438D01*
X174719047Y-114642438D02*
X174766666Y-114690057D01*
X174766666Y-114690057D02*
X174814285Y-114785295D01*
X174814285Y-114785295D02*
X174814285Y-114928152D01*
X174814285Y-114928152D02*
X174766666Y-115023390D01*
X174766666Y-115023390D02*
X174719047Y-115071009D01*
X174719047Y-115071009D02*
X174623809Y-115118628D01*
X174623809Y-115118628D02*
X174242857Y-115118628D01*
X175290476Y-115594819D02*
X175480952Y-115594819D01*
X175480952Y-115594819D02*
X175576190Y-115547200D01*
X175576190Y-115547200D02*
X175623809Y-115499580D01*
X175623809Y-115499580D02*
X175719047Y-115356723D01*
X175719047Y-115356723D02*
X175766666Y-115166247D01*
X175766666Y-115166247D02*
X175766666Y-114785295D01*
X175766666Y-114785295D02*
X175719047Y-114690057D01*
X175719047Y-114690057D02*
X175671428Y-114642438D01*
X175671428Y-114642438D02*
X175576190Y-114594819D01*
X175576190Y-114594819D02*
X175385714Y-114594819D01*
X175385714Y-114594819D02*
X175290476Y-114642438D01*
X175290476Y-114642438D02*
X175242857Y-114690057D01*
X175242857Y-114690057D02*
X175195238Y-114785295D01*
X175195238Y-114785295D02*
X175195238Y-115023390D01*
X175195238Y-115023390D02*
X175242857Y-115118628D01*
X175242857Y-115118628D02*
X175290476Y-115166247D01*
X175290476Y-115166247D02*
X175385714Y-115213866D01*
X175385714Y-115213866D02*
X175576190Y-115213866D01*
X175576190Y-115213866D02*
X175671428Y-115166247D01*
X175671428Y-115166247D02*
X175719047Y-115118628D01*
X175719047Y-115118628D02*
X175766666Y-115023390D01*
X123338095Y-115094819D02*
X123909523Y-115094819D01*
X123623809Y-116094819D02*
X123623809Y-115094819D01*
X124242857Y-116094819D02*
X124242857Y-115094819D01*
X124242857Y-115094819D02*
X124623809Y-115094819D01*
X124623809Y-115094819D02*
X124719047Y-115142438D01*
X124719047Y-115142438D02*
X124766666Y-115190057D01*
X124766666Y-115190057D02*
X124814285Y-115285295D01*
X124814285Y-115285295D02*
X124814285Y-115428152D01*
X124814285Y-115428152D02*
X124766666Y-115523390D01*
X124766666Y-115523390D02*
X124719047Y-115571009D01*
X124719047Y-115571009D02*
X124623809Y-115618628D01*
X124623809Y-115618628D02*
X124242857Y-115618628D01*
X125719047Y-115094819D02*
X125242857Y-115094819D01*
X125242857Y-115094819D02*
X125195238Y-115571009D01*
X125195238Y-115571009D02*
X125242857Y-115523390D01*
X125242857Y-115523390D02*
X125338095Y-115475771D01*
X125338095Y-115475771D02*
X125576190Y-115475771D01*
X125576190Y-115475771D02*
X125671428Y-115523390D01*
X125671428Y-115523390D02*
X125719047Y-115571009D01*
X125719047Y-115571009D02*
X125766666Y-115666247D01*
X125766666Y-115666247D02*
X125766666Y-115904342D01*
X125766666Y-115904342D02*
X125719047Y-115999580D01*
X125719047Y-115999580D02*
X125671428Y-116047200D01*
X125671428Y-116047200D02*
X125576190Y-116094819D01*
X125576190Y-116094819D02*
X125338095Y-116094819D01*
X125338095Y-116094819D02*
X125242857Y-116047200D01*
X125242857Y-116047200D02*
X125195238Y-115999580D01*
X171804819Y-140333333D02*
X172519104Y-140333333D01*
X172519104Y-140333333D02*
X172661961Y-140380952D01*
X172661961Y-140380952D02*
X172757200Y-140476190D01*
X172757200Y-140476190D02*
X172804819Y-140619047D01*
X172804819Y-140619047D02*
X172804819Y-140714285D01*
X172138152Y-139428571D02*
X172804819Y-139428571D01*
X171757200Y-139666666D02*
X172471485Y-139904761D01*
X172471485Y-139904761D02*
X172471485Y-139285714D01*
X154838095Y-61094819D02*
X154838095Y-61904342D01*
X154838095Y-61904342D02*
X154885714Y-61999580D01*
X154885714Y-61999580D02*
X154933333Y-62047200D01*
X154933333Y-62047200D02*
X155028571Y-62094819D01*
X155028571Y-62094819D02*
X155219047Y-62094819D01*
X155219047Y-62094819D02*
X155314285Y-62047200D01*
X155314285Y-62047200D02*
X155361904Y-61999580D01*
X155361904Y-61999580D02*
X155409523Y-61904342D01*
X155409523Y-61904342D02*
X155409523Y-61094819D01*
X156314285Y-61428152D02*
X156314285Y-62094819D01*
X156076190Y-61047200D02*
X155838095Y-61761485D01*
X155838095Y-61761485D02*
X156457142Y-61761485D01*
X163406667Y-132247200D02*
X163549524Y-132294819D01*
X163549524Y-132294819D02*
X163787619Y-132294819D01*
X163787619Y-132294819D02*
X163882857Y-132247200D01*
X163882857Y-132247200D02*
X163930476Y-132199580D01*
X163930476Y-132199580D02*
X163978095Y-132104342D01*
X163978095Y-132104342D02*
X163978095Y-132009104D01*
X163978095Y-132009104D02*
X163930476Y-131913866D01*
X163930476Y-131913866D02*
X163882857Y-131866247D01*
X163882857Y-131866247D02*
X163787619Y-131818628D01*
X163787619Y-131818628D02*
X163597143Y-131771009D01*
X163597143Y-131771009D02*
X163501905Y-131723390D01*
X163501905Y-131723390D02*
X163454286Y-131675771D01*
X163454286Y-131675771D02*
X163406667Y-131580533D01*
X163406667Y-131580533D02*
X163406667Y-131485295D01*
X163406667Y-131485295D02*
X163454286Y-131390057D01*
X163454286Y-131390057D02*
X163501905Y-131342438D01*
X163501905Y-131342438D02*
X163597143Y-131294819D01*
X163597143Y-131294819D02*
X163835238Y-131294819D01*
X163835238Y-131294819D02*
X163978095Y-131342438D01*
X164311429Y-131294819D02*
X164549524Y-132294819D01*
X164549524Y-132294819D02*
X164740000Y-131580533D01*
X164740000Y-131580533D02*
X164930476Y-132294819D01*
X164930476Y-132294819D02*
X165168572Y-131294819D01*
X165454286Y-131294819D02*
X166073333Y-131294819D01*
X166073333Y-131294819D02*
X165740000Y-131675771D01*
X165740000Y-131675771D02*
X165882857Y-131675771D01*
X165882857Y-131675771D02*
X165978095Y-131723390D01*
X165978095Y-131723390D02*
X166025714Y-131771009D01*
X166025714Y-131771009D02*
X166073333Y-131866247D01*
X166073333Y-131866247D02*
X166073333Y-132104342D01*
X166073333Y-132104342D02*
X166025714Y-132199580D01*
X166025714Y-132199580D02*
X165978095Y-132247200D01*
X165978095Y-132247200D02*
X165882857Y-132294819D01*
X165882857Y-132294819D02*
X165597143Y-132294819D01*
X165597143Y-132294819D02*
X165501905Y-132247200D01*
X165501905Y-132247200D02*
X165454286Y-132199580D01*
X167338095Y-72096819D02*
X167909523Y-72096819D01*
X167623809Y-73096819D02*
X167623809Y-72096819D01*
X168242857Y-73096819D02*
X168242857Y-72096819D01*
X168242857Y-72096819D02*
X168623809Y-72096819D01*
X168623809Y-72096819D02*
X168719047Y-72144438D01*
X168719047Y-72144438D02*
X168766666Y-72192057D01*
X168766666Y-72192057D02*
X168814285Y-72287295D01*
X168814285Y-72287295D02*
X168814285Y-72430152D01*
X168814285Y-72430152D02*
X168766666Y-72525390D01*
X168766666Y-72525390D02*
X168719047Y-72573009D01*
X168719047Y-72573009D02*
X168623809Y-72620628D01*
X168623809Y-72620628D02*
X168242857Y-72620628D01*
X169147619Y-72096819D02*
X169766666Y-72096819D01*
X169766666Y-72096819D02*
X169433333Y-72477771D01*
X169433333Y-72477771D02*
X169576190Y-72477771D01*
X169576190Y-72477771D02*
X169671428Y-72525390D01*
X169671428Y-72525390D02*
X169719047Y-72573009D01*
X169719047Y-72573009D02*
X169766666Y-72668247D01*
X169766666Y-72668247D02*
X169766666Y-72906342D01*
X169766666Y-72906342D02*
X169719047Y-73001580D01*
X169719047Y-73001580D02*
X169671428Y-73049200D01*
X169671428Y-73049200D02*
X169576190Y-73096819D01*
X169576190Y-73096819D02*
X169290476Y-73096819D01*
X169290476Y-73096819D02*
X169195238Y-73049200D01*
X169195238Y-73049200D02*
X169147619Y-73001580D01*
X174338095Y-72096819D02*
X174909523Y-72096819D01*
X174623809Y-73096819D02*
X174623809Y-72096819D01*
X175242857Y-73096819D02*
X175242857Y-72096819D01*
X175242857Y-72096819D02*
X175623809Y-72096819D01*
X175623809Y-72096819D02*
X175719047Y-72144438D01*
X175719047Y-72144438D02*
X175766666Y-72192057D01*
X175766666Y-72192057D02*
X175814285Y-72287295D01*
X175814285Y-72287295D02*
X175814285Y-72430152D01*
X175814285Y-72430152D02*
X175766666Y-72525390D01*
X175766666Y-72525390D02*
X175719047Y-72573009D01*
X175719047Y-72573009D02*
X175623809Y-72620628D01*
X175623809Y-72620628D02*
X175242857Y-72620628D01*
X176671428Y-72430152D02*
X176671428Y-73096819D01*
X176433333Y-72049200D02*
X176195238Y-72763485D01*
X176195238Y-72763485D02*
X176814285Y-72763485D01*
X126838095Y-82594819D02*
X127409523Y-82594819D01*
X127123809Y-83594819D02*
X127123809Y-82594819D01*
X127742857Y-83594819D02*
X127742857Y-82594819D01*
X127742857Y-82594819D02*
X128123809Y-82594819D01*
X128123809Y-82594819D02*
X128219047Y-82642438D01*
X128219047Y-82642438D02*
X128266666Y-82690057D01*
X128266666Y-82690057D02*
X128314285Y-82785295D01*
X128314285Y-82785295D02*
X128314285Y-82928152D01*
X128314285Y-82928152D02*
X128266666Y-83023390D01*
X128266666Y-83023390D02*
X128219047Y-83071009D01*
X128219047Y-83071009D02*
X128123809Y-83118628D01*
X128123809Y-83118628D02*
X127742857Y-83118628D01*
X129266666Y-83594819D02*
X128695238Y-83594819D01*
X128980952Y-83594819D02*
X128980952Y-82594819D01*
X128980952Y-82594819D02*
X128885714Y-82737676D01*
X128885714Y-82737676D02*
X128790476Y-82832914D01*
X128790476Y-82832914D02*
X128695238Y-82880533D01*
X112266666Y-79094819D02*
X112266666Y-79809104D01*
X112266666Y-79809104D02*
X112219047Y-79951961D01*
X112219047Y-79951961D02*
X112123809Y-80047200D01*
X112123809Y-80047200D02*
X111980952Y-80094819D01*
X111980952Y-80094819D02*
X111885714Y-80094819D01*
X112742857Y-80094819D02*
X112742857Y-79094819D01*
X112742857Y-79094819D02*
X113123809Y-79094819D01*
X113123809Y-79094819D02*
X113219047Y-79142438D01*
X113219047Y-79142438D02*
X113266666Y-79190057D01*
X113266666Y-79190057D02*
X113314285Y-79285295D01*
X113314285Y-79285295D02*
X113314285Y-79428152D01*
X113314285Y-79428152D02*
X113266666Y-79523390D01*
X113266666Y-79523390D02*
X113219047Y-79571009D01*
X113219047Y-79571009D02*
X113123809Y-79618628D01*
X113123809Y-79618628D02*
X112742857Y-79618628D01*
X113647619Y-79094819D02*
X114314285Y-79094819D01*
X114314285Y-79094819D02*
X113885714Y-80094819D01*
X128766666Y-88594819D02*
X128766666Y-89309104D01*
X128766666Y-89309104D02*
X128719047Y-89451961D01*
X128719047Y-89451961D02*
X128623809Y-89547200D01*
X128623809Y-89547200D02*
X128480952Y-89594819D01*
X128480952Y-89594819D02*
X128385714Y-89594819D01*
X129195238Y-88690057D02*
X129242857Y-88642438D01*
X129242857Y-88642438D02*
X129338095Y-88594819D01*
X129338095Y-88594819D02*
X129576190Y-88594819D01*
X129576190Y-88594819D02*
X129671428Y-88642438D01*
X129671428Y-88642438D02*
X129719047Y-88690057D01*
X129719047Y-88690057D02*
X129766666Y-88785295D01*
X129766666Y-88785295D02*
X129766666Y-88880533D01*
X129766666Y-88880533D02*
X129719047Y-89023390D01*
X129719047Y-89023390D02*
X129147619Y-89594819D01*
X129147619Y-89594819D02*
X129766666Y-89594819D01*
X144004819Y-67401904D02*
X144814342Y-67401904D01*
X144814342Y-67401904D02*
X144909580Y-67354285D01*
X144909580Y-67354285D02*
X144957200Y-67306666D01*
X144957200Y-67306666D02*
X145004819Y-67211428D01*
X145004819Y-67211428D02*
X145004819Y-67020952D01*
X145004819Y-67020952D02*
X144957200Y-66925714D01*
X144957200Y-66925714D02*
X144909580Y-66878095D01*
X144909580Y-66878095D02*
X144814342Y-66830476D01*
X144814342Y-66830476D02*
X144004819Y-66830476D01*
X145004819Y-65830476D02*
X145004819Y-66401904D01*
X145004819Y-66116190D02*
X144004819Y-66116190D01*
X144004819Y-66116190D02*
X144147676Y-66211428D01*
X144147676Y-66211428D02*
X144242914Y-66306666D01*
X144242914Y-66306666D02*
X144290533Y-66401904D01*
X131847200Y-127443332D02*
X131894819Y-127300475D01*
X131894819Y-127300475D02*
X131894819Y-127062380D01*
X131894819Y-127062380D02*
X131847200Y-126967142D01*
X131847200Y-126967142D02*
X131799580Y-126919523D01*
X131799580Y-126919523D02*
X131704342Y-126871904D01*
X131704342Y-126871904D02*
X131609104Y-126871904D01*
X131609104Y-126871904D02*
X131513866Y-126919523D01*
X131513866Y-126919523D02*
X131466247Y-126967142D01*
X131466247Y-126967142D02*
X131418628Y-127062380D01*
X131418628Y-127062380D02*
X131371009Y-127252856D01*
X131371009Y-127252856D02*
X131323390Y-127348094D01*
X131323390Y-127348094D02*
X131275771Y-127395713D01*
X131275771Y-127395713D02*
X131180533Y-127443332D01*
X131180533Y-127443332D02*
X131085295Y-127443332D01*
X131085295Y-127443332D02*
X130990057Y-127395713D01*
X130990057Y-127395713D02*
X130942438Y-127348094D01*
X130942438Y-127348094D02*
X130894819Y-127252856D01*
X130894819Y-127252856D02*
X130894819Y-127014761D01*
X130894819Y-127014761D02*
X130942438Y-126871904D01*
X130894819Y-126538570D02*
X131894819Y-126300475D01*
X131894819Y-126300475D02*
X131180533Y-126109999D01*
X131180533Y-126109999D02*
X131894819Y-125919523D01*
X131894819Y-125919523D02*
X130894819Y-125681428D01*
X130894819Y-124824285D02*
X130894819Y-125300475D01*
X130894819Y-125300475D02*
X131371009Y-125348094D01*
X131371009Y-125348094D02*
X131323390Y-125300475D01*
X131323390Y-125300475D02*
X131275771Y-125205237D01*
X131275771Y-125205237D02*
X131275771Y-124967142D01*
X131275771Y-124967142D02*
X131323390Y-124871904D01*
X131323390Y-124871904D02*
X131371009Y-124824285D01*
X131371009Y-124824285D02*
X131466247Y-124776666D01*
X131466247Y-124776666D02*
X131704342Y-124776666D01*
X131704342Y-124776666D02*
X131799580Y-124824285D01*
X131799580Y-124824285D02*
X131847200Y-124871904D01*
X131847200Y-124871904D02*
X131894819Y-124967142D01*
X131894819Y-124967142D02*
X131894819Y-125205237D01*
X131894819Y-125205237D02*
X131847200Y-125300475D01*
X131847200Y-125300475D02*
X131799580Y-125348094D01*
X123623809Y-98668628D02*
X123623809Y-99144819D01*
X123290476Y-98144819D02*
X123623809Y-98668628D01*
X123623809Y-98668628D02*
X123957142Y-98144819D01*
X124195238Y-98144819D02*
X124814285Y-98144819D01*
X124814285Y-98144819D02*
X124480952Y-98525771D01*
X124480952Y-98525771D02*
X124623809Y-98525771D01*
X124623809Y-98525771D02*
X124719047Y-98573390D01*
X124719047Y-98573390D02*
X124766666Y-98621009D01*
X124766666Y-98621009D02*
X124814285Y-98716247D01*
X124814285Y-98716247D02*
X124814285Y-98954342D01*
X124814285Y-98954342D02*
X124766666Y-99049580D01*
X124766666Y-99049580D02*
X124719047Y-99097200D01*
X124719047Y-99097200D02*
X124623809Y-99144819D01*
X124623809Y-99144819D02*
X124338095Y-99144819D01*
X124338095Y-99144819D02*
X124242857Y-99097200D01*
X124242857Y-99097200D02*
X124195238Y-99049580D01*
X101838095Y-89594819D02*
X101838095Y-90404342D01*
X101838095Y-90404342D02*
X101885714Y-90499580D01*
X101885714Y-90499580D02*
X101933333Y-90547200D01*
X101933333Y-90547200D02*
X102028571Y-90594819D01*
X102028571Y-90594819D02*
X102219047Y-90594819D01*
X102219047Y-90594819D02*
X102314285Y-90547200D01*
X102314285Y-90547200D02*
X102361904Y-90499580D01*
X102361904Y-90499580D02*
X102409523Y-90404342D01*
X102409523Y-90404342D02*
X102409523Y-89594819D01*
X102838095Y-89690057D02*
X102885714Y-89642438D01*
X102885714Y-89642438D02*
X102980952Y-89594819D01*
X102980952Y-89594819D02*
X103219047Y-89594819D01*
X103219047Y-89594819D02*
X103314285Y-89642438D01*
X103314285Y-89642438D02*
X103361904Y-89690057D01*
X103361904Y-89690057D02*
X103409523Y-89785295D01*
X103409523Y-89785295D02*
X103409523Y-89880533D01*
X103409523Y-89880533D02*
X103361904Y-90023390D01*
X103361904Y-90023390D02*
X102790476Y-90594819D01*
X102790476Y-90594819D02*
X103409523Y-90594819D01*
X179361905Y-121594819D02*
X179933333Y-121594819D01*
X179647619Y-122594819D02*
X179647619Y-121594819D01*
X180266667Y-122594819D02*
X180266667Y-121594819D01*
X180266667Y-121594819D02*
X180647619Y-121594819D01*
X180647619Y-121594819D02*
X180742857Y-121642438D01*
X180742857Y-121642438D02*
X180790476Y-121690057D01*
X180790476Y-121690057D02*
X180838095Y-121785295D01*
X180838095Y-121785295D02*
X180838095Y-121928152D01*
X180838095Y-121928152D02*
X180790476Y-122023390D01*
X180790476Y-122023390D02*
X180742857Y-122071009D01*
X180742857Y-122071009D02*
X180647619Y-122118628D01*
X180647619Y-122118628D02*
X180266667Y-122118628D01*
X181790476Y-122594819D02*
X181219048Y-122594819D01*
X181504762Y-122594819D02*
X181504762Y-121594819D01*
X181504762Y-121594819D02*
X181409524Y-121737676D01*
X181409524Y-121737676D02*
X181314286Y-121832914D01*
X181314286Y-121832914D02*
X181219048Y-121880533D01*
X182742857Y-122594819D02*
X182171429Y-122594819D01*
X182457143Y-122594819D02*
X182457143Y-121594819D01*
X182457143Y-121594819D02*
X182361905Y-121737676D01*
X182361905Y-121737676D02*
X182266667Y-121832914D01*
X182266667Y-121832914D02*
X182171429Y-121880533D01*
X149906667Y-123747200D02*
X150049524Y-123794819D01*
X150049524Y-123794819D02*
X150287619Y-123794819D01*
X150287619Y-123794819D02*
X150382857Y-123747200D01*
X150382857Y-123747200D02*
X150430476Y-123699580D01*
X150430476Y-123699580D02*
X150478095Y-123604342D01*
X150478095Y-123604342D02*
X150478095Y-123509104D01*
X150478095Y-123509104D02*
X150430476Y-123413866D01*
X150430476Y-123413866D02*
X150382857Y-123366247D01*
X150382857Y-123366247D02*
X150287619Y-123318628D01*
X150287619Y-123318628D02*
X150097143Y-123271009D01*
X150097143Y-123271009D02*
X150001905Y-123223390D01*
X150001905Y-123223390D02*
X149954286Y-123175771D01*
X149954286Y-123175771D02*
X149906667Y-123080533D01*
X149906667Y-123080533D02*
X149906667Y-122985295D01*
X149906667Y-122985295D02*
X149954286Y-122890057D01*
X149954286Y-122890057D02*
X150001905Y-122842438D01*
X150001905Y-122842438D02*
X150097143Y-122794819D01*
X150097143Y-122794819D02*
X150335238Y-122794819D01*
X150335238Y-122794819D02*
X150478095Y-122842438D01*
X150811429Y-122794819D02*
X151049524Y-123794819D01*
X151049524Y-123794819D02*
X151240000Y-123080533D01*
X151240000Y-123080533D02*
X151430476Y-123794819D01*
X151430476Y-123794819D02*
X151668572Y-122794819D01*
X152573333Y-123794819D02*
X152001905Y-123794819D01*
X152287619Y-123794819D02*
X152287619Y-122794819D01*
X152287619Y-122794819D02*
X152192381Y-122937676D01*
X152192381Y-122937676D02*
X152097143Y-123032914D01*
X152097143Y-123032914D02*
X152001905Y-123080533D01*
X101436666Y-115264819D02*
X101436666Y-115979104D01*
X101436666Y-115979104D02*
X101389047Y-116121961D01*
X101389047Y-116121961D02*
X101293809Y-116217200D01*
X101293809Y-116217200D02*
X101150952Y-116264819D01*
X101150952Y-116264819D02*
X101055714Y-116264819D01*
X101817619Y-115264819D02*
X102436666Y-115264819D01*
X102436666Y-115264819D02*
X102103333Y-115645771D01*
X102103333Y-115645771D02*
X102246190Y-115645771D01*
X102246190Y-115645771D02*
X102341428Y-115693390D01*
X102341428Y-115693390D02*
X102389047Y-115741009D01*
X102389047Y-115741009D02*
X102436666Y-115836247D01*
X102436666Y-115836247D02*
X102436666Y-116074342D01*
X102436666Y-116074342D02*
X102389047Y-116169580D01*
X102389047Y-116169580D02*
X102341428Y-116217200D01*
X102341428Y-116217200D02*
X102246190Y-116264819D01*
X102246190Y-116264819D02*
X101960476Y-116264819D01*
X101960476Y-116264819D02*
X101865238Y-116217200D01*
X101865238Y-116217200D02*
X101817619Y-116169580D01*
X119338095Y-71096819D02*
X119909523Y-71096819D01*
X119623809Y-72096819D02*
X119623809Y-71096819D01*
X120242857Y-72096819D02*
X120242857Y-71096819D01*
X120242857Y-71096819D02*
X120623809Y-71096819D01*
X120623809Y-71096819D02*
X120719047Y-71144438D01*
X120719047Y-71144438D02*
X120766666Y-71192057D01*
X120766666Y-71192057D02*
X120814285Y-71287295D01*
X120814285Y-71287295D02*
X120814285Y-71430152D01*
X120814285Y-71430152D02*
X120766666Y-71525390D01*
X120766666Y-71525390D02*
X120719047Y-71573009D01*
X120719047Y-71573009D02*
X120623809Y-71620628D01*
X120623809Y-71620628D02*
X120242857Y-71620628D01*
X121290476Y-72096819D02*
X121480952Y-72096819D01*
X121480952Y-72096819D02*
X121576190Y-72049200D01*
X121576190Y-72049200D02*
X121623809Y-72001580D01*
X121623809Y-72001580D02*
X121719047Y-71858723D01*
X121719047Y-71858723D02*
X121766666Y-71668247D01*
X121766666Y-71668247D02*
X121766666Y-71287295D01*
X121766666Y-71287295D02*
X121719047Y-71192057D01*
X121719047Y-71192057D02*
X121671428Y-71144438D01*
X121671428Y-71144438D02*
X121576190Y-71096819D01*
X121576190Y-71096819D02*
X121385714Y-71096819D01*
X121385714Y-71096819D02*
X121290476Y-71144438D01*
X121290476Y-71144438D02*
X121242857Y-71192057D01*
X121242857Y-71192057D02*
X121195238Y-71287295D01*
X121195238Y-71287295D02*
X121195238Y-71525390D01*
X121195238Y-71525390D02*
X121242857Y-71620628D01*
X121242857Y-71620628D02*
X121290476Y-71668247D01*
X121290476Y-71668247D02*
X121385714Y-71715866D01*
X121385714Y-71715866D02*
X121576190Y-71715866D01*
X121576190Y-71715866D02*
X121671428Y-71668247D01*
X121671428Y-71668247D02*
X121719047Y-71620628D01*
X121719047Y-71620628D02*
X121766666Y-71525390D01*
X179338095Y-127094819D02*
X179909523Y-127094819D01*
X179623809Y-128094819D02*
X179623809Y-127094819D01*
X180242857Y-128094819D02*
X180242857Y-127094819D01*
X180242857Y-127094819D02*
X180623809Y-127094819D01*
X180623809Y-127094819D02*
X180719047Y-127142438D01*
X180719047Y-127142438D02*
X180766666Y-127190057D01*
X180766666Y-127190057D02*
X180814285Y-127285295D01*
X180814285Y-127285295D02*
X180814285Y-127428152D01*
X180814285Y-127428152D02*
X180766666Y-127523390D01*
X180766666Y-127523390D02*
X180719047Y-127571009D01*
X180719047Y-127571009D02*
X180623809Y-127618628D01*
X180623809Y-127618628D02*
X180242857Y-127618628D01*
X181147619Y-127094819D02*
X181814285Y-127094819D01*
X181814285Y-127094819D02*
X181385714Y-128094819D01*
X164254819Y-119323333D02*
X164969104Y-119323333D01*
X164969104Y-119323333D02*
X165111961Y-119370952D01*
X165111961Y-119370952D02*
X165207200Y-119466190D01*
X165207200Y-119466190D02*
X165254819Y-119609047D01*
X165254819Y-119609047D02*
X165254819Y-119704285D01*
X165254819Y-118847142D02*
X164254819Y-118847142D01*
X164254819Y-118847142D02*
X164254819Y-118466190D01*
X164254819Y-118466190D02*
X164302438Y-118370952D01*
X164302438Y-118370952D02*
X164350057Y-118323333D01*
X164350057Y-118323333D02*
X164445295Y-118275714D01*
X164445295Y-118275714D02*
X164588152Y-118275714D01*
X164588152Y-118275714D02*
X164683390Y-118323333D01*
X164683390Y-118323333D02*
X164731009Y-118370952D01*
X164731009Y-118370952D02*
X164778628Y-118466190D01*
X164778628Y-118466190D02*
X164778628Y-118847142D01*
X164588152Y-117418571D02*
X165254819Y-117418571D01*
X164207200Y-117656666D02*
X164921485Y-117894761D01*
X164921485Y-117894761D02*
X164921485Y-117275714D01*
X159254819Y-117973333D02*
X159969104Y-117973333D01*
X159969104Y-117973333D02*
X160111961Y-118020952D01*
X160111961Y-118020952D02*
X160207200Y-118116190D01*
X160207200Y-118116190D02*
X160254819Y-118259047D01*
X160254819Y-118259047D02*
X160254819Y-118354285D01*
X160254819Y-117497142D02*
X159254819Y-117497142D01*
X159254819Y-117497142D02*
X159254819Y-117116190D01*
X159254819Y-117116190D02*
X159302438Y-117020952D01*
X159302438Y-117020952D02*
X159350057Y-116973333D01*
X159350057Y-116973333D02*
X159445295Y-116925714D01*
X159445295Y-116925714D02*
X159588152Y-116925714D01*
X159588152Y-116925714D02*
X159683390Y-116973333D01*
X159683390Y-116973333D02*
X159731009Y-117020952D01*
X159731009Y-117020952D02*
X159778628Y-117116190D01*
X159778628Y-117116190D02*
X159778628Y-117497142D01*
X159254819Y-116592380D02*
X159254819Y-115973333D01*
X159254819Y-115973333D02*
X159635771Y-116306666D01*
X159635771Y-116306666D02*
X159635771Y-116163809D01*
X159635771Y-116163809D02*
X159683390Y-116068571D01*
X159683390Y-116068571D02*
X159731009Y-116020952D01*
X159731009Y-116020952D02*
X159826247Y-115973333D01*
X159826247Y-115973333D02*
X160064342Y-115973333D01*
X160064342Y-115973333D02*
X160159580Y-116020952D01*
X160159580Y-116020952D02*
X160207200Y-116068571D01*
X160207200Y-116068571D02*
X160254819Y-116163809D01*
X160254819Y-116163809D02*
X160254819Y-116449523D01*
X160254819Y-116449523D02*
X160207200Y-116544761D01*
X160207200Y-116544761D02*
X160159580Y-116592380D01*
X113841666Y-73069819D02*
X113841666Y-73784104D01*
X113841666Y-73784104D02*
X113794047Y-73926961D01*
X113794047Y-73926961D02*
X113698809Y-74022200D01*
X113698809Y-74022200D02*
X113555952Y-74069819D01*
X113555952Y-74069819D02*
X113460714Y-74069819D01*
X114841666Y-74069819D02*
X114270238Y-74069819D01*
X114555952Y-74069819D02*
X114555952Y-73069819D01*
X114555952Y-73069819D02*
X114460714Y-73212676D01*
X114460714Y-73212676D02*
X114365476Y-73307914D01*
X114365476Y-73307914D02*
X114270238Y-73355533D01*
X179338095Y-116094819D02*
X179909523Y-116094819D01*
X179623809Y-117094819D02*
X179623809Y-116094819D01*
X180242857Y-117094819D02*
X180242857Y-116094819D01*
X180242857Y-116094819D02*
X180623809Y-116094819D01*
X180623809Y-116094819D02*
X180719047Y-116142438D01*
X180719047Y-116142438D02*
X180766666Y-116190057D01*
X180766666Y-116190057D02*
X180814285Y-116285295D01*
X180814285Y-116285295D02*
X180814285Y-116428152D01*
X180814285Y-116428152D02*
X180766666Y-116523390D01*
X180766666Y-116523390D02*
X180719047Y-116571009D01*
X180719047Y-116571009D02*
X180623809Y-116618628D01*
X180623809Y-116618628D02*
X180242857Y-116618628D01*
X181671428Y-116094819D02*
X181480952Y-116094819D01*
X181480952Y-116094819D02*
X181385714Y-116142438D01*
X181385714Y-116142438D02*
X181338095Y-116190057D01*
X181338095Y-116190057D02*
X181242857Y-116332914D01*
X181242857Y-116332914D02*
X181195238Y-116523390D01*
X181195238Y-116523390D02*
X181195238Y-116904342D01*
X181195238Y-116904342D02*
X181242857Y-116999580D01*
X181242857Y-116999580D02*
X181290476Y-117047200D01*
X181290476Y-117047200D02*
X181385714Y-117094819D01*
X181385714Y-117094819D02*
X181576190Y-117094819D01*
X181576190Y-117094819D02*
X181671428Y-117047200D01*
X181671428Y-117047200D02*
X181719047Y-116999580D01*
X181719047Y-116999580D02*
X181766666Y-116904342D01*
X181766666Y-116904342D02*
X181766666Y-116666247D01*
X181766666Y-116666247D02*
X181719047Y-116571009D01*
X181719047Y-116571009D02*
X181671428Y-116523390D01*
X181671428Y-116523390D02*
X181576190Y-116475771D01*
X181576190Y-116475771D02*
X181385714Y-116475771D01*
X181385714Y-116475771D02*
X181290476Y-116523390D01*
X181290476Y-116523390D02*
X181242857Y-116571009D01*
X181242857Y-116571009D02*
X181195238Y-116666247D01*
X129416666Y-78794819D02*
X129416666Y-79509104D01*
X129416666Y-79509104D02*
X129369047Y-79651961D01*
X129369047Y-79651961D02*
X129273809Y-79747200D01*
X129273809Y-79747200D02*
X129130952Y-79794819D01*
X129130952Y-79794819D02*
X129035714Y-79794819D01*
X129892857Y-79794819D02*
X129892857Y-78794819D01*
X129892857Y-78794819D02*
X130273809Y-78794819D01*
X130273809Y-78794819D02*
X130369047Y-78842438D01*
X130369047Y-78842438D02*
X130416666Y-78890057D01*
X130416666Y-78890057D02*
X130464285Y-78985295D01*
X130464285Y-78985295D02*
X130464285Y-79128152D01*
X130464285Y-79128152D02*
X130416666Y-79223390D01*
X130416666Y-79223390D02*
X130369047Y-79271009D01*
X130369047Y-79271009D02*
X130273809Y-79318628D01*
X130273809Y-79318628D02*
X129892857Y-79318628D01*
X131321428Y-78794819D02*
X131130952Y-78794819D01*
X131130952Y-78794819D02*
X131035714Y-78842438D01*
X131035714Y-78842438D02*
X130988095Y-78890057D01*
X130988095Y-78890057D02*
X130892857Y-79032914D01*
X130892857Y-79032914D02*
X130845238Y-79223390D01*
X130845238Y-79223390D02*
X130845238Y-79604342D01*
X130845238Y-79604342D02*
X130892857Y-79699580D01*
X130892857Y-79699580D02*
X130940476Y-79747200D01*
X130940476Y-79747200D02*
X131035714Y-79794819D01*
X131035714Y-79794819D02*
X131226190Y-79794819D01*
X131226190Y-79794819D02*
X131321428Y-79747200D01*
X131321428Y-79747200D02*
X131369047Y-79699580D01*
X131369047Y-79699580D02*
X131416666Y-79604342D01*
X131416666Y-79604342D02*
X131416666Y-79366247D01*
X131416666Y-79366247D02*
X131369047Y-79271009D01*
X131369047Y-79271009D02*
X131321428Y-79223390D01*
X131321428Y-79223390D02*
X131226190Y-79175771D01*
X131226190Y-79175771D02*
X131035714Y-79175771D01*
X131035714Y-79175771D02*
X130940476Y-79223390D01*
X130940476Y-79223390D02*
X130892857Y-79271009D01*
X130892857Y-79271009D02*
X130845238Y-79366247D01*
X100266666Y-77094819D02*
X100266666Y-77809104D01*
X100266666Y-77809104D02*
X100219047Y-77951961D01*
X100219047Y-77951961D02*
X100123809Y-78047200D01*
X100123809Y-78047200D02*
X99980952Y-78094819D01*
X99980952Y-78094819D02*
X99885714Y-78094819D01*
X100742857Y-78094819D02*
X100742857Y-77094819D01*
X100742857Y-77094819D02*
X101123809Y-77094819D01*
X101123809Y-77094819D02*
X101219047Y-77142438D01*
X101219047Y-77142438D02*
X101266666Y-77190057D01*
X101266666Y-77190057D02*
X101314285Y-77285295D01*
X101314285Y-77285295D02*
X101314285Y-77428152D01*
X101314285Y-77428152D02*
X101266666Y-77523390D01*
X101266666Y-77523390D02*
X101219047Y-77571009D01*
X101219047Y-77571009D02*
X101123809Y-77618628D01*
X101123809Y-77618628D02*
X100742857Y-77618628D01*
X102266666Y-78094819D02*
X101695238Y-78094819D01*
X101980952Y-78094819D02*
X101980952Y-77094819D01*
X101980952Y-77094819D02*
X101885714Y-77237676D01*
X101885714Y-77237676D02*
X101790476Y-77332914D01*
X101790476Y-77332914D02*
X101695238Y-77380533D01*
X132554819Y-63401904D02*
X132554819Y-62830476D01*
X133554819Y-63116190D02*
X132554819Y-63116190D01*
X132650057Y-62544761D02*
X132602438Y-62497142D01*
X132602438Y-62497142D02*
X132554819Y-62401904D01*
X132554819Y-62401904D02*
X132554819Y-62163809D01*
X132554819Y-62163809D02*
X132602438Y-62068571D01*
X132602438Y-62068571D02*
X132650057Y-62020952D01*
X132650057Y-62020952D02*
X132745295Y-61973333D01*
X132745295Y-61973333D02*
X132840533Y-61973333D01*
X132840533Y-61973333D02*
X132983390Y-62020952D01*
X132983390Y-62020952D02*
X133554819Y-62592380D01*
X133554819Y-62592380D02*
X133554819Y-61973333D01*
X149836667Y-130047200D02*
X149979524Y-130094819D01*
X149979524Y-130094819D02*
X150217619Y-130094819D01*
X150217619Y-130094819D02*
X150312857Y-130047200D01*
X150312857Y-130047200D02*
X150360476Y-129999580D01*
X150360476Y-129999580D02*
X150408095Y-129904342D01*
X150408095Y-129904342D02*
X150408095Y-129809104D01*
X150408095Y-129809104D02*
X150360476Y-129713866D01*
X150360476Y-129713866D02*
X150312857Y-129666247D01*
X150312857Y-129666247D02*
X150217619Y-129618628D01*
X150217619Y-129618628D02*
X150027143Y-129571009D01*
X150027143Y-129571009D02*
X149931905Y-129523390D01*
X149931905Y-129523390D02*
X149884286Y-129475771D01*
X149884286Y-129475771D02*
X149836667Y-129380533D01*
X149836667Y-129380533D02*
X149836667Y-129285295D01*
X149836667Y-129285295D02*
X149884286Y-129190057D01*
X149884286Y-129190057D02*
X149931905Y-129142438D01*
X149931905Y-129142438D02*
X150027143Y-129094819D01*
X150027143Y-129094819D02*
X150265238Y-129094819D01*
X150265238Y-129094819D02*
X150408095Y-129142438D01*
X150741429Y-129094819D02*
X150979524Y-130094819D01*
X150979524Y-130094819D02*
X151170000Y-129380533D01*
X151170000Y-129380533D02*
X151360476Y-130094819D01*
X151360476Y-130094819D02*
X151598572Y-129094819D01*
X152408095Y-129428152D02*
X152408095Y-130094819D01*
X152170000Y-129047200D02*
X151931905Y-129761485D01*
X151931905Y-129761485D02*
X152550952Y-129761485D01*
X153063095Y-70594819D02*
X153063095Y-71404342D01*
X153063095Y-71404342D02*
X153110714Y-71499580D01*
X153110714Y-71499580D02*
X153158333Y-71547200D01*
X153158333Y-71547200D02*
X153253571Y-71594819D01*
X153253571Y-71594819D02*
X153444047Y-71594819D01*
X153444047Y-71594819D02*
X153539285Y-71547200D01*
X153539285Y-71547200D02*
X153586904Y-71499580D01*
X153586904Y-71499580D02*
X153634523Y-71404342D01*
X153634523Y-71404342D02*
X153634523Y-70594819D01*
X154586904Y-70594819D02*
X154110714Y-70594819D01*
X154110714Y-70594819D02*
X154063095Y-71071009D01*
X154063095Y-71071009D02*
X154110714Y-71023390D01*
X154110714Y-71023390D02*
X154205952Y-70975771D01*
X154205952Y-70975771D02*
X154444047Y-70975771D01*
X154444047Y-70975771D02*
X154539285Y-71023390D01*
X154539285Y-71023390D02*
X154586904Y-71071009D01*
X154586904Y-71071009D02*
X154634523Y-71166247D01*
X154634523Y-71166247D02*
X154634523Y-71404342D01*
X154634523Y-71404342D02*
X154586904Y-71499580D01*
X154586904Y-71499580D02*
X154539285Y-71547200D01*
X154539285Y-71547200D02*
X154444047Y-71594819D01*
X154444047Y-71594819D02*
X154205952Y-71594819D01*
X154205952Y-71594819D02*
X154110714Y-71547200D01*
X154110714Y-71547200D02*
X154063095Y-71499580D01*
X135838095Y-79594819D02*
X136409523Y-79594819D01*
X136123809Y-80594819D02*
X136123809Y-79594819D01*
X136742857Y-80594819D02*
X136742857Y-79594819D01*
X136742857Y-79594819D02*
X137123809Y-79594819D01*
X137123809Y-79594819D02*
X137219047Y-79642438D01*
X137219047Y-79642438D02*
X137266666Y-79690057D01*
X137266666Y-79690057D02*
X137314285Y-79785295D01*
X137314285Y-79785295D02*
X137314285Y-79928152D01*
X137314285Y-79928152D02*
X137266666Y-80023390D01*
X137266666Y-80023390D02*
X137219047Y-80071009D01*
X137219047Y-80071009D02*
X137123809Y-80118628D01*
X137123809Y-80118628D02*
X136742857Y-80118628D01*
X137695238Y-79690057D02*
X137742857Y-79642438D01*
X137742857Y-79642438D02*
X137838095Y-79594819D01*
X137838095Y-79594819D02*
X138076190Y-79594819D01*
X138076190Y-79594819D02*
X138171428Y-79642438D01*
X138171428Y-79642438D02*
X138219047Y-79690057D01*
X138219047Y-79690057D02*
X138266666Y-79785295D01*
X138266666Y-79785295D02*
X138266666Y-79880533D01*
X138266666Y-79880533D02*
X138219047Y-80023390D01*
X138219047Y-80023390D02*
X137647619Y-80594819D01*
X137647619Y-80594819D02*
X138266666Y-80594819D01*
X118354819Y-82623333D02*
X119069104Y-82623333D01*
X119069104Y-82623333D02*
X119211961Y-82670952D01*
X119211961Y-82670952D02*
X119307200Y-82766190D01*
X119307200Y-82766190D02*
X119354819Y-82909047D01*
X119354819Y-82909047D02*
X119354819Y-83004285D01*
X119354819Y-82147142D02*
X118354819Y-82147142D01*
X118354819Y-82147142D02*
X118354819Y-81766190D01*
X118354819Y-81766190D02*
X118402438Y-81670952D01*
X118402438Y-81670952D02*
X118450057Y-81623333D01*
X118450057Y-81623333D02*
X118545295Y-81575714D01*
X118545295Y-81575714D02*
X118688152Y-81575714D01*
X118688152Y-81575714D02*
X118783390Y-81623333D01*
X118783390Y-81623333D02*
X118831009Y-81670952D01*
X118831009Y-81670952D02*
X118878628Y-81766190D01*
X118878628Y-81766190D02*
X118878628Y-82147142D01*
X118783390Y-81004285D02*
X118735771Y-81099523D01*
X118735771Y-81099523D02*
X118688152Y-81147142D01*
X118688152Y-81147142D02*
X118592914Y-81194761D01*
X118592914Y-81194761D02*
X118545295Y-81194761D01*
X118545295Y-81194761D02*
X118450057Y-81147142D01*
X118450057Y-81147142D02*
X118402438Y-81099523D01*
X118402438Y-81099523D02*
X118354819Y-81004285D01*
X118354819Y-81004285D02*
X118354819Y-80813809D01*
X118354819Y-80813809D02*
X118402438Y-80718571D01*
X118402438Y-80718571D02*
X118450057Y-80670952D01*
X118450057Y-80670952D02*
X118545295Y-80623333D01*
X118545295Y-80623333D02*
X118592914Y-80623333D01*
X118592914Y-80623333D02*
X118688152Y-80670952D01*
X118688152Y-80670952D02*
X118735771Y-80718571D01*
X118735771Y-80718571D02*
X118783390Y-80813809D01*
X118783390Y-80813809D02*
X118783390Y-81004285D01*
X118783390Y-81004285D02*
X118831009Y-81099523D01*
X118831009Y-81099523D02*
X118878628Y-81147142D01*
X118878628Y-81147142D02*
X118973866Y-81194761D01*
X118973866Y-81194761D02*
X119164342Y-81194761D01*
X119164342Y-81194761D02*
X119259580Y-81147142D01*
X119259580Y-81147142D02*
X119307200Y-81099523D01*
X119307200Y-81099523D02*
X119354819Y-81004285D01*
X119354819Y-81004285D02*
X119354819Y-80813809D01*
X119354819Y-80813809D02*
X119307200Y-80718571D01*
X119307200Y-80718571D02*
X119259580Y-80670952D01*
X119259580Y-80670952D02*
X119164342Y-80623333D01*
X119164342Y-80623333D02*
X118973866Y-80623333D01*
X118973866Y-80623333D02*
X118878628Y-80670952D01*
X118878628Y-80670952D02*
X118831009Y-80718571D01*
X118831009Y-80718571D02*
X118783390Y-80813809D01*
X154254819Y-117973333D02*
X154969104Y-117973333D01*
X154969104Y-117973333D02*
X155111961Y-118020952D01*
X155111961Y-118020952D02*
X155207200Y-118116190D01*
X155207200Y-118116190D02*
X155254819Y-118259047D01*
X155254819Y-118259047D02*
X155254819Y-118354285D01*
X155254819Y-117497142D02*
X154254819Y-117497142D01*
X154254819Y-117497142D02*
X154254819Y-117116190D01*
X154254819Y-117116190D02*
X154302438Y-117020952D01*
X154302438Y-117020952D02*
X154350057Y-116973333D01*
X154350057Y-116973333D02*
X154445295Y-116925714D01*
X154445295Y-116925714D02*
X154588152Y-116925714D01*
X154588152Y-116925714D02*
X154683390Y-116973333D01*
X154683390Y-116973333D02*
X154731009Y-117020952D01*
X154731009Y-117020952D02*
X154778628Y-117116190D01*
X154778628Y-117116190D02*
X154778628Y-117497142D01*
X154350057Y-116544761D02*
X154302438Y-116497142D01*
X154302438Y-116497142D02*
X154254819Y-116401904D01*
X154254819Y-116401904D02*
X154254819Y-116163809D01*
X154254819Y-116163809D02*
X154302438Y-116068571D01*
X154302438Y-116068571D02*
X154350057Y-116020952D01*
X154350057Y-116020952D02*
X154445295Y-115973333D01*
X154445295Y-115973333D02*
X154540533Y-115973333D01*
X154540533Y-115973333D02*
X154683390Y-116020952D01*
X154683390Y-116020952D02*
X155254819Y-116592380D01*
X155254819Y-116592380D02*
X155254819Y-115973333D01*
X164838095Y-79094819D02*
X164838095Y-79904342D01*
X164838095Y-79904342D02*
X164885714Y-79999580D01*
X164885714Y-79999580D02*
X164933333Y-80047200D01*
X164933333Y-80047200D02*
X165028571Y-80094819D01*
X165028571Y-80094819D02*
X165219047Y-80094819D01*
X165219047Y-80094819D02*
X165314285Y-80047200D01*
X165314285Y-80047200D02*
X165361904Y-79999580D01*
X165361904Y-79999580D02*
X165409523Y-79904342D01*
X165409523Y-79904342D02*
X165409523Y-79094819D01*
X165790476Y-79094819D02*
X166409523Y-79094819D01*
X166409523Y-79094819D02*
X166076190Y-79475771D01*
X166076190Y-79475771D02*
X166219047Y-79475771D01*
X166219047Y-79475771D02*
X166314285Y-79523390D01*
X166314285Y-79523390D02*
X166361904Y-79571009D01*
X166361904Y-79571009D02*
X166409523Y-79666247D01*
X166409523Y-79666247D02*
X166409523Y-79904342D01*
X166409523Y-79904342D02*
X166361904Y-79999580D01*
X166361904Y-79999580D02*
X166314285Y-80047200D01*
X166314285Y-80047200D02*
X166219047Y-80094819D01*
X166219047Y-80094819D02*
X165933333Y-80094819D01*
X165933333Y-80094819D02*
X165838095Y-80047200D01*
X165838095Y-80047200D02*
X165790476Y-79999580D01*
X136406667Y-132247200D02*
X136549524Y-132294819D01*
X136549524Y-132294819D02*
X136787619Y-132294819D01*
X136787619Y-132294819D02*
X136882857Y-132247200D01*
X136882857Y-132247200D02*
X136930476Y-132199580D01*
X136930476Y-132199580D02*
X136978095Y-132104342D01*
X136978095Y-132104342D02*
X136978095Y-132009104D01*
X136978095Y-132009104D02*
X136930476Y-131913866D01*
X136930476Y-131913866D02*
X136882857Y-131866247D01*
X136882857Y-131866247D02*
X136787619Y-131818628D01*
X136787619Y-131818628D02*
X136597143Y-131771009D01*
X136597143Y-131771009D02*
X136501905Y-131723390D01*
X136501905Y-131723390D02*
X136454286Y-131675771D01*
X136454286Y-131675771D02*
X136406667Y-131580533D01*
X136406667Y-131580533D02*
X136406667Y-131485295D01*
X136406667Y-131485295D02*
X136454286Y-131390057D01*
X136454286Y-131390057D02*
X136501905Y-131342438D01*
X136501905Y-131342438D02*
X136597143Y-131294819D01*
X136597143Y-131294819D02*
X136835238Y-131294819D01*
X136835238Y-131294819D02*
X136978095Y-131342438D01*
X137311429Y-131294819D02*
X137549524Y-132294819D01*
X137549524Y-132294819D02*
X137740000Y-131580533D01*
X137740000Y-131580533D02*
X137930476Y-132294819D01*
X137930476Y-132294819D02*
X138168572Y-131294819D01*
X138501905Y-131390057D02*
X138549524Y-131342438D01*
X138549524Y-131342438D02*
X138644762Y-131294819D01*
X138644762Y-131294819D02*
X138882857Y-131294819D01*
X138882857Y-131294819D02*
X138978095Y-131342438D01*
X138978095Y-131342438D02*
X139025714Y-131390057D01*
X139025714Y-131390057D02*
X139073333Y-131485295D01*
X139073333Y-131485295D02*
X139073333Y-131580533D01*
X139073333Y-131580533D02*
X139025714Y-131723390D01*
X139025714Y-131723390D02*
X138454286Y-132294819D01*
X138454286Y-132294819D02*
X139073333Y-132294819D01*
X116361905Y-84594819D02*
X116933333Y-84594819D01*
X116647619Y-85594819D02*
X116647619Y-84594819D01*
X117266667Y-85594819D02*
X117266667Y-84594819D01*
X117266667Y-84594819D02*
X117647619Y-84594819D01*
X117647619Y-84594819D02*
X117742857Y-84642438D01*
X117742857Y-84642438D02*
X117790476Y-84690057D01*
X117790476Y-84690057D02*
X117838095Y-84785295D01*
X117838095Y-84785295D02*
X117838095Y-84928152D01*
X117838095Y-84928152D02*
X117790476Y-85023390D01*
X117790476Y-85023390D02*
X117742857Y-85071009D01*
X117742857Y-85071009D02*
X117647619Y-85118628D01*
X117647619Y-85118628D02*
X117266667Y-85118628D01*
X118790476Y-85594819D02*
X118219048Y-85594819D01*
X118504762Y-85594819D02*
X118504762Y-84594819D01*
X118504762Y-84594819D02*
X118409524Y-84737676D01*
X118409524Y-84737676D02*
X118314286Y-84832914D01*
X118314286Y-84832914D02*
X118219048Y-84880533D01*
X119409524Y-84594819D02*
X119504762Y-84594819D01*
X119504762Y-84594819D02*
X119600000Y-84642438D01*
X119600000Y-84642438D02*
X119647619Y-84690057D01*
X119647619Y-84690057D02*
X119695238Y-84785295D01*
X119695238Y-84785295D02*
X119742857Y-84975771D01*
X119742857Y-84975771D02*
X119742857Y-85213866D01*
X119742857Y-85213866D02*
X119695238Y-85404342D01*
X119695238Y-85404342D02*
X119647619Y-85499580D01*
X119647619Y-85499580D02*
X119600000Y-85547200D01*
X119600000Y-85547200D02*
X119504762Y-85594819D01*
X119504762Y-85594819D02*
X119409524Y-85594819D01*
X119409524Y-85594819D02*
X119314286Y-85547200D01*
X119314286Y-85547200D02*
X119266667Y-85499580D01*
X119266667Y-85499580D02*
X119219048Y-85404342D01*
X119219048Y-85404342D02*
X119171429Y-85213866D01*
X119171429Y-85213866D02*
X119171429Y-84975771D01*
X119171429Y-84975771D02*
X119219048Y-84785295D01*
X119219048Y-84785295D02*
X119266667Y-84690057D01*
X119266667Y-84690057D02*
X119314286Y-84642438D01*
X119314286Y-84642438D02*
X119409524Y-84594819D01*
X134855895Y-114286660D02*
X134855895Y-114762850D01*
X134570180Y-114191422D02*
X135570180Y-114524755D01*
X135570180Y-114524755D02*
X134570180Y-114858088D01*
X134570180Y-115715231D02*
X134570180Y-115143803D01*
X134570180Y-115429517D02*
X135570180Y-115429517D01*
X135570180Y-115429517D02*
X135427323Y-115334279D01*
X135427323Y-115334279D02*
X135332085Y-115239041D01*
X135332085Y-115239041D02*
X135284466Y-115143803D01*
X120766666Y-82394819D02*
X120766666Y-83109104D01*
X120766666Y-83109104D02*
X120719047Y-83251961D01*
X120719047Y-83251961D02*
X120623809Y-83347200D01*
X120623809Y-83347200D02*
X120480952Y-83394819D01*
X120480952Y-83394819D02*
X120385714Y-83394819D01*
X121242857Y-83394819D02*
X121242857Y-82394819D01*
X121242857Y-82394819D02*
X121623809Y-82394819D01*
X121623809Y-82394819D02*
X121719047Y-82442438D01*
X121719047Y-82442438D02*
X121766666Y-82490057D01*
X121766666Y-82490057D02*
X121814285Y-82585295D01*
X121814285Y-82585295D02*
X121814285Y-82728152D01*
X121814285Y-82728152D02*
X121766666Y-82823390D01*
X121766666Y-82823390D02*
X121719047Y-82871009D01*
X121719047Y-82871009D02*
X121623809Y-82918628D01*
X121623809Y-82918628D02*
X121242857Y-82918628D01*
X122719047Y-82394819D02*
X122242857Y-82394819D01*
X122242857Y-82394819D02*
X122195238Y-82871009D01*
X122195238Y-82871009D02*
X122242857Y-82823390D01*
X122242857Y-82823390D02*
X122338095Y-82775771D01*
X122338095Y-82775771D02*
X122576190Y-82775771D01*
X122576190Y-82775771D02*
X122671428Y-82823390D01*
X122671428Y-82823390D02*
X122719047Y-82871009D01*
X122719047Y-82871009D02*
X122766666Y-82966247D01*
X122766666Y-82966247D02*
X122766666Y-83204342D01*
X122766666Y-83204342D02*
X122719047Y-83299580D01*
X122719047Y-83299580D02*
X122671428Y-83347200D01*
X122671428Y-83347200D02*
X122576190Y-83394819D01*
X122576190Y-83394819D02*
X122338095Y-83394819D01*
X122338095Y-83394819D02*
X122242857Y-83347200D01*
X122242857Y-83347200D02*
X122195238Y-83299580D01*
X117623809Y-93618628D02*
X117623809Y-94094819D01*
X117290476Y-93094819D02*
X117623809Y-93618628D01*
X117623809Y-93618628D02*
X117957142Y-93094819D01*
X118814285Y-94094819D02*
X118242857Y-94094819D01*
X118528571Y-94094819D02*
X118528571Y-93094819D01*
X118528571Y-93094819D02*
X118433333Y-93237676D01*
X118433333Y-93237676D02*
X118338095Y-93332914D01*
X118338095Y-93332914D02*
X118242857Y-93380533D01*
%TO.C,JP9*%
D13*
X172600000Y-117990000D02*
X172600000Y-116590000D01*
X173300000Y-115890000D02*
X173900000Y-115890000D01*
X173900000Y-118690000D02*
X173300000Y-118690000D01*
X174600000Y-116590000D02*
X174600000Y-117990000D01*
X172600000Y-116590000D02*
G75*
G02*
X173300000Y-115890000I700000J0D01*
G01*
X173300000Y-118690000D02*
G75*
G02*
X172600000Y-117990000I-1J699999D01*
G01*
X173900000Y-115890000D02*
G75*
G02*
X174600000Y-116590000I0J-700000D01*
G01*
X174600000Y-117990000D02*
G75*
G02*
X173900000Y-118690000I-699999J-1D01*
G01*
%TO.C,TP5*%
X128800000Y-115640000D02*
G75*
G02*
X126400000Y-115640000I-1200000J0D01*
G01*
X126400000Y-115640000D02*
G75*
G02*
X128800000Y-115640000I1200000J0D01*
G01*
%TO.C,J4*%
X166545000Y-138032358D02*
X166545000Y-138345000D01*
X166545000Y-147105000D02*
X166545000Y-141105000D01*
X167405000Y-138032358D02*
X167405000Y-138345000D01*
X167405000Y-141105000D02*
X167405000Y-147105000D01*
X167405000Y-147105000D02*
X166545000Y-147105000D01*
X168245000Y-138345000D02*
X168245000Y-141105000D01*
X169085000Y-138115000D02*
X169085000Y-138345000D01*
X169515000Y-135685000D02*
X170785000Y-135685000D01*
X169945000Y-138115000D02*
X169945000Y-138345000D01*
X170785000Y-135685000D02*
X170785000Y-136955000D01*
X169085000Y-141105000D02*
X169945000Y-141105000D01*
X169945000Y-147105000D01*
X169085000Y-147105000D01*
X169085000Y-141105000D01*
G36*
X169085000Y-141105000D02*
G01*
X169945000Y-141105000D01*
X169945000Y-147105000D01*
X169085000Y-147105000D01*
X169085000Y-141105000D01*
G37*
X165595000Y-138345000D02*
X170895000Y-138345000D01*
X170895000Y-141105000D01*
X165595000Y-141105000D01*
X165595000Y-138345000D01*
%TO.C,U4*%
X154790000Y-64640000D02*
X154790000Y-62640000D01*
X156910000Y-64640000D02*
X156910000Y-62640000D01*
X157210000Y-62350000D02*
X156930000Y-62350000D01*
X156930000Y-62070000D01*
X157210000Y-62350000D01*
G36*
X157210000Y-62350000D02*
G01*
X156930000Y-62350000D01*
X156930000Y-62070000D01*
X157210000Y-62350000D01*
G37*
%TO.C,SW3*%
D14*
X158440000Y-130340000D02*
X158440000Y-130410000D01*
X158440000Y-130340000D02*
X162040000Y-130340000D01*
X158440000Y-131670000D02*
X158440000Y-132010000D01*
X158440000Y-133270000D02*
X158440000Y-133340000D01*
X158440000Y-133340000D02*
X162040000Y-133340000D01*
X162040000Y-130340000D02*
X162040000Y-130410000D01*
X162040000Y-131670000D02*
X162040000Y-132010000D01*
X162040000Y-133270000D02*
X162040000Y-133340000D01*
D15*
X157940000Y-130340000D02*
G75*
G02*
X157880000Y-130340000I-30000J0D01*
G01*
X157880000Y-130340000D02*
G75*
G02*
X157940000Y-130340000I30000J0D01*
G01*
D14*
X161230000Y-131840000D02*
G75*
G02*
X159250000Y-131840000I-990000J0D01*
G01*
X159250000Y-131840000D02*
G75*
G02*
X161230000Y-131840000I990000J0D01*
G01*
%TO.C,D1*%
D12*
X118100000Y-64330000D02*
X118100000Y-68190000D01*
X120100000Y-64330000D02*
X118100000Y-64330000D01*
X120100000Y-64330000D02*
X120100000Y-68190000D01*
%TO.C,FB18*%
X124200000Y-96080000D02*
X125000000Y-96080000D01*
X124200000Y-97200000D02*
X125000000Y-97200000D01*
%TO.C,TP3*%
D13*
X169800000Y-74640000D02*
G75*
G02*
X167400000Y-74640000I-1200000J0D01*
G01*
X167400000Y-74640000D02*
G75*
G02*
X169800000Y-74640000I1200000J0D01*
G01*
%TO.C,TP4*%
X176800000Y-74640000D02*
G75*
G02*
X174400000Y-74640000I-1200000J0D01*
G01*
X174400000Y-74640000D02*
G75*
G02*
X176800000Y-74640000I1200000J0D01*
G01*
%TO.C,FB14*%
D12*
X162540000Y-69600000D02*
X162540000Y-68800000D01*
X163660000Y-69600000D02*
X163660000Y-68800000D01*
%TO.C,TP1*%
D13*
X126300000Y-82640000D02*
G75*
G02*
X123900000Y-82640000I-1200000J0D01*
G01*
X123900000Y-82640000D02*
G75*
G02*
X126300000Y-82640000I1200000J0D01*
G01*
%TO.C,JP7*%
X112600000Y-82690000D02*
X112600000Y-81290000D01*
X113300000Y-80590000D02*
X113900000Y-80590000D01*
X113900000Y-83390000D02*
X113300000Y-83390000D01*
X114600000Y-81290000D02*
X114600000Y-82690000D01*
X112600000Y-81290000D02*
G75*
G02*
X113300000Y-80590000I699999J1D01*
G01*
X113300000Y-83390000D02*
G75*
G02*
X112600000Y-82690000I0J700000D01*
G01*
X113900000Y-80590000D02*
G75*
G02*
X114600000Y-81290000I1J-699999D01*
G01*
X114600000Y-82690000D02*
G75*
G02*
X113900000Y-83390000I-700000J0D01*
G01*
%TO.C,J2*%
X127960000Y-85310000D02*
X129290000Y-85310000D01*
X127960000Y-86640000D02*
X127960000Y-85310000D01*
X130560000Y-85310000D02*
X138240000Y-85310000D01*
X130560000Y-87970000D02*
X130560000Y-85310000D01*
X130560000Y-87970000D02*
X138240000Y-87970000D01*
X138240000Y-87970000D02*
X138240000Y-85310000D01*
%TO.C,U1*%
X138365000Y-68950000D02*
X138365000Y-64330000D01*
X143835000Y-64330000D02*
X143835000Y-68950000D01*
X143380000Y-62780000D02*
X143140000Y-62450000D01*
X143620000Y-62450000D01*
X143380000Y-62780000D01*
G36*
X143380000Y-62780000D02*
G01*
X143140000Y-62450000D01*
X143620000Y-62450000D01*
X143380000Y-62780000D01*
G37*
%TO.C,SW5*%
D14*
X116600000Y-137400000D02*
X116600000Y-125600000D01*
X116600000Y-137400000D02*
X120430000Y-137400000D01*
X120430000Y-125600000D02*
X116600000Y-125600000D01*
X120430000Y-125600000D02*
X116600000Y-125600000D01*
X120570000Y-126710000D02*
X120570000Y-127690000D01*
X120570000Y-136290000D02*
X120570000Y-135470000D01*
X123620000Y-128710000D02*
X123620000Y-134290000D01*
X124630000Y-127450000D02*
X124630000Y-126710000D01*
X124630000Y-136290000D02*
X124630000Y-135470000D01*
X124770000Y-137400000D02*
X128600000Y-137400000D01*
X128600000Y-125600000D02*
X124770000Y-125600000D01*
X128600000Y-125600000D02*
X124770000Y-125600000D01*
X128600000Y-125600000D02*
X128600000Y-128430000D01*
X128600000Y-129490000D02*
X128600000Y-133510000D01*
X128600000Y-134570000D02*
X128600000Y-137400000D01*
X123612711Y-133284075D02*
G75*
G02*
X123620000Y-129720000I-992711J1784075D01*
G01*
X125650000Y-131500000D02*
G75*
G02*
X119550000Y-131500000I-3050000J0D01*
G01*
X119550000Y-131500000D02*
G75*
G02*
X125650000Y-131500000I3050000J0D01*
G01*
X125950000Y-131500000D02*
G75*
G02*
X119250000Y-131500000I-3350000J0D01*
G01*
X119250000Y-131500000D02*
G75*
G02*
X125950000Y-131500000I3350000J0D01*
G01*
X126930000Y-131500000D02*
G75*
G02*
X118270000Y-131500000I-4330000J0D01*
G01*
X118270000Y-131500000D02*
G75*
G02*
X126930000Y-131500000I4330000J0D01*
G01*
D15*
X130530000Y-138150000D02*
G75*
G02*
X130470000Y-138150000I-30000J0D01*
G01*
X130470000Y-138150000D02*
G75*
G02*
X130530000Y-138150000I30000J0D01*
G01*
%TO.C,FB12*%
D12*
X140040000Y-77040000D02*
X140040000Y-76240000D01*
X141160000Y-77040000D02*
X141160000Y-76240000D01*
%TO.C,Y3*%
D13*
X122140000Y-99505000D02*
X122140000Y-102775000D01*
X122140000Y-102775000D02*
X126060000Y-102775000D01*
%TO.C,U2*%
D16*
X103720000Y-88740000D02*
X112480000Y-88740000D01*
X103720000Y-91540000D02*
X103720000Y-88740000D01*
X112480000Y-88740000D02*
X112480000Y-91540000D01*
X112480000Y-91540000D02*
X103720000Y-91540000D01*
D10*
X112060000Y-89370000D02*
G75*
G02*
X111760000Y-89370000I-150000J0D01*
G01*
X111760000Y-89370000D02*
G75*
G02*
X112060000Y-89370000I150000J0D01*
G01*
X112060000Y-89370000D02*
G75*
G02*
X111760000Y-89370000I-150000J0D01*
G01*
X111760000Y-89370000D02*
G75*
G02*
X112060000Y-89370000I150000J0D01*
G01*
D15*
X112460000Y-87140000D02*
G75*
G02*
X112400000Y-87140000I-30000J0D01*
G01*
X112400000Y-87140000D02*
G75*
G02*
X112460000Y-87140000I30000J0D01*
G01*
X112460000Y-87140000D02*
G75*
G02*
X112400000Y-87140000I-30000J0D01*
G01*
X112400000Y-87140000D02*
G75*
G02*
X112460000Y-87140000I30000J0D01*
G01*
D10*
X112800000Y-87370000D02*
G75*
G02*
X112500000Y-87370000I-150000J0D01*
G01*
X112500000Y-87370000D02*
G75*
G02*
X112800000Y-87370000I150000J0D01*
G01*
X112800000Y-87370000D02*
G75*
G02*
X112500000Y-87370000I-150000J0D01*
G01*
X112500000Y-87370000D02*
G75*
G02*
X112800000Y-87370000I150000J0D01*
G01*
%TO.C,FB13*%
D12*
X158040000Y-71040000D02*
X158040000Y-70240000D01*
X159160000Y-71040000D02*
X159160000Y-70240000D01*
%TO.C,TP11*%
D13*
X178800000Y-122140000D02*
G75*
G02*
X176400000Y-122140000I-1200000J0D01*
G01*
X176400000Y-122140000D02*
G75*
G02*
X178800000Y-122140000I1200000J0D01*
G01*
%TO.C,SW1*%
D14*
X149440000Y-124340000D02*
X149440000Y-124410000D01*
X149440000Y-124340000D02*
X153040000Y-124340000D01*
X149440000Y-125670000D02*
X149440000Y-126010000D01*
X149440000Y-127270000D02*
X149440000Y-127340000D01*
X149440000Y-127340000D02*
X153040000Y-127340000D01*
X153040000Y-124340000D02*
X153040000Y-124410000D01*
X153040000Y-125670000D02*
X153040000Y-126010000D01*
X153040000Y-127270000D02*
X153040000Y-127340000D01*
D15*
X148940000Y-124340000D02*
G75*
G02*
X148880000Y-124340000I-30000J0D01*
G01*
X148880000Y-124340000D02*
G75*
G02*
X148940000Y-124340000I30000J0D01*
G01*
D14*
X152230000Y-125840000D02*
G75*
G02*
X150250000Y-125840000I-990000J0D01*
G01*
X150250000Y-125840000D02*
G75*
G02*
X152230000Y-125840000I990000J0D01*
G01*
%TO.C,J3*%
D13*
X99170000Y-111770000D02*
X99170000Y-96470000D01*
X99170000Y-114370000D02*
X99170000Y-113040000D01*
X100500000Y-114370000D02*
X99170000Y-114370000D01*
X101770000Y-111770000D02*
X99170000Y-111770000D01*
X101770000Y-114370000D02*
X101770000Y-111770000D01*
X104370000Y-96470000D02*
X99170000Y-96470000D01*
X104370000Y-114370000D02*
X101770000Y-114370000D01*
X104370000Y-114370000D02*
X104370000Y-96470000D01*
%TO.C,TP9*%
X121800000Y-73640000D02*
G75*
G02*
X119400000Y-73640000I-1200000J0D01*
G01*
X119400000Y-73640000D02*
G75*
G02*
X121800000Y-73640000I1200000J0D01*
G01*
%TO.C,FB16*%
D12*
X168140000Y-70580000D02*
X168940000Y-70580000D01*
X168140000Y-71700000D02*
X168940000Y-71700000D01*
%TO.C,TP7*%
D13*
X178800000Y-127640000D02*
G75*
G02*
X176400000Y-127640000I-1200000J0D01*
G01*
X176400000Y-127640000D02*
G75*
G02*
X178800000Y-127640000I1200000J0D01*
G01*
%TO.C,FB11*%
D12*
X137440000Y-76900000D02*
X136640000Y-76900000D01*
X137440000Y-78020000D02*
X136640000Y-78020000D01*
%TO.C,FB19*%
X120200000Y-96080000D02*
X121000000Y-96080000D01*
X120200000Y-97200000D02*
X121000000Y-97200000D01*
%TO.C,JP4*%
D13*
X165600000Y-119190000D02*
X165600000Y-117790000D01*
X166300000Y-117090000D02*
X166900000Y-117090000D01*
X166900000Y-119890000D02*
X166300000Y-119890000D01*
X167600000Y-117790000D02*
X167600000Y-119190000D01*
X165600000Y-117790000D02*
G75*
G02*
X166300000Y-117090000I700000J0D01*
G01*
X166300000Y-119890000D02*
G75*
G02*
X165600000Y-119190000I-1J699999D01*
G01*
X166900000Y-117090000D02*
G75*
G02*
X167600000Y-117790000I0J-700000D01*
G01*
X167600000Y-119190000D02*
G75*
G02*
X166900000Y-119890000I-699999J-1D01*
G01*
%TO.C,JP3*%
X160600000Y-117840000D02*
X160600000Y-116440000D01*
X161300000Y-115740000D02*
X161900000Y-115740000D01*
X161900000Y-118540000D02*
X161300000Y-118540000D01*
X162600000Y-116440000D02*
X162600000Y-117840000D01*
X160600000Y-116440000D02*
G75*
G02*
X161300000Y-115740000I700000J0D01*
G01*
X161300000Y-118540000D02*
G75*
G02*
X160600000Y-117840000I-1J699999D01*
G01*
X161900000Y-115740000D02*
G75*
G02*
X162600000Y-116440000I0J-700000D01*
G01*
X162600000Y-117840000D02*
G75*
G02*
X161900000Y-118540000I-699999J-1D01*
G01*
%TO.C,J1*%
X99945000Y-63790000D02*
X99945000Y-69440000D01*
X102850000Y-72345000D02*
X108500000Y-72345000D01*
X105675000Y-61315000D02*
X105175000Y-62015000D01*
X105675000Y-61315000D02*
X106175000Y-62015000D01*
X108500000Y-61115000D02*
X102850000Y-61115000D01*
X111405000Y-69440000D02*
X111405000Y-63790000D01*
%TO.C,TP6*%
X178800000Y-116640000D02*
G75*
G02*
X176400000Y-116640000I-1200000J0D01*
G01*
X176400000Y-116640000D02*
G75*
G02*
X178800000Y-116640000I1200000J0D01*
G01*
%TO.C,FB20*%
D12*
X113040000Y-94540000D02*
X113040000Y-93740000D01*
X114160000Y-94540000D02*
X114160000Y-93740000D01*
%TO.C,JP6*%
D13*
X128850000Y-81440000D02*
X128850000Y-80840000D01*
X129550000Y-80140000D02*
X130950000Y-80140000D01*
X130950000Y-82140000D02*
X129550000Y-82140000D01*
X131650000Y-80840000D02*
X131650000Y-81440000D01*
X128850000Y-80840000D02*
G75*
G02*
X129550000Y-80140000I699999J1D01*
G01*
X129550000Y-82140000D02*
G75*
G02*
X128850000Y-81440000I-1J699999D01*
G01*
X130950000Y-80140000D02*
G75*
G02*
X131650000Y-80840000I0J-700000D01*
G01*
X131650000Y-81440000D02*
G75*
G02*
X130950000Y-82140000I-700000J0D01*
G01*
%TO.C,JP1*%
X99700000Y-75940000D02*
X99700000Y-75340000D01*
X100400000Y-74640000D02*
X101800000Y-74640000D01*
X101800000Y-76640000D02*
X100400000Y-76640000D01*
X102500000Y-75340000D02*
X102500000Y-75940000D01*
X99700000Y-75340000D02*
G75*
G02*
X100400000Y-74640000I699999J1D01*
G01*
X100400000Y-76640000D02*
G75*
G02*
X99700000Y-75940000I-1J699999D01*
G01*
X101800000Y-74640000D02*
G75*
G02*
X102500000Y-75340000I0J-700000D01*
G01*
X102500000Y-75940000D02*
G75*
G02*
X101800000Y-76640000I-700000J0D01*
G01*
%TO.C,T2*%
D12*
X125040000Y-62290000D02*
X132160000Y-62290000D01*
X125040000Y-63540000D02*
X125040000Y-62290000D01*
X125040000Y-74990000D02*
X125040000Y-73740000D01*
X125040000Y-74990000D02*
X132160000Y-74990000D01*
X132160000Y-63540000D02*
X132160000Y-62290000D01*
X132160000Y-74990000D02*
X132160000Y-73740000D01*
D15*
X123870000Y-62290000D02*
G75*
G02*
X123810000Y-62290000I-30000J0D01*
G01*
X123810000Y-62290000D02*
G75*
G02*
X123870000Y-62290000I30000J0D01*
G01*
D11*
X124480000Y-63050000D02*
G75*
G02*
X124080000Y-63050000I-200000J0D01*
G01*
X124080000Y-63050000D02*
G75*
G02*
X124480000Y-63050000I200000J0D01*
G01*
%TO.C,SW4*%
D14*
X149370000Y-130340000D02*
X149370000Y-130410000D01*
X149370000Y-130340000D02*
X152970000Y-130340000D01*
X149370000Y-131670000D02*
X149370000Y-132010000D01*
X149370000Y-133270000D02*
X149370000Y-133340000D01*
X149370000Y-133340000D02*
X152970000Y-133340000D01*
X152970000Y-130340000D02*
X152970000Y-130410000D01*
X152970000Y-131670000D02*
X152970000Y-132010000D01*
X152970000Y-133270000D02*
X152970000Y-133340000D01*
D15*
X148870000Y-130340000D02*
G75*
G02*
X148810000Y-130340000I-30000J0D01*
G01*
X148810000Y-130340000D02*
G75*
G02*
X148870000Y-130340000I30000J0D01*
G01*
D14*
X152160000Y-131840000D02*
G75*
G02*
X150180000Y-131840000I-990000J0D01*
G01*
X150180000Y-131840000D02*
G75*
G02*
X152160000Y-131840000I990000J0D01*
G01*
%TO.C,U5*%
D13*
X154825000Y-67830000D02*
X152825000Y-67830000D01*
X154825000Y-69950000D02*
X152825000Y-69950000D01*
X152535000Y-67810000D02*
X152255000Y-67810000D01*
X152535000Y-67530000D01*
X152535000Y-67810000D01*
G36*
X152535000Y-67810000D02*
G01*
X152255000Y-67810000D01*
X152535000Y-67530000D01*
X152535000Y-67810000D01*
G37*
%TO.C,TP2*%
X135300000Y-80640000D02*
G75*
G02*
X132900000Y-80640000I-1200000J0D01*
G01*
X132900000Y-80640000D02*
G75*
G02*
X135300000Y-80640000I1200000J0D01*
G01*
%TO.C,JP8*%
X116100000Y-82490000D02*
X116100000Y-81090000D01*
X116800000Y-80390000D02*
X117400000Y-80390000D01*
X117400000Y-83190000D02*
X116800000Y-83190000D01*
X118100000Y-81090000D02*
X118100000Y-82490000D01*
X116100000Y-81090000D02*
G75*
G02*
X116800000Y-80390000I699999J1D01*
G01*
X116800000Y-83190000D02*
G75*
G02*
X116100000Y-82490000I0J700000D01*
G01*
X117400000Y-80390000D02*
G75*
G02*
X118100000Y-81090000I1J-699999D01*
G01*
X118100000Y-82490000D02*
G75*
G02*
X117400000Y-83190000I-700000J0D01*
G01*
%TO.C,JP2*%
X155600000Y-117840000D02*
X155600000Y-116440000D01*
X156300000Y-115740000D02*
X156900000Y-115740000D01*
X156900000Y-118540000D02*
X156300000Y-118540000D01*
X157600000Y-116440000D02*
X157600000Y-117840000D01*
X155600000Y-116440000D02*
G75*
G02*
X156300000Y-115740000I700000J0D01*
G01*
X156300000Y-118540000D02*
G75*
G02*
X155600000Y-117840000I-1J699999D01*
G01*
X156900000Y-115740000D02*
G75*
G02*
X157600000Y-116440000I0J-700000D01*
G01*
X157600000Y-117840000D02*
G75*
G02*
X156900000Y-118540000I-699999J-1D01*
G01*
%TO.C,FB17*%
D12*
X119540000Y-101100000D02*
X119540000Y-100300000D01*
X120660000Y-101100000D02*
X120660000Y-100300000D01*
%TO.C,U3*%
D14*
X163860000Y-80630000D02*
X163860000Y-85640000D01*
X164000000Y-80630000D02*
X164910000Y-80630000D01*
X166290000Y-80630000D02*
X167340000Y-80630000D01*
X167340000Y-80630000D02*
X167340000Y-85640000D01*
X167340000Y-85640000D02*
X163860000Y-85640000D01*
X166290000Y-80630000D02*
G75*
G02*
X164910000Y-80630000I-690000J0D01*
G01*
D15*
X163010000Y-81110000D02*
G75*
G02*
X162950000Y-81110000I-30000J0D01*
G01*
X162950000Y-81110000D02*
G75*
G02*
X163010000Y-81110000I30000J0D01*
G01*
D11*
X164690000Y-81510000D02*
G75*
G02*
X164290000Y-81510000I-200000J0D01*
G01*
X164290000Y-81510000D02*
G75*
G02*
X164690000Y-81510000I200000J0D01*
G01*
%TO.C,SW2*%
D14*
X140440000Y-130340000D02*
X140440000Y-130410000D01*
X140440000Y-130340000D02*
X144040000Y-130340000D01*
X140440000Y-131670000D02*
X140440000Y-132010000D01*
X140440000Y-133270000D02*
X140440000Y-133340000D01*
X140440000Y-133340000D02*
X144040000Y-133340000D01*
X144040000Y-130340000D02*
X144040000Y-130410000D01*
X144040000Y-131670000D02*
X144040000Y-132010000D01*
X144040000Y-133270000D02*
X144040000Y-133340000D01*
D15*
X139940000Y-130340000D02*
G75*
G02*
X139880000Y-130340000I-30000J0D01*
G01*
X139880000Y-130340000D02*
G75*
G02*
X139940000Y-130340000I30000J0D01*
G01*
D14*
X143230000Y-131840000D02*
G75*
G02*
X141250000Y-131840000I-990000J0D01*
G01*
X141250000Y-131840000D02*
G75*
G02*
X143230000Y-131840000I990000J0D01*
G01*
%TO.C,FB15*%
D12*
X164540000Y-72040000D02*
X164540000Y-71240000D01*
X165660000Y-72040000D02*
X165660000Y-71240000D01*
%TO.C,TP10*%
D13*
X120300000Y-87140000D02*
G75*
G02*
X117900000Y-87140000I-1200000J0D01*
G01*
X117900000Y-87140000D02*
G75*
G02*
X120300000Y-87140000I1200000J0D01*
G01*
%TO.C,A1*%
X134180000Y-92250000D02*
X134180000Y-96087939D01*
X134180000Y-98650000D02*
X134180000Y-97012061D01*
X134180000Y-100770000D02*
X134180000Y-101190000D01*
X134180000Y-103310000D02*
X134180000Y-103730000D01*
X134180000Y-107487939D02*
X134180000Y-105850000D01*
X134180000Y-108412061D02*
X134180000Y-112250000D01*
X137140000Y-91640000D02*
X136720000Y-91640000D01*
X137140000Y-112860000D02*
X136720000Y-112860000D01*
X139680000Y-91640000D02*
X139260000Y-91640000D01*
X139680000Y-112860000D02*
X139260000Y-112860000D01*
X142220000Y-91640000D02*
X141800000Y-91640000D01*
X142220000Y-112860000D02*
X141800000Y-112860000D01*
X144760000Y-91640000D02*
X144340000Y-91640000D01*
X144760000Y-112860000D02*
X144340000Y-112860000D01*
X147300000Y-91640000D02*
X146880000Y-91640000D01*
X147300000Y-112860000D02*
X146880000Y-112860000D01*
X149840000Y-91640000D02*
X149420000Y-91640000D01*
X149840000Y-112860000D02*
X149420000Y-112860000D01*
X152380000Y-91640000D02*
X151960000Y-91640000D01*
X152380000Y-112860000D02*
X151960000Y-112860000D01*
X154920000Y-91640000D02*
X154500000Y-91640000D01*
X154920000Y-112860000D02*
X154500000Y-112860000D01*
X157460000Y-91640000D02*
X157040000Y-91640000D01*
X157460000Y-112860000D02*
X157040000Y-112860000D01*
X160000000Y-91640000D02*
X159580000Y-91640000D01*
X160000000Y-112860000D02*
X159580000Y-112860000D01*
X162540000Y-91640000D02*
X162120000Y-91640000D01*
X162540000Y-112860000D02*
X162120000Y-112860000D01*
X165080000Y-91640000D02*
X164660000Y-91640000D01*
X165080000Y-112860000D02*
X164660000Y-112860000D01*
X167620000Y-91640000D02*
X167200000Y-91640000D01*
X167620000Y-112860000D02*
X167200000Y-112860000D01*
X170160000Y-91640000D02*
X169740000Y-91640000D01*
X170160000Y-112860000D02*
X169740000Y-112860000D01*
X172700000Y-91640000D02*
X172280000Y-91640000D01*
X172700000Y-112860000D02*
X172280000Y-112860000D01*
X175240000Y-91640000D02*
X174820000Y-91640000D01*
X175240000Y-112860000D02*
X174820000Y-112860000D01*
X177780000Y-91640000D02*
X177360000Y-91640000D01*
X177780000Y-112860000D02*
X177360000Y-112860000D01*
X180320000Y-91640000D02*
X179900000Y-91640000D01*
X180320000Y-112860000D02*
X179900000Y-112860000D01*
X182860000Y-91640000D02*
X182440000Y-91640000D01*
X182860000Y-91640000D02*
X182860000Y-91160000D01*
X182860000Y-112860000D02*
X182440000Y-112860000D01*
X184980000Y-91670324D02*
X184980000Y-91160000D01*
X185400000Y-92250000D02*
X185400000Y-94740000D01*
X185400000Y-94740000D02*
X185400000Y-96087940D01*
X185400000Y-97012061D02*
X185400000Y-98015000D01*
X185400000Y-98015000D02*
X185400000Y-106485000D01*
X185400000Y-106485000D02*
X185400000Y-107487939D01*
X185400000Y-108412061D02*
X185400000Y-109760000D01*
X185400000Y-112250000D02*
X185400000Y-109760000D01*
X134180000Y-92250000D02*
G75*
G02*
X134600063Y-91670324I610002J-1D01*
G01*
X134600063Y-112829676D02*
G75*
G02*
X134180052Y-112250000I189737J579476D01*
G01*
X184980000Y-91670324D02*
G75*
G02*
X185400000Y-92250000I-190051J-579692D01*
G01*
X185400000Y-112250000D02*
G75*
G02*
X184979937Y-112829676I-610000J0D01*
G01*
%TO.C,JP5*%
X120200000Y-81440000D02*
X120200000Y-80840000D01*
X120900000Y-80140000D02*
X122300000Y-80140000D01*
X122300000Y-82140000D02*
X120900000Y-82140000D01*
X123000000Y-80840000D02*
X123000000Y-81440000D01*
X120200000Y-80840000D02*
G75*
G02*
X120900000Y-80140000I700000J0D01*
G01*
X120900000Y-82140000D02*
G75*
G02*
X120200000Y-81440000I0J700000D01*
G01*
X122300000Y-80140000D02*
G75*
G02*
X123000000Y-80840000I1J-699999D01*
G01*
X123000000Y-81440000D02*
G75*
G02*
X122300000Y-82140000I-699999J-1D01*
G01*
%TO.C,D2*%
D12*
X115100000Y-68750000D02*
X115100000Y-64890000D01*
X115100000Y-68750000D02*
X117100000Y-68750000D01*
X117100000Y-68750000D02*
X117100000Y-64890000D01*
%TO.C,Y1*%
D13*
X120490000Y-92030000D02*
X123710000Y-92030000D01*
X120490000Y-92205000D02*
X120490000Y-92030000D01*
X120490000Y-95250000D02*
X120490000Y-95075000D01*
X123710000Y-92030000D02*
X123710000Y-92205000D01*
X123710000Y-95075000D02*
X123710000Y-95250000D01*
X123710000Y-95250000D02*
X120490000Y-95250000D01*
X124500000Y-95410000D02*
X124020000Y-95410000D01*
X124260000Y-95080000D01*
X124500000Y-95410000D01*
G36*
X124500000Y-95410000D02*
G01*
X124020000Y-95410000D01*
X124260000Y-95080000D01*
X124500000Y-95410000D01*
G37*
%TD*%
M02*
