%TF.GenerationSoftware,KiCad,Pcbnew,10.0.0*%
%TF.CreationDate,2026-05-07T12:35:12-07:00*%
%TF.ProjectId,SDR-ENGR356-v2,5344522d-454e-4475-9233-35362d76322e,rev?*%
%TF.SameCoordinates,Original*%
%TF.FileFunction,Soldermask,Bot*%
%TF.FilePolarity,Negative*%
%FSLAX46Y46*%
G04 Gerber Fmt 4.6, Leading zero omitted, Abs format (unit mm)*
G04 Created by KiCad (PCBNEW 10.0.0) date 2026-05-07 12:35:12*
%MOMM*%
%LPD*%
G01*
G04 APERTURE LIST*
%ADD10C,2.000000*%
%ADD11R,1.700000X1.700000*%
%ADD12C,1.700000*%
%ADD13O,4.000000X2.300000*%
%ADD14C,1.800000*%
%ADD15R,3.500000X3.500000*%
%ADD16C,4.000000*%
G04 APERTURE END LIST*
D10*
%TO.C,TP5*%
X127600000Y-115640000D03*
%TD*%
D11*
%TO.C,J4*%
X169515000Y-136955000D03*
D12*
X166975000Y-136955000D03*
%TD*%
D10*
%TO.C,TP3*%
X168600000Y-74640000D03*
%TD*%
%TO.C,TP4*%
X175600000Y-74640000D03*
%TD*%
%TO.C,TP1*%
X125100000Y-82640000D03*
%TD*%
D11*
%TO.C,J2*%
X129290000Y-86640000D03*
D12*
X131830000Y-86640000D03*
X134370000Y-86640000D03*
X136910000Y-86640000D03*
%TD*%
D13*
%TO.C,SW5*%
X122600000Y-137000000D03*
X122600000Y-126000000D03*
D14*
X115100000Y-128960000D03*
X115100000Y-134040000D03*
X115100000Y-131500000D03*
X129600000Y-128960000D03*
X129600000Y-134040000D03*
%TD*%
D10*
%TO.C,TP11*%
X177600000Y-122140000D03*
%TD*%
D11*
%TO.C,J3*%
X100500000Y-113040000D03*
D12*
X103040000Y-113040000D03*
X100500000Y-110500000D03*
X103040000Y-110500000D03*
X100500000Y-107960000D03*
X103040000Y-107960000D03*
X100500000Y-105420000D03*
X103040000Y-105420000D03*
X100500000Y-102880000D03*
X103040000Y-102880000D03*
X100500000Y-100340000D03*
X103040000Y-100340000D03*
X100500000Y-97800000D03*
X103040000Y-97800000D03*
%TD*%
D10*
%TO.C,TP9*%
X120600000Y-73640000D03*
%TD*%
%TO.C,TP7*%
X177600000Y-127640000D03*
%TD*%
D15*
%TO.C,J1*%
X105675000Y-66615000D03*
D16*
X100650000Y-61590000D03*
X100650000Y-71640000D03*
X110700000Y-61590000D03*
X110700000Y-71640000D03*
%TD*%
D10*
%TO.C,TP6*%
X177600000Y-116640000D03*
%TD*%
%TO.C,TP2*%
X134100000Y-80640000D03*
%TD*%
%TO.C,TP10*%
X119100000Y-87140000D03*
%TD*%
M02*
