%TF.GenerationSoftware,KiCad,Pcbnew,10.0.0*%
%TF.CreationDate,2026-05-07T12:35:12-07:00*%
%TF.ProjectId,SDR-ENGR356-v2,5344522d-454e-4475-9233-35362d76322e,rev?*%
%TF.SameCoordinates,Original*%
%TF.FileFunction,Soldermask,Top*%
%TF.FilePolarity,Negative*%
%FSLAX46Y46*%
G04 Gerber Fmt 4.6, Leading zero omitted, Abs format (unit mm)*
G04 Created by KiCad (PCBNEW 10.0.0) date 2026-05-07 12:35:12*
%MOMM*%
%LPD*%
G01*
G04 APERTURE LIST*
G04 Aperture macros list*
%AMRoundRect*
0 Rectangle with rounded corners*
0 $1 Rounding radius*
0 $2 $3 $4 $5 $6 $7 $8 $9 X,Y pos of 4 corners*
0 Add a 4 corners polygon primitive as box body*
4,1,4,$2,$3,$4,$5,$6,$7,$8,$9,$2,$3,0*
0 Add four circle primitives for the rounded corners*
1,1,$1+$1,$2,$3*
1,1,$1+$1,$4,$5*
1,1,$1+$1,$6,$7*
1,1,$1+$1,$8,$9*
0 Add four rect primitives between the rounded corners*
20,1,$1+$1,$2,$3,$4,$5,0*
20,1,$1+$1,$4,$5,$6,$7,0*
20,1,$1+$1,$6,$7,$8,$9,0*
20,1,$1+$1,$8,$9,$2,$3,0*%
%AMFreePoly0*
4,1,23,0.500000,-0.750000,0.000000,-0.750000,0.000000,-0.745722,-0.065263,-0.745722,-0.191342,-0.711940,-0.304381,-0.646677,-0.396677,-0.554381,-0.461940,-0.441342,-0.495722,-0.315263,-0.495722,-0.250000,-0.500000,-0.250000,-0.500000,0.250000,-0.495722,0.250000,-0.495722,0.315263,-0.461940,0.441342,-0.396677,0.554381,-0.304381,0.646677,-0.191342,0.711940,-0.065263,0.745722,0.000000,0.745722,
0.000000,0.750000,0.500000,0.750000,0.500000,-0.750000,0.500000,-0.750000,$1*%
%AMFreePoly1*
4,1,23,0.000000,0.745722,0.065263,0.745722,0.191342,0.711940,0.304381,0.646677,0.396677,0.554381,0.461940,0.441342,0.495722,0.315263,0.495722,0.250000,0.500000,0.250000,0.500000,-0.250000,0.495722,-0.250000,0.495722,-0.315263,0.461940,-0.441342,0.396677,-0.554381,0.304381,-0.646677,0.191342,-0.711940,0.065263,-0.745722,0.000000,-0.745722,0.000000,-0.750000,-0.500000,-0.750000,
-0.500000,0.750000,0.000000,0.750000,0.000000,0.745722,0.000000,0.745722,$1*%
%AMFreePoly2*
4,1,37,0.800000,0.796148,0.878414,0.796148,1.032228,0.765552,1.177117,0.705537,1.307515,0.618408,1.418408,0.507515,1.505537,0.377117,1.565552,0.232228,1.596148,0.078414,1.596148,-0.078414,1.565552,-0.232228,1.505537,-0.377117,1.418408,-0.507515,1.307515,-0.618408,1.177117,-0.705537,1.032228,-0.765552,0.878414,-0.796148,0.800000,-0.796148,0.800000,-0.800000,-1.400000,-0.800000,
-1.403843,-0.796157,-1.439018,-0.796157,-1.511114,-0.766294,-1.566294,-0.711114,-1.596157,-0.639018,-1.596157,-0.603843,-1.600000,-0.600000,-1.600000,0.600000,-1.596157,0.603843,-1.596157,0.639018,-1.566294,0.711114,-1.511114,0.766294,-1.439018,0.796157,-1.403843,0.796157,-1.400000,0.800000,0.800000,0.800000,0.800000,0.796148,0.800000,0.796148,$1*%
%AMFreePoly3*
4,1,37,1.403843,0.796157,1.439018,0.796157,1.511114,0.766294,1.566294,0.711114,1.596157,0.639018,1.596157,0.603843,1.600000,0.600000,1.600000,-0.600000,1.596157,-0.603843,1.596157,-0.639018,1.566294,-0.711114,1.511114,-0.766294,1.439018,-0.796157,1.403843,-0.796157,1.400000,-0.800000,-0.800000,-0.800000,-0.800000,-0.796148,-0.878414,-0.796148,-1.032228,-0.765552,-1.177117,-0.705537,
-1.307515,-0.618408,-1.418408,-0.507515,-1.505537,-0.377117,-1.565552,-0.232228,-1.596148,-0.078414,-1.596148,0.078414,-1.565552,0.232228,-1.505537,0.377117,-1.418408,0.507515,-1.307515,0.618408,-1.177117,0.705537,-1.032228,0.765552,-0.878414,0.796148,-0.800000,0.796148,-0.800000,0.800000,1.400000,0.800000,1.403843,0.796157,1.403843,0.796157,$1*%
%AMFreePoly4*
4,1,37,1.600000,0.796148,1.678414,0.796148,1.832228,0.765552,1.977117,0.705537,2.107515,0.618408,2.218408,0.507515,2.305537,0.377117,2.365552,0.232228,2.396148,0.078414,2.396148,-0.078414,2.365552,-0.232228,2.305537,-0.377117,2.218408,-0.507515,2.107515,-0.618408,1.977117,-0.705537,1.832228,-0.765552,1.678414,-0.796148,1.600000,-0.796148,1.600000,-0.800000,-0.600000,-0.800000,
-0.603843,-0.796157,-0.639018,-0.796157,-0.711114,-0.766294,-0.766294,-0.711114,-0.796157,-0.639018,-0.796157,-0.603843,-0.800000,-0.600000,-0.800000,0.600000,-0.796157,0.603843,-0.796157,0.639018,-0.766294,0.711114,-0.711114,0.766294,-0.639018,0.796157,-0.603843,0.796157,-0.600000,0.800000,1.600000,0.800000,1.600000,0.796148,1.600000,0.796148,$1*%
G04 Aperture macros list end*
%ADD10RoundRect,0.267317X-0.470683X0.280683X-0.470683X-0.280683X0.470683X-0.280683X0.470683X0.280683X0*%
%ADD11RoundRect,0.269000X-0.269000X-0.494000X0.269000X-0.494000X0.269000X0.494000X-0.269000X0.494000X0*%
%ADD12RoundRect,0.267317X0.470683X-0.280683X0.470683X0.280683X-0.470683X0.280683X-0.470683X-0.280683X0*%
%ADD13FreePoly0,90.000000*%
%ADD14FreePoly1,90.000000*%
%ADD15C,2.000000*%
%ADD16RoundRect,0.269000X0.494000X-0.269000X0.494000X0.269000X-0.494000X0.269000X-0.494000X-0.269000X0*%
%ADD17RoundRect,0.269000X-0.494000X0.269000X-0.494000X-0.269000X0.494000X-0.269000X0.494000X0.269000X0*%
%ADD18RoundRect,0.267317X-0.280683X-0.470683X0.280683X-0.470683X0.280683X0.470683X-0.280683X0.470683X0*%
%ADD19R,1.700000X1.700000*%
%ADD20C,1.700000*%
%ADD21R,0.280000X0.750000*%
%ADD22R,1.250000X0.900000*%
%ADD23RoundRect,0.269000X0.269000X0.494000X-0.269000X0.494000X-0.269000X-0.494000X0.269000X-0.494000X0*%
%ADD24RoundRect,0.267273X-0.570727X0.320727X-0.570727X-0.320727X0.570727X-0.320727X0.570727X0.320727X0*%
%ADD25RoundRect,0.220000X-0.220000X-0.380000X0.220000X-0.380000X0.220000X0.380000X-0.220000X0.380000X0*%
%ADD26RoundRect,0.220000X0.380000X-0.220000X0.380000X0.220000X-0.380000X0.220000X-0.380000X-0.220000X0*%
%ADD27FreePoly0,270.000000*%
%ADD28FreePoly1,270.000000*%
%ADD29RoundRect,0.100000X-0.100000X0.637500X-0.100000X-0.637500X0.100000X-0.637500X0.100000X0.637500X0*%
%ADD30O,4.000000X2.300000*%
%ADD31C,1.800000*%
%ADD32RoundRect,0.250000X-0.400000X-0.300000X0.400000X-0.300000X0.400000X0.300000X-0.400000X0.300000X0*%
%ADD33O,0.574000X2.038000*%
%ADD34RoundRect,0.220000X0.220000X0.380000X-0.220000X0.380000X-0.220000X-0.380000X0.220000X-0.380000X0*%
%ADD35R,3.500000X3.500000*%
%ADD36C,4.000000*%
%ADD37FreePoly0,0.000000*%
%ADD38FreePoly1,0.000000*%
%ADD39RoundRect,0.267317X0.280683X0.470683X-0.280683X0.470683X-0.280683X-0.470683X0.280683X-0.470683X0*%
%ADD40R,1.660000X0.760000*%
%ADD41R,0.750000X0.280000*%
%ADD42R,1.700000X0.400000*%
%ADD43O,1.800000X1.100000*%
%ADD44O,1.450000X1.050000*%
%ADD45FreePoly2,270.000000*%
%ADD46RoundRect,0.800000X-0.000010X0.800000X-0.000010X-0.800000X0.000010X-0.800000X0.000010X0.800000X0*%
%ADD47FreePoly3,270.000000*%
%ADD48RoundRect,0.800000X-0.800000X-0.000010X0.800000X-0.000010X0.800000X0.000010X-0.800000X0.000010X0*%
%ADD49FreePoly4,180.000000*%
%ADD50RoundRect,0.300000X-0.450000X0.450000X-0.450000X-0.450000X0.450000X-0.450000X0.450000X0.450000X0*%
%ADD51FreePoly0,180.000000*%
%ADD52FreePoly1,180.000000*%
%ADD53RoundRect,0.267273X0.570727X-0.320727X0.570727X0.320727X-0.570727X0.320727X-0.570727X-0.320727X0*%
%ADD54RoundRect,0.087500X0.662500X0.087500X-0.662500X0.087500X-0.662500X-0.087500X0.662500X-0.087500X0*%
G04 APERTURE END LIST*
%TO.C,JP9*%
G36*
X172850000Y-117140000D02*
G01*
X174350000Y-117140000D01*
X174350000Y-117440000D01*
X172850000Y-117440000D01*
X172850000Y-117140000D01*
G37*
%TO.C,JP7*%
G36*
X112850000Y-81840000D02*
G01*
X114350000Y-81840000D01*
X114350000Y-82140000D01*
X112850000Y-82140000D01*
X112850000Y-81840000D01*
G37*
%TO.C,JP4*%
G36*
X165850000Y-118340000D02*
G01*
X167350000Y-118340000D01*
X167350000Y-118640000D01*
X165850000Y-118640000D01*
X165850000Y-118340000D01*
G37*
%TO.C,JP3*%
G36*
X160850000Y-116990000D02*
G01*
X162350000Y-116990000D01*
X162350000Y-117290000D01*
X160850000Y-117290000D01*
X160850000Y-116990000D01*
G37*
%TO.C,JP6*%
G36*
X130100000Y-80390000D02*
G01*
X130400000Y-80390000D01*
X130400000Y-81890000D01*
X130100000Y-81890000D01*
X130100000Y-80390000D01*
G37*
%TO.C,JP1*%
G36*
X100950000Y-74890000D02*
G01*
X101250000Y-74890000D01*
X101250000Y-76390000D01*
X100950000Y-76390000D01*
X100950000Y-74890000D01*
G37*
%TO.C,JP8*%
G36*
X116350000Y-81640000D02*
G01*
X117850000Y-81640000D01*
X117850000Y-81940000D01*
X116350000Y-81940000D01*
X116350000Y-81640000D01*
G37*
%TO.C,JP2*%
G36*
X155850000Y-116990000D02*
G01*
X157350000Y-116990000D01*
X157350000Y-117290000D01*
X155850000Y-117290000D01*
X155850000Y-116990000D01*
G37*
%TO.C,JP5*%
G36*
X121450000Y-80390000D02*
G01*
X121750000Y-80390000D01*
X121750000Y-81890000D01*
X121450000Y-81890000D01*
X121450000Y-80390000D01*
G37*
%TD*%
D10*
%TO.C,R45*%
X145240000Y-137430000D03*
X145240000Y-139250000D03*
%TD*%
D11*
%TO.C,C17*%
X165150000Y-64140000D03*
X167050000Y-64140000D03*
%TD*%
D12*
%TO.C,R5*%
X152600000Y-66550000D03*
X152600000Y-64730000D03*
%TD*%
D13*
%TO.C,JP9*%
X173600000Y-117940000D03*
D14*
X173600000Y-116640000D03*
%TD*%
D15*
%TO.C,TP5*%
X127600000Y-115640000D03*
%TD*%
D16*
%TO.C,C21*%
X178100000Y-70680000D03*
X178100000Y-68780000D03*
%TD*%
D10*
%TO.C,R46*%
X124940000Y-140700000D03*
X124940000Y-142520000D03*
%TD*%
D12*
%TO.C,R37*%
X136100000Y-73460000D03*
X136100000Y-71640000D03*
%TD*%
D16*
%TO.C,C1*%
X121500000Y-67040000D03*
X121500000Y-65140000D03*
%TD*%
D17*
%TO.C,C8*%
X146100000Y-74140000D03*
X146100000Y-76040000D03*
%TD*%
D11*
%TO.C,C35*%
X164650000Y-115640000D03*
X166550000Y-115640000D03*
%TD*%
D18*
%TO.C,R7*%
X158690000Y-61140000D03*
X160510000Y-61140000D03*
%TD*%
D19*
%TO.C,J4*%
X169515000Y-136955000D03*
D20*
X166975000Y-136955000D03*
%TD*%
D10*
%TO.C,R19*%
X142100000Y-85730000D03*
X142100000Y-87550000D03*
%TD*%
D17*
%TO.C,C9*%
X156600000Y-69690000D03*
X156600000Y-71590000D03*
%TD*%
D10*
%TO.C,R41*%
X175600000Y-68820000D03*
X175600000Y-70640000D03*
%TD*%
D21*
%TO.C,U4*%
X156600000Y-62915000D03*
X156100000Y-62915000D03*
X155600000Y-62915000D03*
X155100000Y-62915000D03*
X155100000Y-64365000D03*
X155600000Y-64365000D03*
X156100000Y-64365000D03*
X156600000Y-64365000D03*
%TD*%
D22*
%TO.C,SW3*%
X158310000Y-131040000D03*
X162170000Y-131040000D03*
X162170000Y-132640000D03*
X158310000Y-132640000D03*
%TD*%
D23*
%TO.C,C18*%
X168730000Y-68640000D03*
X166830000Y-68640000D03*
%TD*%
D24*
%TO.C,D1*%
X119100000Y-65140000D03*
X119100000Y-67940000D03*
%TD*%
D25*
%TO.C,FB18*%
X123540000Y-96640000D03*
X125660000Y-96640000D03*
%TD*%
D15*
%TO.C,TP3*%
X168600000Y-74640000D03*
%TD*%
%TO.C,TP4*%
X175600000Y-74640000D03*
%TD*%
D26*
%TO.C,FB14*%
X163100000Y-70260000D03*
X163100000Y-68140000D03*
%TD*%
D15*
%TO.C,TP1*%
X125100000Y-82640000D03*
%TD*%
D18*
%TO.C,R6*%
X154690000Y-66640000D03*
X156510000Y-66640000D03*
%TD*%
D10*
%TO.C,R44*%
X147740000Y-137430000D03*
X147740000Y-139250000D03*
%TD*%
D18*
%TO.C,R10*%
X167690000Y-86640000D03*
X169510000Y-86640000D03*
%TD*%
D12*
%TO.C,R13*%
X127600000Y-98460000D03*
X127600000Y-96640000D03*
%TD*%
%TO.C,R12*%
X127100000Y-80050000D03*
X127100000Y-78230000D03*
%TD*%
D27*
%TO.C,JP7*%
X113600000Y-81340000D03*
D28*
X113600000Y-82640000D03*
%TD*%
D17*
%TO.C,C30*%
X160100000Y-79690000D03*
X160100000Y-81590000D03*
%TD*%
D19*
%TO.C,J2*%
X129290000Y-86640000D03*
D20*
X131830000Y-86640000D03*
X134370000Y-86640000D03*
X136910000Y-86640000D03*
%TD*%
D10*
%TO.C,R40*%
X175600000Y-65320000D03*
X175600000Y-67140000D03*
%TD*%
D29*
%TO.C,U1*%
X143375000Y-63777500D03*
X142725000Y-63777500D03*
X142075000Y-63777500D03*
X141425000Y-63777500D03*
X140775000Y-63777500D03*
X140125000Y-63777500D03*
X139475000Y-63777500D03*
X138825000Y-63777500D03*
X138825000Y-69502500D03*
X139475000Y-69502500D03*
X140125000Y-69502500D03*
X140775000Y-69502500D03*
X141425000Y-69502500D03*
X142075000Y-69502500D03*
X142725000Y-69502500D03*
X143375000Y-69502500D03*
%TD*%
D10*
%TO.C,R23*%
X171100000Y-76730000D03*
X171100000Y-78550000D03*
%TD*%
D17*
%TO.C,C6*%
X151100000Y-74140000D03*
X151100000Y-76040000D03*
%TD*%
D10*
%TO.C,R15*%
X173100000Y-76730000D03*
X173100000Y-78550000D03*
%TD*%
D30*
%TO.C,SW5*%
X122600000Y-137000000D03*
X122600000Y-126000000D03*
D31*
X115100000Y-128960000D03*
X115100000Y-134040000D03*
X115100000Y-131500000D03*
X129600000Y-128960000D03*
X129600000Y-134040000D03*
%TD*%
D10*
%TO.C,R17*%
X146100000Y-85730000D03*
X146100000Y-87550000D03*
%TD*%
D23*
%TO.C,C4*%
X142550000Y-73640000D03*
X140650000Y-73640000D03*
%TD*%
D11*
%TO.C,C12*%
X158650000Y-63640000D03*
X160550000Y-63640000D03*
%TD*%
D26*
%TO.C,FB12*%
X140600000Y-77700000D03*
X140600000Y-75580000D03*
%TD*%
D32*
%TO.C,Y3*%
X123050000Y-101965000D03*
X125150000Y-101965000D03*
X125150000Y-100315000D03*
X123050000Y-100315000D03*
%TD*%
D11*
%TO.C,C3*%
X134650000Y-65140000D03*
X136550000Y-65140000D03*
%TD*%
D33*
%TO.C,U2*%
X111910000Y-87520000D03*
X110640000Y-87520000D03*
X109370000Y-87520000D03*
X108100000Y-87520000D03*
X106830000Y-87520000D03*
X105560000Y-87520000D03*
X104290000Y-87520000D03*
X104290000Y-92760000D03*
X105560000Y-92760000D03*
X106830000Y-92760000D03*
X108100000Y-92760000D03*
X109370000Y-92760000D03*
X110640000Y-92760000D03*
X111910000Y-92760000D03*
%TD*%
D26*
%TO.C,FB13*%
X158600000Y-71700000D03*
X158600000Y-69580000D03*
%TD*%
D17*
%TO.C,C23*%
X112600000Y-128690000D03*
X112600000Y-130590000D03*
%TD*%
D10*
%TO.C,R47*%
X122440000Y-140700000D03*
X122440000Y-142520000D03*
%TD*%
D18*
%TO.C,R3*%
X148690000Y-67640000D03*
X150510000Y-67640000D03*
%TD*%
D15*
%TO.C,TP11*%
X177600000Y-122140000D03*
%TD*%
D17*
%TO.C,C10*%
X162600000Y-61190000D03*
X162600000Y-63090000D03*
%TD*%
D16*
%TO.C,C11*%
X161100000Y-67590000D03*
X161100000Y-65690000D03*
%TD*%
D18*
%TO.C,R4*%
X148690000Y-69640000D03*
X150510000Y-69640000D03*
%TD*%
D12*
%TO.C,R11*%
X124600000Y-80050000D03*
X124600000Y-78230000D03*
%TD*%
D22*
%TO.C,SW1*%
X149310000Y-125040000D03*
X153170000Y-125040000D03*
X153170000Y-126640000D03*
X149310000Y-126640000D03*
%TD*%
D19*
%TO.C,J3*%
X100500000Y-113040000D03*
D20*
X103040000Y-113040000D03*
X100500000Y-110500000D03*
X103040000Y-110500000D03*
X100500000Y-107960000D03*
X103040000Y-107960000D03*
X100500000Y-105420000D03*
X103040000Y-105420000D03*
X100500000Y-102880000D03*
X103040000Y-102880000D03*
X100500000Y-100340000D03*
X103040000Y-100340000D03*
X100500000Y-97800000D03*
X103040000Y-97800000D03*
%TD*%
D11*
%TO.C,C33*%
X115650000Y-99140000D03*
X117550000Y-99140000D03*
%TD*%
D12*
%TO.C,R8*%
X158600000Y-67550000D03*
X158600000Y-65730000D03*
%TD*%
D15*
%TO.C,TP9*%
X120600000Y-73640000D03*
%TD*%
D17*
%TO.C,C7*%
X148600000Y-74140000D03*
X148600000Y-76040000D03*
%TD*%
D18*
%TO.C,R2*%
X148690000Y-65640000D03*
X150510000Y-65640000D03*
%TD*%
D17*
%TO.C,C31*%
X131940000Y-134160000D03*
X131940000Y-136060000D03*
%TD*%
D18*
%TO.C,R21*%
X142190000Y-89640000D03*
X144010000Y-89640000D03*
%TD*%
D10*
%TO.C,R48*%
X119990000Y-140700000D03*
X119990000Y-142520000D03*
%TD*%
D25*
%TO.C,FB16*%
X167480000Y-71140000D03*
X169600000Y-71140000D03*
%TD*%
D15*
%TO.C,TP7*%
X177600000Y-127640000D03*
%TD*%
D17*
%TO.C,C5*%
X153600000Y-74190000D03*
X153600000Y-76090000D03*
%TD*%
D34*
%TO.C,FB11*%
X138100000Y-77460000D03*
X135980000Y-77460000D03*
%TD*%
D25*
%TO.C,FB19*%
X119540000Y-96640000D03*
X121660000Y-96640000D03*
%TD*%
D13*
%TO.C,JP4*%
X166600000Y-119140000D03*
D14*
X166600000Y-117840000D03*
%TD*%
D10*
%TO.C,R42*%
X140240000Y-137430000D03*
X140240000Y-139250000D03*
%TD*%
D18*
%TO.C,R24*%
X120690000Y-78640000D03*
X122510000Y-78640000D03*
%TD*%
D12*
%TO.C,R38*%
X138600000Y-73370000D03*
X138600000Y-71550000D03*
%TD*%
D13*
%TO.C,JP3*%
X161600000Y-117790000D03*
D14*
X161600000Y-116490000D03*
%TD*%
D18*
%TO.C,R14*%
X167690000Y-88640000D03*
X169510000Y-88640000D03*
%TD*%
D10*
%TO.C,R18*%
X144100000Y-85730000D03*
X144100000Y-87550000D03*
%TD*%
D17*
%TO.C,C28*%
X157600000Y-79690000D03*
X157600000Y-81590000D03*
%TD*%
D35*
%TO.C,J1*%
X105675000Y-66615000D03*
D36*
X100650000Y-61590000D03*
X100650000Y-71640000D03*
X110700000Y-61590000D03*
X110700000Y-71640000D03*
%TD*%
D15*
%TO.C,TP6*%
X177600000Y-116640000D03*
%TD*%
D11*
%TO.C,C32*%
X115650000Y-96640000D03*
X117550000Y-96640000D03*
%TD*%
D16*
%TO.C,C27*%
X155100000Y-81590000D03*
X155100000Y-79690000D03*
%TD*%
D26*
%TO.C,FB20*%
X113600000Y-95200000D03*
X113600000Y-93080000D03*
%TD*%
D16*
%TO.C,C34*%
X168600000Y-79090000D03*
X168600000Y-77190000D03*
%TD*%
D11*
%TO.C,C19*%
X170650000Y-68640000D03*
X172550000Y-68640000D03*
%TD*%
D37*
%TO.C,JP6*%
X129600000Y-81140000D03*
D38*
X130900000Y-81140000D03*
%TD*%
D10*
%TO.C,R20*%
X148100000Y-85730000D03*
X148100000Y-87550000D03*
%TD*%
D37*
%TO.C,JP1*%
X100450000Y-75640000D03*
D38*
X101750000Y-75640000D03*
%TD*%
D10*
%TO.C,R43*%
X142740000Y-137430000D03*
X142740000Y-139250000D03*
%TD*%
D18*
%TO.C,R1*%
X148690000Y-63530000D03*
X150510000Y-63530000D03*
%TD*%
D39*
%TO.C,R16*%
X118510000Y-78640000D03*
X116690000Y-78640000D03*
%TD*%
D11*
%TO.C,C16*%
X165150000Y-61640000D03*
X167050000Y-61640000D03*
%TD*%
D16*
%TO.C,C24*%
X112600000Y-134090000D03*
X112600000Y-132190000D03*
%TD*%
D40*
%TO.C,T2*%
X124280000Y-64200000D03*
X124280000Y-65470000D03*
X124280000Y-66730000D03*
X124280000Y-68010000D03*
X124280000Y-69280000D03*
X124280000Y-70550000D03*
X124280000Y-71810000D03*
X124280000Y-73090000D03*
X132920000Y-73090000D03*
X132920000Y-71810000D03*
X132920000Y-70550000D03*
X132920000Y-69280000D03*
X132920000Y-68010000D03*
X132920000Y-66730000D03*
X132920000Y-65470000D03*
X132920000Y-64200000D03*
%TD*%
D22*
%TO.C,SW4*%
X149240000Y-131040000D03*
X153100000Y-131040000D03*
X153100000Y-132640000D03*
X149240000Y-132640000D03*
%TD*%
D11*
%TO.C,C25*%
X172650000Y-80640000D03*
X174550000Y-80640000D03*
%TD*%
D41*
%TO.C,U5*%
X153100000Y-68140000D03*
X153100000Y-68640000D03*
X153100000Y-69140000D03*
X153100000Y-69640000D03*
X154550000Y-69640000D03*
X154550000Y-69140000D03*
X154550000Y-68640000D03*
X154550000Y-68140000D03*
%TD*%
D15*
%TO.C,TP2*%
X134100000Y-80640000D03*
%TD*%
D23*
%TO.C,C2*%
X138050000Y-75460000D03*
X136150000Y-75460000D03*
%TD*%
D16*
%TO.C,C29*%
X152600000Y-81590000D03*
X152600000Y-79690000D03*
%TD*%
D27*
%TO.C,JP8*%
X117100000Y-81140000D03*
D28*
X117100000Y-82440000D03*
%TD*%
D39*
%TO.C,R9*%
X164510000Y-89140000D03*
X162690000Y-89140000D03*
%TD*%
D13*
%TO.C,JP2*%
X156600000Y-117790000D03*
D14*
X156600000Y-116490000D03*
%TD*%
D39*
%TO.C,R22*%
X147510000Y-89640000D03*
X145690000Y-89640000D03*
%TD*%
D26*
%TO.C,FB17*%
X120100000Y-101760000D03*
X120100000Y-99640000D03*
%TD*%
D42*
%TO.C,U3*%
X162800000Y-81190000D03*
X162800000Y-81840000D03*
X162800000Y-82490000D03*
X162800000Y-83140000D03*
X162800000Y-83790000D03*
X162800000Y-84440000D03*
X162800000Y-85090000D03*
X168400000Y-85090000D03*
X168400000Y-84440000D03*
X168400000Y-83790000D03*
X168400000Y-83140000D03*
X168400000Y-82490000D03*
X168400000Y-81840000D03*
X168400000Y-81190000D03*
%TD*%
D22*
%TO.C,SW2*%
X140310000Y-131040000D03*
X144170000Y-131040000D03*
X144170000Y-132640000D03*
X140310000Y-132640000D03*
%TD*%
D11*
%TO.C,C13*%
X113700000Y-90640000D03*
X115600000Y-90640000D03*
%TD*%
D26*
%TO.C,FB15*%
X165100000Y-72700000D03*
X165100000Y-70580000D03*
%TD*%
D18*
%TO.C,R36*%
X166780000Y-66140000D03*
X168600000Y-66140000D03*
%TD*%
D15*
%TO.C,TP10*%
X119100000Y-87140000D03*
%TD*%
D43*
%TO.C,A1*%
X183790000Y-99525000D03*
D44*
X180760000Y-99825000D03*
X180760000Y-104675000D03*
D43*
X183790000Y-104975000D03*
D45*
X183920000Y-92560000D03*
D46*
X181380000Y-92560000D03*
D47*
X178840000Y-92560000D03*
D46*
X176300000Y-92560000D03*
X173760000Y-92560000D03*
X171220000Y-92560000D03*
X168680000Y-92560000D03*
D47*
X166140000Y-92560000D03*
D46*
X163600000Y-92560000D03*
X161060000Y-92560000D03*
X158520000Y-92560000D03*
X155980000Y-92560000D03*
D47*
X153440000Y-92560000D03*
D46*
X150900000Y-92560000D03*
X148360000Y-92560000D03*
X145820000Y-92560000D03*
X143280000Y-92560000D03*
D47*
X140740000Y-92560000D03*
D46*
X138200000Y-92560000D03*
X135660000Y-92560000D03*
X135660000Y-111940000D03*
X138200000Y-111940000D03*
D45*
X140740000Y-111940000D03*
D46*
X143280000Y-111940000D03*
X145820000Y-111940000D03*
X148360000Y-111940000D03*
X150900000Y-111940000D03*
D45*
X153440000Y-111940000D03*
D46*
X155980000Y-111940000D03*
X158520000Y-111940000D03*
X161060000Y-111940000D03*
X163600000Y-111940000D03*
D45*
X166140000Y-111940000D03*
D46*
X168680000Y-111940000D03*
X171220000Y-111940000D03*
X173760000Y-111940000D03*
X176300000Y-111940000D03*
D45*
X178840000Y-111940000D03*
D46*
X181380000Y-111940000D03*
X183920000Y-111940000D03*
D48*
X135090000Y-99710000D03*
D49*
X135890000Y-102250000D03*
D48*
X135090000Y-104790000D03*
D50*
X180790000Y-102250000D03*
X184090000Y-103250000D03*
X184090000Y-101250000D03*
X177290000Y-99750000D03*
X174790000Y-99750000D03*
X172290000Y-99750000D03*
%TD*%
D18*
%TO.C,R39*%
X170690000Y-66140000D03*
X172510000Y-66140000D03*
%TD*%
D51*
%TO.C,JP5*%
X122250000Y-81140000D03*
D52*
X120950000Y-81140000D03*
%TD*%
D53*
%TO.C,D2*%
X116100000Y-67940000D03*
X116100000Y-65140000D03*
%TD*%
D17*
%TO.C,C20*%
X178100000Y-65280000D03*
X178100000Y-67180000D03*
%TD*%
D54*
%TO.C,Y1*%
X124200000Y-94640000D03*
X124200000Y-94140000D03*
X124200000Y-93640000D03*
X124200000Y-93140000D03*
X124200000Y-92640000D03*
X120000000Y-92640000D03*
X120000000Y-93140000D03*
X120000000Y-93640000D03*
X120000000Y-94140000D03*
X120000000Y-94640000D03*
%TD*%
M02*
