%TF.GenerationSoftware,KiCad,Pcbnew,10.0.0*%
%TF.CreationDate,2026-05-07T12:35:11-07:00*%
%TF.ProjectId,SDR-ENGR356-v2,5344522d-454e-4475-9233-35362d76322e,rev?*%
%TF.SameCoordinates,Original*%
%TF.FileFunction,Copper,L4,Bot*%
%TF.FilePolarity,Positive*%
%FSLAX46Y46*%
G04 Gerber Fmt 4.6, Leading zero omitted, Abs format (unit mm)*
G04 Created by KiCad (PCBNEW 10.0.0) date 2026-05-07 12:35:11*
%MOMM*%
%LPD*%
G01*
G04 APERTURE LIST*
%TA.AperFunction,ComponentPad*%
%ADD10C,2.000000*%
%TD*%
%TA.AperFunction,ComponentPad*%
%ADD11R,1.700000X1.700000*%
%TD*%
%TA.AperFunction,ComponentPad*%
%ADD12C,1.700000*%
%TD*%
%TA.AperFunction,ComponentPad*%
%ADD13O,4.000000X2.300000*%
%TD*%
%TA.AperFunction,ComponentPad*%
%ADD14C,1.800000*%
%TD*%
%TA.AperFunction,ComponentPad*%
%ADD15R,3.500000X3.500000*%
%TD*%
%TA.AperFunction,ComponentPad*%
%ADD16C,4.000000*%
%TD*%
%TA.AperFunction,ViaPad*%
%ADD17C,0.600000*%
%TD*%
G04 APERTURE END LIST*
D10*
%TO.P,TP5,1,1_1*%
%TO.N,/LO_CLK*%
X127600000Y-115640000D03*
%TD*%
D11*
%TO.P,J4,1,Pin_1_1*%
%TO.N,+3.3V*%
X169515000Y-136955000D03*
D12*
%TO.P,J4,2,Pin_2_2*%
%TO.N,GND*%
X166975000Y-136955000D03*
%TD*%
D10*
%TO.P,TP3,1,1_1*%
%TO.N,/Q_OUT*%
X168600000Y-74640000D03*
%TD*%
%TO.P,TP4,1,1_1*%
%TO.N,/I_OUT*%
X175600000Y-74640000D03*
%TD*%
%TO.P,TP1,1,1_1*%
%TO.N,Net-(JP5-B)*%
X125100000Y-82640000D03*
%TD*%
D11*
%TO.P,J2,1,Pin_1_1*%
%TO.N,GND*%
X129290000Y-86640000D03*
D12*
%TO.P,J2,2,Pin_2_2*%
%TO.N,+3.3V*%
X131830000Y-86640000D03*
%TO.P,J2,3,Pin_3_3*%
%TO.N,/SCL*%
X134370000Y-86640000D03*
%TO.P,J2,4,Pin_4_4*%
%TO.N,/SDA*%
X136910000Y-86640000D03*
%TD*%
D13*
%TO.P,SW5,6,6_6*%
%TO.N,GND*%
X122600000Y-137000000D03*
%TO.P,SW5,7,7_7*%
X122600000Y-126000000D03*
D14*
%TO.P,SW5,A,A_A*%
%TO.N,/Enc_B*%
X115100000Y-128960000D03*
%TO.P,SW5,B,B_B*%
%TO.N,/Enc_A*%
X115100000Y-134040000D03*
%TO.P,SW5,C,C_C*%
%TO.N,GND*%
X115100000Y-131500000D03*
%TO.P,SW5,D,D_D*%
X129600000Y-128960000D03*
%TO.P,SW5,E,E_E*%
%TO.N,/Enc_Sw*%
X129600000Y-134040000D03*
%TD*%
D10*
%TO.P,TP11,1,1_1*%
%TO.N,+3.3V*%
X177600000Y-122140000D03*
%TD*%
D11*
%TO.P,J3,1,Pin_1_1*%
%TO.N,GND*%
X100500000Y-113040000D03*
D12*
%TO.P,J3,2,Pin_2_2*%
%TO.N,+3.3V*%
X103040000Y-113040000D03*
%TO.P,J3,3,Pin_3_3*%
%TO.N,GND*%
X100500000Y-110500000D03*
%TO.P,J3,4,Pin_4_4*%
%TO.N,/LCD_RegSel*%
X103040000Y-110500000D03*
%TO.P,J3,5,Pin_5_5*%
%TO.N,GND*%
X100500000Y-107960000D03*
%TO.P,J3,6,Pin_6_6*%
%TO.N,/LCD_Ena*%
X103040000Y-107960000D03*
%TO.P,J3,7,Pin_7_7*%
%TO.N,/LCD_Bit0*%
X100500000Y-105420000D03*
%TO.P,J3,8,Pin_8_8*%
%TO.N,/LCD_Bit1*%
X103040000Y-105420000D03*
%TO.P,J3,9,Pin_9_9*%
%TO.N,/LCD_Bit2*%
X100500000Y-102880000D03*
%TO.P,J3,10,Pin_10_10*%
%TO.N,/LCD_Bit3*%
X103040000Y-102880000D03*
%TO.P,J3,11,Pin_11_11*%
%TO.N,/LCD_Bit4*%
X100500000Y-100340000D03*
%TO.P,J3,12,Pin_12_12*%
%TO.N,/LCD_Bit5*%
X103040000Y-100340000D03*
%TO.P,J3,13,Pin_13_13*%
%TO.N,/LCD_Bit6*%
X100500000Y-97800000D03*
%TO.P,J3,14,Pin_14_14*%
%TO.N,/LCD_Bit7*%
X103040000Y-97800000D03*
%TD*%
D10*
%TO.P,TP9,1,1_1*%
%TO.N,/I_CLK*%
X120600000Y-73640000D03*
%TD*%
%TO.P,TP7,1,1_1*%
%TO.N,GND*%
X177600000Y-127640000D03*
%TD*%
D15*
%TO.P,J1,1,In_1*%
%TO.N,Net-(J1-In)*%
X105675000Y-66615000D03*
D16*
%TO.P,J1,2,Ext_2*%
%TO.N,Net-(J1-Ext)*%
X100650000Y-61590000D03*
X100650000Y-71640000D03*
X110700000Y-61590000D03*
X110700000Y-71640000D03*
%TD*%
D10*
%TO.P,TP6,1,1_1*%
%TO.N,Net-(A1-3V3)*%
X177600000Y-116640000D03*
%TD*%
%TO.P,TP2,1,1_1*%
%TO.N,Net-(JP6-B)*%
X134100000Y-80640000D03*
%TD*%
%TO.P,TP10,1,1_1*%
%TO.N,/Q_CLK*%
X119100000Y-87140000D03*
%TD*%
D17*
%TO.N,*%
X149500000Y-68500000D03*
%TO.N,/Select_Btn*%
X143500000Y-115500000D03*
X145500000Y-125000000D03*
%TO.N,+3.3V*%
X126000000Y-144500000D03*
X117000000Y-101000000D03*
X158000000Y-78500000D03*
X116000000Y-94500000D03*
X123000000Y-98500000D03*
X162500000Y-71500000D03*
X141000000Y-79000000D03*
X141000000Y-141000000D03*
X155500000Y-78500000D03*
X123500000Y-144500000D03*
X146000000Y-141000000D03*
X119000000Y-98500000D03*
X118500000Y-101000000D03*
X153000000Y-78500000D03*
X148500000Y-141000000D03*
X159000000Y-73000000D03*
X139500000Y-89000000D03*
X160500000Y-78500000D03*
X121000000Y-144500000D03*
X166500000Y-73500000D03*
X167500000Y-121500000D03*
X173000000Y-120000000D03*
X117000000Y-95000000D03*
X167000000Y-72500000D03*
X138500000Y-79000000D03*
X143500000Y-141000000D03*
X150000000Y-89000000D03*
%TO.N,Net-(U4A--)*%
X154000000Y-64500000D03*
X155500000Y-62000000D03*
%TO.N,/LO_CLK*%
X127500000Y-100500000D03*
%TO.N,GND*%
X139500000Y-90000000D03*
X160500000Y-83000000D03*
X178500000Y-64000000D03*
X165000000Y-82500000D03*
X176500000Y-79500000D03*
X146500000Y-77500000D03*
X165000000Y-84500000D03*
X176000000Y-64000000D03*
X152500000Y-115500000D03*
X137000000Y-67000000D03*
X163000000Y-115000000D03*
X131500000Y-138000000D03*
X153500000Y-70500000D03*
X139000000Y-133000000D03*
X158000000Y-83000000D03*
X148000000Y-127000000D03*
X104000000Y-76000000D03*
X167000000Y-77500000D03*
X145500000Y-133000000D03*
X151500000Y-77500000D03*
X154500000Y-133000000D03*
X154500000Y-62000000D03*
X168500000Y-115000000D03*
X149000000Y-77500000D03*
X141000000Y-72000000D03*
X103500000Y-85500000D03*
X154500000Y-127000000D03*
X117000000Y-91000000D03*
X155500000Y-83000000D03*
X152500000Y-90000000D03*
X157000000Y-133000000D03*
X143000000Y-65500000D03*
X174000000Y-69000000D03*
X140500000Y-71500000D03*
X114000000Y-100000000D03*
X142500000Y-68000000D03*
X148000000Y-133000000D03*
X163500000Y-133000000D03*
X170000000Y-82500000D03*
X157000000Y-73000000D03*
X180000000Y-115000000D03*
X179500000Y-90000000D03*
X166500000Y-90000000D03*
X139000000Y-65500000D03*
X154000000Y-77500000D03*
X118000000Y-93500000D03*
X140000000Y-115500000D03*
X174000000Y-66500000D03*
X153000000Y-83000000D03*
X127000000Y-102500000D03*
X114000000Y-97500000D03*
X162000000Y-64500000D03*
%TO.N,Net-(U5C-V+)*%
X153500000Y-67500000D03*
X156000000Y-68000000D03*
%TO.N,/Right_Btn*%
X146000000Y-115500000D03*
X147500000Y-123000000D03*
%TO.N,/Q_OUT*%
X170500000Y-72500000D03*
X169500000Y-67500000D03*
X170000000Y-105500000D03*
%TO.N,Net-(U3-BCK)*%
X166000000Y-88000000D03*
X164500000Y-86500000D03*
%TO.N,/BCK*%
X172500000Y-88000000D03*
X181000000Y-88000000D03*
%TO.N,Net-(JP6-A)*%
X129000000Y-79000000D03*
X128500000Y-83000000D03*
%TO.N,Net-(U1-1B3)*%
X140125000Y-70875000D03*
X140000000Y-67000000D03*
X147000000Y-67500000D03*
X149000000Y-72500000D03*
%TO.N,Net-(U1-1B2)*%
X140775000Y-64775000D03*
X150500000Y-72500000D03*
X147500000Y-65000000D03*
X141500000Y-71000000D03*
%TO.N,Net-(U1-1B1)*%
X148500000Y-62000000D03*
X140500000Y-65500000D03*
X141500000Y-68000000D03*
X152000000Y-72500000D03*
%TO.N,Net-(U2-VCC)*%
X108000000Y-94500000D03*
X111000000Y-94500000D03*
X107500000Y-86000000D03*
X106500000Y-90500000D03*
%TO.N,Net-(JP8-B)*%
X106000000Y-89500000D03*
X109500000Y-89500000D03*
X115500000Y-88000000D03*
%TO.N,Net-(JP5-A)*%
X124000000Y-76500000D03*
X123000000Y-83000000D03*
%TO.N,/Up_Btn*%
X135500000Y-116000000D03*
X144000000Y-127500000D03*
%TO.N,/LCD_Bit0*%
X156500000Y-102000000D03*
X110500000Y-107500000D03*
%TO.N,/LCD_Bit1*%
X155000000Y-102000000D03*
X110500000Y-106500000D03*
%TO.N,/LCD_Bit2*%
X111500000Y-106500000D03*
X153500000Y-102000000D03*
%TO.N,/LCD_Bit3*%
X152000000Y-102000000D03*
X111500000Y-105500000D03*
%TO.N,/LCD_Bit4*%
X150500000Y-102000000D03*
X112500000Y-105500000D03*
%TO.N,/LCD_Bit5*%
X149000000Y-102000000D03*
X112500000Y-104500000D03*
%TO.N,/LCD_Bit6*%
X147500000Y-102000000D03*
X113500000Y-104500000D03*
%TO.N,/LCD_Bit7*%
X146000000Y-102000000D03*
X113500000Y-103500000D03*
%TO.N,Net-(Y1-VDDO)*%
X118000000Y-92000000D03*
X121000000Y-98500000D03*
%TO.N,/WS*%
X181000000Y-89000000D03*
X172500000Y-89000000D03*
%TO.N,/Left_Btn*%
X145500000Y-127000000D03*
X138000000Y-116000000D03*
%TO.N,/DOUT*%
X170000000Y-84000000D03*
X166000000Y-84000000D03*
%TD*%
%TA.AperFunction,Conductor*%
%TO.N,GND*%
G36*
X185542539Y-58660185D02*
G01*
X185588294Y-58712989D01*
X185599500Y-58764500D01*
X185599500Y-147015500D01*
X185579815Y-147082539D01*
X185527011Y-147128294D01*
X185475500Y-147139500D01*
X97724500Y-147139500D01*
X97657461Y-147119815D01*
X97611706Y-147067011D01*
X97600500Y-147015500D01*
X97600500Y-144508872D01*
X98099500Y-144508872D01*
X98099500Y-144771127D01*
X98113727Y-144879185D01*
X98133730Y-145031116D01*
X98198831Y-145274076D01*
X98201602Y-145284418D01*
X98201605Y-145284428D01*
X98301953Y-145526690D01*
X98301958Y-145526700D01*
X98433075Y-145753803D01*
X98592718Y-145961851D01*
X98592726Y-145961860D01*
X98778140Y-146147274D01*
X98778148Y-146147281D01*
X98986196Y-146306924D01*
X99213299Y-146438041D01*
X99213309Y-146438046D01*
X99455571Y-146538394D01*
X99455581Y-146538398D01*
X99708884Y-146606270D01*
X99968880Y-146640500D01*
X99968887Y-146640500D01*
X100231113Y-146640500D01*
X100231120Y-146640500D01*
X100491116Y-146606270D01*
X100744419Y-146538398D01*
X100986697Y-146438043D01*
X101213803Y-146306924D01*
X101421851Y-146147282D01*
X101421855Y-146147277D01*
X101421860Y-146147274D01*
X101607274Y-145961860D01*
X101607277Y-145961855D01*
X101607282Y-145961851D01*
X101766924Y-145753803D01*
X101898043Y-145526697D01*
X101998398Y-145284419D01*
X102066270Y-145031116D01*
X102100500Y-144771120D01*
X102100500Y-144508880D01*
X102088950Y-144421155D01*
X102088950Y-144421153D01*
X120199500Y-144421153D01*
X120199500Y-144578846D01*
X120230261Y-144733489D01*
X120230264Y-144733501D01*
X120290602Y-144879172D01*
X120290609Y-144879185D01*
X120378210Y-145010288D01*
X120378213Y-145010292D01*
X120489707Y-145121786D01*
X120489711Y-145121789D01*
X120620814Y-145209390D01*
X120620827Y-145209397D01*
X120766498Y-145269735D01*
X120766503Y-145269737D01*
X120921153Y-145300499D01*
X120921156Y-145300500D01*
X120921158Y-145300500D01*
X121078844Y-145300500D01*
X121078845Y-145300499D01*
X121233497Y-145269737D01*
X121379179Y-145209394D01*
X121510289Y-145121789D01*
X121621789Y-145010289D01*
X121709394Y-144879179D01*
X121769737Y-144733497D01*
X121800500Y-144578842D01*
X121800500Y-144421158D01*
X121800500Y-144421155D01*
X121800499Y-144421153D01*
X122699500Y-144421153D01*
X122699500Y-144578846D01*
X122730261Y-144733489D01*
X122730264Y-144733501D01*
X122790602Y-144879172D01*
X122790609Y-144879185D01*
X122878210Y-145010288D01*
X122878213Y-145010292D01*
X122989707Y-145121786D01*
X122989711Y-145121789D01*
X123120814Y-145209390D01*
X123120827Y-145209397D01*
X123266498Y-145269735D01*
X123266503Y-145269737D01*
X123421153Y-145300499D01*
X123421156Y-145300500D01*
X123421158Y-145300500D01*
X123578844Y-145300500D01*
X123578845Y-145300499D01*
X123733497Y-145269737D01*
X123879179Y-145209394D01*
X124010289Y-145121789D01*
X124121789Y-145010289D01*
X124209394Y-144879179D01*
X124269737Y-144733497D01*
X124300500Y-144578842D01*
X124300500Y-144421158D01*
X124300500Y-144421155D01*
X124300499Y-144421153D01*
X125199500Y-144421153D01*
X125199500Y-144578846D01*
X125230261Y-144733489D01*
X125230264Y-144733501D01*
X125290602Y-144879172D01*
X125290609Y-144879185D01*
X125378210Y-145010288D01*
X125378213Y-145010292D01*
X125489707Y-145121786D01*
X125489711Y-145121789D01*
X125620814Y-145209390D01*
X125620827Y-145209397D01*
X125766498Y-145269735D01*
X125766503Y-145269737D01*
X125921153Y-145300499D01*
X125921156Y-145300500D01*
X125921158Y-145300500D01*
X126078844Y-145300500D01*
X126078845Y-145300499D01*
X126233497Y-145269737D01*
X126379179Y-145209394D01*
X126510289Y-145121789D01*
X126621789Y-145010289D01*
X126709394Y-144879179D01*
X126769737Y-144733497D01*
X126800500Y-144578842D01*
X126800500Y-144508872D01*
X181099500Y-144508872D01*
X181099500Y-144771127D01*
X181113727Y-144879185D01*
X181133730Y-145031116D01*
X181198831Y-145274076D01*
X181201602Y-145284418D01*
X181201605Y-145284428D01*
X181301953Y-145526690D01*
X181301958Y-145526700D01*
X181433075Y-145753803D01*
X181592718Y-145961851D01*
X181592726Y-145961860D01*
X181778140Y-146147274D01*
X181778148Y-146147281D01*
X181986196Y-146306924D01*
X182213299Y-146438041D01*
X182213309Y-146438046D01*
X182455571Y-146538394D01*
X182455581Y-146538398D01*
X182708884Y-146606270D01*
X182968880Y-146640500D01*
X182968887Y-146640500D01*
X183231113Y-146640500D01*
X183231120Y-146640500D01*
X183491116Y-146606270D01*
X183744419Y-146538398D01*
X183986697Y-146438043D01*
X184213803Y-146306924D01*
X184421851Y-146147282D01*
X184421855Y-146147277D01*
X184421860Y-146147274D01*
X184607274Y-145961860D01*
X184607277Y-145961855D01*
X184607282Y-145961851D01*
X184766924Y-145753803D01*
X184898043Y-145526697D01*
X184998398Y-145284419D01*
X185066270Y-145031116D01*
X185100500Y-144771120D01*
X185100500Y-144508880D01*
X185066270Y-144248884D01*
X184998398Y-143995581D01*
X184949782Y-143878211D01*
X184898046Y-143753309D01*
X184898041Y-143753299D01*
X184766924Y-143526196D01*
X184607281Y-143318148D01*
X184607274Y-143318140D01*
X184421860Y-143132726D01*
X184421851Y-143132718D01*
X184213803Y-142973075D01*
X183986700Y-142841958D01*
X183986690Y-142841953D01*
X183744428Y-142741605D01*
X183744421Y-142741603D01*
X183744419Y-142741602D01*
X183491116Y-142673730D01*
X183433339Y-142666123D01*
X183231127Y-142639500D01*
X183231120Y-142639500D01*
X182968880Y-142639500D01*
X182968872Y-142639500D01*
X182737772Y-142669926D01*
X182708884Y-142673730D01*
X182455581Y-142741602D01*
X182455571Y-142741605D01*
X182213309Y-142841953D01*
X182213299Y-142841958D01*
X181986196Y-142973075D01*
X181778148Y-143132718D01*
X181592718Y-143318148D01*
X181433075Y-143526196D01*
X181301958Y-143753299D01*
X181301953Y-143753309D01*
X181201605Y-143995571D01*
X181201602Y-143995581D01*
X181133730Y-144248885D01*
X181099500Y-144508872D01*
X126800500Y-144508872D01*
X126800500Y-144421158D01*
X126800500Y-144421155D01*
X126800499Y-144421153D01*
X126769738Y-144266510D01*
X126769737Y-144266503D01*
X126769735Y-144266498D01*
X126709397Y-144120827D01*
X126709390Y-144120814D01*
X126621789Y-143989711D01*
X126621786Y-143989707D01*
X126510292Y-143878213D01*
X126510288Y-143878210D01*
X126379185Y-143790609D01*
X126379172Y-143790602D01*
X126233501Y-143730264D01*
X126233489Y-143730261D01*
X126078845Y-143699500D01*
X126078842Y-143699500D01*
X125921158Y-143699500D01*
X125921155Y-143699500D01*
X125766510Y-143730261D01*
X125766498Y-143730264D01*
X125620827Y-143790602D01*
X125620814Y-143790609D01*
X125489711Y-143878210D01*
X125489707Y-143878213D01*
X125378213Y-143989707D01*
X125378210Y-143989711D01*
X125290609Y-144120814D01*
X125290602Y-144120827D01*
X125230264Y-144266498D01*
X125230261Y-144266510D01*
X125199500Y-144421153D01*
X124300499Y-144421153D01*
X124269738Y-144266510D01*
X124269737Y-144266503D01*
X124269735Y-144266498D01*
X124209397Y-144120827D01*
X124209390Y-144120814D01*
X124121789Y-143989711D01*
X124121786Y-143989707D01*
X124010292Y-143878213D01*
X124010288Y-143878210D01*
X123879185Y-143790609D01*
X123879172Y-143790602D01*
X123733501Y-143730264D01*
X123733489Y-143730261D01*
X123578845Y-143699500D01*
X123578842Y-143699500D01*
X123421158Y-143699500D01*
X123421155Y-143699500D01*
X123266510Y-143730261D01*
X123266498Y-143730264D01*
X123120827Y-143790602D01*
X123120814Y-143790609D01*
X122989711Y-143878210D01*
X122989707Y-143878213D01*
X122878213Y-143989707D01*
X122878210Y-143989711D01*
X122790609Y-144120814D01*
X122790602Y-144120827D01*
X122730264Y-144266498D01*
X122730261Y-144266510D01*
X122699500Y-144421153D01*
X121800499Y-144421153D01*
X121769738Y-144266510D01*
X121769737Y-144266503D01*
X121769735Y-144266498D01*
X121709397Y-144120827D01*
X121709390Y-144120814D01*
X121621789Y-143989711D01*
X121621786Y-143989707D01*
X121510292Y-143878213D01*
X121510288Y-143878210D01*
X121379185Y-143790609D01*
X121379172Y-143790602D01*
X121233501Y-143730264D01*
X121233489Y-143730261D01*
X121078845Y-143699500D01*
X121078842Y-143699500D01*
X120921158Y-143699500D01*
X120921155Y-143699500D01*
X120766510Y-143730261D01*
X120766498Y-143730264D01*
X120620827Y-143790602D01*
X120620814Y-143790609D01*
X120489711Y-143878210D01*
X120489707Y-143878213D01*
X120378213Y-143989707D01*
X120378210Y-143989711D01*
X120290609Y-144120814D01*
X120290602Y-144120827D01*
X120230264Y-144266498D01*
X120230261Y-144266510D01*
X120199500Y-144421153D01*
X102088950Y-144421153D01*
X102079564Y-144349860D01*
X102066270Y-144248884D01*
X101998398Y-143995581D01*
X101949782Y-143878211D01*
X101898046Y-143753309D01*
X101898041Y-143753299D01*
X101766924Y-143526196D01*
X101607281Y-143318148D01*
X101607274Y-143318140D01*
X101421860Y-143132726D01*
X101421851Y-143132718D01*
X101213803Y-142973075D01*
X100986700Y-142841958D01*
X100986690Y-142841953D01*
X100744428Y-142741605D01*
X100744421Y-142741603D01*
X100744419Y-142741602D01*
X100491116Y-142673730D01*
X100433339Y-142666123D01*
X100231127Y-142639500D01*
X100231120Y-142639500D01*
X99968880Y-142639500D01*
X99968872Y-142639500D01*
X99737772Y-142669926D01*
X99708884Y-142673730D01*
X99455581Y-142741602D01*
X99455571Y-142741605D01*
X99213309Y-142841953D01*
X99213299Y-142841958D01*
X98986196Y-142973075D01*
X98778148Y-143132718D01*
X98592718Y-143318148D01*
X98433075Y-143526196D01*
X98301958Y-143753299D01*
X98301953Y-143753309D01*
X98201605Y-143995571D01*
X98201602Y-143995581D01*
X98133730Y-144248885D01*
X98099500Y-144508872D01*
X97600500Y-144508872D01*
X97600500Y-140921153D01*
X140199500Y-140921153D01*
X140199500Y-141078846D01*
X140230261Y-141233489D01*
X140230264Y-141233501D01*
X140290602Y-141379172D01*
X140290609Y-141379185D01*
X140378210Y-141510288D01*
X140378213Y-141510292D01*
X140489707Y-141621786D01*
X140489711Y-141621789D01*
X140620814Y-141709390D01*
X140620827Y-141709397D01*
X140766498Y-141769735D01*
X140766503Y-141769737D01*
X140921153Y-141800499D01*
X140921156Y-141800500D01*
X140921158Y-141800500D01*
X141078844Y-141800500D01*
X141078845Y-141800499D01*
X141233497Y-141769737D01*
X141379179Y-141709394D01*
X141510289Y-141621789D01*
X141621789Y-141510289D01*
X141709394Y-141379179D01*
X141769737Y-141233497D01*
X141800500Y-141078842D01*
X141800500Y-140921158D01*
X141800500Y-140921155D01*
X141800499Y-140921153D01*
X142699500Y-140921153D01*
X142699500Y-141078846D01*
X142730261Y-141233489D01*
X142730264Y-141233501D01*
X142790602Y-141379172D01*
X142790609Y-141379185D01*
X142878210Y-141510288D01*
X142878213Y-141510292D01*
X142989707Y-141621786D01*
X142989711Y-141621789D01*
X143120814Y-141709390D01*
X143120827Y-141709397D01*
X143266498Y-141769735D01*
X143266503Y-141769737D01*
X143421153Y-141800499D01*
X143421156Y-141800500D01*
X143421158Y-141800500D01*
X143578844Y-141800500D01*
X143578845Y-141800499D01*
X143733497Y-141769737D01*
X143879179Y-141709394D01*
X144010289Y-141621789D01*
X144121789Y-141510289D01*
X144209394Y-141379179D01*
X144269737Y-141233497D01*
X144300500Y-141078842D01*
X144300500Y-140921158D01*
X144300500Y-140921155D01*
X144300499Y-140921153D01*
X145199500Y-140921153D01*
X145199500Y-141078846D01*
X145230261Y-141233489D01*
X145230264Y-141233501D01*
X145290602Y-141379172D01*
X145290609Y-141379185D01*
X145378210Y-141510288D01*
X145378213Y-141510292D01*
X145489707Y-141621786D01*
X145489711Y-141621789D01*
X145620814Y-141709390D01*
X145620827Y-141709397D01*
X145766498Y-141769735D01*
X145766503Y-141769737D01*
X145921153Y-141800499D01*
X145921156Y-141800500D01*
X145921158Y-141800500D01*
X146078844Y-141800500D01*
X146078845Y-141800499D01*
X146233497Y-141769737D01*
X146379179Y-141709394D01*
X146510289Y-141621789D01*
X146621789Y-141510289D01*
X146709394Y-141379179D01*
X146769737Y-141233497D01*
X146800500Y-141078842D01*
X146800500Y-140921158D01*
X146800500Y-140921155D01*
X146800499Y-140921153D01*
X147699500Y-140921153D01*
X147699500Y-141078846D01*
X147730261Y-141233489D01*
X147730264Y-141233501D01*
X147790602Y-141379172D01*
X147790609Y-141379185D01*
X147878210Y-141510288D01*
X147878213Y-141510292D01*
X147989707Y-141621786D01*
X147989711Y-141621789D01*
X148120814Y-141709390D01*
X148120827Y-141709397D01*
X148266498Y-141769735D01*
X148266503Y-141769737D01*
X148421153Y-141800499D01*
X148421156Y-141800500D01*
X148421158Y-141800500D01*
X148578844Y-141800500D01*
X148578845Y-141800499D01*
X148733497Y-141769737D01*
X148879179Y-141709394D01*
X149010289Y-141621789D01*
X149121789Y-141510289D01*
X149209394Y-141379179D01*
X149269737Y-141233497D01*
X149300500Y-141078842D01*
X149300500Y-140921158D01*
X149300500Y-140921155D01*
X149300499Y-140921153D01*
X149269738Y-140766510D01*
X149269737Y-140766503D01*
X149269735Y-140766498D01*
X149209397Y-140620827D01*
X149209390Y-140620814D01*
X149121789Y-140489711D01*
X149121786Y-140489707D01*
X149010292Y-140378213D01*
X149010288Y-140378210D01*
X148879185Y-140290609D01*
X148879172Y-140290602D01*
X148733501Y-140230264D01*
X148733489Y-140230261D01*
X148578845Y-140199500D01*
X148578842Y-140199500D01*
X148421158Y-140199500D01*
X148421155Y-140199500D01*
X148266510Y-140230261D01*
X148266498Y-140230264D01*
X148120827Y-140290602D01*
X148120814Y-140290609D01*
X147989711Y-140378210D01*
X147989707Y-140378213D01*
X147878213Y-140489707D01*
X147878210Y-140489711D01*
X147790609Y-140620814D01*
X147790602Y-140620827D01*
X147730264Y-140766498D01*
X147730261Y-140766510D01*
X147699500Y-140921153D01*
X146800499Y-140921153D01*
X146769738Y-140766510D01*
X146769737Y-140766503D01*
X146769735Y-140766498D01*
X146709397Y-140620827D01*
X146709390Y-140620814D01*
X146621789Y-140489711D01*
X146621786Y-140489707D01*
X146510292Y-140378213D01*
X146510288Y-140378210D01*
X146379185Y-140290609D01*
X146379172Y-140290602D01*
X146233501Y-140230264D01*
X146233489Y-140230261D01*
X146078845Y-140199500D01*
X146078842Y-140199500D01*
X145921158Y-140199500D01*
X145921155Y-140199500D01*
X145766510Y-140230261D01*
X145766498Y-140230264D01*
X145620827Y-140290602D01*
X145620814Y-140290609D01*
X145489711Y-140378210D01*
X145489707Y-140378213D01*
X145378213Y-140489707D01*
X145378210Y-140489711D01*
X145290609Y-140620814D01*
X145290602Y-140620827D01*
X145230264Y-140766498D01*
X145230261Y-140766510D01*
X145199500Y-140921153D01*
X144300499Y-140921153D01*
X144269738Y-140766510D01*
X144269737Y-140766503D01*
X144269735Y-140766498D01*
X144209397Y-140620827D01*
X144209390Y-140620814D01*
X144121789Y-140489711D01*
X144121786Y-140489707D01*
X144010292Y-140378213D01*
X144010288Y-140378210D01*
X143879185Y-140290609D01*
X143879172Y-140290602D01*
X143733501Y-140230264D01*
X143733489Y-140230261D01*
X143578845Y-140199500D01*
X143578842Y-140199500D01*
X143421158Y-140199500D01*
X143421155Y-140199500D01*
X143266510Y-140230261D01*
X143266498Y-140230264D01*
X143120827Y-140290602D01*
X143120814Y-140290609D01*
X142989711Y-140378210D01*
X142989707Y-140378213D01*
X142878213Y-140489707D01*
X142878210Y-140489711D01*
X142790609Y-140620814D01*
X142790602Y-140620827D01*
X142730264Y-140766498D01*
X142730261Y-140766510D01*
X142699500Y-140921153D01*
X141800499Y-140921153D01*
X141769738Y-140766510D01*
X141769737Y-140766503D01*
X141769735Y-140766498D01*
X141709397Y-140620827D01*
X141709390Y-140620814D01*
X141621789Y-140489711D01*
X141621786Y-140489707D01*
X141510292Y-140378213D01*
X141510288Y-140378210D01*
X141379185Y-140290609D01*
X141379172Y-140290602D01*
X141233501Y-140230264D01*
X141233489Y-140230261D01*
X141078845Y-140199500D01*
X141078842Y-140199500D01*
X140921158Y-140199500D01*
X140921155Y-140199500D01*
X140766510Y-140230261D01*
X140766498Y-140230264D01*
X140620827Y-140290602D01*
X140620814Y-140290609D01*
X140489711Y-140378210D01*
X140489707Y-140378213D01*
X140378213Y-140489707D01*
X140378210Y-140489711D01*
X140290609Y-140620814D01*
X140290602Y-140620827D01*
X140230264Y-140766498D01*
X140230261Y-140766510D01*
X140199500Y-140921153D01*
X97600500Y-140921153D01*
X97600500Y-136057135D01*
X168164500Y-136057135D01*
X168164500Y-137852870D01*
X168164501Y-137852876D01*
X168170908Y-137912483D01*
X168221202Y-138047328D01*
X168221206Y-138047335D01*
X168307452Y-138162544D01*
X168307455Y-138162547D01*
X168422664Y-138248793D01*
X168422671Y-138248797D01*
X168557517Y-138299091D01*
X168557516Y-138299091D01*
X168564444Y-138299835D01*
X168617127Y-138305500D01*
X170412872Y-138305499D01*
X170472483Y-138299091D01*
X170607331Y-138248796D01*
X170722546Y-138162546D01*
X170808796Y-138047331D01*
X170859091Y-137912483D01*
X170865500Y-137852873D01*
X170865499Y-136057128D01*
X170859091Y-135997517D01*
X170808796Y-135862669D01*
X170808795Y-135862668D01*
X170808793Y-135862664D01*
X170722547Y-135747455D01*
X170722544Y-135747452D01*
X170607335Y-135661206D01*
X170607328Y-135661202D01*
X170472482Y-135610908D01*
X170472483Y-135610908D01*
X170412883Y-135604501D01*
X170412881Y-135604500D01*
X170412873Y-135604500D01*
X170412864Y-135604500D01*
X168617129Y-135604500D01*
X168617123Y-135604501D01*
X168557516Y-135610908D01*
X168422671Y-135661202D01*
X168422664Y-135661206D01*
X168307455Y-135747452D01*
X168307452Y-135747455D01*
X168221206Y-135862664D01*
X168221202Y-135862671D01*
X168170908Y-135997517D01*
X168164501Y-136057116D01*
X168164501Y-136057123D01*
X168164500Y-136057135D01*
X97600500Y-136057135D01*
X97600500Y-133929778D01*
X113699500Y-133929778D01*
X113699500Y-134150221D01*
X113733985Y-134367952D01*
X113802103Y-134577603D01*
X113802104Y-134577606D01*
X113902187Y-134774025D01*
X114031752Y-134952358D01*
X114031756Y-134952363D01*
X114187636Y-135108243D01*
X114187641Y-135108247D01*
X114343192Y-135221260D01*
X114365978Y-135237815D01*
X114494375Y-135303237D01*
X114562393Y-135337895D01*
X114562396Y-135337896D01*
X114667221Y-135371955D01*
X114772049Y-135406015D01*
X114989778Y-135440500D01*
X114989779Y-135440500D01*
X115210221Y-135440500D01*
X115210222Y-135440500D01*
X115427951Y-135406015D01*
X115637606Y-135337895D01*
X115834022Y-135237815D01*
X116012365Y-135108242D01*
X116168242Y-134952365D01*
X116297815Y-134774022D01*
X116397895Y-134577606D01*
X116466015Y-134367951D01*
X116500500Y-134150222D01*
X116500500Y-133929778D01*
X128199500Y-133929778D01*
X128199500Y-134150221D01*
X128233985Y-134367952D01*
X128302103Y-134577603D01*
X128302104Y-134577606D01*
X128402187Y-134774025D01*
X128531752Y-134952358D01*
X128531756Y-134952363D01*
X128687636Y-135108243D01*
X128687641Y-135108247D01*
X128843192Y-135221260D01*
X128865978Y-135237815D01*
X128994375Y-135303237D01*
X129062393Y-135337895D01*
X129062396Y-135337896D01*
X129167221Y-135371955D01*
X129272049Y-135406015D01*
X129489778Y-135440500D01*
X129489779Y-135440500D01*
X129710221Y-135440500D01*
X129710222Y-135440500D01*
X129927951Y-135406015D01*
X130137606Y-135337895D01*
X130334022Y-135237815D01*
X130512365Y-135108242D01*
X130668242Y-134952365D01*
X130797815Y-134774022D01*
X130897895Y-134577606D01*
X130966015Y-134367951D01*
X131000500Y-134150222D01*
X131000500Y-133929778D01*
X130966015Y-133712049D01*
X130897895Y-133502394D01*
X130897895Y-133502393D01*
X130863237Y-133434375D01*
X130797815Y-133305978D01*
X130781260Y-133283192D01*
X130668247Y-133127641D01*
X130668243Y-133127636D01*
X130512363Y-132971756D01*
X130512358Y-132971752D01*
X130334025Y-132842187D01*
X130334024Y-132842186D01*
X130334022Y-132842185D01*
X130271096Y-132810122D01*
X130137606Y-132742104D01*
X130137603Y-132742103D01*
X129927952Y-132673985D01*
X129819086Y-132656742D01*
X129710222Y-132639500D01*
X129489778Y-132639500D01*
X129417201Y-132650995D01*
X129272047Y-132673985D01*
X129062396Y-132742103D01*
X129062393Y-132742104D01*
X128865974Y-132842187D01*
X128687641Y-132971752D01*
X128687636Y-132971756D01*
X128531756Y-133127636D01*
X128531752Y-133127641D01*
X128402187Y-133305974D01*
X128302104Y-133502393D01*
X128302103Y-133502396D01*
X128233985Y-133712047D01*
X128199500Y-133929778D01*
X116500500Y-133929778D01*
X116466015Y-133712049D01*
X116397895Y-133502394D01*
X116397895Y-133502393D01*
X116363237Y-133434375D01*
X116297815Y-133305978D01*
X116281260Y-133283192D01*
X116168247Y-133127641D01*
X116168243Y-133127636D01*
X116012363Y-132971756D01*
X116012358Y-132971752D01*
X115834025Y-132842187D01*
X115834024Y-132842186D01*
X115834022Y-132842185D01*
X115771096Y-132810122D01*
X115637606Y-132742104D01*
X115637603Y-132742103D01*
X115427952Y-132673985D01*
X115319086Y-132656742D01*
X115210222Y-132639500D01*
X114989778Y-132639500D01*
X114917201Y-132650995D01*
X114772047Y-132673985D01*
X114562396Y-132742103D01*
X114562393Y-132742104D01*
X114365974Y-132842187D01*
X114187641Y-132971752D01*
X114187636Y-132971756D01*
X114031756Y-133127636D01*
X114031752Y-133127641D01*
X113902187Y-133305974D01*
X113802104Y-133502393D01*
X113802103Y-133502396D01*
X113733985Y-133712047D01*
X113699500Y-133929778D01*
X97600500Y-133929778D01*
X97600500Y-128849778D01*
X113699500Y-128849778D01*
X113699500Y-129070221D01*
X113733985Y-129287952D01*
X113802103Y-129497603D01*
X113802104Y-129497606D01*
X113902187Y-129694025D01*
X114031752Y-129872358D01*
X114031756Y-129872363D01*
X114187636Y-130028243D01*
X114187641Y-130028247D01*
X114343192Y-130141260D01*
X114365978Y-130157815D01*
X114494375Y-130223237D01*
X114562393Y-130257895D01*
X114562396Y-130257896D01*
X114667221Y-130291955D01*
X114772049Y-130326015D01*
X114989778Y-130360500D01*
X114989779Y-130360500D01*
X115210221Y-130360500D01*
X115210222Y-130360500D01*
X115427951Y-130326015D01*
X115637606Y-130257895D01*
X115834022Y-130157815D01*
X116012365Y-130028242D01*
X116168242Y-129872365D01*
X116297815Y-129694022D01*
X116397895Y-129497606D01*
X116466015Y-129287951D01*
X116500500Y-129070222D01*
X116500500Y-128849778D01*
X116466015Y-128632049D01*
X116397895Y-128422394D01*
X116397895Y-128422393D01*
X116335786Y-128300500D01*
X116297815Y-128225978D01*
X116222116Y-128121786D01*
X116168247Y-128047641D01*
X116168243Y-128047636D01*
X116012363Y-127891756D01*
X116012358Y-127891752D01*
X115834025Y-127762187D01*
X115834024Y-127762186D01*
X115834022Y-127762185D01*
X115730421Y-127709397D01*
X115637606Y-127662104D01*
X115637603Y-127662103D01*
X115427952Y-127593985D01*
X115319086Y-127576742D01*
X115210222Y-127559500D01*
X114989778Y-127559500D01*
X114917201Y-127570995D01*
X114772047Y-127593985D01*
X114562396Y-127662103D01*
X114562393Y-127662104D01*
X114365974Y-127762187D01*
X114187641Y-127891752D01*
X114187636Y-127891756D01*
X114031756Y-128047636D01*
X114031752Y-128047641D01*
X113902187Y-128225974D01*
X113802104Y-128422393D01*
X113802103Y-128422396D01*
X113733985Y-128632047D01*
X113699500Y-128849778D01*
X97600500Y-128849778D01*
X97600500Y-127421153D01*
X143199500Y-127421153D01*
X143199500Y-127578846D01*
X143230261Y-127733489D01*
X143230264Y-127733501D01*
X143290602Y-127879172D01*
X143290609Y-127879185D01*
X143378210Y-128010288D01*
X143378213Y-128010292D01*
X143489707Y-128121786D01*
X143489711Y-128121789D01*
X143620814Y-128209390D01*
X143620827Y-128209397D01*
X143766498Y-128269735D01*
X143766503Y-128269737D01*
X143921153Y-128300499D01*
X143921156Y-128300500D01*
X143921158Y-128300500D01*
X144078844Y-128300500D01*
X144078845Y-128300499D01*
X144233497Y-128269737D01*
X144379179Y-128209394D01*
X144510289Y-128121789D01*
X144621789Y-128010289D01*
X144709394Y-127879179D01*
X144769737Y-127733497D01*
X144779508Y-127684373D01*
X144811892Y-127622464D01*
X144872607Y-127587890D01*
X144942377Y-127591629D01*
X144984696Y-127618295D01*
X144985001Y-127617924D01*
X144987957Y-127620350D01*
X144988806Y-127620885D01*
X144989707Y-127621786D01*
X144989711Y-127621789D01*
X145120814Y-127709390D01*
X145120827Y-127709397D01*
X145266498Y-127769735D01*
X145266503Y-127769737D01*
X145421153Y-127800499D01*
X145421156Y-127800500D01*
X145421158Y-127800500D01*
X145578844Y-127800500D01*
X145578845Y-127800499D01*
X145733497Y-127769737D01*
X145879179Y-127709394D01*
X146010289Y-127621789D01*
X146121789Y-127510289D01*
X146209394Y-127379179D01*
X146269737Y-127233497D01*
X146300500Y-127078842D01*
X146300500Y-126921158D01*
X146300500Y-126921155D01*
X146300499Y-126921153D01*
X146274531Y-126790606D01*
X146269737Y-126766503D01*
X146269735Y-126766498D01*
X146209397Y-126620827D01*
X146209390Y-126620814D01*
X146121789Y-126489711D01*
X146121786Y-126489707D01*
X146010292Y-126378213D01*
X146010288Y-126378210D01*
X145879185Y-126290609D01*
X145879172Y-126290602D01*
X145733501Y-126230264D01*
X145733489Y-126230261D01*
X145578845Y-126199500D01*
X145578842Y-126199500D01*
X145421158Y-126199500D01*
X145421155Y-126199500D01*
X145266510Y-126230261D01*
X145266498Y-126230264D01*
X145120827Y-126290602D01*
X145120814Y-126290609D01*
X144989711Y-126378210D01*
X144989707Y-126378213D01*
X144878213Y-126489707D01*
X144878210Y-126489711D01*
X144790609Y-126620814D01*
X144790602Y-126620827D01*
X144730264Y-126766498D01*
X144730261Y-126766507D01*
X144720491Y-126815626D01*
X144688105Y-126877536D01*
X144627389Y-126912110D01*
X144557620Y-126908369D01*
X144515303Y-126881704D01*
X144514999Y-126882076D01*
X144512040Y-126879647D01*
X144511193Y-126879114D01*
X144510292Y-126878213D01*
X144510288Y-126878210D01*
X144379185Y-126790609D01*
X144379172Y-126790602D01*
X144233501Y-126730264D01*
X144233489Y-126730261D01*
X144078845Y-126699500D01*
X144078842Y-126699500D01*
X143921158Y-126699500D01*
X143921155Y-126699500D01*
X143766510Y-126730261D01*
X143766498Y-126730264D01*
X143620827Y-126790602D01*
X143620814Y-126790609D01*
X143489711Y-126878210D01*
X143489707Y-126878213D01*
X143378213Y-126989707D01*
X143378210Y-126989711D01*
X143290609Y-127120814D01*
X143290602Y-127120827D01*
X143230264Y-127266498D01*
X143230261Y-127266510D01*
X143199500Y-127421153D01*
X97600500Y-127421153D01*
X97600500Y-124921153D01*
X144699500Y-124921153D01*
X144699500Y-125078846D01*
X144730261Y-125233489D01*
X144730264Y-125233501D01*
X144790602Y-125379172D01*
X144790609Y-125379185D01*
X144878210Y-125510288D01*
X144878213Y-125510292D01*
X144989707Y-125621786D01*
X144989711Y-125621789D01*
X145120814Y-125709390D01*
X145120827Y-125709397D01*
X145266498Y-125769735D01*
X145266503Y-125769737D01*
X145421153Y-125800499D01*
X145421156Y-125800500D01*
X145421158Y-125800500D01*
X145578844Y-125800500D01*
X145578845Y-125800499D01*
X145733497Y-125769737D01*
X145879179Y-125709394D01*
X146010289Y-125621789D01*
X146121789Y-125510289D01*
X146209394Y-125379179D01*
X146269737Y-125233497D01*
X146300500Y-125078842D01*
X146300500Y-124921158D01*
X146300500Y-124921155D01*
X146300499Y-124921153D01*
X146269738Y-124766510D01*
X146269737Y-124766503D01*
X146269735Y-124766498D01*
X146209397Y-124620827D01*
X146209390Y-124620814D01*
X146121789Y-124489711D01*
X146121786Y-124489707D01*
X146010292Y-124378213D01*
X146010288Y-124378210D01*
X145879185Y-124290609D01*
X145879172Y-124290602D01*
X145733501Y-124230264D01*
X145733489Y-124230261D01*
X145578845Y-124199500D01*
X145578842Y-124199500D01*
X145421158Y-124199500D01*
X145421155Y-124199500D01*
X145266510Y-124230261D01*
X145266498Y-124230264D01*
X145120827Y-124290602D01*
X145120814Y-124290609D01*
X144989711Y-124378210D01*
X144989707Y-124378213D01*
X144878213Y-124489707D01*
X144878210Y-124489711D01*
X144790609Y-124620814D01*
X144790602Y-124620827D01*
X144730264Y-124766498D01*
X144730261Y-124766510D01*
X144699500Y-124921153D01*
X97600500Y-124921153D01*
X97600500Y-122921153D01*
X146699500Y-122921153D01*
X146699500Y-123078846D01*
X146730261Y-123233489D01*
X146730264Y-123233501D01*
X146790602Y-123379172D01*
X146790609Y-123379185D01*
X146878210Y-123510288D01*
X146878213Y-123510292D01*
X146989707Y-123621786D01*
X146989711Y-123621789D01*
X147120814Y-123709390D01*
X147120827Y-123709397D01*
X147266498Y-123769735D01*
X147266503Y-123769737D01*
X147421153Y-123800499D01*
X147421156Y-123800500D01*
X147421158Y-123800500D01*
X147578844Y-123800500D01*
X147578845Y-123800499D01*
X147733497Y-123769737D01*
X147879179Y-123709394D01*
X148010289Y-123621789D01*
X148121789Y-123510289D01*
X148209394Y-123379179D01*
X148269737Y-123233497D01*
X148300500Y-123078842D01*
X148300500Y-122921158D01*
X148300500Y-122921155D01*
X148300499Y-122921153D01*
X148269738Y-122766510D01*
X148269737Y-122766503D01*
X148269735Y-122766498D01*
X148209397Y-122620827D01*
X148209390Y-122620814D01*
X148121789Y-122489711D01*
X148121786Y-122489707D01*
X148010292Y-122378213D01*
X148010288Y-122378210D01*
X147879185Y-122290609D01*
X147879172Y-122290602D01*
X147733501Y-122230264D01*
X147733489Y-122230261D01*
X147578845Y-122199500D01*
X147578842Y-122199500D01*
X147421158Y-122199500D01*
X147421155Y-122199500D01*
X147266510Y-122230261D01*
X147266498Y-122230264D01*
X147120827Y-122290602D01*
X147120814Y-122290609D01*
X146989711Y-122378210D01*
X146989707Y-122378213D01*
X146878213Y-122489707D01*
X146878210Y-122489711D01*
X146790609Y-122620814D01*
X146790602Y-122620827D01*
X146730264Y-122766498D01*
X146730261Y-122766510D01*
X146699500Y-122921153D01*
X97600500Y-122921153D01*
X97600500Y-121421153D01*
X166699500Y-121421153D01*
X166699500Y-121578846D01*
X166730261Y-121733489D01*
X166730264Y-121733501D01*
X166790602Y-121879172D01*
X166790609Y-121879185D01*
X166878210Y-122010288D01*
X166878213Y-122010292D01*
X166989707Y-122121786D01*
X166989711Y-122121789D01*
X167120814Y-122209390D01*
X167120827Y-122209397D01*
X167238389Y-122258092D01*
X167266503Y-122269737D01*
X167421153Y-122300499D01*
X167421156Y-122300500D01*
X167421158Y-122300500D01*
X167578844Y-122300500D01*
X167578845Y-122300499D01*
X167733497Y-122269737D01*
X167879179Y-122209394D01*
X168010289Y-122121789D01*
X168110176Y-122021902D01*
X176099500Y-122021902D01*
X176099500Y-122258097D01*
X176136446Y-122491368D01*
X176209433Y-122715996D01*
X176313967Y-122921153D01*
X176316657Y-122926433D01*
X176455483Y-123117510D01*
X176622490Y-123284517D01*
X176813567Y-123423343D01*
X176912991Y-123474002D01*
X177024003Y-123530566D01*
X177024005Y-123530566D01*
X177024008Y-123530568D01*
X177144412Y-123569689D01*
X177248631Y-123603553D01*
X177481903Y-123640500D01*
X177481908Y-123640500D01*
X177718097Y-123640500D01*
X177951368Y-123603553D01*
X178175992Y-123530568D01*
X178386433Y-123423343D01*
X178577510Y-123284517D01*
X178744517Y-123117510D01*
X178883343Y-122926433D01*
X178990568Y-122715992D01*
X179063553Y-122491368D01*
X179081475Y-122378213D01*
X179100500Y-122258097D01*
X179100500Y-122021902D01*
X179063553Y-121788631D01*
X178995389Y-121578846D01*
X178990568Y-121564008D01*
X178990566Y-121564005D01*
X178990566Y-121564003D01*
X178883342Y-121353566D01*
X178744517Y-121162490D01*
X178577510Y-120995483D01*
X178386433Y-120856657D01*
X178175996Y-120749433D01*
X177951368Y-120676446D01*
X177718097Y-120639500D01*
X177718092Y-120639500D01*
X177481908Y-120639500D01*
X177481903Y-120639500D01*
X177248631Y-120676446D01*
X177024003Y-120749433D01*
X176813566Y-120856657D01*
X176704550Y-120935862D01*
X176622490Y-120995483D01*
X176622488Y-120995485D01*
X176622487Y-120995485D01*
X176455485Y-121162487D01*
X176455485Y-121162488D01*
X176455483Y-121162490D01*
X176395862Y-121244550D01*
X176316657Y-121353566D01*
X176209433Y-121564003D01*
X176136446Y-121788631D01*
X176099500Y-122021902D01*
X168110176Y-122021902D01*
X168121789Y-122010289D01*
X168142680Y-121979022D01*
X168163313Y-121948145D01*
X168209390Y-121879185D01*
X168209390Y-121879184D01*
X168209394Y-121879179D01*
X168269737Y-121733497D01*
X168300500Y-121578842D01*
X168300500Y-121421158D01*
X168300500Y-121421155D01*
X168300499Y-121421153D01*
X168269738Y-121266510D01*
X168269737Y-121266503D01*
X168226653Y-121162488D01*
X168209397Y-121120827D01*
X168209390Y-121120814D01*
X168121789Y-120989711D01*
X168121786Y-120989707D01*
X168010292Y-120878213D01*
X168010288Y-120878210D01*
X167879185Y-120790609D01*
X167879172Y-120790602D01*
X167733501Y-120730264D01*
X167733489Y-120730261D01*
X167578845Y-120699500D01*
X167578842Y-120699500D01*
X167421158Y-120699500D01*
X167421155Y-120699500D01*
X167266510Y-120730261D01*
X167266498Y-120730264D01*
X167120827Y-120790602D01*
X167120814Y-120790609D01*
X166989711Y-120878210D01*
X166989707Y-120878213D01*
X166878213Y-120989707D01*
X166878210Y-120989711D01*
X166790609Y-121120814D01*
X166790602Y-121120827D01*
X166730264Y-121266498D01*
X166730261Y-121266510D01*
X166699500Y-121421153D01*
X97600500Y-121421153D01*
X97600500Y-119921153D01*
X172199500Y-119921153D01*
X172199500Y-120078846D01*
X172230261Y-120233489D01*
X172230264Y-120233501D01*
X172290602Y-120379172D01*
X172290609Y-120379185D01*
X172378210Y-120510288D01*
X172378213Y-120510292D01*
X172489707Y-120621786D01*
X172489711Y-120621789D01*
X172620814Y-120709390D01*
X172620827Y-120709397D01*
X172717484Y-120749433D01*
X172766503Y-120769737D01*
X172921153Y-120800499D01*
X172921156Y-120800500D01*
X172921158Y-120800500D01*
X173078844Y-120800500D01*
X173078845Y-120800499D01*
X173233497Y-120769737D01*
X173379179Y-120709394D01*
X173510289Y-120621789D01*
X173621789Y-120510289D01*
X173709394Y-120379179D01*
X173769737Y-120233497D01*
X173800500Y-120078842D01*
X173800500Y-119921158D01*
X173800500Y-119921155D01*
X173800499Y-119921153D01*
X173769738Y-119766510D01*
X173769737Y-119766503D01*
X173769735Y-119766498D01*
X173709397Y-119620827D01*
X173709390Y-119620814D01*
X173621789Y-119489711D01*
X173621786Y-119489707D01*
X173510292Y-119378213D01*
X173510288Y-119378210D01*
X173379185Y-119290609D01*
X173379172Y-119290602D01*
X173233501Y-119230264D01*
X173233489Y-119230261D01*
X173078845Y-119199500D01*
X173078842Y-119199500D01*
X172921158Y-119199500D01*
X172921155Y-119199500D01*
X172766510Y-119230261D01*
X172766498Y-119230264D01*
X172620827Y-119290602D01*
X172620814Y-119290609D01*
X172489711Y-119378210D01*
X172489707Y-119378213D01*
X172378213Y-119489707D01*
X172378210Y-119489711D01*
X172290609Y-119620814D01*
X172290602Y-119620827D01*
X172230264Y-119766498D01*
X172230261Y-119766510D01*
X172199500Y-119921153D01*
X97600500Y-119921153D01*
X97600500Y-115521902D01*
X126099500Y-115521902D01*
X126099500Y-115758097D01*
X126136446Y-115991368D01*
X126209433Y-116215996D01*
X126292576Y-116379172D01*
X126316657Y-116426433D01*
X126455483Y-116617510D01*
X126622490Y-116784517D01*
X126813567Y-116923343D01*
X126912991Y-116974002D01*
X127024003Y-117030566D01*
X127024005Y-117030566D01*
X127024008Y-117030568D01*
X127144412Y-117069689D01*
X127248631Y-117103553D01*
X127481903Y-117140500D01*
X127481908Y-117140500D01*
X127718097Y-117140500D01*
X127951368Y-117103553D01*
X128175992Y-117030568D01*
X128386433Y-116923343D01*
X128577510Y-116784517D01*
X128744517Y-116617510D01*
X128883343Y-116426433D01*
X128990568Y-116215992D01*
X129063553Y-115991368D01*
X129074674Y-115921153D01*
X134699500Y-115921153D01*
X134699500Y-116078846D01*
X134730261Y-116233489D01*
X134730264Y-116233501D01*
X134790602Y-116379172D01*
X134790609Y-116379185D01*
X134878210Y-116510288D01*
X134878213Y-116510292D01*
X134989707Y-116621786D01*
X134989711Y-116621789D01*
X135120814Y-116709390D01*
X135120827Y-116709397D01*
X135238389Y-116758092D01*
X135266503Y-116769737D01*
X135421153Y-116800499D01*
X135421156Y-116800500D01*
X135421158Y-116800500D01*
X135578844Y-116800500D01*
X135578845Y-116800499D01*
X135733497Y-116769737D01*
X135879179Y-116709394D01*
X136010289Y-116621789D01*
X136121789Y-116510289D01*
X136209394Y-116379179D01*
X136269737Y-116233497D01*
X136300500Y-116078842D01*
X136300500Y-115921158D01*
X136300500Y-115921155D01*
X136300499Y-115921153D01*
X137199500Y-115921153D01*
X137199500Y-116078846D01*
X137230261Y-116233489D01*
X137230264Y-116233501D01*
X137290602Y-116379172D01*
X137290609Y-116379185D01*
X137378210Y-116510288D01*
X137378213Y-116510292D01*
X137489707Y-116621786D01*
X137489711Y-116621789D01*
X137620814Y-116709390D01*
X137620827Y-116709397D01*
X137738389Y-116758092D01*
X137766503Y-116769737D01*
X137921153Y-116800499D01*
X137921156Y-116800500D01*
X137921158Y-116800500D01*
X138078844Y-116800500D01*
X138078845Y-116800499D01*
X138233497Y-116769737D01*
X138379179Y-116709394D01*
X138510289Y-116621789D01*
X138610176Y-116521902D01*
X176099500Y-116521902D01*
X176099500Y-116758097D01*
X176136446Y-116991368D01*
X176209433Y-117215996D01*
X176316657Y-117426433D01*
X176455483Y-117617510D01*
X176622490Y-117784517D01*
X176813567Y-117923343D01*
X176912991Y-117974002D01*
X177024003Y-118030566D01*
X177024005Y-118030566D01*
X177024008Y-118030568D01*
X177144412Y-118069689D01*
X177248631Y-118103553D01*
X177481903Y-118140500D01*
X177481908Y-118140500D01*
X177718097Y-118140500D01*
X177951368Y-118103553D01*
X178175992Y-118030568D01*
X178386433Y-117923343D01*
X178577510Y-117784517D01*
X178744517Y-117617510D01*
X178883343Y-117426433D01*
X178990568Y-117215992D01*
X179063553Y-116991368D01*
X179074327Y-116923342D01*
X179100500Y-116758097D01*
X179100500Y-116521902D01*
X179063553Y-116288631D01*
X178995389Y-116078846D01*
X178990568Y-116064008D01*
X178990566Y-116064005D01*
X178990566Y-116064003D01*
X178917780Y-115921153D01*
X178883343Y-115853567D01*
X178744517Y-115662490D01*
X178577510Y-115495483D01*
X178386433Y-115356657D01*
X178175996Y-115249433D01*
X177951368Y-115176446D01*
X177718097Y-115139500D01*
X177718092Y-115139500D01*
X177481908Y-115139500D01*
X177481903Y-115139500D01*
X177248631Y-115176446D01*
X177024003Y-115249433D01*
X176813566Y-115356657D01*
X176724796Y-115421153D01*
X176622490Y-115495483D01*
X176622488Y-115495485D01*
X176622487Y-115495485D01*
X176455485Y-115662487D01*
X176455485Y-115662488D01*
X176455483Y-115662490D01*
X176403899Y-115733489D01*
X176316657Y-115853566D01*
X176209433Y-116064003D01*
X176136446Y-116288631D01*
X176099500Y-116521902D01*
X138610176Y-116521902D01*
X138621789Y-116510289D01*
X138642680Y-116479022D01*
X138663313Y-116448145D01*
X138709390Y-116379185D01*
X138709390Y-116379184D01*
X138709394Y-116379179D01*
X138769737Y-116233497D01*
X138800500Y-116078842D01*
X138800500Y-115921158D01*
X138800500Y-115921155D01*
X138800499Y-115921153D01*
X138769738Y-115766510D01*
X138769737Y-115766503D01*
X138726653Y-115662488D01*
X138709397Y-115620827D01*
X138709390Y-115620814D01*
X138621790Y-115489712D01*
X138621784Y-115489705D01*
X138553232Y-115421153D01*
X142699500Y-115421153D01*
X142699500Y-115578846D01*
X142730261Y-115733489D01*
X142730264Y-115733501D01*
X142790602Y-115879172D01*
X142790609Y-115879185D01*
X142878210Y-116010288D01*
X142878213Y-116010292D01*
X142989707Y-116121786D01*
X142989711Y-116121789D01*
X143120814Y-116209390D01*
X143120827Y-116209397D01*
X143266498Y-116269735D01*
X143266503Y-116269737D01*
X143421153Y-116300499D01*
X143421156Y-116300500D01*
X143421158Y-116300500D01*
X143578844Y-116300500D01*
X143578845Y-116300499D01*
X143733497Y-116269737D01*
X143879179Y-116209394D01*
X144010289Y-116121789D01*
X144121789Y-116010289D01*
X144209394Y-115879179D01*
X144269737Y-115733497D01*
X144300500Y-115578842D01*
X144300500Y-115421158D01*
X144300500Y-115421155D01*
X144300499Y-115421153D01*
X145199500Y-115421153D01*
X145199500Y-115578846D01*
X145230261Y-115733489D01*
X145230264Y-115733501D01*
X145290602Y-115879172D01*
X145290609Y-115879185D01*
X145378210Y-116010288D01*
X145378213Y-116010292D01*
X145489707Y-116121786D01*
X145489711Y-116121789D01*
X145620814Y-116209390D01*
X145620827Y-116209397D01*
X145766498Y-116269735D01*
X145766503Y-116269737D01*
X145921153Y-116300499D01*
X145921156Y-116300500D01*
X145921158Y-116300500D01*
X146078844Y-116300500D01*
X146078845Y-116300499D01*
X146233497Y-116269737D01*
X146379179Y-116209394D01*
X146510289Y-116121789D01*
X146621789Y-116010289D01*
X146709394Y-115879179D01*
X146769737Y-115733497D01*
X146800500Y-115578842D01*
X146800500Y-115421158D01*
X146800500Y-115421155D01*
X146800499Y-115421153D01*
X146774531Y-115290606D01*
X146769737Y-115266503D01*
X146769735Y-115266498D01*
X146709397Y-115120827D01*
X146709390Y-115120814D01*
X146621789Y-114989711D01*
X146621786Y-114989707D01*
X146510292Y-114878213D01*
X146510288Y-114878210D01*
X146379185Y-114790609D01*
X146379172Y-114790602D01*
X146233501Y-114730264D01*
X146233489Y-114730261D01*
X146078845Y-114699500D01*
X146078842Y-114699500D01*
X145921158Y-114699500D01*
X145921155Y-114699500D01*
X145766510Y-114730261D01*
X145766498Y-114730264D01*
X145620827Y-114790602D01*
X145620814Y-114790609D01*
X145489711Y-114878210D01*
X145489707Y-114878213D01*
X145378213Y-114989707D01*
X145378210Y-114989711D01*
X145290609Y-115120814D01*
X145290602Y-115120827D01*
X145230264Y-115266498D01*
X145230261Y-115266510D01*
X145199500Y-115421153D01*
X144300499Y-115421153D01*
X144274531Y-115290606D01*
X144269737Y-115266503D01*
X144269735Y-115266498D01*
X144209397Y-115120827D01*
X144209390Y-115120814D01*
X144121789Y-114989711D01*
X144121786Y-114989707D01*
X144010292Y-114878213D01*
X144010288Y-114878210D01*
X143879185Y-114790609D01*
X143879172Y-114790602D01*
X143733501Y-114730264D01*
X143733489Y-114730261D01*
X143578845Y-114699500D01*
X143578842Y-114699500D01*
X143421158Y-114699500D01*
X143421155Y-114699500D01*
X143266510Y-114730261D01*
X143266498Y-114730264D01*
X143120827Y-114790602D01*
X143120814Y-114790609D01*
X142989711Y-114878210D01*
X142989707Y-114878213D01*
X142878213Y-114989707D01*
X142878210Y-114989711D01*
X142790609Y-115120814D01*
X142790602Y-115120827D01*
X142730264Y-115266498D01*
X142730261Y-115266510D01*
X142699500Y-115421153D01*
X138553232Y-115421153D01*
X138510292Y-115378213D01*
X138510288Y-115378210D01*
X138379185Y-115290609D01*
X138379172Y-115290602D01*
X138233501Y-115230264D01*
X138233489Y-115230261D01*
X138078845Y-115199500D01*
X138078842Y-115199500D01*
X137921158Y-115199500D01*
X137921155Y-115199500D01*
X137766510Y-115230261D01*
X137766498Y-115230264D01*
X137620827Y-115290602D01*
X137620814Y-115290609D01*
X137489711Y-115378210D01*
X137489707Y-115378213D01*
X137378213Y-115489707D01*
X137378210Y-115489711D01*
X137290609Y-115620814D01*
X137290602Y-115620827D01*
X137230264Y-115766498D01*
X137230261Y-115766510D01*
X137199500Y-115921153D01*
X136300499Y-115921153D01*
X136269738Y-115766510D01*
X136269737Y-115766503D01*
X136226653Y-115662488D01*
X136209397Y-115620827D01*
X136209390Y-115620814D01*
X136121789Y-115489711D01*
X136121786Y-115489707D01*
X136010292Y-115378213D01*
X136010288Y-115378210D01*
X135879185Y-115290609D01*
X135879172Y-115290602D01*
X135733501Y-115230264D01*
X135733489Y-115230261D01*
X135578845Y-115199500D01*
X135578842Y-115199500D01*
X135421158Y-115199500D01*
X135421155Y-115199500D01*
X135266510Y-115230261D01*
X135266498Y-115230264D01*
X135120827Y-115290602D01*
X135120814Y-115290609D01*
X134989711Y-115378210D01*
X134989707Y-115378213D01*
X134878213Y-115489707D01*
X134878210Y-115489711D01*
X134790609Y-115620814D01*
X134790602Y-115620827D01*
X134730264Y-115766498D01*
X134730261Y-115766510D01*
X134699500Y-115921153D01*
X129074674Y-115921153D01*
X129078711Y-115895668D01*
X129100500Y-115758097D01*
X129100500Y-115521902D01*
X129063553Y-115288631D01*
X129015097Y-115139500D01*
X128990568Y-115064008D01*
X128990566Y-115064005D01*
X128990566Y-115064003D01*
X128934002Y-114952991D01*
X128883343Y-114853567D01*
X128744517Y-114662490D01*
X128577510Y-114495483D01*
X128386433Y-114356657D01*
X128175996Y-114249433D01*
X127951368Y-114176446D01*
X127718097Y-114139500D01*
X127718092Y-114139500D01*
X127481908Y-114139500D01*
X127481903Y-114139500D01*
X127248631Y-114176446D01*
X127024003Y-114249433D01*
X126813566Y-114356657D01*
X126766986Y-114390500D01*
X126622490Y-114495483D01*
X126622488Y-114495485D01*
X126622487Y-114495485D01*
X126455485Y-114662487D01*
X126455485Y-114662488D01*
X126455483Y-114662490D01*
X126428594Y-114699500D01*
X126316657Y-114853566D01*
X126209433Y-115064003D01*
X126136446Y-115288631D01*
X126099500Y-115521902D01*
X97600500Y-115521902D01*
X97600500Y-97693713D01*
X99149500Y-97693713D01*
X99149500Y-97906286D01*
X99162712Y-97989707D01*
X99182754Y-98116243D01*
X99184243Y-98120827D01*
X99248444Y-98318414D01*
X99344951Y-98507820D01*
X99469890Y-98679786D01*
X99620213Y-98830109D01*
X99792182Y-98955050D01*
X99800946Y-98959516D01*
X99851742Y-99007491D01*
X99868536Y-99075312D01*
X99845998Y-99141447D01*
X99800946Y-99180484D01*
X99792182Y-99184949D01*
X99620213Y-99309890D01*
X99469890Y-99460213D01*
X99344951Y-99632179D01*
X99248444Y-99821585D01*
X99182753Y-100023760D01*
X99149500Y-100233713D01*
X99149500Y-100446286D01*
X99177144Y-100620827D01*
X99182754Y-100656243D01*
X99218578Y-100766498D01*
X99248444Y-100858414D01*
X99344951Y-101047820D01*
X99469890Y-101219786D01*
X99620213Y-101370109D01*
X99792182Y-101495050D01*
X99800946Y-101499516D01*
X99851742Y-101547491D01*
X99868536Y-101615312D01*
X99845998Y-101681447D01*
X99800946Y-101720484D01*
X99792182Y-101724949D01*
X99620213Y-101849890D01*
X99469890Y-102000213D01*
X99344951Y-102172179D01*
X99248444Y-102361585D01*
X99182753Y-102563760D01*
X99161254Y-102699500D01*
X99149500Y-102773713D01*
X99149500Y-102986287D01*
X99182754Y-103196243D01*
X99205585Y-103266510D01*
X99248444Y-103398414D01*
X99344951Y-103587820D01*
X99469890Y-103759786D01*
X99620213Y-103910109D01*
X99792182Y-104035050D01*
X99800946Y-104039516D01*
X99851742Y-104087491D01*
X99868536Y-104155312D01*
X99845998Y-104221447D01*
X99800946Y-104260484D01*
X99792182Y-104264949D01*
X99620213Y-104389890D01*
X99469890Y-104540213D01*
X99344951Y-104712179D01*
X99248444Y-104901585D01*
X99182753Y-105103760D01*
X99149500Y-105313713D01*
X99149500Y-105526286D01*
X99182319Y-105733501D01*
X99182754Y-105736243D01*
X99228882Y-105878211D01*
X99248444Y-105938414D01*
X99344951Y-106127820D01*
X99469890Y-106299786D01*
X99620213Y-106450109D01*
X99792179Y-106575048D01*
X99792181Y-106575049D01*
X99792184Y-106575051D01*
X99981588Y-106671557D01*
X100183757Y-106737246D01*
X100393713Y-106770500D01*
X100393714Y-106770500D01*
X100606286Y-106770500D01*
X100606287Y-106770500D01*
X100816243Y-106737246D01*
X101018412Y-106671557D01*
X101207816Y-106575051D01*
X101229789Y-106559086D01*
X101379786Y-106450109D01*
X101379788Y-106450106D01*
X101379792Y-106450104D01*
X101530104Y-106299792D01*
X101530106Y-106299788D01*
X101530109Y-106299786D01*
X101655048Y-106127820D01*
X101655047Y-106127820D01*
X101655051Y-106127816D01*
X101659514Y-106119054D01*
X101707488Y-106068259D01*
X101775308Y-106051463D01*
X101841444Y-106073999D01*
X101880484Y-106119054D01*
X101881385Y-106120821D01*
X101884951Y-106127820D01*
X102009890Y-106299786D01*
X102160213Y-106450109D01*
X102332182Y-106575050D01*
X102340946Y-106579516D01*
X102391742Y-106627491D01*
X102408536Y-106695312D01*
X102385998Y-106761447D01*
X102340946Y-106800484D01*
X102332182Y-106804949D01*
X102160213Y-106929890D01*
X102009890Y-107080213D01*
X101884951Y-107252179D01*
X101788444Y-107441585D01*
X101722753Y-107643760D01*
X101689500Y-107853713D01*
X101689500Y-108066286D01*
X101721723Y-108269738D01*
X101722754Y-108276243D01*
X101730635Y-108300499D01*
X101788444Y-108478414D01*
X101884951Y-108667820D01*
X102009890Y-108839786D01*
X102160213Y-108990109D01*
X102332182Y-109115050D01*
X102340946Y-109119516D01*
X102391742Y-109167491D01*
X102408536Y-109235312D01*
X102385998Y-109301447D01*
X102340946Y-109340484D01*
X102332182Y-109344949D01*
X102160213Y-109469890D01*
X102009890Y-109620213D01*
X101884951Y-109792179D01*
X101788444Y-109981585D01*
X101722753Y-110183760D01*
X101689500Y-110393713D01*
X101689500Y-110606286D01*
X101722753Y-110816239D01*
X101788444Y-111018414D01*
X101884951Y-111207820D01*
X102009890Y-111379786D01*
X102160213Y-111530109D01*
X102332182Y-111655050D01*
X102340946Y-111659516D01*
X102391742Y-111707491D01*
X102408536Y-111775312D01*
X102385998Y-111841447D01*
X102340946Y-111880484D01*
X102332182Y-111884949D01*
X102160213Y-112009890D01*
X102009890Y-112160213D01*
X101884951Y-112332179D01*
X101788444Y-112521585D01*
X101722753Y-112723760D01*
X101689500Y-112933713D01*
X101689500Y-113146286D01*
X101722753Y-113356239D01*
X101788444Y-113558414D01*
X101884951Y-113747820D01*
X102009890Y-113919786D01*
X102160213Y-114070109D01*
X102332179Y-114195048D01*
X102332181Y-114195049D01*
X102332184Y-114195051D01*
X102521588Y-114291557D01*
X102723757Y-114357246D01*
X102933713Y-114390500D01*
X102933714Y-114390500D01*
X103146286Y-114390500D01*
X103146287Y-114390500D01*
X103356243Y-114357246D01*
X103558412Y-114291557D01*
X103747816Y-114195051D01*
X103824276Y-114139500D01*
X103919786Y-114070109D01*
X103919788Y-114070106D01*
X103919792Y-114070104D01*
X104070104Y-113919792D01*
X104070106Y-113919788D01*
X104070109Y-113919786D01*
X104195048Y-113747820D01*
X104195047Y-113747820D01*
X104195051Y-113747816D01*
X104291557Y-113558412D01*
X104357246Y-113356243D01*
X104390500Y-113146287D01*
X104390500Y-112933713D01*
X104357246Y-112723757D01*
X104291557Y-112521588D01*
X104195051Y-112332184D01*
X104195049Y-112332181D01*
X104195048Y-112332179D01*
X104070109Y-112160213D01*
X103919786Y-112009890D01*
X103747820Y-111884951D01*
X103747115Y-111884591D01*
X103739054Y-111880485D01*
X103688259Y-111832512D01*
X103671463Y-111764692D01*
X103693999Y-111698556D01*
X103739054Y-111659515D01*
X103747816Y-111655051D01*
X103769789Y-111639086D01*
X103919786Y-111530109D01*
X103919788Y-111530106D01*
X103919792Y-111530104D01*
X104070104Y-111379792D01*
X104070106Y-111379788D01*
X104070109Y-111379786D01*
X104195048Y-111207820D01*
X104195047Y-111207820D01*
X104195051Y-111207816D01*
X104291557Y-111018412D01*
X104357246Y-110816243D01*
X104390500Y-110606287D01*
X104390500Y-110393713D01*
X104357246Y-110183757D01*
X104291557Y-109981588D01*
X104195051Y-109792184D01*
X104195049Y-109792181D01*
X104195048Y-109792179D01*
X104070109Y-109620213D01*
X103919786Y-109469890D01*
X103747820Y-109344951D01*
X103747115Y-109344591D01*
X103739054Y-109340485D01*
X103688259Y-109292512D01*
X103671463Y-109224692D01*
X103693999Y-109158556D01*
X103739054Y-109119515D01*
X103747816Y-109115051D01*
X103769789Y-109099086D01*
X103919786Y-108990109D01*
X103919788Y-108990106D01*
X103919792Y-108990104D01*
X104070104Y-108839792D01*
X104070106Y-108839788D01*
X104070109Y-108839786D01*
X104195048Y-108667820D01*
X104195047Y-108667820D01*
X104195051Y-108667816D01*
X104291557Y-108478412D01*
X104357246Y-108276243D01*
X104390500Y-108066287D01*
X104390500Y-107853713D01*
X104357246Y-107643757D01*
X104291557Y-107441588D01*
X104195051Y-107252184D01*
X104195049Y-107252181D01*
X104195048Y-107252179D01*
X104070109Y-107080213D01*
X103919786Y-106929890D01*
X103747820Y-106804951D01*
X103747115Y-106804591D01*
X103739054Y-106800485D01*
X103688259Y-106752512D01*
X103671463Y-106684692D01*
X103693999Y-106618556D01*
X103739054Y-106579515D01*
X103747816Y-106575051D01*
X103769789Y-106559086D01*
X103919786Y-106450109D01*
X103919788Y-106450106D01*
X103919792Y-106450104D01*
X103948743Y-106421153D01*
X109699500Y-106421153D01*
X109699500Y-106578846D01*
X109730261Y-106733489D01*
X109730264Y-106733501D01*
X109790602Y-106879172D01*
X109790609Y-106879185D01*
X109825304Y-106931109D01*
X109846182Y-106997786D01*
X109827698Y-107065167D01*
X109825304Y-107068891D01*
X109790609Y-107120814D01*
X109790602Y-107120827D01*
X109730264Y-107266498D01*
X109730261Y-107266510D01*
X109699500Y-107421153D01*
X109699500Y-107578846D01*
X109730261Y-107733489D01*
X109730264Y-107733501D01*
X109790602Y-107879172D01*
X109790609Y-107879185D01*
X109878210Y-108010288D01*
X109878213Y-108010292D01*
X109989707Y-108121786D01*
X109989711Y-108121789D01*
X110120814Y-108209390D01*
X110120827Y-108209397D01*
X110266498Y-108269735D01*
X110266503Y-108269737D01*
X110421153Y-108300499D01*
X110421156Y-108300500D01*
X110421158Y-108300500D01*
X110578844Y-108300500D01*
X110578845Y-108300499D01*
X110733497Y-108269737D01*
X110879179Y-108209394D01*
X111010289Y-108121789D01*
X111121789Y-108010289D01*
X111209394Y-107879179D01*
X111269737Y-107733497D01*
X111300500Y-107578842D01*
X111300500Y-107424500D01*
X111320185Y-107357461D01*
X111372989Y-107311706D01*
X111424500Y-107300500D01*
X111578844Y-107300500D01*
X111578845Y-107300499D01*
X111733497Y-107269737D01*
X111879179Y-107209394D01*
X112010289Y-107121789D01*
X112121789Y-107010289D01*
X112209394Y-106879179D01*
X112269737Y-106733497D01*
X112300500Y-106578842D01*
X112300500Y-106424500D01*
X112320185Y-106357461D01*
X112372989Y-106311706D01*
X112424500Y-106300500D01*
X112578844Y-106300500D01*
X112578845Y-106300499D01*
X112733497Y-106269737D01*
X112879179Y-106209394D01*
X113010289Y-106121789D01*
X113121789Y-106010289D01*
X113209394Y-105879179D01*
X113269737Y-105733497D01*
X113300500Y-105578842D01*
X113300500Y-105424500D01*
X113301483Y-105421153D01*
X169199500Y-105421153D01*
X169199500Y-105578846D01*
X169230261Y-105733489D01*
X169230264Y-105733501D01*
X169290602Y-105879172D01*
X169290609Y-105879185D01*
X169378210Y-106010288D01*
X169378213Y-106010292D01*
X169489707Y-106121786D01*
X169489711Y-106121789D01*
X169620814Y-106209390D01*
X169620827Y-106209397D01*
X169758683Y-106266498D01*
X169766503Y-106269737D01*
X169917569Y-106299786D01*
X169921153Y-106300499D01*
X169921156Y-106300500D01*
X169921158Y-106300500D01*
X170078844Y-106300500D01*
X170078845Y-106300499D01*
X170233497Y-106269737D01*
X170379179Y-106209394D01*
X170510289Y-106121789D01*
X170621789Y-106010289D01*
X170709394Y-105879179D01*
X170769737Y-105733497D01*
X170800500Y-105578842D01*
X170800500Y-105421158D01*
X170800500Y-105421155D01*
X170800499Y-105421153D01*
X170787830Y-105357461D01*
X170769737Y-105266503D01*
X170709794Y-105121786D01*
X170709397Y-105120827D01*
X170709390Y-105120814D01*
X170621789Y-104989711D01*
X170621786Y-104989707D01*
X170510292Y-104878213D01*
X170510288Y-104878210D01*
X170379185Y-104790609D01*
X170379172Y-104790602D01*
X170233501Y-104730264D01*
X170233489Y-104730261D01*
X170078845Y-104699500D01*
X170078842Y-104699500D01*
X169921158Y-104699500D01*
X169921155Y-104699500D01*
X169766510Y-104730261D01*
X169766498Y-104730264D01*
X169620827Y-104790602D01*
X169620814Y-104790609D01*
X169489711Y-104878210D01*
X169489707Y-104878213D01*
X169378213Y-104989707D01*
X169378210Y-104989711D01*
X169290609Y-105120814D01*
X169290602Y-105120827D01*
X169230264Y-105266498D01*
X169230261Y-105266510D01*
X169199500Y-105421153D01*
X113301483Y-105421153D01*
X113320185Y-105357461D01*
X113372989Y-105311706D01*
X113419038Y-105300620D01*
X113421760Y-105300500D01*
X113578842Y-105300500D01*
X113733497Y-105269737D01*
X113879179Y-105209394D01*
X114010289Y-105121789D01*
X114121789Y-105010289D01*
X114209394Y-104879179D01*
X114269737Y-104733497D01*
X114300500Y-104578842D01*
X114300500Y-104421158D01*
X114300500Y-104421155D01*
X114300499Y-104421153D01*
X114269737Y-104266503D01*
X114251074Y-104221447D01*
X114209396Y-104120825D01*
X114209394Y-104120822D01*
X114209394Y-104120821D01*
X114174694Y-104068889D01*
X114153816Y-104002215D01*
X114172300Y-103934835D01*
X114174676Y-103931136D01*
X114209394Y-103879179D01*
X114269737Y-103733497D01*
X114300500Y-103578842D01*
X114300500Y-103421158D01*
X114300500Y-103421155D01*
X114300499Y-103421153D01*
X114295976Y-103398414D01*
X114269737Y-103266503D01*
X114240633Y-103196239D01*
X114209397Y-103120827D01*
X114209390Y-103120814D01*
X114121789Y-102989711D01*
X114121786Y-102989707D01*
X114010292Y-102878213D01*
X114010288Y-102878210D01*
X113879185Y-102790609D01*
X113879172Y-102790602D01*
X113733501Y-102730264D01*
X113733489Y-102730261D01*
X113578845Y-102699500D01*
X113578842Y-102699500D01*
X113421158Y-102699500D01*
X113421155Y-102699500D01*
X113266510Y-102730261D01*
X113266498Y-102730264D01*
X113120827Y-102790602D01*
X113120814Y-102790609D01*
X112989711Y-102878210D01*
X112989707Y-102878213D01*
X112878213Y-102989707D01*
X112878210Y-102989711D01*
X112790609Y-103120814D01*
X112790602Y-103120827D01*
X112730264Y-103266498D01*
X112730261Y-103266510D01*
X112699500Y-103421153D01*
X112699500Y-103575500D01*
X112679815Y-103642539D01*
X112627011Y-103688294D01*
X112575500Y-103699500D01*
X112421155Y-103699500D01*
X112266510Y-103730261D01*
X112266498Y-103730264D01*
X112120827Y-103790602D01*
X112120814Y-103790609D01*
X111989711Y-103878210D01*
X111989707Y-103878213D01*
X111878213Y-103989707D01*
X111878210Y-103989711D01*
X111790609Y-104120814D01*
X111790602Y-104120827D01*
X111730264Y-104266498D01*
X111730261Y-104266510D01*
X111699500Y-104421153D01*
X111699500Y-104575500D01*
X111679815Y-104642539D01*
X111627011Y-104688294D01*
X111575500Y-104699500D01*
X111421155Y-104699500D01*
X111266510Y-104730261D01*
X111266498Y-104730264D01*
X111120827Y-104790602D01*
X111120814Y-104790609D01*
X110989711Y-104878210D01*
X110989707Y-104878213D01*
X110878213Y-104989707D01*
X110878210Y-104989711D01*
X110790609Y-105120814D01*
X110790602Y-105120827D01*
X110730264Y-105266498D01*
X110730261Y-105266510D01*
X110699500Y-105421153D01*
X110699500Y-105575500D01*
X110679815Y-105642539D01*
X110627011Y-105688294D01*
X110575500Y-105699500D01*
X110421155Y-105699500D01*
X110266510Y-105730261D01*
X110266498Y-105730264D01*
X110120827Y-105790602D01*
X110120814Y-105790609D01*
X109989711Y-105878210D01*
X109989707Y-105878213D01*
X109878213Y-105989707D01*
X109878210Y-105989711D01*
X109790609Y-106120814D01*
X109790602Y-106120827D01*
X109730264Y-106266498D01*
X109730261Y-106266510D01*
X109699500Y-106421153D01*
X103948743Y-106421153D01*
X104070104Y-106299792D01*
X104070106Y-106299788D01*
X104070109Y-106299786D01*
X104195048Y-106127820D01*
X104195047Y-106127820D01*
X104195051Y-106127816D01*
X104291557Y-105938412D01*
X104357246Y-105736243D01*
X104390500Y-105526287D01*
X104390500Y-105313713D01*
X104357246Y-105103757D01*
X104291557Y-104901588D01*
X104195051Y-104712184D01*
X104195049Y-104712181D01*
X104195048Y-104712179D01*
X104070109Y-104540213D01*
X103919786Y-104389890D01*
X103747820Y-104264951D01*
X103747115Y-104264591D01*
X103739054Y-104260485D01*
X103688259Y-104212512D01*
X103671463Y-104144692D01*
X103693999Y-104078556D01*
X103739054Y-104039515D01*
X103747816Y-104035051D01*
X103810227Y-103989707D01*
X103919786Y-103910109D01*
X103919788Y-103910106D01*
X103919792Y-103910104D01*
X104070104Y-103759792D01*
X104070106Y-103759788D01*
X104070109Y-103759786D01*
X104195048Y-103587820D01*
X104195047Y-103587820D01*
X104195051Y-103587816D01*
X104291557Y-103398412D01*
X104357246Y-103196243D01*
X104390500Y-102986287D01*
X104390500Y-102773713D01*
X104357246Y-102563757D01*
X104291557Y-102361588D01*
X104195051Y-102172184D01*
X104195049Y-102172181D01*
X104195048Y-102172179D01*
X104070109Y-102000213D01*
X103991049Y-101921153D01*
X145199500Y-101921153D01*
X145199500Y-102078846D01*
X145230261Y-102233489D01*
X145230264Y-102233501D01*
X145290602Y-102379172D01*
X145290609Y-102379185D01*
X145378210Y-102510288D01*
X145378213Y-102510292D01*
X145489707Y-102621786D01*
X145489711Y-102621789D01*
X145620814Y-102709390D01*
X145620827Y-102709397D01*
X145766498Y-102769735D01*
X145766503Y-102769737D01*
X145921153Y-102800499D01*
X145921156Y-102800500D01*
X145921158Y-102800500D01*
X146078844Y-102800500D01*
X146078845Y-102800499D01*
X146233497Y-102769737D01*
X146379179Y-102709394D01*
X146510289Y-102621789D01*
X146621789Y-102510289D01*
X146629145Y-102499279D01*
X146646898Y-102472712D01*
X146700510Y-102427906D01*
X146769835Y-102419199D01*
X146832862Y-102449353D01*
X146853102Y-102472712D01*
X146878207Y-102510284D01*
X146878213Y-102510292D01*
X146989707Y-102621786D01*
X146989711Y-102621789D01*
X147120814Y-102709390D01*
X147120827Y-102709397D01*
X147266498Y-102769735D01*
X147266503Y-102769737D01*
X147421153Y-102800499D01*
X147421156Y-102800500D01*
X147421158Y-102800500D01*
X147578844Y-102800500D01*
X147578845Y-102800499D01*
X147733497Y-102769737D01*
X147879179Y-102709394D01*
X148010289Y-102621789D01*
X148121789Y-102510289D01*
X148129145Y-102499279D01*
X148146898Y-102472712D01*
X148200510Y-102427906D01*
X148269835Y-102419199D01*
X148332862Y-102449353D01*
X148353102Y-102472712D01*
X148378207Y-102510284D01*
X148378213Y-102510292D01*
X148489707Y-102621786D01*
X148489711Y-102621789D01*
X148620814Y-102709390D01*
X148620827Y-102709397D01*
X148766498Y-102769735D01*
X148766503Y-102769737D01*
X148921153Y-102800499D01*
X148921156Y-102800500D01*
X148921158Y-102800500D01*
X149078844Y-102800500D01*
X149078845Y-102800499D01*
X149233497Y-102769737D01*
X149379179Y-102709394D01*
X149510289Y-102621789D01*
X149621789Y-102510289D01*
X149629145Y-102499279D01*
X149646898Y-102472712D01*
X149700510Y-102427906D01*
X149769835Y-102419199D01*
X149832862Y-102449353D01*
X149853102Y-102472712D01*
X149878207Y-102510284D01*
X149878213Y-102510292D01*
X149989707Y-102621786D01*
X149989711Y-102621789D01*
X150120814Y-102709390D01*
X150120827Y-102709397D01*
X150266498Y-102769735D01*
X150266503Y-102769737D01*
X150421153Y-102800499D01*
X150421156Y-102800500D01*
X150421158Y-102800500D01*
X150578844Y-102800500D01*
X150578845Y-102800499D01*
X150733497Y-102769737D01*
X150879179Y-102709394D01*
X151010289Y-102621789D01*
X151121789Y-102510289D01*
X151129145Y-102499279D01*
X151146898Y-102472712D01*
X151200510Y-102427906D01*
X151269835Y-102419199D01*
X151332862Y-102449353D01*
X151353102Y-102472712D01*
X151378207Y-102510284D01*
X151378213Y-102510292D01*
X151489707Y-102621786D01*
X151489711Y-102621789D01*
X151620814Y-102709390D01*
X151620827Y-102709397D01*
X151766498Y-102769735D01*
X151766503Y-102769737D01*
X151921153Y-102800499D01*
X151921156Y-102800500D01*
X151921158Y-102800500D01*
X152078844Y-102800500D01*
X152078845Y-102800499D01*
X152233497Y-102769737D01*
X152379179Y-102709394D01*
X152510289Y-102621789D01*
X152621789Y-102510289D01*
X152629145Y-102499279D01*
X152646898Y-102472712D01*
X152700510Y-102427906D01*
X152769835Y-102419199D01*
X152832862Y-102449353D01*
X152853102Y-102472712D01*
X152878207Y-102510284D01*
X152878213Y-102510292D01*
X152989707Y-102621786D01*
X152989711Y-102621789D01*
X153120814Y-102709390D01*
X153120827Y-102709397D01*
X153266498Y-102769735D01*
X153266503Y-102769737D01*
X153421153Y-102800499D01*
X153421156Y-102800500D01*
X153421158Y-102800500D01*
X153578844Y-102800500D01*
X153578845Y-102800499D01*
X153733497Y-102769737D01*
X153879179Y-102709394D01*
X154010289Y-102621789D01*
X154121789Y-102510289D01*
X154129145Y-102499279D01*
X154146898Y-102472712D01*
X154200510Y-102427906D01*
X154269835Y-102419199D01*
X154332862Y-102449353D01*
X154353102Y-102472712D01*
X154378207Y-102510284D01*
X154378213Y-102510292D01*
X154489707Y-102621786D01*
X154489711Y-102621789D01*
X154620814Y-102709390D01*
X154620827Y-102709397D01*
X154766498Y-102769735D01*
X154766503Y-102769737D01*
X154921153Y-102800499D01*
X154921156Y-102800500D01*
X154921158Y-102800500D01*
X155078844Y-102800500D01*
X155078845Y-102800499D01*
X155233497Y-102769737D01*
X155379179Y-102709394D01*
X155510289Y-102621789D01*
X155621789Y-102510289D01*
X155629145Y-102499279D01*
X155646898Y-102472712D01*
X155700510Y-102427906D01*
X155769835Y-102419199D01*
X155832862Y-102449353D01*
X155853102Y-102472712D01*
X155878207Y-102510284D01*
X155878213Y-102510292D01*
X155989707Y-102621786D01*
X155989711Y-102621789D01*
X156120814Y-102709390D01*
X156120827Y-102709397D01*
X156266498Y-102769735D01*
X156266503Y-102769737D01*
X156421153Y-102800499D01*
X156421156Y-102800500D01*
X156421158Y-102800500D01*
X156578844Y-102800500D01*
X156578845Y-102800499D01*
X156733497Y-102769737D01*
X156879179Y-102709394D01*
X157010289Y-102621789D01*
X157121789Y-102510289D01*
X157209394Y-102379179D01*
X157269737Y-102233497D01*
X157300500Y-102078842D01*
X157300500Y-101921158D01*
X157300500Y-101921155D01*
X157300499Y-101921153D01*
X157269738Y-101766510D01*
X157269737Y-101766503D01*
X157250676Y-101720486D01*
X157209397Y-101620827D01*
X157209390Y-101620814D01*
X157121789Y-101489711D01*
X157121786Y-101489707D01*
X157010292Y-101378213D01*
X157010288Y-101378210D01*
X156879185Y-101290609D01*
X156879172Y-101290602D01*
X156733501Y-101230264D01*
X156733489Y-101230261D01*
X156578845Y-101199500D01*
X156578842Y-101199500D01*
X156421158Y-101199500D01*
X156421155Y-101199500D01*
X156266510Y-101230261D01*
X156266498Y-101230264D01*
X156120827Y-101290602D01*
X156120814Y-101290609D01*
X155989711Y-101378210D01*
X155989707Y-101378213D01*
X155878213Y-101489707D01*
X155853102Y-101527289D01*
X155799489Y-101572093D01*
X155730164Y-101580800D01*
X155667137Y-101550645D01*
X155646898Y-101527289D01*
X155621786Y-101489707D01*
X155510292Y-101378213D01*
X155510288Y-101378210D01*
X155379185Y-101290609D01*
X155379172Y-101290602D01*
X155233501Y-101230264D01*
X155233489Y-101230261D01*
X155078845Y-101199500D01*
X155078842Y-101199500D01*
X154921158Y-101199500D01*
X154921155Y-101199500D01*
X154766510Y-101230261D01*
X154766498Y-101230264D01*
X154620827Y-101290602D01*
X154620814Y-101290609D01*
X154489711Y-101378210D01*
X154489707Y-101378213D01*
X154378213Y-101489707D01*
X154353102Y-101527289D01*
X154299489Y-101572093D01*
X154230164Y-101580800D01*
X154167137Y-101550645D01*
X154146898Y-101527289D01*
X154121786Y-101489707D01*
X154010292Y-101378213D01*
X154010288Y-101378210D01*
X153879185Y-101290609D01*
X153879172Y-101290602D01*
X153733501Y-101230264D01*
X153733489Y-101230261D01*
X153578845Y-101199500D01*
X153578842Y-101199500D01*
X153421158Y-101199500D01*
X153421155Y-101199500D01*
X153266510Y-101230261D01*
X153266498Y-101230264D01*
X153120827Y-101290602D01*
X153120814Y-101290609D01*
X152989711Y-101378210D01*
X152989707Y-101378213D01*
X152878213Y-101489707D01*
X152853102Y-101527289D01*
X152799489Y-101572093D01*
X152730164Y-101580800D01*
X152667137Y-101550645D01*
X152646898Y-101527289D01*
X152621786Y-101489707D01*
X152510292Y-101378213D01*
X152510288Y-101378210D01*
X152379185Y-101290609D01*
X152379172Y-101290602D01*
X152233501Y-101230264D01*
X152233489Y-101230261D01*
X152078845Y-101199500D01*
X152078842Y-101199500D01*
X151921158Y-101199500D01*
X151921155Y-101199500D01*
X151766510Y-101230261D01*
X151766498Y-101230264D01*
X151620827Y-101290602D01*
X151620814Y-101290609D01*
X151489711Y-101378210D01*
X151489707Y-101378213D01*
X151378213Y-101489707D01*
X151353102Y-101527289D01*
X151299489Y-101572093D01*
X151230164Y-101580800D01*
X151167137Y-101550645D01*
X151146898Y-101527289D01*
X151121786Y-101489707D01*
X151010292Y-101378213D01*
X151010288Y-101378210D01*
X150879185Y-101290609D01*
X150879172Y-101290602D01*
X150733501Y-101230264D01*
X150733489Y-101230261D01*
X150578845Y-101199500D01*
X150578842Y-101199500D01*
X150421158Y-101199500D01*
X150421155Y-101199500D01*
X150266510Y-101230261D01*
X150266498Y-101230264D01*
X150120827Y-101290602D01*
X150120814Y-101290609D01*
X149989711Y-101378210D01*
X149989707Y-101378213D01*
X149878213Y-101489707D01*
X149853102Y-101527289D01*
X149799489Y-101572093D01*
X149730164Y-101580800D01*
X149667137Y-101550645D01*
X149646898Y-101527289D01*
X149621786Y-101489707D01*
X149510292Y-101378213D01*
X149510288Y-101378210D01*
X149379185Y-101290609D01*
X149379172Y-101290602D01*
X149233501Y-101230264D01*
X149233489Y-101230261D01*
X149078845Y-101199500D01*
X149078842Y-101199500D01*
X148921158Y-101199500D01*
X148921155Y-101199500D01*
X148766510Y-101230261D01*
X148766498Y-101230264D01*
X148620827Y-101290602D01*
X148620814Y-101290609D01*
X148489711Y-101378210D01*
X148489707Y-101378213D01*
X148378213Y-101489707D01*
X148353102Y-101527289D01*
X148299489Y-101572093D01*
X148230164Y-101580800D01*
X148167137Y-101550645D01*
X148146898Y-101527289D01*
X148121786Y-101489707D01*
X148010292Y-101378213D01*
X148010288Y-101378210D01*
X147879185Y-101290609D01*
X147879172Y-101290602D01*
X147733501Y-101230264D01*
X147733489Y-101230261D01*
X147578845Y-101199500D01*
X147578842Y-101199500D01*
X147421158Y-101199500D01*
X147421155Y-101199500D01*
X147266510Y-101230261D01*
X147266498Y-101230264D01*
X147120827Y-101290602D01*
X147120814Y-101290609D01*
X146989711Y-101378210D01*
X146989707Y-101378213D01*
X146878213Y-101489707D01*
X146853102Y-101527289D01*
X146799489Y-101572093D01*
X146730164Y-101580800D01*
X146667137Y-101550645D01*
X146646898Y-101527289D01*
X146621786Y-101489707D01*
X146510292Y-101378213D01*
X146510288Y-101378210D01*
X146379185Y-101290609D01*
X146379172Y-101290602D01*
X146233501Y-101230264D01*
X146233489Y-101230261D01*
X146078845Y-101199500D01*
X146078842Y-101199500D01*
X145921158Y-101199500D01*
X145921155Y-101199500D01*
X145766510Y-101230261D01*
X145766498Y-101230264D01*
X145620827Y-101290602D01*
X145620814Y-101290609D01*
X145489711Y-101378210D01*
X145489707Y-101378213D01*
X145378213Y-101489707D01*
X145378210Y-101489711D01*
X145290609Y-101620814D01*
X145290602Y-101620827D01*
X145230264Y-101766498D01*
X145230261Y-101766510D01*
X145199500Y-101921153D01*
X103991049Y-101921153D01*
X103919786Y-101849890D01*
X103747820Y-101724951D01*
X103747115Y-101724591D01*
X103739054Y-101720485D01*
X103688259Y-101672512D01*
X103671463Y-101604692D01*
X103693999Y-101538556D01*
X103739054Y-101499515D01*
X103747816Y-101495051D01*
X103778563Y-101472712D01*
X103919786Y-101370109D01*
X103919788Y-101370106D01*
X103919792Y-101370104D01*
X104070104Y-101219792D01*
X104070106Y-101219788D01*
X104070109Y-101219786D01*
X104195048Y-101047820D01*
X104195047Y-101047820D01*
X104195051Y-101047816D01*
X104259589Y-100921153D01*
X116199500Y-100921153D01*
X116199500Y-101078846D01*
X116230261Y-101233489D01*
X116230264Y-101233501D01*
X116290602Y-101379172D01*
X116290609Y-101379185D01*
X116378210Y-101510288D01*
X116378213Y-101510292D01*
X116489707Y-101621786D01*
X116489711Y-101621789D01*
X116620814Y-101709390D01*
X116620827Y-101709397D01*
X116758683Y-101766498D01*
X116766503Y-101769737D01*
X116921153Y-101800499D01*
X116921156Y-101800500D01*
X116921158Y-101800500D01*
X117078844Y-101800500D01*
X117078845Y-101800499D01*
X117233497Y-101769737D01*
X117379179Y-101709394D01*
X117510289Y-101621789D01*
X117621789Y-101510289D01*
X117631971Y-101495051D01*
X117646898Y-101472712D01*
X117700510Y-101427906D01*
X117769835Y-101419199D01*
X117832862Y-101449353D01*
X117853102Y-101472712D01*
X117878207Y-101510284D01*
X117878213Y-101510292D01*
X117989707Y-101621786D01*
X117989711Y-101621789D01*
X118120814Y-101709390D01*
X118120827Y-101709397D01*
X118258683Y-101766498D01*
X118266503Y-101769737D01*
X118421153Y-101800499D01*
X118421156Y-101800500D01*
X118421158Y-101800500D01*
X118578844Y-101800500D01*
X118578845Y-101800499D01*
X118589179Y-101798443D01*
X118614287Y-101793450D01*
X118614292Y-101793449D01*
X118699800Y-101776439D01*
X118733497Y-101769737D01*
X118879179Y-101709394D01*
X119010289Y-101621789D01*
X119121789Y-101510289D01*
X119209394Y-101379179D01*
X119269737Y-101233497D01*
X119300500Y-101078842D01*
X119300500Y-100921158D01*
X119300500Y-100921155D01*
X119300499Y-100921153D01*
X119288090Y-100858771D01*
X119269737Y-100766503D01*
X119250000Y-100718853D01*
X119209397Y-100620827D01*
X119209390Y-100620814D01*
X119121790Y-100489712D01*
X119121784Y-100489705D01*
X119053232Y-100421153D01*
X126699500Y-100421153D01*
X126699500Y-100578846D01*
X126730261Y-100733489D01*
X126730264Y-100733501D01*
X126790602Y-100879172D01*
X126790609Y-100879185D01*
X126878210Y-101010288D01*
X126878213Y-101010292D01*
X126989707Y-101121786D01*
X126989711Y-101121789D01*
X127120814Y-101209390D01*
X127120827Y-101209397D01*
X127266498Y-101269735D01*
X127266503Y-101269737D01*
X127421153Y-101300499D01*
X127421156Y-101300500D01*
X127421158Y-101300500D01*
X127578844Y-101300500D01*
X127578845Y-101300499D01*
X127733497Y-101269737D01*
X127879179Y-101209394D01*
X128010289Y-101121789D01*
X128121789Y-101010289D01*
X128209394Y-100879179D01*
X128217996Y-100858413D01*
X128241507Y-100801650D01*
X128269737Y-100733497D01*
X128300500Y-100578842D01*
X128300500Y-100421158D01*
X128300500Y-100421155D01*
X128300499Y-100421153D01*
X128274531Y-100290606D01*
X128269737Y-100266503D01*
X128256155Y-100233713D01*
X128209397Y-100120827D01*
X128209390Y-100120814D01*
X128121789Y-99989711D01*
X128121786Y-99989707D01*
X128010292Y-99878213D01*
X128010288Y-99878210D01*
X127879185Y-99790609D01*
X127879172Y-99790602D01*
X127733501Y-99730264D01*
X127733489Y-99730261D01*
X127578845Y-99699500D01*
X127578842Y-99699500D01*
X127421158Y-99699500D01*
X127421155Y-99699500D01*
X127266510Y-99730261D01*
X127266498Y-99730264D01*
X127120827Y-99790602D01*
X127120814Y-99790609D01*
X126989711Y-99878210D01*
X126989707Y-99878213D01*
X126878213Y-99989707D01*
X126878210Y-99989711D01*
X126790609Y-100120814D01*
X126790602Y-100120827D01*
X126730264Y-100266498D01*
X126730261Y-100266510D01*
X126699500Y-100421153D01*
X119053232Y-100421153D01*
X119010292Y-100378213D01*
X119010288Y-100378210D01*
X118879185Y-100290609D01*
X118879172Y-100290602D01*
X118733501Y-100230264D01*
X118733489Y-100230261D01*
X118578845Y-100199500D01*
X118578842Y-100199500D01*
X118421158Y-100199500D01*
X118421155Y-100199500D01*
X118266510Y-100230261D01*
X118266498Y-100230264D01*
X118120827Y-100290602D01*
X118120814Y-100290609D01*
X117989711Y-100378210D01*
X117989707Y-100378213D01*
X117878213Y-100489707D01*
X117853102Y-100527289D01*
X117799489Y-100572093D01*
X117730164Y-100580800D01*
X117667137Y-100550645D01*
X117646898Y-100527289D01*
X117638833Y-100515219D01*
X117621789Y-100489711D01*
X117621788Y-100489710D01*
X117621786Y-100489707D01*
X117510292Y-100378213D01*
X117510288Y-100378210D01*
X117379185Y-100290609D01*
X117379172Y-100290602D01*
X117233501Y-100230264D01*
X117233489Y-100230261D01*
X117078845Y-100199500D01*
X117078842Y-100199500D01*
X116921158Y-100199500D01*
X116921155Y-100199500D01*
X116766510Y-100230261D01*
X116766498Y-100230264D01*
X116620827Y-100290602D01*
X116620814Y-100290609D01*
X116489711Y-100378210D01*
X116489707Y-100378213D01*
X116378213Y-100489707D01*
X116378210Y-100489711D01*
X116290609Y-100620814D01*
X116290602Y-100620827D01*
X116230264Y-100766498D01*
X116230261Y-100766510D01*
X116199500Y-100921153D01*
X104259589Y-100921153D01*
X104291557Y-100858412D01*
X104357246Y-100656243D01*
X104390500Y-100446287D01*
X104390500Y-100233713D01*
X104357246Y-100023757D01*
X104291557Y-99821588D01*
X104195051Y-99632184D01*
X104195049Y-99632181D01*
X104195048Y-99632179D01*
X104070109Y-99460213D01*
X103919786Y-99309890D01*
X103747820Y-99184951D01*
X103747115Y-99184591D01*
X103739054Y-99180485D01*
X103688259Y-99132512D01*
X103671463Y-99064692D01*
X103693999Y-98998556D01*
X103739054Y-98959515D01*
X103747816Y-98955051D01*
X103769789Y-98939086D01*
X103919786Y-98830109D01*
X103919788Y-98830106D01*
X103919792Y-98830104D01*
X104070104Y-98679792D01*
X104070106Y-98679788D01*
X104070109Y-98679786D01*
X104195048Y-98507820D01*
X104195047Y-98507820D01*
X104195051Y-98507816D01*
X104239208Y-98421153D01*
X118199500Y-98421153D01*
X118199500Y-98578846D01*
X118230261Y-98733489D01*
X118230264Y-98733501D01*
X118290602Y-98879172D01*
X118290609Y-98879185D01*
X118378210Y-99010288D01*
X118378213Y-99010292D01*
X118489707Y-99121786D01*
X118489711Y-99121789D01*
X118620814Y-99209390D01*
X118620827Y-99209397D01*
X118766498Y-99269735D01*
X118766503Y-99269737D01*
X118921153Y-99300499D01*
X118921156Y-99300500D01*
X118921158Y-99300500D01*
X119078844Y-99300500D01*
X119078845Y-99300499D01*
X119233497Y-99269737D01*
X119379179Y-99209394D01*
X119510289Y-99121789D01*
X119621789Y-99010289D01*
X119709394Y-98879179D01*
X119769737Y-98733497D01*
X119800500Y-98578842D01*
X119800500Y-98421158D01*
X119800500Y-98421155D01*
X119800499Y-98421153D01*
X120199500Y-98421153D01*
X120199500Y-98578846D01*
X120230261Y-98733489D01*
X120230264Y-98733501D01*
X120290602Y-98879172D01*
X120290609Y-98879185D01*
X120378210Y-99010288D01*
X120378213Y-99010292D01*
X120489707Y-99121786D01*
X120489711Y-99121789D01*
X120620814Y-99209390D01*
X120620827Y-99209397D01*
X120766498Y-99269735D01*
X120766503Y-99269737D01*
X120921153Y-99300499D01*
X120921156Y-99300500D01*
X120921158Y-99300500D01*
X121078844Y-99300500D01*
X121078845Y-99300499D01*
X121233497Y-99269737D01*
X121379179Y-99209394D01*
X121510289Y-99121789D01*
X121621789Y-99010289D01*
X121709394Y-98879179D01*
X121769737Y-98733497D01*
X121800500Y-98578842D01*
X121800500Y-98421158D01*
X121800500Y-98421155D01*
X121800499Y-98421153D01*
X122199500Y-98421153D01*
X122199500Y-98578846D01*
X122230261Y-98733489D01*
X122230264Y-98733501D01*
X122290602Y-98879172D01*
X122290609Y-98879185D01*
X122378210Y-99010288D01*
X122378213Y-99010292D01*
X122489707Y-99121786D01*
X122489711Y-99121789D01*
X122620814Y-99209390D01*
X122620827Y-99209397D01*
X122766498Y-99269735D01*
X122766503Y-99269737D01*
X122921153Y-99300499D01*
X122921156Y-99300500D01*
X122921158Y-99300500D01*
X123078844Y-99300500D01*
X123078845Y-99300499D01*
X123233497Y-99269737D01*
X123379179Y-99209394D01*
X123510289Y-99121789D01*
X123621789Y-99010289D01*
X123709394Y-98879179D01*
X123769737Y-98733497D01*
X123800500Y-98578842D01*
X123800500Y-98421158D01*
X123800500Y-98421155D01*
X123800499Y-98421153D01*
X123769738Y-98266510D01*
X123769737Y-98266503D01*
X123767727Y-98261650D01*
X123709397Y-98120827D01*
X123709390Y-98120814D01*
X123621789Y-97989711D01*
X123621786Y-97989707D01*
X123510292Y-97878213D01*
X123510288Y-97878210D01*
X123379185Y-97790609D01*
X123379172Y-97790602D01*
X123233501Y-97730264D01*
X123233489Y-97730261D01*
X123078845Y-97699500D01*
X123078842Y-97699500D01*
X122921158Y-97699500D01*
X122921155Y-97699500D01*
X122766510Y-97730261D01*
X122766498Y-97730264D01*
X122620827Y-97790602D01*
X122620814Y-97790609D01*
X122489711Y-97878210D01*
X122489707Y-97878213D01*
X122378213Y-97989707D01*
X122378210Y-97989711D01*
X122290609Y-98120814D01*
X122290602Y-98120827D01*
X122230264Y-98266498D01*
X122230261Y-98266510D01*
X122199500Y-98421153D01*
X121800499Y-98421153D01*
X121769738Y-98266510D01*
X121769737Y-98266503D01*
X121767727Y-98261650D01*
X121709397Y-98120827D01*
X121709390Y-98120814D01*
X121621789Y-97989711D01*
X121621786Y-97989707D01*
X121510292Y-97878213D01*
X121510288Y-97878210D01*
X121379185Y-97790609D01*
X121379172Y-97790602D01*
X121233501Y-97730264D01*
X121233489Y-97730261D01*
X121078845Y-97699500D01*
X121078842Y-97699500D01*
X120921158Y-97699500D01*
X120921155Y-97699500D01*
X120766510Y-97730261D01*
X120766498Y-97730264D01*
X120620827Y-97790602D01*
X120620814Y-97790609D01*
X120489711Y-97878210D01*
X120489707Y-97878213D01*
X120378213Y-97989707D01*
X120378210Y-97989711D01*
X120290609Y-98120814D01*
X120290602Y-98120827D01*
X120230264Y-98266498D01*
X120230261Y-98266510D01*
X120199500Y-98421153D01*
X119800499Y-98421153D01*
X119769738Y-98266510D01*
X119769737Y-98266503D01*
X119767727Y-98261650D01*
X119709397Y-98120827D01*
X119709390Y-98120814D01*
X119621789Y-97989711D01*
X119621786Y-97989707D01*
X119510292Y-97878213D01*
X119510288Y-97878210D01*
X119379185Y-97790609D01*
X119379172Y-97790602D01*
X119233501Y-97730264D01*
X119233489Y-97730261D01*
X119078845Y-97699500D01*
X119078842Y-97699500D01*
X118921158Y-97699500D01*
X118921155Y-97699500D01*
X118766510Y-97730261D01*
X118766498Y-97730264D01*
X118620827Y-97790602D01*
X118620814Y-97790609D01*
X118489711Y-97878210D01*
X118489707Y-97878213D01*
X118378213Y-97989707D01*
X118378210Y-97989711D01*
X118290609Y-98120814D01*
X118290602Y-98120827D01*
X118230264Y-98266498D01*
X118230261Y-98266510D01*
X118199500Y-98421153D01*
X104239208Y-98421153D01*
X104291557Y-98318412D01*
X104357246Y-98116243D01*
X104390500Y-97906287D01*
X104390500Y-97693713D01*
X104357246Y-97483757D01*
X104291557Y-97281588D01*
X104195051Y-97092184D01*
X104195049Y-97092181D01*
X104195048Y-97092179D01*
X104070109Y-96920213D01*
X103919786Y-96769890D01*
X103747820Y-96644951D01*
X103558414Y-96548444D01*
X103558413Y-96548443D01*
X103558412Y-96548443D01*
X103356243Y-96482754D01*
X103356241Y-96482753D01*
X103356240Y-96482753D01*
X103194957Y-96457208D01*
X103146287Y-96449500D01*
X102933713Y-96449500D01*
X102885042Y-96457208D01*
X102723760Y-96482753D01*
X102521585Y-96548444D01*
X102332179Y-96644951D01*
X102160213Y-96769890D01*
X102009890Y-96920213D01*
X101884949Y-97092182D01*
X101880484Y-97100946D01*
X101832509Y-97151742D01*
X101764688Y-97168536D01*
X101698553Y-97145998D01*
X101659516Y-97100946D01*
X101655050Y-97092182D01*
X101530109Y-96920213D01*
X101379786Y-96769890D01*
X101207820Y-96644951D01*
X101018414Y-96548444D01*
X101018413Y-96548443D01*
X101018412Y-96548443D01*
X100816243Y-96482754D01*
X100816241Y-96482753D01*
X100816240Y-96482753D01*
X100654957Y-96457208D01*
X100606287Y-96449500D01*
X100393713Y-96449500D01*
X100345042Y-96457208D01*
X100183760Y-96482753D01*
X99981585Y-96548444D01*
X99792179Y-96644951D01*
X99620213Y-96769890D01*
X99469890Y-96920213D01*
X99344951Y-97092179D01*
X99248444Y-97281585D01*
X99182753Y-97483760D01*
X99149500Y-97693713D01*
X97600500Y-97693713D01*
X97600500Y-94421153D01*
X107199500Y-94421153D01*
X107199500Y-94578846D01*
X107230261Y-94733489D01*
X107230264Y-94733501D01*
X107290602Y-94879172D01*
X107290609Y-94879185D01*
X107378210Y-95010288D01*
X107378213Y-95010292D01*
X107489707Y-95121786D01*
X107489711Y-95121789D01*
X107620814Y-95209390D01*
X107620827Y-95209397D01*
X107756450Y-95265573D01*
X107766503Y-95269737D01*
X107886736Y-95293653D01*
X107921153Y-95300499D01*
X107921156Y-95300500D01*
X107921158Y-95300500D01*
X108078844Y-95300500D01*
X108078845Y-95300499D01*
X108233497Y-95269737D01*
X108379179Y-95209394D01*
X108510289Y-95121789D01*
X108621789Y-95010289D01*
X108709394Y-94879179D01*
X108769737Y-94733497D01*
X108800500Y-94578842D01*
X108800500Y-94421158D01*
X108800500Y-94421155D01*
X108800499Y-94421153D01*
X110199500Y-94421153D01*
X110199500Y-94578846D01*
X110230261Y-94733489D01*
X110230264Y-94733501D01*
X110290602Y-94879172D01*
X110290609Y-94879185D01*
X110378210Y-95010288D01*
X110378213Y-95010292D01*
X110489707Y-95121786D01*
X110489711Y-95121789D01*
X110620814Y-95209390D01*
X110620827Y-95209397D01*
X110756450Y-95265573D01*
X110766503Y-95269737D01*
X110886736Y-95293653D01*
X110921153Y-95300499D01*
X110921156Y-95300500D01*
X110921158Y-95300500D01*
X111078844Y-95300500D01*
X111078845Y-95300499D01*
X111233497Y-95269737D01*
X111379179Y-95209394D01*
X111510289Y-95121789D01*
X111621789Y-95010289D01*
X111709394Y-94879179D01*
X111769737Y-94733497D01*
X111800500Y-94578842D01*
X111800500Y-94421158D01*
X111800500Y-94421155D01*
X111800499Y-94421153D01*
X115199500Y-94421153D01*
X115199500Y-94578846D01*
X115230261Y-94733489D01*
X115230264Y-94733501D01*
X115290602Y-94879172D01*
X115290609Y-94879185D01*
X115378210Y-95010288D01*
X115378213Y-95010292D01*
X115489707Y-95121786D01*
X115489711Y-95121789D01*
X115620814Y-95209390D01*
X115620827Y-95209397D01*
X115756450Y-95265573D01*
X115766503Y-95269737D01*
X115886736Y-95293653D01*
X115921153Y-95300499D01*
X115921156Y-95300500D01*
X115921158Y-95300500D01*
X116078843Y-95300500D01*
X116095304Y-95297225D01*
X116144568Y-95287426D01*
X116214158Y-95293653D01*
X116269336Y-95336515D01*
X116283320Y-95361589D01*
X116290606Y-95379179D01*
X116290609Y-95379185D01*
X116378210Y-95510288D01*
X116378213Y-95510292D01*
X116489707Y-95621786D01*
X116489711Y-95621789D01*
X116620814Y-95709390D01*
X116620827Y-95709397D01*
X116766498Y-95769735D01*
X116766503Y-95769737D01*
X116921153Y-95800499D01*
X116921156Y-95800500D01*
X116921158Y-95800500D01*
X117078844Y-95800500D01*
X117078845Y-95800499D01*
X117233497Y-95769737D01*
X117379179Y-95709394D01*
X117510289Y-95621789D01*
X117621789Y-95510289D01*
X117709394Y-95379179D01*
X117769737Y-95233497D01*
X117800500Y-95078842D01*
X117800500Y-94921158D01*
X117800500Y-94921155D01*
X117800499Y-94921153D01*
X117769738Y-94766510D01*
X117769737Y-94766503D01*
X117756062Y-94733489D01*
X117709397Y-94620827D01*
X117709390Y-94620814D01*
X117621789Y-94489711D01*
X117621786Y-94489707D01*
X117510292Y-94378213D01*
X117510288Y-94378210D01*
X117379185Y-94290609D01*
X117379172Y-94290602D01*
X117233501Y-94230264D01*
X117233489Y-94230261D01*
X117078845Y-94199500D01*
X117078842Y-94199500D01*
X116921158Y-94199500D01*
X116921153Y-94199500D01*
X116855431Y-94212573D01*
X116785839Y-94206346D01*
X116730662Y-94163482D01*
X116716679Y-94138409D01*
X116709392Y-94120817D01*
X116621789Y-93989711D01*
X116621786Y-93989707D01*
X116510292Y-93878213D01*
X116510288Y-93878210D01*
X116379185Y-93790609D01*
X116379172Y-93790602D01*
X116233501Y-93730264D01*
X116233489Y-93730261D01*
X116078845Y-93699500D01*
X116078842Y-93699500D01*
X115921158Y-93699500D01*
X115921155Y-93699500D01*
X115766510Y-93730261D01*
X115766498Y-93730264D01*
X115620827Y-93790602D01*
X115620814Y-93790609D01*
X115489711Y-93878210D01*
X115489707Y-93878213D01*
X115378213Y-93989707D01*
X115378210Y-93989711D01*
X115290609Y-94120814D01*
X115290602Y-94120827D01*
X115230264Y-94266498D01*
X115230261Y-94266510D01*
X115199500Y-94421153D01*
X111800499Y-94421153D01*
X111774531Y-94290606D01*
X111769737Y-94266503D01*
X111769735Y-94266498D01*
X111709397Y-94120827D01*
X111709390Y-94120814D01*
X111621789Y-93989711D01*
X111621786Y-93989707D01*
X111510292Y-93878213D01*
X111510288Y-93878210D01*
X111379185Y-93790609D01*
X111379172Y-93790602D01*
X111233501Y-93730264D01*
X111233489Y-93730261D01*
X111078845Y-93699500D01*
X111078842Y-93699500D01*
X110921158Y-93699500D01*
X110921155Y-93699500D01*
X110766510Y-93730261D01*
X110766498Y-93730264D01*
X110620827Y-93790602D01*
X110620814Y-93790609D01*
X110489711Y-93878210D01*
X110489707Y-93878213D01*
X110378213Y-93989707D01*
X110378210Y-93989711D01*
X110290609Y-94120814D01*
X110290602Y-94120827D01*
X110230264Y-94266498D01*
X110230261Y-94266510D01*
X110199500Y-94421153D01*
X108800499Y-94421153D01*
X108774531Y-94290606D01*
X108769737Y-94266503D01*
X108769735Y-94266498D01*
X108709397Y-94120827D01*
X108709390Y-94120814D01*
X108621789Y-93989711D01*
X108621786Y-93989707D01*
X108510292Y-93878213D01*
X108510288Y-93878210D01*
X108379185Y-93790609D01*
X108379172Y-93790602D01*
X108233501Y-93730264D01*
X108233489Y-93730261D01*
X108078845Y-93699500D01*
X108078842Y-93699500D01*
X107921158Y-93699500D01*
X107921155Y-93699500D01*
X107766510Y-93730261D01*
X107766498Y-93730264D01*
X107620827Y-93790602D01*
X107620814Y-93790609D01*
X107489711Y-93878210D01*
X107489707Y-93878213D01*
X107378213Y-93989707D01*
X107378210Y-93989711D01*
X107290609Y-94120814D01*
X107290602Y-94120827D01*
X107230264Y-94266498D01*
X107230261Y-94266510D01*
X107199500Y-94421153D01*
X97600500Y-94421153D01*
X97600500Y-91921153D01*
X117199500Y-91921153D01*
X117199500Y-92078846D01*
X117230261Y-92233489D01*
X117230264Y-92233501D01*
X117290602Y-92379172D01*
X117290609Y-92379185D01*
X117378210Y-92510288D01*
X117378213Y-92510292D01*
X117489707Y-92621786D01*
X117489711Y-92621789D01*
X117620814Y-92709390D01*
X117620827Y-92709397D01*
X117766498Y-92769735D01*
X117766503Y-92769737D01*
X117921153Y-92800499D01*
X117921156Y-92800500D01*
X117921158Y-92800500D01*
X118078844Y-92800500D01*
X118078845Y-92800499D01*
X118233497Y-92769737D01*
X118379179Y-92709394D01*
X118510289Y-92621789D01*
X118621789Y-92510289D01*
X118709394Y-92379179D01*
X118769737Y-92233497D01*
X118800500Y-92078842D01*
X118800500Y-91921158D01*
X118800500Y-91921155D01*
X118800499Y-91921153D01*
X118769738Y-91766510D01*
X118769737Y-91766503D01*
X118769735Y-91766498D01*
X118709397Y-91620827D01*
X118709390Y-91620814D01*
X118621789Y-91489711D01*
X118621786Y-91489707D01*
X118510292Y-91378213D01*
X118510288Y-91378210D01*
X118379185Y-91290609D01*
X118379172Y-91290602D01*
X118233501Y-91230264D01*
X118233489Y-91230261D01*
X118078845Y-91199500D01*
X118078842Y-91199500D01*
X117921158Y-91199500D01*
X117921155Y-91199500D01*
X117766510Y-91230261D01*
X117766498Y-91230264D01*
X117620827Y-91290602D01*
X117620814Y-91290609D01*
X117489711Y-91378210D01*
X117489707Y-91378213D01*
X117378213Y-91489707D01*
X117378210Y-91489711D01*
X117290609Y-91620814D01*
X117290602Y-91620827D01*
X117230264Y-91766498D01*
X117230261Y-91766510D01*
X117199500Y-91921153D01*
X97600500Y-91921153D01*
X97600500Y-89421153D01*
X105199500Y-89421153D01*
X105199500Y-89578846D01*
X105230261Y-89733489D01*
X105230264Y-89733501D01*
X105290602Y-89879172D01*
X105290609Y-89879185D01*
X105378210Y-90010288D01*
X105378213Y-90010292D01*
X105489707Y-90121786D01*
X105489711Y-90121789D01*
X105620817Y-90209392D01*
X105620819Y-90209393D01*
X105620821Y-90209394D01*
X105638409Y-90216679D01*
X105692812Y-90260520D01*
X105714877Y-90326814D01*
X105712573Y-90355431D01*
X105699500Y-90421153D01*
X105699500Y-90578846D01*
X105730261Y-90733489D01*
X105730264Y-90733501D01*
X105790602Y-90879172D01*
X105790609Y-90879185D01*
X105878210Y-91010288D01*
X105878213Y-91010292D01*
X105989707Y-91121786D01*
X105989711Y-91121789D01*
X106120814Y-91209390D01*
X106120827Y-91209397D01*
X106266498Y-91269735D01*
X106266503Y-91269737D01*
X106421153Y-91300499D01*
X106421156Y-91300500D01*
X106421158Y-91300500D01*
X106578844Y-91300500D01*
X106578845Y-91300499D01*
X106733497Y-91269737D01*
X106879179Y-91209394D01*
X107010289Y-91121789D01*
X107121789Y-91010289D01*
X107209394Y-90879179D01*
X107269737Y-90733497D01*
X107300500Y-90578842D01*
X107300500Y-90421158D01*
X107300500Y-90421155D01*
X107300499Y-90421153D01*
X107287426Y-90355431D01*
X107269737Y-90266503D01*
X107265573Y-90256450D01*
X107209397Y-90120827D01*
X107209390Y-90120814D01*
X107121789Y-89989711D01*
X107121786Y-89989707D01*
X107010292Y-89878213D01*
X107010288Y-89878210D01*
X106879185Y-89790609D01*
X106879179Y-89790606D01*
X106861589Y-89783320D01*
X106807186Y-89739478D01*
X106785122Y-89673184D01*
X106787425Y-89644571D01*
X106800500Y-89578842D01*
X106800500Y-89421158D01*
X106800500Y-89421155D01*
X106800499Y-89421153D01*
X108699500Y-89421153D01*
X108699500Y-89578846D01*
X108730261Y-89733489D01*
X108730264Y-89733501D01*
X108790602Y-89879172D01*
X108790609Y-89879185D01*
X108878210Y-90010288D01*
X108878213Y-90010292D01*
X108989707Y-90121786D01*
X108989711Y-90121789D01*
X109120814Y-90209390D01*
X109120827Y-90209397D01*
X109234425Y-90256450D01*
X109266503Y-90269737D01*
X109421153Y-90300499D01*
X109421156Y-90300500D01*
X109421158Y-90300500D01*
X109578844Y-90300500D01*
X109578845Y-90300499D01*
X109733497Y-90269737D01*
X109879179Y-90209394D01*
X110010289Y-90121789D01*
X110121789Y-90010289D01*
X110209394Y-89879179D01*
X110269737Y-89733497D01*
X110300500Y-89578842D01*
X110300500Y-89421158D01*
X110300500Y-89421155D01*
X110300499Y-89421153D01*
X110269738Y-89266510D01*
X110269737Y-89266503D01*
X110256062Y-89233489D01*
X110209397Y-89120827D01*
X110209390Y-89120814D01*
X110121789Y-88989711D01*
X110121786Y-88989707D01*
X110053232Y-88921153D01*
X138699500Y-88921153D01*
X138699500Y-89078846D01*
X138730261Y-89233489D01*
X138730264Y-89233501D01*
X138790602Y-89379172D01*
X138790609Y-89379185D01*
X138878210Y-89510288D01*
X138878213Y-89510292D01*
X138989707Y-89621786D01*
X138989711Y-89621789D01*
X139120814Y-89709390D01*
X139120827Y-89709397D01*
X139266498Y-89769735D01*
X139266503Y-89769737D01*
X139421153Y-89800499D01*
X139421156Y-89800500D01*
X139421158Y-89800500D01*
X139578844Y-89800500D01*
X139578845Y-89800499D01*
X139733497Y-89769737D01*
X139879179Y-89709394D01*
X140010289Y-89621789D01*
X140121789Y-89510289D01*
X140209394Y-89379179D01*
X140269737Y-89233497D01*
X140300500Y-89078842D01*
X140300500Y-88921158D01*
X140300500Y-88921155D01*
X140300499Y-88921153D01*
X149199500Y-88921153D01*
X149199500Y-89078846D01*
X149230261Y-89233489D01*
X149230264Y-89233501D01*
X149290602Y-89379172D01*
X149290609Y-89379185D01*
X149378210Y-89510288D01*
X149378213Y-89510292D01*
X149489707Y-89621786D01*
X149489711Y-89621789D01*
X149620814Y-89709390D01*
X149620827Y-89709397D01*
X149766498Y-89769735D01*
X149766503Y-89769737D01*
X149921153Y-89800499D01*
X149921156Y-89800500D01*
X149921158Y-89800500D01*
X150078844Y-89800500D01*
X150078845Y-89800499D01*
X150233497Y-89769737D01*
X150379179Y-89709394D01*
X150510289Y-89621789D01*
X150621789Y-89510289D01*
X150709394Y-89379179D01*
X150769737Y-89233497D01*
X150800500Y-89078842D01*
X150800500Y-88921158D01*
X150800500Y-88921155D01*
X150800499Y-88921153D01*
X150774531Y-88790606D01*
X150769737Y-88766503D01*
X150769735Y-88766498D01*
X150709397Y-88620827D01*
X150709390Y-88620814D01*
X150621789Y-88489711D01*
X150621786Y-88489707D01*
X150510292Y-88378213D01*
X150510288Y-88378210D01*
X150379185Y-88290609D01*
X150379172Y-88290602D01*
X150233501Y-88230264D01*
X150233489Y-88230261D01*
X150078845Y-88199500D01*
X150078842Y-88199500D01*
X149921158Y-88199500D01*
X149921155Y-88199500D01*
X149766510Y-88230261D01*
X149766498Y-88230264D01*
X149620827Y-88290602D01*
X149620814Y-88290609D01*
X149489711Y-88378210D01*
X149489707Y-88378213D01*
X149378213Y-88489707D01*
X149378210Y-88489711D01*
X149290609Y-88620814D01*
X149290602Y-88620827D01*
X149230264Y-88766498D01*
X149230261Y-88766510D01*
X149199500Y-88921153D01*
X140300499Y-88921153D01*
X140274531Y-88790606D01*
X140269737Y-88766503D01*
X140269735Y-88766498D01*
X140209397Y-88620827D01*
X140209390Y-88620814D01*
X140121789Y-88489711D01*
X140121786Y-88489707D01*
X140010292Y-88378213D01*
X140010288Y-88378210D01*
X139879185Y-88290609D01*
X139879172Y-88290602D01*
X139733501Y-88230264D01*
X139733489Y-88230261D01*
X139578845Y-88199500D01*
X139578842Y-88199500D01*
X139421158Y-88199500D01*
X139421155Y-88199500D01*
X139266510Y-88230261D01*
X139266498Y-88230264D01*
X139120827Y-88290602D01*
X139120814Y-88290609D01*
X138989711Y-88378210D01*
X138989707Y-88378213D01*
X138878213Y-88489707D01*
X138878210Y-88489711D01*
X138790609Y-88620814D01*
X138790602Y-88620827D01*
X138730264Y-88766498D01*
X138730261Y-88766510D01*
X138699500Y-88921153D01*
X110053232Y-88921153D01*
X110010292Y-88878213D01*
X110010288Y-88878210D01*
X109879185Y-88790609D01*
X109879172Y-88790602D01*
X109733501Y-88730264D01*
X109733489Y-88730261D01*
X109578845Y-88699500D01*
X109578842Y-88699500D01*
X109421158Y-88699500D01*
X109421155Y-88699500D01*
X109266510Y-88730261D01*
X109266498Y-88730264D01*
X109120827Y-88790602D01*
X109120814Y-88790609D01*
X108989711Y-88878210D01*
X108989707Y-88878213D01*
X108878213Y-88989707D01*
X108878210Y-88989711D01*
X108790609Y-89120814D01*
X108790602Y-89120827D01*
X108730264Y-89266498D01*
X108730261Y-89266510D01*
X108699500Y-89421153D01*
X106800499Y-89421153D01*
X106769738Y-89266510D01*
X106769737Y-89266503D01*
X106756062Y-89233489D01*
X106709397Y-89120827D01*
X106709390Y-89120814D01*
X106621789Y-88989711D01*
X106621786Y-88989707D01*
X106510292Y-88878213D01*
X106510288Y-88878210D01*
X106379185Y-88790609D01*
X106379172Y-88790602D01*
X106233501Y-88730264D01*
X106233489Y-88730261D01*
X106078845Y-88699500D01*
X106078842Y-88699500D01*
X105921158Y-88699500D01*
X105921155Y-88699500D01*
X105766510Y-88730261D01*
X105766498Y-88730264D01*
X105620827Y-88790602D01*
X105620814Y-88790609D01*
X105489711Y-88878210D01*
X105489707Y-88878213D01*
X105378213Y-88989707D01*
X105378210Y-88989711D01*
X105290609Y-89120814D01*
X105290602Y-89120827D01*
X105230264Y-89266498D01*
X105230261Y-89266510D01*
X105199500Y-89421153D01*
X97600500Y-89421153D01*
X97600500Y-87921153D01*
X114699500Y-87921153D01*
X114699500Y-88078846D01*
X114730261Y-88233489D01*
X114730264Y-88233501D01*
X114790602Y-88379172D01*
X114790609Y-88379185D01*
X114878210Y-88510288D01*
X114878213Y-88510292D01*
X114989707Y-88621786D01*
X114989711Y-88621789D01*
X115120814Y-88709390D01*
X115120827Y-88709397D01*
X115258683Y-88766498D01*
X115266503Y-88769737D01*
X115421153Y-88800499D01*
X115421156Y-88800500D01*
X115421158Y-88800500D01*
X115578844Y-88800500D01*
X115578845Y-88800499D01*
X115589179Y-88798443D01*
X115614287Y-88793450D01*
X115614292Y-88793449D01*
X115699800Y-88776439D01*
X115733497Y-88769737D01*
X115879179Y-88709394D01*
X116010289Y-88621789D01*
X116121789Y-88510289D01*
X116209394Y-88379179D01*
X116269737Y-88233497D01*
X116300500Y-88078842D01*
X116300500Y-87921158D01*
X116300500Y-87921155D01*
X116300499Y-87921153D01*
X116294612Y-87891557D01*
X116269737Y-87766503D01*
X116269735Y-87766498D01*
X116209397Y-87620827D01*
X116209390Y-87620814D01*
X116121789Y-87489711D01*
X116121786Y-87489707D01*
X116010292Y-87378213D01*
X116010288Y-87378210D01*
X115879185Y-87290609D01*
X115879172Y-87290602D01*
X115733501Y-87230264D01*
X115733489Y-87230261D01*
X115578845Y-87199500D01*
X115578842Y-87199500D01*
X115421158Y-87199500D01*
X115421155Y-87199500D01*
X115266510Y-87230261D01*
X115266498Y-87230264D01*
X115120827Y-87290602D01*
X115120814Y-87290609D01*
X114989711Y-87378210D01*
X114989707Y-87378213D01*
X114878213Y-87489707D01*
X114878210Y-87489711D01*
X114790609Y-87620814D01*
X114790602Y-87620827D01*
X114730264Y-87766498D01*
X114730261Y-87766510D01*
X114699500Y-87921153D01*
X97600500Y-87921153D01*
X97600500Y-87021902D01*
X117599500Y-87021902D01*
X117599500Y-87258097D01*
X117636446Y-87491368D01*
X117709433Y-87715996D01*
X117754570Y-87804581D01*
X117816657Y-87926433D01*
X117955483Y-88117510D01*
X118122490Y-88284517D01*
X118313567Y-88423343D01*
X118412991Y-88474002D01*
X118524003Y-88530566D01*
X118524005Y-88530566D01*
X118524008Y-88530568D01*
X118641954Y-88568891D01*
X118748631Y-88603553D01*
X118981903Y-88640500D01*
X118981908Y-88640500D01*
X119218097Y-88640500D01*
X119451368Y-88603553D01*
X119675992Y-88530568D01*
X119886433Y-88423343D01*
X120077510Y-88284517D01*
X120244517Y-88117510D01*
X120383343Y-87926433D01*
X120490568Y-87715992D01*
X120563553Y-87491368D01*
X120581475Y-87378213D01*
X120600500Y-87258097D01*
X120600500Y-87021902D01*
X120577893Y-86879172D01*
X120563553Y-86788632D01*
X120563552Y-86788628D01*
X120563552Y-86788627D01*
X120491592Y-86567159D01*
X120491442Y-86566699D01*
X120490568Y-86564008D01*
X120475132Y-86533713D01*
X130479500Y-86533713D01*
X130479500Y-86746287D01*
X130512754Y-86956243D01*
X130566543Y-87121789D01*
X130578444Y-87158414D01*
X130674951Y-87347820D01*
X130799890Y-87519786D01*
X130950213Y-87670109D01*
X131122179Y-87795048D01*
X131122181Y-87795049D01*
X131122184Y-87795051D01*
X131311588Y-87891557D01*
X131513757Y-87957246D01*
X131723713Y-87990500D01*
X131723714Y-87990500D01*
X131936286Y-87990500D01*
X131936287Y-87990500D01*
X132146243Y-87957246D01*
X132348412Y-87891557D01*
X132537816Y-87795051D01*
X132646627Y-87715996D01*
X132709786Y-87670109D01*
X132709788Y-87670106D01*
X132709792Y-87670104D01*
X132860104Y-87519792D01*
X132860106Y-87519788D01*
X132860109Y-87519786D01*
X132985048Y-87347820D01*
X132985047Y-87347820D01*
X132985051Y-87347816D01*
X132989514Y-87339054D01*
X133037488Y-87288259D01*
X133105308Y-87271463D01*
X133171444Y-87293999D01*
X133210486Y-87339056D01*
X133214951Y-87347820D01*
X133339890Y-87519786D01*
X133490213Y-87670109D01*
X133662179Y-87795048D01*
X133662181Y-87795049D01*
X133662184Y-87795051D01*
X133851588Y-87891557D01*
X134053757Y-87957246D01*
X134263713Y-87990500D01*
X134263714Y-87990500D01*
X134476286Y-87990500D01*
X134476287Y-87990500D01*
X134686243Y-87957246D01*
X134888412Y-87891557D01*
X135077816Y-87795051D01*
X135186627Y-87715996D01*
X135249786Y-87670109D01*
X135249788Y-87670106D01*
X135249792Y-87670104D01*
X135400104Y-87519792D01*
X135400106Y-87519788D01*
X135400109Y-87519786D01*
X135525048Y-87347820D01*
X135525047Y-87347820D01*
X135525051Y-87347816D01*
X135529514Y-87339054D01*
X135577488Y-87288259D01*
X135645308Y-87271463D01*
X135711444Y-87293999D01*
X135750486Y-87339056D01*
X135754951Y-87347820D01*
X135879890Y-87519786D01*
X136030213Y-87670109D01*
X136202179Y-87795048D01*
X136202181Y-87795049D01*
X136202184Y-87795051D01*
X136391588Y-87891557D01*
X136593757Y-87957246D01*
X136803713Y-87990500D01*
X136803714Y-87990500D01*
X137016286Y-87990500D01*
X137016287Y-87990500D01*
X137226243Y-87957246D01*
X137337325Y-87921153D01*
X165199500Y-87921153D01*
X165199500Y-88078846D01*
X165230261Y-88233489D01*
X165230264Y-88233501D01*
X165290602Y-88379172D01*
X165290609Y-88379185D01*
X165378210Y-88510288D01*
X165378213Y-88510292D01*
X165489707Y-88621786D01*
X165489711Y-88621789D01*
X165620814Y-88709390D01*
X165620827Y-88709397D01*
X165758683Y-88766498D01*
X165766503Y-88769737D01*
X165921153Y-88800499D01*
X165921156Y-88800500D01*
X165921158Y-88800500D01*
X166078844Y-88800500D01*
X166078845Y-88800499D01*
X166233497Y-88769737D01*
X166379179Y-88709394D01*
X166510289Y-88621789D01*
X166621789Y-88510289D01*
X166709394Y-88379179D01*
X166769737Y-88233497D01*
X166800500Y-88078842D01*
X166800500Y-87921158D01*
X166800500Y-87921155D01*
X166800499Y-87921153D01*
X171699500Y-87921153D01*
X171699500Y-88078846D01*
X171730261Y-88233489D01*
X171730264Y-88233501D01*
X171790602Y-88379172D01*
X171790609Y-88379185D01*
X171825304Y-88431109D01*
X171846182Y-88497786D01*
X171827698Y-88565167D01*
X171825304Y-88568891D01*
X171790609Y-88620814D01*
X171790602Y-88620827D01*
X171730264Y-88766498D01*
X171730261Y-88766510D01*
X171699500Y-88921153D01*
X171699500Y-89078846D01*
X171730261Y-89233489D01*
X171730264Y-89233501D01*
X171790602Y-89379172D01*
X171790609Y-89379185D01*
X171878210Y-89510288D01*
X171878213Y-89510292D01*
X171989707Y-89621786D01*
X171989711Y-89621789D01*
X172120814Y-89709390D01*
X172120827Y-89709397D01*
X172266498Y-89769735D01*
X172266503Y-89769737D01*
X172421153Y-89800499D01*
X172421156Y-89800500D01*
X172421158Y-89800500D01*
X172578844Y-89800500D01*
X172578845Y-89800499D01*
X172733497Y-89769737D01*
X172879179Y-89709394D01*
X173010289Y-89621789D01*
X173121789Y-89510289D01*
X173209394Y-89379179D01*
X173269737Y-89233497D01*
X173300500Y-89078842D01*
X173300500Y-88921158D01*
X173300500Y-88921155D01*
X173300499Y-88921153D01*
X173274531Y-88790606D01*
X173269737Y-88766503D01*
X173269735Y-88766498D01*
X173209396Y-88620825D01*
X173209394Y-88620822D01*
X173209394Y-88620821D01*
X173174694Y-88568889D01*
X173153816Y-88502215D01*
X173172300Y-88434835D01*
X173174676Y-88431136D01*
X173209394Y-88379179D01*
X173269737Y-88233497D01*
X173300500Y-88078842D01*
X173300500Y-87921158D01*
X173300500Y-87921155D01*
X173300499Y-87921153D01*
X180199500Y-87921153D01*
X180199500Y-88078846D01*
X180230261Y-88233489D01*
X180230264Y-88233501D01*
X180290602Y-88379172D01*
X180290609Y-88379185D01*
X180325304Y-88431109D01*
X180346182Y-88497786D01*
X180327698Y-88565167D01*
X180325304Y-88568891D01*
X180290609Y-88620814D01*
X180290602Y-88620827D01*
X180230264Y-88766498D01*
X180230261Y-88766510D01*
X180199500Y-88921153D01*
X180199500Y-89078846D01*
X180230261Y-89233489D01*
X180230264Y-89233501D01*
X180290602Y-89379172D01*
X180290609Y-89379185D01*
X180378210Y-89510288D01*
X180378213Y-89510292D01*
X180489707Y-89621786D01*
X180489711Y-89621789D01*
X180620814Y-89709390D01*
X180620827Y-89709397D01*
X180766498Y-89769735D01*
X180766503Y-89769737D01*
X180921153Y-89800499D01*
X180921156Y-89800500D01*
X180921158Y-89800500D01*
X181078844Y-89800500D01*
X181078845Y-89800499D01*
X181233497Y-89769737D01*
X181379179Y-89709394D01*
X181510289Y-89621789D01*
X181621789Y-89510289D01*
X181709394Y-89379179D01*
X181769737Y-89233497D01*
X181800500Y-89078842D01*
X181800500Y-88921158D01*
X181800500Y-88921155D01*
X181800499Y-88921153D01*
X181774531Y-88790606D01*
X181769737Y-88766503D01*
X181769735Y-88766498D01*
X181709396Y-88620825D01*
X181709394Y-88620822D01*
X181709394Y-88620821D01*
X181674694Y-88568889D01*
X181653816Y-88502215D01*
X181672300Y-88434835D01*
X181674676Y-88431136D01*
X181709394Y-88379179D01*
X181769737Y-88233497D01*
X181800500Y-88078842D01*
X181800500Y-87921158D01*
X181800500Y-87921155D01*
X181800499Y-87921153D01*
X181794612Y-87891557D01*
X181769737Y-87766503D01*
X181769735Y-87766498D01*
X181709397Y-87620827D01*
X181709390Y-87620814D01*
X181621789Y-87489711D01*
X181621786Y-87489707D01*
X181510292Y-87378213D01*
X181510288Y-87378210D01*
X181379185Y-87290609D01*
X181379172Y-87290602D01*
X181233501Y-87230264D01*
X181233489Y-87230261D01*
X181078845Y-87199500D01*
X181078842Y-87199500D01*
X180921158Y-87199500D01*
X180921155Y-87199500D01*
X180766510Y-87230261D01*
X180766498Y-87230264D01*
X180620827Y-87290602D01*
X180620814Y-87290609D01*
X180489711Y-87378210D01*
X180489707Y-87378213D01*
X180378213Y-87489707D01*
X180378210Y-87489711D01*
X180290609Y-87620814D01*
X180290602Y-87620827D01*
X180230264Y-87766498D01*
X180230261Y-87766510D01*
X180199500Y-87921153D01*
X173300499Y-87921153D01*
X173294612Y-87891557D01*
X173269737Y-87766503D01*
X173269735Y-87766498D01*
X173209397Y-87620827D01*
X173209390Y-87620814D01*
X173121789Y-87489711D01*
X173121786Y-87489707D01*
X173010292Y-87378213D01*
X173010288Y-87378210D01*
X172879185Y-87290609D01*
X172879172Y-87290602D01*
X172733501Y-87230264D01*
X172733489Y-87230261D01*
X172578845Y-87199500D01*
X172578842Y-87199500D01*
X172421158Y-87199500D01*
X172421155Y-87199500D01*
X172266510Y-87230261D01*
X172266498Y-87230264D01*
X172120827Y-87290602D01*
X172120814Y-87290609D01*
X171989711Y-87378210D01*
X171989707Y-87378213D01*
X171878213Y-87489707D01*
X171878210Y-87489711D01*
X171790609Y-87620814D01*
X171790602Y-87620827D01*
X171730264Y-87766498D01*
X171730261Y-87766510D01*
X171699500Y-87921153D01*
X166800499Y-87921153D01*
X166794612Y-87891557D01*
X166769737Y-87766503D01*
X166769735Y-87766498D01*
X166709397Y-87620827D01*
X166709390Y-87620814D01*
X166621789Y-87489711D01*
X166621786Y-87489707D01*
X166510292Y-87378213D01*
X166510288Y-87378210D01*
X166379185Y-87290609D01*
X166379172Y-87290602D01*
X166233501Y-87230264D01*
X166233489Y-87230261D01*
X166078845Y-87199500D01*
X166078842Y-87199500D01*
X165921158Y-87199500D01*
X165921155Y-87199500D01*
X165766510Y-87230261D01*
X165766498Y-87230264D01*
X165620827Y-87290602D01*
X165620814Y-87290609D01*
X165489711Y-87378210D01*
X165489707Y-87378213D01*
X165378213Y-87489707D01*
X165378210Y-87489711D01*
X165290609Y-87620814D01*
X165290602Y-87620827D01*
X165230264Y-87766498D01*
X165230261Y-87766510D01*
X165199500Y-87921153D01*
X137337325Y-87921153D01*
X137428412Y-87891557D01*
X137617816Y-87795051D01*
X137726627Y-87715996D01*
X137789786Y-87670109D01*
X137789788Y-87670106D01*
X137789792Y-87670104D01*
X137940104Y-87519792D01*
X137940106Y-87519788D01*
X137940109Y-87519786D01*
X138065048Y-87347820D01*
X138065047Y-87347820D01*
X138065051Y-87347816D01*
X138161557Y-87158412D01*
X138227246Y-86956243D01*
X138260500Y-86746287D01*
X138260500Y-86533713D01*
X138242672Y-86421153D01*
X163699500Y-86421153D01*
X163699500Y-86578846D01*
X163730261Y-86733489D01*
X163730264Y-86733501D01*
X163790602Y-86879172D01*
X163790609Y-86879185D01*
X163878210Y-87010288D01*
X163878213Y-87010292D01*
X163989707Y-87121786D01*
X163989711Y-87121789D01*
X164120814Y-87209390D01*
X164120827Y-87209397D01*
X164238389Y-87258092D01*
X164266503Y-87269737D01*
X164421153Y-87300499D01*
X164421156Y-87300500D01*
X164421158Y-87300500D01*
X164578844Y-87300500D01*
X164578845Y-87300499D01*
X164733497Y-87269737D01*
X164879179Y-87209394D01*
X165010289Y-87121789D01*
X165121789Y-87010289D01*
X165209394Y-86879179D01*
X165269737Y-86733497D01*
X165300500Y-86578842D01*
X165300500Y-86421158D01*
X165300500Y-86421155D01*
X165300499Y-86421153D01*
X165281126Y-86323760D01*
X165269737Y-86266503D01*
X165226653Y-86162488D01*
X165209397Y-86120827D01*
X165209390Y-86120814D01*
X165121789Y-85989711D01*
X165121786Y-85989707D01*
X165010292Y-85878213D01*
X165010288Y-85878210D01*
X164879185Y-85790609D01*
X164879172Y-85790602D01*
X164733501Y-85730264D01*
X164733489Y-85730261D01*
X164578845Y-85699500D01*
X164578842Y-85699500D01*
X164421158Y-85699500D01*
X164421155Y-85699500D01*
X164266510Y-85730261D01*
X164266498Y-85730264D01*
X164120827Y-85790602D01*
X164120814Y-85790609D01*
X163989711Y-85878210D01*
X163989707Y-85878213D01*
X163878213Y-85989707D01*
X163878210Y-85989711D01*
X163790609Y-86120814D01*
X163790602Y-86120827D01*
X163730264Y-86266498D01*
X163730261Y-86266510D01*
X163699500Y-86421153D01*
X138242672Y-86421153D01*
X138236023Y-86379172D01*
X138227247Y-86323761D01*
X138227246Y-86323760D01*
X138227246Y-86323757D01*
X138161557Y-86121588D01*
X138065051Y-85932184D01*
X138065049Y-85932181D01*
X138065048Y-85932179D01*
X137940109Y-85760213D01*
X137789786Y-85609890D01*
X137617820Y-85484951D01*
X137428414Y-85388444D01*
X137428413Y-85388443D01*
X137428412Y-85388443D01*
X137226243Y-85322754D01*
X137226241Y-85322753D01*
X137226240Y-85322753D01*
X137064957Y-85297208D01*
X137016287Y-85289500D01*
X136803713Y-85289500D01*
X136755042Y-85297208D01*
X136593760Y-85322753D01*
X136391585Y-85388444D01*
X136202179Y-85484951D01*
X136030213Y-85609890D01*
X135879890Y-85760213D01*
X135754949Y-85932182D01*
X135750484Y-85940946D01*
X135702509Y-85991742D01*
X135634688Y-86008536D01*
X135568553Y-85985998D01*
X135529516Y-85940946D01*
X135525050Y-85932182D01*
X135400109Y-85760213D01*
X135249786Y-85609890D01*
X135077820Y-85484951D01*
X134888414Y-85388444D01*
X134888413Y-85388443D01*
X134888412Y-85388443D01*
X134686243Y-85322754D01*
X134686241Y-85322753D01*
X134686240Y-85322753D01*
X134524957Y-85297208D01*
X134476287Y-85289500D01*
X134263713Y-85289500D01*
X134215042Y-85297208D01*
X134053760Y-85322753D01*
X133851585Y-85388444D01*
X133662179Y-85484951D01*
X133490213Y-85609890D01*
X133339890Y-85760213D01*
X133214949Y-85932182D01*
X133210484Y-85940946D01*
X133162509Y-85991742D01*
X133094688Y-86008536D01*
X133028553Y-85985998D01*
X132989516Y-85940946D01*
X132985050Y-85932182D01*
X132860109Y-85760213D01*
X132709786Y-85609890D01*
X132537820Y-85484951D01*
X132348414Y-85388444D01*
X132348413Y-85388443D01*
X132348412Y-85388443D01*
X132146243Y-85322754D01*
X132146241Y-85322753D01*
X132146240Y-85322753D01*
X131984957Y-85297208D01*
X131936287Y-85289500D01*
X131723713Y-85289500D01*
X131675042Y-85297208D01*
X131513760Y-85322753D01*
X131311585Y-85388444D01*
X131122179Y-85484951D01*
X130950213Y-85609890D01*
X130799890Y-85760213D01*
X130674951Y-85932179D01*
X130578444Y-86121585D01*
X130512753Y-86323760D01*
X130479500Y-86533713D01*
X120475132Y-86533713D01*
X120383343Y-86353567D01*
X120244517Y-86162490D01*
X120077510Y-85995483D01*
X119886433Y-85856657D01*
X119675996Y-85749433D01*
X119451368Y-85676446D01*
X119218097Y-85639500D01*
X119218092Y-85639500D01*
X118981908Y-85639500D01*
X118981903Y-85639500D01*
X118748631Y-85676446D01*
X118524003Y-85749433D01*
X118313566Y-85856657D01*
X118224796Y-85921153D01*
X118122490Y-85995483D01*
X118122488Y-85995485D01*
X118122487Y-85995485D01*
X117955485Y-86162487D01*
X117955485Y-86162488D01*
X117955483Y-86162490D01*
X117943961Y-86178349D01*
X117816657Y-86353566D01*
X117709433Y-86564003D01*
X117636446Y-86788631D01*
X117599500Y-87021902D01*
X97600500Y-87021902D01*
X97600500Y-85921153D01*
X106699500Y-85921153D01*
X106699500Y-86078846D01*
X106730261Y-86233489D01*
X106730264Y-86233501D01*
X106790602Y-86379172D01*
X106790609Y-86379185D01*
X106878210Y-86510288D01*
X106878213Y-86510292D01*
X106989707Y-86621786D01*
X106989711Y-86621789D01*
X107120814Y-86709390D01*
X107120827Y-86709397D01*
X107209889Y-86746287D01*
X107266503Y-86769737D01*
X107421153Y-86800499D01*
X107421156Y-86800500D01*
X107421158Y-86800500D01*
X107578844Y-86800500D01*
X107578845Y-86800499D01*
X107733497Y-86769737D01*
X107879179Y-86709394D01*
X108010289Y-86621789D01*
X108121789Y-86510289D01*
X108209394Y-86379179D01*
X108269737Y-86233497D01*
X108300500Y-86078842D01*
X108300500Y-85921158D01*
X108300500Y-85921155D01*
X108300499Y-85921153D01*
X108274531Y-85790606D01*
X108269737Y-85766503D01*
X108267130Y-85760208D01*
X108209397Y-85620827D01*
X108209390Y-85620814D01*
X108121789Y-85489711D01*
X108121786Y-85489707D01*
X108010292Y-85378213D01*
X108010288Y-85378210D01*
X107879185Y-85290609D01*
X107879172Y-85290602D01*
X107733501Y-85230264D01*
X107733489Y-85230261D01*
X107578845Y-85199500D01*
X107578842Y-85199500D01*
X107421158Y-85199500D01*
X107421155Y-85199500D01*
X107266510Y-85230261D01*
X107266498Y-85230264D01*
X107120827Y-85290602D01*
X107120814Y-85290609D01*
X106989711Y-85378210D01*
X106989707Y-85378213D01*
X106878213Y-85489707D01*
X106878210Y-85489711D01*
X106790609Y-85620814D01*
X106790602Y-85620827D01*
X106730264Y-85766498D01*
X106730261Y-85766510D01*
X106699500Y-85921153D01*
X97600500Y-85921153D01*
X97600500Y-81508872D01*
X98099500Y-81508872D01*
X98099500Y-81771127D01*
X98119541Y-81923342D01*
X98133730Y-82031116D01*
X98201602Y-82284418D01*
X98201605Y-82284428D01*
X98301953Y-82526690D01*
X98301958Y-82526700D01*
X98433075Y-82753803D01*
X98592718Y-82961851D01*
X98592726Y-82961860D01*
X98778140Y-83147274D01*
X98778148Y-83147281D01*
X98986196Y-83306924D01*
X99213299Y-83438041D01*
X99213309Y-83438046D01*
X99387727Y-83510292D01*
X99455581Y-83538398D01*
X99708884Y-83606270D01*
X99968880Y-83640500D01*
X99968887Y-83640500D01*
X100231113Y-83640500D01*
X100231120Y-83640500D01*
X100491116Y-83606270D01*
X100744419Y-83538398D01*
X100986697Y-83438043D01*
X101213803Y-83306924D01*
X101421851Y-83147282D01*
X101421855Y-83147277D01*
X101421860Y-83147274D01*
X101607273Y-82961860D01*
X101607282Y-82961851D01*
X101638511Y-82921153D01*
X122199500Y-82921153D01*
X122199500Y-83078846D01*
X122230261Y-83233489D01*
X122230264Y-83233501D01*
X122290602Y-83379172D01*
X122290609Y-83379185D01*
X122378210Y-83510288D01*
X122378213Y-83510292D01*
X122489707Y-83621786D01*
X122489711Y-83621789D01*
X122620814Y-83709390D01*
X122620827Y-83709397D01*
X122758683Y-83766498D01*
X122766503Y-83769737D01*
X122921153Y-83800499D01*
X122921156Y-83800500D01*
X122921158Y-83800500D01*
X123078844Y-83800500D01*
X123078845Y-83800499D01*
X123233497Y-83769737D01*
X123379179Y-83709394D01*
X123510289Y-83621789D01*
X123621789Y-83510289D01*
X123645489Y-83474818D01*
X123699100Y-83430015D01*
X123768425Y-83421306D01*
X123831453Y-83451460D01*
X123848909Y-83470824D01*
X123955483Y-83617510D01*
X124122490Y-83784517D01*
X124313567Y-83923343D01*
X124412991Y-83974002D01*
X124524003Y-84030566D01*
X124524005Y-84030566D01*
X124524008Y-84030568D01*
X124644412Y-84069689D01*
X124748631Y-84103553D01*
X124981903Y-84140500D01*
X124981908Y-84140500D01*
X125218097Y-84140500D01*
X125451368Y-84103553D01*
X125675992Y-84030568D01*
X125886433Y-83923343D01*
X125889447Y-83921153D01*
X165199500Y-83921153D01*
X165199500Y-84078846D01*
X165230261Y-84233489D01*
X165230264Y-84233501D01*
X165290602Y-84379172D01*
X165290609Y-84379185D01*
X165378210Y-84510288D01*
X165378213Y-84510292D01*
X165489707Y-84621786D01*
X165489711Y-84621789D01*
X165620814Y-84709390D01*
X165620827Y-84709397D01*
X165766498Y-84769735D01*
X165766503Y-84769737D01*
X165921153Y-84800499D01*
X165921156Y-84800500D01*
X165921158Y-84800500D01*
X166078844Y-84800500D01*
X166078845Y-84800499D01*
X166233497Y-84769737D01*
X166379179Y-84709394D01*
X166510289Y-84621789D01*
X166621789Y-84510289D01*
X166709394Y-84379179D01*
X166769737Y-84233497D01*
X166800500Y-84078842D01*
X166800500Y-83921158D01*
X166800500Y-83921155D01*
X166800499Y-83921153D01*
X169199500Y-83921153D01*
X169199500Y-84078846D01*
X169230261Y-84233489D01*
X169230264Y-84233501D01*
X169290602Y-84379172D01*
X169290609Y-84379185D01*
X169378210Y-84510288D01*
X169378213Y-84510292D01*
X169489707Y-84621786D01*
X169489711Y-84621789D01*
X169620814Y-84709390D01*
X169620827Y-84709397D01*
X169766498Y-84769735D01*
X169766503Y-84769737D01*
X169921153Y-84800499D01*
X169921156Y-84800500D01*
X169921158Y-84800500D01*
X170078844Y-84800500D01*
X170078845Y-84800499D01*
X170233497Y-84769737D01*
X170379179Y-84709394D01*
X170510289Y-84621789D01*
X170621789Y-84510289D01*
X170709394Y-84379179D01*
X170769737Y-84233497D01*
X170800500Y-84078842D01*
X170800500Y-83921158D01*
X170800500Y-83921155D01*
X170800499Y-83921153D01*
X170773320Y-83784517D01*
X170769737Y-83766503D01*
X170746080Y-83709390D01*
X170709397Y-83620827D01*
X170709390Y-83620814D01*
X170621789Y-83489711D01*
X170621786Y-83489707D01*
X170510292Y-83378213D01*
X170510288Y-83378210D01*
X170379185Y-83290609D01*
X170379172Y-83290602D01*
X170233501Y-83230264D01*
X170233489Y-83230261D01*
X170078845Y-83199500D01*
X170078842Y-83199500D01*
X169921158Y-83199500D01*
X169921155Y-83199500D01*
X169766510Y-83230261D01*
X169766498Y-83230264D01*
X169620827Y-83290602D01*
X169620814Y-83290609D01*
X169489711Y-83378210D01*
X169489707Y-83378213D01*
X169378213Y-83489707D01*
X169378210Y-83489711D01*
X169290609Y-83620814D01*
X169290602Y-83620827D01*
X169230264Y-83766498D01*
X169230261Y-83766510D01*
X169199500Y-83921153D01*
X166800499Y-83921153D01*
X166773320Y-83784517D01*
X166769737Y-83766503D01*
X166746080Y-83709390D01*
X166709397Y-83620827D01*
X166709390Y-83620814D01*
X166621789Y-83489711D01*
X166621786Y-83489707D01*
X166510292Y-83378213D01*
X166510288Y-83378210D01*
X166379185Y-83290609D01*
X166379172Y-83290602D01*
X166233501Y-83230264D01*
X166233489Y-83230261D01*
X166078845Y-83199500D01*
X166078842Y-83199500D01*
X165921158Y-83199500D01*
X165921155Y-83199500D01*
X165766510Y-83230261D01*
X165766498Y-83230264D01*
X165620827Y-83290602D01*
X165620814Y-83290609D01*
X165489711Y-83378210D01*
X165489707Y-83378213D01*
X165378213Y-83489707D01*
X165378210Y-83489711D01*
X165290609Y-83620814D01*
X165290602Y-83620827D01*
X165230264Y-83766498D01*
X165230261Y-83766510D01*
X165199500Y-83921153D01*
X125889447Y-83921153D01*
X126077510Y-83784517D01*
X126244517Y-83617510D01*
X126383343Y-83426433D01*
X126490568Y-83215992D01*
X126563553Y-82991368D01*
X126568228Y-82961851D01*
X126574674Y-82921153D01*
X127699500Y-82921153D01*
X127699500Y-83078846D01*
X127730261Y-83233489D01*
X127730264Y-83233501D01*
X127790602Y-83379172D01*
X127790609Y-83379185D01*
X127878210Y-83510288D01*
X127878213Y-83510292D01*
X127989707Y-83621786D01*
X127989711Y-83621789D01*
X128120814Y-83709390D01*
X128120827Y-83709397D01*
X128258683Y-83766498D01*
X128266503Y-83769737D01*
X128421153Y-83800499D01*
X128421156Y-83800500D01*
X128421158Y-83800500D01*
X128578844Y-83800500D01*
X128578845Y-83800499D01*
X128589179Y-83798443D01*
X128614287Y-83793450D01*
X128614292Y-83793449D01*
X128699800Y-83776439D01*
X128733497Y-83769737D01*
X128879179Y-83709394D01*
X129010289Y-83621789D01*
X129121789Y-83510289D01*
X129209394Y-83379179D01*
X129269737Y-83233497D01*
X129300500Y-83078842D01*
X129300500Y-82921158D01*
X129300500Y-82921155D01*
X129300499Y-82921153D01*
X129269738Y-82766510D01*
X129269737Y-82766503D01*
X129264477Y-82753803D01*
X129209397Y-82620827D01*
X129209390Y-82620814D01*
X129121789Y-82489711D01*
X129121786Y-82489707D01*
X129010292Y-82378213D01*
X129010288Y-82378210D01*
X128879185Y-82290609D01*
X128879172Y-82290602D01*
X128733501Y-82230264D01*
X128733489Y-82230261D01*
X128578845Y-82199500D01*
X128578842Y-82199500D01*
X128421158Y-82199500D01*
X128421155Y-82199500D01*
X128266510Y-82230261D01*
X128266498Y-82230264D01*
X128120827Y-82290602D01*
X128120814Y-82290609D01*
X127989711Y-82378210D01*
X127989707Y-82378213D01*
X127878213Y-82489707D01*
X127878210Y-82489711D01*
X127790609Y-82620814D01*
X127790602Y-82620827D01*
X127730264Y-82766498D01*
X127730261Y-82766510D01*
X127699500Y-82921153D01*
X126574674Y-82921153D01*
X126578711Y-82895668D01*
X126600500Y-82758097D01*
X126600500Y-82521902D01*
X126563553Y-82288631D01*
X126490566Y-82064003D01*
X126422359Y-81930140D01*
X126383343Y-81853567D01*
X126244517Y-81662490D01*
X126077510Y-81495483D01*
X125886433Y-81356657D01*
X125873093Y-81349860D01*
X125675996Y-81249433D01*
X125451368Y-81176446D01*
X125218097Y-81139500D01*
X125218092Y-81139500D01*
X124981908Y-81139500D01*
X124981903Y-81139500D01*
X124748631Y-81176446D01*
X124524003Y-81249433D01*
X124313566Y-81356657D01*
X124217529Y-81426433D01*
X124122490Y-81495483D01*
X124122488Y-81495485D01*
X124122487Y-81495485D01*
X123955485Y-81662487D01*
X123955485Y-81662488D01*
X123955483Y-81662490D01*
X123900645Y-81737968D01*
X123816657Y-81853566D01*
X123709433Y-82064005D01*
X123640649Y-82275699D01*
X123601211Y-82333375D01*
X123536853Y-82360573D01*
X123468006Y-82348658D01*
X123453828Y-82340484D01*
X123379183Y-82290608D01*
X123379172Y-82290602D01*
X123233501Y-82230264D01*
X123233489Y-82230261D01*
X123078845Y-82199500D01*
X123078842Y-82199500D01*
X122921158Y-82199500D01*
X122921155Y-82199500D01*
X122766510Y-82230261D01*
X122766498Y-82230264D01*
X122620827Y-82290602D01*
X122620814Y-82290609D01*
X122489711Y-82378210D01*
X122489707Y-82378213D01*
X122378213Y-82489707D01*
X122378210Y-82489711D01*
X122290609Y-82620814D01*
X122290602Y-82620827D01*
X122230264Y-82766498D01*
X122230261Y-82766510D01*
X122199500Y-82921153D01*
X101638511Y-82921153D01*
X101766924Y-82753803D01*
X101898043Y-82526697D01*
X101998398Y-82284419D01*
X102066270Y-82031116D01*
X102100500Y-81771120D01*
X102100500Y-81508880D01*
X102066270Y-81248884D01*
X101998398Y-80995581D01*
X101900027Y-80758092D01*
X101898046Y-80753309D01*
X101898041Y-80753299D01*
X101797431Y-80579036D01*
X101766924Y-80526196D01*
X101763629Y-80521902D01*
X132599500Y-80521902D01*
X132599500Y-80758097D01*
X132636446Y-80991368D01*
X132709433Y-81215996D01*
X132777641Y-81349860D01*
X132816657Y-81426433D01*
X132955483Y-81617510D01*
X133122490Y-81784517D01*
X133313567Y-81923343D01*
X133412991Y-81974002D01*
X133524003Y-82030566D01*
X133524005Y-82030566D01*
X133524008Y-82030568D01*
X133644412Y-82069689D01*
X133748631Y-82103553D01*
X133981903Y-82140500D01*
X133981908Y-82140500D01*
X134218097Y-82140500D01*
X134451368Y-82103553D01*
X134675992Y-82030568D01*
X134886433Y-81923343D01*
X135077510Y-81784517D01*
X135244517Y-81617510D01*
X135383343Y-81426433D01*
X135490568Y-81215992D01*
X135563553Y-80991368D01*
X135600500Y-80758097D01*
X135600500Y-80521902D01*
X135563553Y-80288631D01*
X135490566Y-80064003D01*
X135383342Y-79853566D01*
X135244517Y-79662490D01*
X135077510Y-79495483D01*
X134886433Y-79356657D01*
X134675996Y-79249433D01*
X134451368Y-79176446D01*
X134218097Y-79139500D01*
X134218092Y-79139500D01*
X133981908Y-79139500D01*
X133981903Y-79139500D01*
X133748631Y-79176446D01*
X133524003Y-79249433D01*
X133313566Y-79356657D01*
X133204550Y-79435862D01*
X133122490Y-79495483D01*
X133122488Y-79495485D01*
X133122487Y-79495485D01*
X132955485Y-79662487D01*
X132955485Y-79662488D01*
X132955483Y-79662490D01*
X132947317Y-79673730D01*
X132816657Y-79853566D01*
X132709433Y-80064003D01*
X132636446Y-80288631D01*
X132599500Y-80521902D01*
X101763629Y-80521902D01*
X101607281Y-80318148D01*
X101607274Y-80318140D01*
X101421860Y-80132726D01*
X101421851Y-80132718D01*
X101213803Y-79973075D01*
X100986700Y-79841958D01*
X100986690Y-79841953D01*
X100744428Y-79741605D01*
X100744421Y-79741603D01*
X100744419Y-79741602D01*
X100491116Y-79673730D01*
X100433339Y-79666123D01*
X100231127Y-79639500D01*
X100231120Y-79639500D01*
X99968880Y-79639500D01*
X99968872Y-79639500D01*
X99737772Y-79669926D01*
X99708884Y-79673730D01*
X99455581Y-79741602D01*
X99455571Y-79741605D01*
X99213309Y-79841953D01*
X99213299Y-79841958D01*
X98986196Y-79973075D01*
X98778148Y-80132718D01*
X98592718Y-80318148D01*
X98433075Y-80526196D01*
X98301958Y-80753299D01*
X98301953Y-80753309D01*
X98201605Y-80995571D01*
X98201602Y-80995581D01*
X98142543Y-81215996D01*
X98133730Y-81248885D01*
X98099500Y-81508872D01*
X97600500Y-81508872D01*
X97600500Y-78921153D01*
X128199500Y-78921153D01*
X128199500Y-79078846D01*
X128230261Y-79233489D01*
X128230264Y-79233501D01*
X128290602Y-79379172D01*
X128290609Y-79379185D01*
X128378210Y-79510288D01*
X128378213Y-79510292D01*
X128489707Y-79621786D01*
X128489711Y-79621789D01*
X128620814Y-79709390D01*
X128620827Y-79709397D01*
X128766498Y-79769735D01*
X128766503Y-79769737D01*
X128921153Y-79800499D01*
X128921156Y-79800500D01*
X128921158Y-79800500D01*
X129078844Y-79800500D01*
X129078845Y-79800499D01*
X129233497Y-79769737D01*
X129379179Y-79709394D01*
X129510289Y-79621789D01*
X129621789Y-79510289D01*
X129709394Y-79379179D01*
X129769737Y-79233497D01*
X129800500Y-79078842D01*
X129800500Y-78921158D01*
X129800500Y-78921155D01*
X129800499Y-78921153D01*
X137699500Y-78921153D01*
X137699500Y-79078846D01*
X137730261Y-79233489D01*
X137730264Y-79233501D01*
X137790602Y-79379172D01*
X137790609Y-79379185D01*
X137878210Y-79510288D01*
X137878213Y-79510292D01*
X137989707Y-79621786D01*
X137989711Y-79621789D01*
X138120814Y-79709390D01*
X138120827Y-79709397D01*
X138266498Y-79769735D01*
X138266503Y-79769737D01*
X138421153Y-79800499D01*
X138421156Y-79800500D01*
X138421158Y-79800500D01*
X138578844Y-79800500D01*
X138578845Y-79800499D01*
X138733497Y-79769737D01*
X138879179Y-79709394D01*
X139010289Y-79621789D01*
X139121789Y-79510289D01*
X139209394Y-79379179D01*
X139269737Y-79233497D01*
X139300500Y-79078842D01*
X139300500Y-78921158D01*
X139300500Y-78921155D01*
X139300499Y-78921153D01*
X140199500Y-78921153D01*
X140199500Y-79078846D01*
X140230261Y-79233489D01*
X140230264Y-79233501D01*
X140290602Y-79379172D01*
X140290609Y-79379185D01*
X140378210Y-79510288D01*
X140378213Y-79510292D01*
X140489707Y-79621786D01*
X140489711Y-79621789D01*
X140620814Y-79709390D01*
X140620827Y-79709397D01*
X140766498Y-79769735D01*
X140766503Y-79769737D01*
X140921153Y-79800499D01*
X140921156Y-79800500D01*
X140921158Y-79800500D01*
X141078844Y-79800500D01*
X141078845Y-79800499D01*
X141233497Y-79769737D01*
X141379179Y-79709394D01*
X141510289Y-79621789D01*
X141621789Y-79510289D01*
X141709394Y-79379179D01*
X141769737Y-79233497D01*
X141800500Y-79078842D01*
X141800500Y-78921158D01*
X141800500Y-78921155D01*
X141800499Y-78921153D01*
X141769738Y-78766510D01*
X141769737Y-78766503D01*
X141756062Y-78733489D01*
X141709397Y-78620827D01*
X141709390Y-78620814D01*
X141621790Y-78489712D01*
X141621784Y-78489705D01*
X141553232Y-78421153D01*
X152199500Y-78421153D01*
X152199500Y-78578846D01*
X152230261Y-78733489D01*
X152230264Y-78733501D01*
X152290602Y-78879172D01*
X152290609Y-78879185D01*
X152378210Y-79010288D01*
X152378213Y-79010292D01*
X152489707Y-79121786D01*
X152489711Y-79121789D01*
X152620814Y-79209390D01*
X152620827Y-79209397D01*
X152717484Y-79249433D01*
X152766503Y-79269737D01*
X152921153Y-79300499D01*
X152921156Y-79300500D01*
X152921158Y-79300500D01*
X153078844Y-79300500D01*
X153078845Y-79300499D01*
X153233497Y-79269737D01*
X153379179Y-79209394D01*
X153510289Y-79121789D01*
X153621789Y-79010289D01*
X153709394Y-78879179D01*
X153769737Y-78733497D01*
X153800500Y-78578842D01*
X153800500Y-78421158D01*
X153800500Y-78421155D01*
X153800499Y-78421153D01*
X154699500Y-78421153D01*
X154699500Y-78578846D01*
X154730261Y-78733489D01*
X154730264Y-78733501D01*
X154790602Y-78879172D01*
X154790609Y-78879185D01*
X154878210Y-79010288D01*
X154878213Y-79010292D01*
X154989707Y-79121786D01*
X154989711Y-79121789D01*
X155120814Y-79209390D01*
X155120827Y-79209397D01*
X155217484Y-79249433D01*
X155266503Y-79269737D01*
X155421153Y-79300499D01*
X155421156Y-79300500D01*
X155421158Y-79300500D01*
X155578844Y-79300500D01*
X155578845Y-79300499D01*
X155733497Y-79269737D01*
X155879179Y-79209394D01*
X156010289Y-79121789D01*
X156121789Y-79010289D01*
X156209394Y-78879179D01*
X156269737Y-78733497D01*
X156300500Y-78578842D01*
X156300500Y-78421158D01*
X156300500Y-78421155D01*
X156300499Y-78421153D01*
X157199500Y-78421153D01*
X157199500Y-78578846D01*
X157230261Y-78733489D01*
X157230264Y-78733501D01*
X157290602Y-78879172D01*
X157290609Y-78879185D01*
X157378210Y-79010288D01*
X157378213Y-79010292D01*
X157489707Y-79121786D01*
X157489711Y-79121789D01*
X157620814Y-79209390D01*
X157620827Y-79209397D01*
X157717484Y-79249433D01*
X157766503Y-79269737D01*
X157921153Y-79300499D01*
X157921156Y-79300500D01*
X157921158Y-79300500D01*
X158078844Y-79300500D01*
X158078845Y-79300499D01*
X158233497Y-79269737D01*
X158379179Y-79209394D01*
X158510289Y-79121789D01*
X158621789Y-79010289D01*
X158709394Y-78879179D01*
X158769737Y-78733497D01*
X158800500Y-78578842D01*
X158800500Y-78421158D01*
X158800500Y-78421155D01*
X158800499Y-78421153D01*
X159699500Y-78421153D01*
X159699500Y-78578846D01*
X159730261Y-78733489D01*
X159730264Y-78733501D01*
X159790602Y-78879172D01*
X159790609Y-78879185D01*
X159878210Y-79010288D01*
X159878213Y-79010292D01*
X159989707Y-79121786D01*
X159989711Y-79121789D01*
X160120814Y-79209390D01*
X160120827Y-79209397D01*
X160217484Y-79249433D01*
X160266503Y-79269737D01*
X160421153Y-79300499D01*
X160421156Y-79300500D01*
X160421158Y-79300500D01*
X160578844Y-79300500D01*
X160578845Y-79300499D01*
X160733497Y-79269737D01*
X160879179Y-79209394D01*
X161010289Y-79121789D01*
X161121789Y-79010289D01*
X161209394Y-78879179D01*
X161269737Y-78733497D01*
X161300500Y-78578842D01*
X161300500Y-78421158D01*
X161300500Y-78421155D01*
X161300499Y-78421153D01*
X161274531Y-78290606D01*
X161269737Y-78266503D01*
X161269735Y-78266498D01*
X161209397Y-78120827D01*
X161209390Y-78120814D01*
X161121789Y-77989711D01*
X161121786Y-77989707D01*
X161010292Y-77878213D01*
X161010288Y-77878210D01*
X160879185Y-77790609D01*
X160879172Y-77790602D01*
X160733501Y-77730264D01*
X160733489Y-77730261D01*
X160578845Y-77699500D01*
X160578842Y-77699500D01*
X160421158Y-77699500D01*
X160421155Y-77699500D01*
X160266510Y-77730261D01*
X160266498Y-77730264D01*
X160120827Y-77790602D01*
X160120814Y-77790609D01*
X159989711Y-77878210D01*
X159989707Y-77878213D01*
X159878213Y-77989707D01*
X159878210Y-77989711D01*
X159790609Y-78120814D01*
X159790602Y-78120827D01*
X159730264Y-78266498D01*
X159730261Y-78266510D01*
X159699500Y-78421153D01*
X158800499Y-78421153D01*
X158774531Y-78290606D01*
X158769737Y-78266503D01*
X158769735Y-78266498D01*
X158709397Y-78120827D01*
X158709390Y-78120814D01*
X158621789Y-77989711D01*
X158621786Y-77989707D01*
X158510292Y-77878213D01*
X158510288Y-77878210D01*
X158379185Y-77790609D01*
X158379172Y-77790602D01*
X158233501Y-77730264D01*
X158233489Y-77730261D01*
X158078845Y-77699500D01*
X158078842Y-77699500D01*
X157921158Y-77699500D01*
X157921155Y-77699500D01*
X157766510Y-77730261D01*
X157766498Y-77730264D01*
X157620827Y-77790602D01*
X157620814Y-77790609D01*
X157489711Y-77878210D01*
X157489707Y-77878213D01*
X157378213Y-77989707D01*
X157378210Y-77989711D01*
X157290609Y-78120814D01*
X157290602Y-78120827D01*
X157230264Y-78266498D01*
X157230261Y-78266510D01*
X157199500Y-78421153D01*
X156300499Y-78421153D01*
X156274531Y-78290606D01*
X156269737Y-78266503D01*
X156269735Y-78266498D01*
X156209397Y-78120827D01*
X156209390Y-78120814D01*
X156121789Y-77989711D01*
X156121786Y-77989707D01*
X156010292Y-77878213D01*
X156010288Y-77878210D01*
X155879185Y-77790609D01*
X155879172Y-77790602D01*
X155733501Y-77730264D01*
X155733489Y-77730261D01*
X155578845Y-77699500D01*
X155578842Y-77699500D01*
X155421158Y-77699500D01*
X155421155Y-77699500D01*
X155266510Y-77730261D01*
X155266498Y-77730264D01*
X155120827Y-77790602D01*
X155120814Y-77790609D01*
X154989711Y-77878210D01*
X154989707Y-77878213D01*
X154878213Y-77989707D01*
X154878210Y-77989711D01*
X154790609Y-78120814D01*
X154790602Y-78120827D01*
X154730264Y-78266498D01*
X154730261Y-78266510D01*
X154699500Y-78421153D01*
X153800499Y-78421153D01*
X153774531Y-78290606D01*
X153769737Y-78266503D01*
X153769735Y-78266498D01*
X153709397Y-78120827D01*
X153709390Y-78120814D01*
X153621789Y-77989711D01*
X153621786Y-77989707D01*
X153510292Y-77878213D01*
X153510288Y-77878210D01*
X153379185Y-77790609D01*
X153379172Y-77790602D01*
X153233501Y-77730264D01*
X153233489Y-77730261D01*
X153078845Y-77699500D01*
X153078842Y-77699500D01*
X152921158Y-77699500D01*
X152921155Y-77699500D01*
X152766510Y-77730261D01*
X152766498Y-77730264D01*
X152620827Y-77790602D01*
X152620814Y-77790609D01*
X152489711Y-77878210D01*
X152489707Y-77878213D01*
X152378213Y-77989707D01*
X152378210Y-77989711D01*
X152290609Y-78120814D01*
X152290602Y-78120827D01*
X152230264Y-78266498D01*
X152230261Y-78266510D01*
X152199500Y-78421153D01*
X141553232Y-78421153D01*
X141510292Y-78378213D01*
X141510288Y-78378210D01*
X141379185Y-78290609D01*
X141379172Y-78290602D01*
X141233501Y-78230264D01*
X141233489Y-78230261D01*
X141078845Y-78199500D01*
X141078842Y-78199500D01*
X140921158Y-78199500D01*
X140921155Y-78199500D01*
X140766510Y-78230261D01*
X140766498Y-78230264D01*
X140620827Y-78290602D01*
X140620814Y-78290609D01*
X140489711Y-78378210D01*
X140489707Y-78378213D01*
X140378213Y-78489707D01*
X140378210Y-78489711D01*
X140290609Y-78620814D01*
X140290602Y-78620827D01*
X140230264Y-78766498D01*
X140230261Y-78766510D01*
X140199500Y-78921153D01*
X139300499Y-78921153D01*
X139269738Y-78766510D01*
X139269737Y-78766503D01*
X139256062Y-78733489D01*
X139209397Y-78620827D01*
X139209390Y-78620814D01*
X139121789Y-78489711D01*
X139121786Y-78489707D01*
X139010292Y-78378213D01*
X139010288Y-78378210D01*
X138879185Y-78290609D01*
X138879172Y-78290602D01*
X138733501Y-78230264D01*
X138733489Y-78230261D01*
X138578845Y-78199500D01*
X138578842Y-78199500D01*
X138421158Y-78199500D01*
X138421155Y-78199500D01*
X138266510Y-78230261D01*
X138266498Y-78230264D01*
X138120827Y-78290602D01*
X138120814Y-78290609D01*
X137989711Y-78378210D01*
X137989707Y-78378213D01*
X137878213Y-78489707D01*
X137878210Y-78489711D01*
X137790609Y-78620814D01*
X137790602Y-78620827D01*
X137730264Y-78766498D01*
X137730261Y-78766510D01*
X137699500Y-78921153D01*
X129800499Y-78921153D01*
X129769738Y-78766510D01*
X129769737Y-78766503D01*
X129756062Y-78733489D01*
X129709397Y-78620827D01*
X129709390Y-78620814D01*
X129621789Y-78489711D01*
X129621786Y-78489707D01*
X129510292Y-78378213D01*
X129510288Y-78378210D01*
X129379185Y-78290609D01*
X129379172Y-78290602D01*
X129233501Y-78230264D01*
X129233489Y-78230261D01*
X129078845Y-78199500D01*
X129078842Y-78199500D01*
X128921158Y-78199500D01*
X128921155Y-78199500D01*
X128766510Y-78230261D01*
X128766498Y-78230264D01*
X128620827Y-78290602D01*
X128620814Y-78290609D01*
X128489711Y-78378210D01*
X128489707Y-78378213D01*
X128378213Y-78489707D01*
X128378210Y-78489711D01*
X128290609Y-78620814D01*
X128290602Y-78620827D01*
X128230264Y-78766498D01*
X128230261Y-78766510D01*
X128199500Y-78921153D01*
X97600500Y-78921153D01*
X97600500Y-76421153D01*
X123199500Y-76421153D01*
X123199500Y-76578846D01*
X123230261Y-76733489D01*
X123230264Y-76733501D01*
X123290602Y-76879172D01*
X123290609Y-76879185D01*
X123378210Y-77010288D01*
X123378213Y-77010292D01*
X123489707Y-77121786D01*
X123489711Y-77121789D01*
X123620814Y-77209390D01*
X123620827Y-77209397D01*
X123766498Y-77269735D01*
X123766503Y-77269737D01*
X123921153Y-77300499D01*
X123921156Y-77300500D01*
X123921158Y-77300500D01*
X124078844Y-77300500D01*
X124078845Y-77300499D01*
X124233497Y-77269737D01*
X124379179Y-77209394D01*
X124510289Y-77121789D01*
X124621789Y-77010289D01*
X124709394Y-76879179D01*
X124769737Y-76733497D01*
X124800500Y-76578842D01*
X124800500Y-76421158D01*
X124800500Y-76421155D01*
X124800499Y-76421153D01*
X124769738Y-76266510D01*
X124769737Y-76266503D01*
X124769735Y-76266498D01*
X124709397Y-76120827D01*
X124709390Y-76120814D01*
X124621789Y-75989711D01*
X124621786Y-75989707D01*
X124510292Y-75878213D01*
X124510288Y-75878210D01*
X124379185Y-75790609D01*
X124379172Y-75790602D01*
X124233501Y-75730264D01*
X124233489Y-75730261D01*
X124078845Y-75699500D01*
X124078842Y-75699500D01*
X123921158Y-75699500D01*
X123921155Y-75699500D01*
X123766510Y-75730261D01*
X123766498Y-75730264D01*
X123620827Y-75790602D01*
X123620814Y-75790609D01*
X123489711Y-75878210D01*
X123489707Y-75878213D01*
X123378213Y-75989707D01*
X123378210Y-75989711D01*
X123290609Y-76120814D01*
X123290602Y-76120827D01*
X123230264Y-76266498D01*
X123230261Y-76266510D01*
X123199500Y-76421153D01*
X97600500Y-76421153D01*
X97600500Y-71499568D01*
X98149500Y-71499568D01*
X98149500Y-71780431D01*
X98180942Y-72059494D01*
X98180945Y-72059512D01*
X98243439Y-72333317D01*
X98243443Y-72333329D01*
X98336200Y-72598411D01*
X98458053Y-72851442D01*
X98475477Y-72879172D01*
X98607477Y-73089248D01*
X98722512Y-73233497D01*
X98766480Y-73288632D01*
X98782584Y-73308825D01*
X98981175Y-73507416D01*
X99200752Y-73682523D01*
X99438555Y-73831945D01*
X99691592Y-73953801D01*
X99853034Y-74010292D01*
X99956670Y-74046556D01*
X99956682Y-74046560D01*
X100230491Y-74109055D01*
X100230497Y-74109055D01*
X100230505Y-74109057D01*
X100416547Y-74130018D01*
X100509569Y-74140499D01*
X100509572Y-74140500D01*
X100509575Y-74140500D01*
X100790428Y-74140500D01*
X100790429Y-74140499D01*
X100956491Y-74121789D01*
X101069494Y-74109057D01*
X101069499Y-74109056D01*
X101069509Y-74109055D01*
X101343318Y-74046560D01*
X101608408Y-73953801D01*
X101861445Y-73831945D01*
X102099248Y-73682523D01*
X102318825Y-73507416D01*
X102517416Y-73308825D01*
X102692523Y-73089248D01*
X102841945Y-72851445D01*
X102963801Y-72598408D01*
X103056560Y-72333318D01*
X103119055Y-72059509D01*
X103122686Y-72027289D01*
X103148238Y-71800499D01*
X103150500Y-71780425D01*
X103150500Y-71499575D01*
X103150499Y-71499568D01*
X108199500Y-71499568D01*
X108199500Y-71780431D01*
X108230942Y-72059494D01*
X108230945Y-72059512D01*
X108293439Y-72333317D01*
X108293443Y-72333329D01*
X108386200Y-72598411D01*
X108508053Y-72851442D01*
X108525477Y-72879172D01*
X108657477Y-73089248D01*
X108772512Y-73233497D01*
X108816480Y-73288632D01*
X108832584Y-73308825D01*
X109031175Y-73507416D01*
X109250752Y-73682523D01*
X109488555Y-73831945D01*
X109741592Y-73953801D01*
X109903034Y-74010292D01*
X110006670Y-74046556D01*
X110006682Y-74046560D01*
X110280491Y-74109055D01*
X110280497Y-74109055D01*
X110280505Y-74109057D01*
X110466547Y-74130018D01*
X110559569Y-74140499D01*
X110559572Y-74140500D01*
X110559575Y-74140500D01*
X110840428Y-74140500D01*
X110840429Y-74140499D01*
X111006491Y-74121789D01*
X111119494Y-74109057D01*
X111119499Y-74109056D01*
X111119509Y-74109055D01*
X111393318Y-74046560D01*
X111658408Y-73953801D01*
X111911445Y-73831945D01*
X112149248Y-73682523D01*
X112350660Y-73521902D01*
X119099500Y-73521902D01*
X119099500Y-73758097D01*
X119136446Y-73991368D01*
X119209433Y-74215996D01*
X119316657Y-74426433D01*
X119455483Y-74617510D01*
X119622490Y-74784517D01*
X119813567Y-74923343D01*
X119912991Y-74974002D01*
X120024003Y-75030566D01*
X120024005Y-75030566D01*
X120024008Y-75030568D01*
X120144412Y-75069689D01*
X120248631Y-75103553D01*
X120481903Y-75140500D01*
X120481908Y-75140500D01*
X120718097Y-75140500D01*
X120951368Y-75103553D01*
X121175992Y-75030568D01*
X121386433Y-74923343D01*
X121577510Y-74784517D01*
X121744517Y-74617510D01*
X121883343Y-74426433D01*
X121990568Y-74215992D01*
X122063553Y-73991368D01*
X122081323Y-73879172D01*
X122100500Y-73758097D01*
X122100500Y-73521902D01*
X122063553Y-73288631D01*
X122009341Y-73121786D01*
X121990568Y-73064008D01*
X121990566Y-73064005D01*
X121990566Y-73064003D01*
X121932148Y-72949353D01*
X121883343Y-72853567D01*
X121744517Y-72662490D01*
X121577510Y-72495483D01*
X121475204Y-72421153D01*
X148199500Y-72421153D01*
X148199500Y-72578846D01*
X148230261Y-72733489D01*
X148230264Y-72733501D01*
X148290602Y-72879172D01*
X148290609Y-72879185D01*
X148378210Y-73010288D01*
X148378213Y-73010292D01*
X148489707Y-73121786D01*
X148489711Y-73121789D01*
X148620814Y-73209390D01*
X148620827Y-73209397D01*
X148717484Y-73249433D01*
X148766503Y-73269737D01*
X148921153Y-73300499D01*
X148921156Y-73300500D01*
X148921158Y-73300500D01*
X149078844Y-73300500D01*
X149078845Y-73300499D01*
X149233497Y-73269737D01*
X149379179Y-73209394D01*
X149510289Y-73121789D01*
X149621789Y-73010289D01*
X149635539Y-72989711D01*
X149646898Y-72972712D01*
X149700510Y-72927906D01*
X149769835Y-72919199D01*
X149832862Y-72949353D01*
X149853102Y-72972712D01*
X149878207Y-73010284D01*
X149878213Y-73010292D01*
X149989707Y-73121786D01*
X149989711Y-73121789D01*
X150120814Y-73209390D01*
X150120827Y-73209397D01*
X150217484Y-73249433D01*
X150266503Y-73269737D01*
X150421153Y-73300499D01*
X150421156Y-73300500D01*
X150421158Y-73300500D01*
X150578844Y-73300500D01*
X150578845Y-73300499D01*
X150733497Y-73269737D01*
X150879179Y-73209394D01*
X151010289Y-73121789D01*
X151121789Y-73010289D01*
X151135539Y-72989711D01*
X151146898Y-72972712D01*
X151200510Y-72927906D01*
X151269835Y-72919199D01*
X151332862Y-72949353D01*
X151353102Y-72972712D01*
X151378207Y-73010284D01*
X151378213Y-73010292D01*
X151489707Y-73121786D01*
X151489711Y-73121789D01*
X151620814Y-73209390D01*
X151620827Y-73209397D01*
X151717484Y-73249433D01*
X151766503Y-73269737D01*
X151921153Y-73300499D01*
X151921156Y-73300500D01*
X151921158Y-73300500D01*
X152078844Y-73300500D01*
X152078845Y-73300499D01*
X152233497Y-73269737D01*
X152379179Y-73209394D01*
X152510289Y-73121789D01*
X152621789Y-73010289D01*
X152681348Y-72921153D01*
X158199500Y-72921153D01*
X158199500Y-73078846D01*
X158230261Y-73233489D01*
X158230264Y-73233501D01*
X158290602Y-73379172D01*
X158290609Y-73379185D01*
X158378210Y-73510288D01*
X158378213Y-73510292D01*
X158489707Y-73621786D01*
X158489711Y-73621789D01*
X158620814Y-73709390D01*
X158620827Y-73709397D01*
X158738389Y-73758092D01*
X158766503Y-73769737D01*
X158921153Y-73800499D01*
X158921156Y-73800500D01*
X158921158Y-73800500D01*
X159078844Y-73800500D01*
X159078845Y-73800499D01*
X159233497Y-73769737D01*
X159379179Y-73709394D01*
X159510289Y-73621789D01*
X159621789Y-73510289D01*
X159681348Y-73421153D01*
X165699500Y-73421153D01*
X165699500Y-73578846D01*
X165730261Y-73733489D01*
X165730264Y-73733501D01*
X165790602Y-73879172D01*
X165790609Y-73879185D01*
X165878210Y-74010288D01*
X165878213Y-74010292D01*
X165989707Y-74121786D01*
X165989711Y-74121789D01*
X166120814Y-74209390D01*
X166120827Y-74209397D01*
X166266498Y-74269735D01*
X166266503Y-74269737D01*
X166421153Y-74300499D01*
X166421156Y-74300500D01*
X166421158Y-74300500D01*
X166578844Y-74300500D01*
X166578845Y-74300499D01*
X166733497Y-74269737D01*
X166879179Y-74209394D01*
X166879184Y-74209390D01*
X166879187Y-74209389D01*
X166945218Y-74165268D01*
X167011895Y-74144389D01*
X167079276Y-74162873D01*
X167125966Y-74214851D01*
X167137143Y-74283821D01*
X167136583Y-74287767D01*
X167099500Y-74521902D01*
X167099500Y-74758097D01*
X167136446Y-74991368D01*
X167209433Y-75215996D01*
X167316657Y-75426433D01*
X167455483Y-75617510D01*
X167622490Y-75784517D01*
X167813567Y-75923343D01*
X167912991Y-75974002D01*
X168024003Y-76030566D01*
X168024005Y-76030566D01*
X168024008Y-76030568D01*
X168144412Y-76069689D01*
X168248631Y-76103553D01*
X168481903Y-76140500D01*
X168481908Y-76140500D01*
X168718097Y-76140500D01*
X168951368Y-76103553D01*
X169175992Y-76030568D01*
X169386433Y-75923343D01*
X169577510Y-75784517D01*
X169744517Y-75617510D01*
X169883343Y-75426433D01*
X169990568Y-75215992D01*
X170063553Y-74991368D01*
X170096315Y-74784517D01*
X170100500Y-74758097D01*
X170100500Y-74521902D01*
X174099500Y-74521902D01*
X174099500Y-74758097D01*
X174136446Y-74991368D01*
X174209433Y-75215996D01*
X174316657Y-75426433D01*
X174455483Y-75617510D01*
X174622490Y-75784517D01*
X174813567Y-75923343D01*
X174912991Y-75974002D01*
X175024003Y-76030566D01*
X175024005Y-76030566D01*
X175024008Y-76030568D01*
X175144412Y-76069689D01*
X175248631Y-76103553D01*
X175481903Y-76140500D01*
X175481908Y-76140500D01*
X175718097Y-76140500D01*
X175951368Y-76103553D01*
X176175992Y-76030568D01*
X176386433Y-75923343D01*
X176577510Y-75784517D01*
X176744517Y-75617510D01*
X176883343Y-75426433D01*
X176990568Y-75215992D01*
X177063553Y-74991368D01*
X177096315Y-74784517D01*
X177100500Y-74758097D01*
X177100500Y-74521902D01*
X177063553Y-74288631D01*
X177015422Y-74140500D01*
X176990568Y-74064008D01*
X176990566Y-74064005D01*
X176990566Y-74064003D01*
X176883342Y-73853566D01*
X176867634Y-73831946D01*
X176744517Y-73662490D01*
X176577510Y-73495483D01*
X176386433Y-73356657D01*
X176356609Y-73341461D01*
X176175996Y-73249433D01*
X175951368Y-73176446D01*
X175718097Y-73139500D01*
X175718092Y-73139500D01*
X175481908Y-73139500D01*
X175481903Y-73139500D01*
X175248631Y-73176446D01*
X175024003Y-73249433D01*
X174813566Y-73356657D01*
X174724796Y-73421153D01*
X174622490Y-73495483D01*
X174622488Y-73495485D01*
X174622487Y-73495485D01*
X174455485Y-73662487D01*
X174455485Y-73662488D01*
X174455483Y-73662490D01*
X174421408Y-73709390D01*
X174316657Y-73853566D01*
X174209433Y-74064003D01*
X174136446Y-74288631D01*
X174099500Y-74521902D01*
X170100500Y-74521902D01*
X170063553Y-74288631D01*
X170015422Y-74140500D01*
X169990568Y-74064008D01*
X169990566Y-74064005D01*
X169990566Y-74064003D01*
X169883342Y-73853566D01*
X169867634Y-73831946D01*
X169744517Y-73662490D01*
X169577510Y-73495483D01*
X169386433Y-73356657D01*
X169356609Y-73341461D01*
X169175996Y-73249433D01*
X168951368Y-73176446D01*
X168718097Y-73139500D01*
X168718092Y-73139500D01*
X168481908Y-73139500D01*
X168481903Y-73139500D01*
X168248631Y-73176446D01*
X168024003Y-73249433D01*
X167813566Y-73356657D01*
X167724796Y-73421153D01*
X167622490Y-73495483D01*
X167622488Y-73495485D01*
X167622487Y-73495485D01*
X167512181Y-73605792D01*
X167450858Y-73639277D01*
X167381166Y-73634293D01*
X167325233Y-73592421D01*
X167300922Y-73528333D01*
X167300500Y-73523231D01*
X167300500Y-73421158D01*
X167286047Y-73348499D01*
X167285465Y-73341461D01*
X167291143Y-73313881D01*
X167293653Y-73285840D01*
X167298095Y-73280121D01*
X167299556Y-73273027D01*
X167319242Y-73252897D01*
X167336515Y-73230662D01*
X167346355Y-73225174D01*
X167348409Y-73223075D01*
X167351315Y-73222408D01*
X167361589Y-73216679D01*
X167379179Y-73209394D01*
X167510289Y-73121789D01*
X167621789Y-73010289D01*
X167709394Y-72879179D01*
X167769737Y-72733497D01*
X167800500Y-72578842D01*
X167800500Y-72421158D01*
X167800500Y-72421155D01*
X167800499Y-72421153D01*
X169699500Y-72421153D01*
X169699500Y-72578846D01*
X169730261Y-72733489D01*
X169730264Y-72733501D01*
X169790602Y-72879172D01*
X169790609Y-72879185D01*
X169878210Y-73010288D01*
X169878213Y-73010292D01*
X169989707Y-73121786D01*
X169989711Y-73121789D01*
X170120814Y-73209390D01*
X170120827Y-73209397D01*
X170217484Y-73249433D01*
X170266503Y-73269737D01*
X170421153Y-73300499D01*
X170421156Y-73300500D01*
X170421158Y-73300500D01*
X170578844Y-73300500D01*
X170578845Y-73300499D01*
X170733497Y-73269737D01*
X170879179Y-73209394D01*
X171010289Y-73121789D01*
X171121789Y-73010289D01*
X171209394Y-72879179D01*
X171269737Y-72733497D01*
X171300500Y-72578842D01*
X171300500Y-72421158D01*
X171300500Y-72421155D01*
X171300499Y-72421153D01*
X171287670Y-72356657D01*
X171269737Y-72266503D01*
X171269735Y-72266498D01*
X171209397Y-72120827D01*
X171209390Y-72120814D01*
X171121789Y-71989711D01*
X171121786Y-71989707D01*
X171010292Y-71878213D01*
X171010288Y-71878210D01*
X170879185Y-71790609D01*
X170879172Y-71790602D01*
X170733501Y-71730264D01*
X170733489Y-71730261D01*
X170578845Y-71699500D01*
X170578842Y-71699500D01*
X170421158Y-71699500D01*
X170421155Y-71699500D01*
X170266510Y-71730261D01*
X170266498Y-71730264D01*
X170120827Y-71790602D01*
X170120814Y-71790609D01*
X169989711Y-71878210D01*
X169989707Y-71878213D01*
X169878213Y-71989707D01*
X169878210Y-71989711D01*
X169790609Y-72120814D01*
X169790602Y-72120827D01*
X169730264Y-72266498D01*
X169730261Y-72266510D01*
X169699500Y-72421153D01*
X167800499Y-72421153D01*
X167787670Y-72356657D01*
X167769737Y-72266503D01*
X167769735Y-72266498D01*
X167709397Y-72120827D01*
X167709390Y-72120814D01*
X167621789Y-71989711D01*
X167621786Y-71989707D01*
X167510292Y-71878213D01*
X167510288Y-71878210D01*
X167379185Y-71790609D01*
X167379172Y-71790602D01*
X167233501Y-71730264D01*
X167233489Y-71730261D01*
X167078845Y-71699500D01*
X167078842Y-71699500D01*
X166921158Y-71699500D01*
X166921155Y-71699500D01*
X166766510Y-71730261D01*
X166766498Y-71730264D01*
X166620827Y-71790602D01*
X166620814Y-71790609D01*
X166489711Y-71878210D01*
X166489707Y-71878213D01*
X166378213Y-71989707D01*
X166378210Y-71989711D01*
X166290609Y-72120814D01*
X166290602Y-72120827D01*
X166230264Y-72266498D01*
X166230261Y-72266510D01*
X166199500Y-72421153D01*
X166199500Y-72578846D01*
X166212573Y-72644568D01*
X166206346Y-72714159D01*
X166163483Y-72769337D01*
X166138411Y-72783319D01*
X166120826Y-72790603D01*
X166120814Y-72790609D01*
X165989711Y-72878210D01*
X165989707Y-72878213D01*
X165878213Y-72989707D01*
X165878210Y-72989711D01*
X165790609Y-73120814D01*
X165790602Y-73120827D01*
X165730264Y-73266498D01*
X165730261Y-73266510D01*
X165699500Y-73421153D01*
X159681348Y-73421153D01*
X159709394Y-73379179D01*
X159769737Y-73233497D01*
X159800500Y-73078842D01*
X159800500Y-72921158D01*
X159800500Y-72921155D01*
X159800499Y-72921153D01*
X159786633Y-72851445D01*
X159769737Y-72766503D01*
X159726653Y-72662488D01*
X159709397Y-72620827D01*
X159709390Y-72620814D01*
X159621789Y-72489711D01*
X159621786Y-72489707D01*
X159510292Y-72378213D01*
X159510288Y-72378210D01*
X159379185Y-72290609D01*
X159379172Y-72290602D01*
X159233501Y-72230264D01*
X159233489Y-72230261D01*
X159078845Y-72199500D01*
X159078842Y-72199500D01*
X158921158Y-72199500D01*
X158921155Y-72199500D01*
X158766510Y-72230261D01*
X158766498Y-72230264D01*
X158620827Y-72290602D01*
X158620814Y-72290609D01*
X158489711Y-72378210D01*
X158489707Y-72378213D01*
X158378213Y-72489707D01*
X158378210Y-72489711D01*
X158290609Y-72620814D01*
X158290602Y-72620827D01*
X158230264Y-72766498D01*
X158230261Y-72766510D01*
X158199500Y-72921153D01*
X152681348Y-72921153D01*
X152709394Y-72879179D01*
X152769737Y-72733497D01*
X152800500Y-72578842D01*
X152800500Y-72421158D01*
X152800500Y-72421155D01*
X152800499Y-72421153D01*
X152787670Y-72356657D01*
X152769737Y-72266503D01*
X152769735Y-72266498D01*
X152709397Y-72120827D01*
X152709390Y-72120814D01*
X152621789Y-71989711D01*
X152621786Y-71989707D01*
X152510292Y-71878213D01*
X152510288Y-71878210D01*
X152379185Y-71790609D01*
X152379172Y-71790602D01*
X152233501Y-71730264D01*
X152233489Y-71730261D01*
X152078845Y-71699500D01*
X152078842Y-71699500D01*
X151921158Y-71699500D01*
X151921155Y-71699500D01*
X151766510Y-71730261D01*
X151766498Y-71730264D01*
X151620827Y-71790602D01*
X151620814Y-71790609D01*
X151489711Y-71878210D01*
X151489707Y-71878213D01*
X151378213Y-71989707D01*
X151353102Y-72027289D01*
X151299489Y-72072093D01*
X151230164Y-72080800D01*
X151167137Y-72050645D01*
X151146898Y-72027289D01*
X151121786Y-71989707D01*
X151010292Y-71878213D01*
X151010288Y-71878210D01*
X150879185Y-71790609D01*
X150879172Y-71790602D01*
X150733501Y-71730264D01*
X150733489Y-71730261D01*
X150578845Y-71699500D01*
X150578842Y-71699500D01*
X150421158Y-71699500D01*
X150421155Y-71699500D01*
X150266510Y-71730261D01*
X150266498Y-71730264D01*
X150120827Y-71790602D01*
X150120814Y-71790609D01*
X149989711Y-71878210D01*
X149989707Y-71878213D01*
X149878213Y-71989707D01*
X149853102Y-72027289D01*
X149799489Y-72072093D01*
X149730164Y-72080800D01*
X149667137Y-72050645D01*
X149646898Y-72027289D01*
X149621786Y-71989707D01*
X149510292Y-71878213D01*
X149510288Y-71878210D01*
X149379185Y-71790609D01*
X149379172Y-71790602D01*
X149233501Y-71730264D01*
X149233489Y-71730261D01*
X149078845Y-71699500D01*
X149078842Y-71699500D01*
X148921158Y-71699500D01*
X148921155Y-71699500D01*
X148766510Y-71730261D01*
X148766498Y-71730264D01*
X148620827Y-71790602D01*
X148620814Y-71790609D01*
X148489711Y-71878210D01*
X148489707Y-71878213D01*
X148378213Y-71989707D01*
X148378210Y-71989711D01*
X148290609Y-72120814D01*
X148290602Y-72120827D01*
X148230264Y-72266498D01*
X148230261Y-72266510D01*
X148199500Y-72421153D01*
X121475204Y-72421153D01*
X121386433Y-72356657D01*
X121175996Y-72249433D01*
X120951368Y-72176446D01*
X120718097Y-72139500D01*
X120718092Y-72139500D01*
X120481908Y-72139500D01*
X120481903Y-72139500D01*
X120248631Y-72176446D01*
X120024003Y-72249433D01*
X119813566Y-72356657D01*
X119724796Y-72421153D01*
X119622490Y-72495483D01*
X119622488Y-72495485D01*
X119622487Y-72495485D01*
X119455485Y-72662487D01*
X119455485Y-72662488D01*
X119455483Y-72662490D01*
X119417943Y-72714159D01*
X119316657Y-72853566D01*
X119209433Y-73064003D01*
X119136446Y-73288631D01*
X119099500Y-73521902D01*
X112350660Y-73521902D01*
X112368825Y-73507416D01*
X112567416Y-73308825D01*
X112742523Y-73089248D01*
X112891945Y-72851445D01*
X113013801Y-72598408D01*
X113106560Y-72333318D01*
X113169055Y-72059509D01*
X113172686Y-72027289D01*
X113198238Y-71800499D01*
X113200500Y-71780425D01*
X113200500Y-71499575D01*
X113190018Y-71406547D01*
X113169057Y-71220505D01*
X113169054Y-71220487D01*
X113136725Y-71078846D01*
X113106560Y-70946682D01*
X113082601Y-70878210D01*
X113066089Y-70831021D01*
X113053888Y-70796153D01*
X139324500Y-70796153D01*
X139324500Y-70953846D01*
X139355261Y-71108489D01*
X139355264Y-71108501D01*
X139415602Y-71254172D01*
X139415609Y-71254185D01*
X139503210Y-71385288D01*
X139503213Y-71385292D01*
X139614707Y-71496786D01*
X139614711Y-71496789D01*
X139745814Y-71584390D01*
X139745827Y-71584397D01*
X139836101Y-71621789D01*
X139891503Y-71644737D01*
X140046153Y-71675499D01*
X140046156Y-71675500D01*
X140046158Y-71675500D01*
X140203844Y-71675500D01*
X140203845Y-71675499D01*
X140358497Y-71644737D01*
X140504179Y-71584394D01*
X140635289Y-71496789D01*
X140668662Y-71463416D01*
X140729984Y-71429930D01*
X140799676Y-71434914D01*
X140855610Y-71476784D01*
X140859447Y-71482206D01*
X140878212Y-71510291D01*
X140989707Y-71621786D01*
X140989711Y-71621789D01*
X141120814Y-71709390D01*
X141120827Y-71709397D01*
X141266498Y-71769735D01*
X141266503Y-71769737D01*
X141421153Y-71800499D01*
X141421156Y-71800500D01*
X141421158Y-71800500D01*
X141578844Y-71800500D01*
X141578845Y-71800499D01*
X141733497Y-71769737D01*
X141879179Y-71709394D01*
X142010289Y-71621789D01*
X142121789Y-71510289D01*
X142181348Y-71421153D01*
X161699500Y-71421153D01*
X161699500Y-71578846D01*
X161730261Y-71733489D01*
X161730264Y-71733501D01*
X161790602Y-71879172D01*
X161790609Y-71879185D01*
X161878210Y-72010288D01*
X161878213Y-72010292D01*
X161989707Y-72121786D01*
X161989711Y-72121789D01*
X162120814Y-72209390D01*
X162120827Y-72209397D01*
X162217484Y-72249433D01*
X162266503Y-72269737D01*
X162421153Y-72300499D01*
X162421156Y-72300500D01*
X162421158Y-72300500D01*
X162578844Y-72300500D01*
X162578845Y-72300499D01*
X162733497Y-72269737D01*
X162879179Y-72209394D01*
X163010289Y-72121789D01*
X163121789Y-72010289D01*
X163209394Y-71879179D01*
X163269737Y-71733497D01*
X163300500Y-71578842D01*
X163300500Y-71421158D01*
X163300500Y-71421155D01*
X163300499Y-71421153D01*
X163289849Y-71367611D01*
X163269737Y-71266503D01*
X163250684Y-71220505D01*
X163209397Y-71120827D01*
X163209390Y-71120814D01*
X163121789Y-70989711D01*
X163121786Y-70989707D01*
X163010292Y-70878213D01*
X163010288Y-70878210D01*
X162879185Y-70790609D01*
X162879172Y-70790602D01*
X162733501Y-70730264D01*
X162733489Y-70730261D01*
X162578845Y-70699500D01*
X162578842Y-70699500D01*
X162421158Y-70699500D01*
X162421155Y-70699500D01*
X162266510Y-70730261D01*
X162266498Y-70730264D01*
X162120827Y-70790602D01*
X162120814Y-70790609D01*
X161989711Y-70878210D01*
X161989707Y-70878213D01*
X161878213Y-70989707D01*
X161878210Y-70989711D01*
X161790609Y-71120814D01*
X161790602Y-71120827D01*
X161730264Y-71266498D01*
X161730261Y-71266510D01*
X161699500Y-71421153D01*
X142181348Y-71421153D01*
X142209394Y-71379179D01*
X142269737Y-71233497D01*
X142300500Y-71078842D01*
X142300500Y-70921158D01*
X142300500Y-70921155D01*
X142300499Y-70921153D01*
X142291957Y-70878210D01*
X142269737Y-70766503D01*
X142269735Y-70766498D01*
X142209397Y-70620827D01*
X142209390Y-70620814D01*
X142121789Y-70489711D01*
X142121786Y-70489707D01*
X142010292Y-70378213D01*
X142010288Y-70378210D01*
X141879185Y-70290609D01*
X141879172Y-70290602D01*
X141733501Y-70230264D01*
X141733489Y-70230261D01*
X141578845Y-70199500D01*
X141578842Y-70199500D01*
X141421158Y-70199500D01*
X141421155Y-70199500D01*
X141266510Y-70230261D01*
X141266498Y-70230264D01*
X141120827Y-70290602D01*
X141120814Y-70290609D01*
X140989711Y-70378210D01*
X140989706Y-70378214D01*
X140956335Y-70411585D01*
X140895011Y-70445070D01*
X140825320Y-70440084D01*
X140769387Y-70398212D01*
X140765552Y-70392792D01*
X140746790Y-70364712D01*
X140746786Y-70364707D01*
X140635292Y-70253213D01*
X140635288Y-70253210D01*
X140504185Y-70165609D01*
X140504172Y-70165602D01*
X140358501Y-70105264D01*
X140358489Y-70105261D01*
X140203845Y-70074500D01*
X140203842Y-70074500D01*
X140046158Y-70074500D01*
X140046155Y-70074500D01*
X139891510Y-70105261D01*
X139891498Y-70105264D01*
X139745827Y-70165602D01*
X139745814Y-70165609D01*
X139614711Y-70253210D01*
X139614707Y-70253213D01*
X139503213Y-70364707D01*
X139503210Y-70364711D01*
X139415609Y-70495814D01*
X139415602Y-70495827D01*
X139355264Y-70641498D01*
X139355261Y-70641510D01*
X139324500Y-70796153D01*
X113053888Y-70796153D01*
X113030832Y-70730264D01*
X113013801Y-70681592D01*
X112891945Y-70428555D01*
X112742523Y-70190752D01*
X112567416Y-69971175D01*
X112368825Y-69772584D01*
X112149248Y-69597477D01*
X111911445Y-69448055D01*
X111911442Y-69448053D01*
X111658411Y-69326200D01*
X111393329Y-69233443D01*
X111393317Y-69233439D01*
X111119512Y-69170945D01*
X111119494Y-69170942D01*
X110840431Y-69139500D01*
X110840425Y-69139500D01*
X110559575Y-69139500D01*
X110559568Y-69139500D01*
X110280505Y-69170942D01*
X110280487Y-69170945D01*
X110006682Y-69233439D01*
X110006670Y-69233443D01*
X109741588Y-69326200D01*
X109488557Y-69448053D01*
X109250753Y-69597476D01*
X109031175Y-69772583D01*
X108832583Y-69971175D01*
X108657476Y-70190753D01*
X108508053Y-70428557D01*
X108386200Y-70681588D01*
X108293443Y-70946670D01*
X108293439Y-70946682D01*
X108230945Y-71220487D01*
X108230942Y-71220505D01*
X108199500Y-71499568D01*
X103150499Y-71499568D01*
X103140018Y-71406547D01*
X103119057Y-71220505D01*
X103119054Y-71220487D01*
X103086725Y-71078846D01*
X103056560Y-70946682D01*
X102963801Y-70681592D01*
X102841945Y-70428555D01*
X102692523Y-70190752D01*
X102517416Y-69971175D01*
X102318825Y-69772584D01*
X102099248Y-69597477D01*
X101861445Y-69448055D01*
X101861442Y-69448053D01*
X101608411Y-69326200D01*
X101343329Y-69233443D01*
X101343317Y-69233439D01*
X101069512Y-69170945D01*
X101069494Y-69170942D01*
X100790431Y-69139500D01*
X100790425Y-69139500D01*
X100509575Y-69139500D01*
X100509568Y-69139500D01*
X100230505Y-69170942D01*
X100230487Y-69170945D01*
X99956682Y-69233439D01*
X99956670Y-69233443D01*
X99691588Y-69326200D01*
X99438557Y-69448053D01*
X99200753Y-69597476D01*
X98981175Y-69772583D01*
X98782583Y-69971175D01*
X98607476Y-70190753D01*
X98458053Y-70428557D01*
X98336200Y-70681588D01*
X98243443Y-70946670D01*
X98243439Y-70946682D01*
X98180945Y-71220487D01*
X98180942Y-71220505D01*
X98149500Y-71499568D01*
X97600500Y-71499568D01*
X97600500Y-64817135D01*
X103424500Y-64817135D01*
X103424500Y-68412870D01*
X103424501Y-68412876D01*
X103430908Y-68472483D01*
X103481202Y-68607328D01*
X103481206Y-68607335D01*
X103567452Y-68722544D01*
X103567455Y-68722547D01*
X103682664Y-68808793D01*
X103682671Y-68808797D01*
X103817517Y-68859091D01*
X103817516Y-68859091D01*
X103824444Y-68859835D01*
X103877127Y-68865500D01*
X107472872Y-68865499D01*
X107532483Y-68859091D01*
X107667331Y-68808796D01*
X107782546Y-68722546D01*
X107868796Y-68607331D01*
X107919091Y-68472483D01*
X107925500Y-68412873D01*
X107925499Y-66921153D01*
X139199500Y-66921153D01*
X139199500Y-67078846D01*
X139230261Y-67233489D01*
X139230264Y-67233501D01*
X139290602Y-67379172D01*
X139290609Y-67379185D01*
X139378210Y-67510288D01*
X139378213Y-67510292D01*
X139489707Y-67621786D01*
X139489711Y-67621789D01*
X139620814Y-67709390D01*
X139620827Y-67709397D01*
X139758683Y-67766498D01*
X139766503Y-67769737D01*
X139921153Y-67800499D01*
X139921156Y-67800500D01*
X139921158Y-67800500D01*
X140078844Y-67800500D01*
X140078845Y-67800499D01*
X140233497Y-67769737D01*
X140379179Y-67709394D01*
X140510289Y-67621789D01*
X140547331Y-67584747D01*
X140608653Y-67551261D01*
X140678345Y-67556245D01*
X140734279Y-67598115D01*
X140758697Y-67663579D01*
X140749575Y-67719878D01*
X140730263Y-67766502D01*
X140730261Y-67766510D01*
X140699500Y-67921153D01*
X140699500Y-68078846D01*
X140730261Y-68233489D01*
X140730264Y-68233501D01*
X140790602Y-68379172D01*
X140790609Y-68379185D01*
X140878210Y-68510288D01*
X140878213Y-68510292D01*
X140989707Y-68621786D01*
X140989711Y-68621789D01*
X141120814Y-68709390D01*
X141120827Y-68709397D01*
X141266498Y-68769735D01*
X141266503Y-68769737D01*
X141421153Y-68800499D01*
X141421156Y-68800500D01*
X141421158Y-68800500D01*
X141578844Y-68800500D01*
X141578845Y-68800499D01*
X141733497Y-68769737D01*
X141879179Y-68709394D01*
X142010289Y-68621789D01*
X142121789Y-68510289D01*
X142181348Y-68421153D01*
X148699500Y-68421153D01*
X148699500Y-68578846D01*
X148730261Y-68733489D01*
X148730264Y-68733501D01*
X148790602Y-68879172D01*
X148790609Y-68879185D01*
X148878210Y-69010288D01*
X148878213Y-69010292D01*
X148989707Y-69121786D01*
X148989711Y-69121789D01*
X149120814Y-69209390D01*
X149120827Y-69209397D01*
X149266498Y-69269735D01*
X149266503Y-69269737D01*
X149421153Y-69300499D01*
X149421156Y-69300500D01*
X149421158Y-69300500D01*
X149578844Y-69300500D01*
X149578845Y-69300499D01*
X149733497Y-69269737D01*
X149879179Y-69209394D01*
X150010289Y-69121789D01*
X150121789Y-69010289D01*
X150209394Y-68879179D01*
X150269737Y-68733497D01*
X150300500Y-68578842D01*
X150300500Y-68421158D01*
X150300500Y-68421155D01*
X150300499Y-68421153D01*
X150269738Y-68266510D01*
X150269737Y-68266503D01*
X150209794Y-68121786D01*
X150209397Y-68120827D01*
X150209390Y-68120814D01*
X150121789Y-67989711D01*
X150121786Y-67989707D01*
X150010292Y-67878213D01*
X150010288Y-67878210D01*
X149879185Y-67790609D01*
X149879172Y-67790602D01*
X149733501Y-67730264D01*
X149733489Y-67730261D01*
X149578845Y-67699500D01*
X149578842Y-67699500D01*
X149421158Y-67699500D01*
X149421155Y-67699500D01*
X149266510Y-67730261D01*
X149266498Y-67730264D01*
X149120827Y-67790602D01*
X149120814Y-67790609D01*
X148989711Y-67878210D01*
X148989707Y-67878213D01*
X148878213Y-67989707D01*
X148878210Y-67989711D01*
X148790609Y-68120814D01*
X148790602Y-68120827D01*
X148730264Y-68266498D01*
X148730261Y-68266510D01*
X148699500Y-68421153D01*
X142181348Y-68421153D01*
X142209394Y-68379179D01*
X142269737Y-68233497D01*
X142300500Y-68078842D01*
X142300500Y-67921158D01*
X142300500Y-67921155D01*
X142300499Y-67921153D01*
X142274531Y-67790606D01*
X142269737Y-67766503D01*
X142256062Y-67733489D01*
X142209397Y-67620827D01*
X142209390Y-67620814D01*
X142121790Y-67489712D01*
X142121784Y-67489705D01*
X142053232Y-67421153D01*
X146199500Y-67421153D01*
X146199500Y-67578846D01*
X146230261Y-67733489D01*
X146230264Y-67733501D01*
X146290602Y-67879172D01*
X146290609Y-67879185D01*
X146378210Y-68010288D01*
X146378213Y-68010292D01*
X146489707Y-68121786D01*
X146489711Y-68121789D01*
X146620814Y-68209390D01*
X146620827Y-68209397D01*
X146758683Y-68266498D01*
X146766503Y-68269737D01*
X146921153Y-68300499D01*
X146921156Y-68300500D01*
X146921158Y-68300500D01*
X147078844Y-68300500D01*
X147078845Y-68300499D01*
X147089179Y-68298443D01*
X147114287Y-68293450D01*
X147114292Y-68293449D01*
X147199800Y-68276439D01*
X147233497Y-68269737D01*
X147379179Y-68209394D01*
X147510289Y-68121789D01*
X147621789Y-68010289D01*
X147709394Y-67879179D01*
X147769737Y-67733497D01*
X147800500Y-67578842D01*
X147800500Y-67421158D01*
X147800500Y-67421155D01*
X147800499Y-67421153D01*
X152699500Y-67421153D01*
X152699500Y-67578846D01*
X152730261Y-67733489D01*
X152730264Y-67733501D01*
X152790602Y-67879172D01*
X152790609Y-67879185D01*
X152878210Y-68010288D01*
X152878213Y-68010292D01*
X152989707Y-68121786D01*
X152989711Y-68121789D01*
X153120814Y-68209390D01*
X153120827Y-68209397D01*
X153258683Y-68266498D01*
X153266503Y-68269737D01*
X153421153Y-68300499D01*
X153421156Y-68300500D01*
X153421158Y-68300500D01*
X153578844Y-68300500D01*
X153578845Y-68300499D01*
X153733497Y-68269737D01*
X153879179Y-68209394D01*
X154010289Y-68121789D01*
X154121789Y-68010289D01*
X154181348Y-67921153D01*
X155199500Y-67921153D01*
X155199500Y-68078846D01*
X155230261Y-68233489D01*
X155230264Y-68233501D01*
X155290602Y-68379172D01*
X155290609Y-68379185D01*
X155378210Y-68510288D01*
X155378213Y-68510292D01*
X155489707Y-68621786D01*
X155489711Y-68621789D01*
X155620814Y-68709390D01*
X155620827Y-68709397D01*
X155766498Y-68769735D01*
X155766503Y-68769737D01*
X155921153Y-68800499D01*
X155921156Y-68800500D01*
X155921158Y-68800500D01*
X156078844Y-68800500D01*
X156078845Y-68800499D01*
X156233497Y-68769737D01*
X156379179Y-68709394D01*
X156510289Y-68621789D01*
X156621789Y-68510289D01*
X156709394Y-68379179D01*
X156769737Y-68233497D01*
X156800500Y-68078842D01*
X156800500Y-67921158D01*
X156800500Y-67921155D01*
X156800499Y-67921153D01*
X156774531Y-67790606D01*
X156769737Y-67766503D01*
X156756062Y-67733489D01*
X156709397Y-67620827D01*
X156709390Y-67620814D01*
X156621790Y-67489712D01*
X156621784Y-67489705D01*
X156553232Y-67421153D01*
X168699500Y-67421153D01*
X168699500Y-67578846D01*
X168730261Y-67733489D01*
X168730264Y-67733501D01*
X168790602Y-67879172D01*
X168790609Y-67879185D01*
X168878210Y-68010288D01*
X168878213Y-68010292D01*
X168989707Y-68121786D01*
X168989711Y-68121789D01*
X169120814Y-68209390D01*
X169120827Y-68209397D01*
X169258683Y-68266498D01*
X169266503Y-68269737D01*
X169421153Y-68300499D01*
X169421156Y-68300500D01*
X169421158Y-68300500D01*
X169578844Y-68300500D01*
X169578845Y-68300499D01*
X169733497Y-68269737D01*
X169879179Y-68209394D01*
X170010289Y-68121789D01*
X170121789Y-68010289D01*
X170209394Y-67879179D01*
X170269737Y-67733497D01*
X170300500Y-67578842D01*
X170300500Y-67421158D01*
X170300500Y-67421155D01*
X170300499Y-67421153D01*
X170299326Y-67415254D01*
X170269737Y-67266503D01*
X170256062Y-67233489D01*
X170209397Y-67120827D01*
X170209390Y-67120814D01*
X170121789Y-66989711D01*
X170121786Y-66989707D01*
X170010292Y-66878213D01*
X170010288Y-66878210D01*
X169879185Y-66790609D01*
X169879172Y-66790602D01*
X169733501Y-66730264D01*
X169733489Y-66730261D01*
X169578845Y-66699500D01*
X169578842Y-66699500D01*
X169421158Y-66699500D01*
X169421155Y-66699500D01*
X169266510Y-66730261D01*
X169266498Y-66730264D01*
X169120827Y-66790602D01*
X169120814Y-66790609D01*
X168989711Y-66878210D01*
X168989707Y-66878213D01*
X168878213Y-66989707D01*
X168878210Y-66989711D01*
X168790609Y-67120814D01*
X168790602Y-67120827D01*
X168730264Y-67266498D01*
X168730261Y-67266510D01*
X168699500Y-67421153D01*
X156553232Y-67421153D01*
X156510292Y-67378213D01*
X156510288Y-67378210D01*
X156379185Y-67290609D01*
X156379172Y-67290602D01*
X156233501Y-67230264D01*
X156233489Y-67230261D01*
X156078845Y-67199500D01*
X156078842Y-67199500D01*
X155921158Y-67199500D01*
X155921155Y-67199500D01*
X155766510Y-67230261D01*
X155766498Y-67230264D01*
X155620827Y-67290602D01*
X155620814Y-67290609D01*
X155489711Y-67378210D01*
X155489707Y-67378213D01*
X155378213Y-67489707D01*
X155378210Y-67489711D01*
X155290609Y-67620814D01*
X155290602Y-67620827D01*
X155230264Y-67766498D01*
X155230261Y-67766510D01*
X155199500Y-67921153D01*
X154181348Y-67921153D01*
X154209394Y-67879179D01*
X154269737Y-67733497D01*
X154300500Y-67578842D01*
X154300500Y-67421158D01*
X154300500Y-67421155D01*
X154300499Y-67421153D01*
X154299326Y-67415254D01*
X154269737Y-67266503D01*
X154256062Y-67233489D01*
X154209397Y-67120827D01*
X154209390Y-67120814D01*
X154121789Y-66989711D01*
X154121786Y-66989707D01*
X154010292Y-66878213D01*
X154010288Y-66878210D01*
X153879185Y-66790609D01*
X153879172Y-66790602D01*
X153733501Y-66730264D01*
X153733489Y-66730261D01*
X153578845Y-66699500D01*
X153578842Y-66699500D01*
X153421158Y-66699500D01*
X153421155Y-66699500D01*
X153266510Y-66730261D01*
X153266498Y-66730264D01*
X153120827Y-66790602D01*
X153120814Y-66790609D01*
X152989711Y-66878210D01*
X152989707Y-66878213D01*
X152878213Y-66989707D01*
X152878210Y-66989711D01*
X152790609Y-67120814D01*
X152790602Y-67120827D01*
X152730264Y-67266498D01*
X152730261Y-67266510D01*
X152699500Y-67421153D01*
X147800499Y-67421153D01*
X147799326Y-67415254D01*
X147769737Y-67266503D01*
X147756062Y-67233489D01*
X147709397Y-67120827D01*
X147709390Y-67120814D01*
X147621789Y-66989711D01*
X147621786Y-66989707D01*
X147510292Y-66878213D01*
X147510288Y-66878210D01*
X147379185Y-66790609D01*
X147379172Y-66790602D01*
X147233501Y-66730264D01*
X147233489Y-66730261D01*
X147078845Y-66699500D01*
X147078842Y-66699500D01*
X146921158Y-66699500D01*
X146921155Y-66699500D01*
X146766510Y-66730261D01*
X146766498Y-66730264D01*
X146620827Y-66790602D01*
X146620814Y-66790609D01*
X146489711Y-66878210D01*
X146489707Y-66878213D01*
X146378213Y-66989707D01*
X146378210Y-66989711D01*
X146290609Y-67120814D01*
X146290602Y-67120827D01*
X146230264Y-67266498D01*
X146230261Y-67266510D01*
X146199500Y-67421153D01*
X142053232Y-67421153D01*
X142010292Y-67378213D01*
X142010288Y-67378210D01*
X141879185Y-67290609D01*
X141879172Y-67290602D01*
X141733501Y-67230264D01*
X141733489Y-67230261D01*
X141578845Y-67199500D01*
X141578842Y-67199500D01*
X141421158Y-67199500D01*
X141421155Y-67199500D01*
X141266510Y-67230261D01*
X141266498Y-67230264D01*
X141120827Y-67290602D01*
X141120814Y-67290609D01*
X140989711Y-67378210D01*
X140989706Y-67378214D01*
X140952666Y-67415254D01*
X140891343Y-67448739D01*
X140821651Y-67443753D01*
X140765718Y-67401881D01*
X140741302Y-67336417D01*
X140750424Y-67280121D01*
X140769737Y-67233497D01*
X140800500Y-67078842D01*
X140800500Y-66921158D01*
X140800500Y-66921155D01*
X140800499Y-66921153D01*
X140774531Y-66790606D01*
X140769737Y-66766503D01*
X140769735Y-66766498D01*
X140709397Y-66620827D01*
X140709390Y-66620814D01*
X140621789Y-66489711D01*
X140621786Y-66489707D01*
X140620885Y-66488806D01*
X140620563Y-66488217D01*
X140617924Y-66485001D01*
X140618533Y-66484500D01*
X140587400Y-66427483D01*
X140592384Y-66357791D01*
X140634256Y-66301858D01*
X140684372Y-66279508D01*
X140733497Y-66269737D01*
X140879179Y-66209394D01*
X141010289Y-66121789D01*
X141121789Y-66010289D01*
X141209394Y-65879179D01*
X141269737Y-65733497D01*
X141300500Y-65578842D01*
X141300500Y-65432940D01*
X141320185Y-65365901D01*
X141336819Y-65345259D01*
X141358906Y-65323171D01*
X141396789Y-65285289D01*
X141484394Y-65154179D01*
X141544737Y-65008497D01*
X141562111Y-64921153D01*
X146699500Y-64921153D01*
X146699500Y-65078846D01*
X146730261Y-65233489D01*
X146730264Y-65233501D01*
X146790602Y-65379172D01*
X146790609Y-65379185D01*
X146878210Y-65510288D01*
X146878213Y-65510292D01*
X146989707Y-65621786D01*
X146989711Y-65621789D01*
X147120814Y-65709390D01*
X147120827Y-65709397D01*
X147266498Y-65769735D01*
X147266503Y-65769737D01*
X147421153Y-65800499D01*
X147421156Y-65800500D01*
X147421158Y-65800500D01*
X147578844Y-65800500D01*
X147578845Y-65800499D01*
X147733497Y-65769737D01*
X147879179Y-65709394D01*
X148010289Y-65621789D01*
X148121789Y-65510289D01*
X148209394Y-65379179D01*
X148269737Y-65233497D01*
X148300500Y-65078842D01*
X148300500Y-64921158D01*
X148300500Y-64921155D01*
X148300499Y-64921153D01*
X148279806Y-64817123D01*
X148269737Y-64766503D01*
X148266015Y-64757517D01*
X148209397Y-64620827D01*
X148209390Y-64620814D01*
X148121790Y-64489712D01*
X148121784Y-64489705D01*
X148053232Y-64421153D01*
X153199500Y-64421153D01*
X153199500Y-64578846D01*
X153230261Y-64733489D01*
X153230264Y-64733501D01*
X153290602Y-64879172D01*
X153290609Y-64879185D01*
X153378210Y-65010288D01*
X153378213Y-65010292D01*
X153489707Y-65121786D01*
X153489711Y-65121789D01*
X153620814Y-65209390D01*
X153620827Y-65209397D01*
X153758683Y-65266498D01*
X153766503Y-65269737D01*
X153921153Y-65300499D01*
X153921156Y-65300500D01*
X153921158Y-65300500D01*
X154078844Y-65300500D01*
X154078845Y-65300499D01*
X154233497Y-65269737D01*
X154379179Y-65209394D01*
X154510289Y-65121789D01*
X154621789Y-65010289D01*
X154709394Y-64879179D01*
X154769737Y-64733497D01*
X154800500Y-64578842D01*
X154800500Y-64421158D01*
X154800500Y-64421155D01*
X154800499Y-64421153D01*
X154790505Y-64370909D01*
X154769737Y-64266503D01*
X154768993Y-64264707D01*
X154709397Y-64120827D01*
X154709390Y-64120814D01*
X154621789Y-63989711D01*
X154621786Y-63989707D01*
X154510292Y-63878213D01*
X154510288Y-63878210D01*
X154379185Y-63790609D01*
X154379172Y-63790602D01*
X154233501Y-63730264D01*
X154233489Y-63730261D01*
X154078845Y-63699500D01*
X154078842Y-63699500D01*
X153921158Y-63699500D01*
X153921155Y-63699500D01*
X153766510Y-63730261D01*
X153766498Y-63730264D01*
X153620827Y-63790602D01*
X153620814Y-63790609D01*
X153489711Y-63878210D01*
X153489707Y-63878213D01*
X153378213Y-63989707D01*
X153378210Y-63989711D01*
X153290609Y-64120814D01*
X153290602Y-64120827D01*
X153230264Y-64266498D01*
X153230261Y-64266510D01*
X153199500Y-64421153D01*
X148053232Y-64421153D01*
X148010292Y-64378213D01*
X148010288Y-64378210D01*
X147879185Y-64290609D01*
X147879172Y-64290602D01*
X147733501Y-64230264D01*
X147733489Y-64230261D01*
X147578845Y-64199500D01*
X147578842Y-64199500D01*
X147421158Y-64199500D01*
X147421155Y-64199500D01*
X147266510Y-64230261D01*
X147266498Y-64230264D01*
X147120827Y-64290602D01*
X147120814Y-64290609D01*
X146989711Y-64378210D01*
X146989707Y-64378213D01*
X146878213Y-64489707D01*
X146878210Y-64489711D01*
X146790609Y-64620814D01*
X146790602Y-64620827D01*
X146730264Y-64766498D01*
X146730261Y-64766510D01*
X146699500Y-64921153D01*
X141562111Y-64921153D01*
X141575500Y-64853842D01*
X141575500Y-64696158D01*
X141575500Y-64696155D01*
X141575499Y-64696153D01*
X141560881Y-64622664D01*
X141544737Y-64541503D01*
X141494908Y-64421204D01*
X141484397Y-64395827D01*
X141484390Y-64395814D01*
X141396789Y-64264711D01*
X141396786Y-64264707D01*
X141285292Y-64153213D01*
X141285288Y-64153210D01*
X141154185Y-64065609D01*
X141154172Y-64065602D01*
X141008501Y-64005264D01*
X141008489Y-64005261D01*
X140853845Y-63974500D01*
X140853842Y-63974500D01*
X140696158Y-63974500D01*
X140696155Y-63974500D01*
X140541510Y-64005261D01*
X140541498Y-64005264D01*
X140395827Y-64065602D01*
X140395814Y-64065609D01*
X140264711Y-64153210D01*
X140264707Y-64153213D01*
X140153213Y-64264707D01*
X140153210Y-64264711D01*
X140065609Y-64395814D01*
X140065602Y-64395827D01*
X140005264Y-64541498D01*
X140005261Y-64541510D01*
X139974500Y-64696153D01*
X139974500Y-64842058D01*
X139954815Y-64909097D01*
X139938183Y-64929738D01*
X139878208Y-64989714D01*
X139790609Y-65120814D01*
X139790602Y-65120827D01*
X139730264Y-65266498D01*
X139730261Y-65266510D01*
X139699500Y-65421153D01*
X139699500Y-65578846D01*
X139730261Y-65733489D01*
X139730264Y-65733501D01*
X139790602Y-65879172D01*
X139790609Y-65879185D01*
X139878210Y-66010288D01*
X139878213Y-66010292D01*
X139879114Y-66011193D01*
X139879435Y-66011780D01*
X139882076Y-66014999D01*
X139881465Y-66015499D01*
X139912599Y-66072516D01*
X139907615Y-66142208D01*
X139865743Y-66198141D01*
X139815626Y-66220491D01*
X139766507Y-66230261D01*
X139766498Y-66230264D01*
X139620827Y-66290602D01*
X139620814Y-66290609D01*
X139489711Y-66378210D01*
X139489707Y-66378213D01*
X139378213Y-66489707D01*
X139378210Y-66489711D01*
X139290609Y-66620814D01*
X139290602Y-66620827D01*
X139230264Y-66766498D01*
X139230261Y-66766510D01*
X139199500Y-66921153D01*
X107925499Y-66921153D01*
X107925499Y-66489711D01*
X107925499Y-64817129D01*
X107925498Y-64817123D01*
X107925497Y-64817116D01*
X107919091Y-64757517D01*
X107896204Y-64696155D01*
X107868797Y-64622671D01*
X107868793Y-64622664D01*
X107782547Y-64507455D01*
X107782544Y-64507452D01*
X107667335Y-64421206D01*
X107667328Y-64421202D01*
X107532482Y-64370908D01*
X107532483Y-64370908D01*
X107472883Y-64364501D01*
X107472881Y-64364500D01*
X107472873Y-64364500D01*
X107472864Y-64364500D01*
X103877129Y-64364500D01*
X103877123Y-64364501D01*
X103817516Y-64370908D01*
X103682671Y-64421202D01*
X103682664Y-64421206D01*
X103567455Y-64507452D01*
X103567452Y-64507455D01*
X103481206Y-64622664D01*
X103481202Y-64622671D01*
X103430908Y-64757517D01*
X103424501Y-64817116D01*
X103424501Y-64817123D01*
X103424500Y-64817135D01*
X97600500Y-64817135D01*
X97600500Y-61449568D01*
X98149500Y-61449568D01*
X98149500Y-61730431D01*
X98180942Y-62009494D01*
X98180945Y-62009512D01*
X98243439Y-62283317D01*
X98243443Y-62283329D01*
X98336200Y-62548411D01*
X98458053Y-62801442D01*
X98458055Y-62801445D01*
X98607477Y-63039248D01*
X98782584Y-63258825D01*
X98981175Y-63457416D01*
X99200752Y-63632523D01*
X99438555Y-63781945D01*
X99691592Y-63903801D01*
X99890680Y-63973465D01*
X99956670Y-63996556D01*
X99956682Y-63996560D01*
X100230491Y-64059055D01*
X100230497Y-64059055D01*
X100230505Y-64059057D01*
X100416547Y-64080018D01*
X100509569Y-64090499D01*
X100509572Y-64090500D01*
X100509575Y-64090500D01*
X100790428Y-64090500D01*
X100790429Y-64090499D01*
X100933055Y-64074429D01*
X101069494Y-64059057D01*
X101069499Y-64059056D01*
X101069509Y-64059055D01*
X101343318Y-63996560D01*
X101608408Y-63903801D01*
X101861445Y-63781945D01*
X102099248Y-63632523D01*
X102318825Y-63457416D01*
X102517416Y-63258825D01*
X102692523Y-63039248D01*
X102841945Y-62801445D01*
X102963801Y-62548408D01*
X103056560Y-62283318D01*
X103119055Y-62009509D01*
X103119056Y-62009499D01*
X103119057Y-62009494D01*
X103146435Y-61766503D01*
X103150500Y-61730425D01*
X103150500Y-61449575D01*
X103150499Y-61449568D01*
X108199500Y-61449568D01*
X108199500Y-61730431D01*
X108230942Y-62009494D01*
X108230945Y-62009512D01*
X108293439Y-62283317D01*
X108293443Y-62283329D01*
X108386200Y-62548411D01*
X108508053Y-62801442D01*
X108508055Y-62801445D01*
X108657477Y-63039248D01*
X108832584Y-63258825D01*
X109031175Y-63457416D01*
X109250752Y-63632523D01*
X109488555Y-63781945D01*
X109741592Y-63903801D01*
X109940680Y-63973465D01*
X110006670Y-63996556D01*
X110006682Y-63996560D01*
X110280491Y-64059055D01*
X110280497Y-64059055D01*
X110280505Y-64059057D01*
X110466547Y-64080018D01*
X110559569Y-64090499D01*
X110559572Y-64090500D01*
X110559575Y-64090500D01*
X110840428Y-64090500D01*
X110840429Y-64090499D01*
X110983055Y-64074429D01*
X111119494Y-64059057D01*
X111119499Y-64059056D01*
X111119509Y-64059055D01*
X111393318Y-63996560D01*
X111658408Y-63903801D01*
X111911445Y-63781945D01*
X112149248Y-63632523D01*
X112368825Y-63457416D01*
X112567416Y-63258825D01*
X112742523Y-63039248D01*
X112891945Y-62801445D01*
X113013801Y-62548408D01*
X113106560Y-62283318D01*
X113169055Y-62009509D01*
X113179010Y-61921155D01*
X113179010Y-61921153D01*
X147699500Y-61921153D01*
X147699500Y-62078846D01*
X147730261Y-62233489D01*
X147730264Y-62233501D01*
X147790602Y-62379172D01*
X147790609Y-62379185D01*
X147878210Y-62510288D01*
X147878213Y-62510292D01*
X147989707Y-62621786D01*
X147989711Y-62621789D01*
X148120814Y-62709390D01*
X148120827Y-62709397D01*
X148266498Y-62769735D01*
X148266503Y-62769737D01*
X148421153Y-62800499D01*
X148421156Y-62800500D01*
X148421158Y-62800500D01*
X148578844Y-62800500D01*
X148578845Y-62800499D01*
X148733497Y-62769737D01*
X148879179Y-62709394D01*
X149010289Y-62621789D01*
X149121789Y-62510289D01*
X149209394Y-62379179D01*
X149269737Y-62233497D01*
X149300500Y-62078842D01*
X149300500Y-61921158D01*
X149300500Y-61921155D01*
X149300499Y-61921153D01*
X154699500Y-61921153D01*
X154699500Y-62078846D01*
X154730261Y-62233489D01*
X154730264Y-62233501D01*
X154790602Y-62379172D01*
X154790609Y-62379185D01*
X154878210Y-62510288D01*
X154878213Y-62510292D01*
X154989707Y-62621786D01*
X154989711Y-62621789D01*
X155120814Y-62709390D01*
X155120827Y-62709397D01*
X155266498Y-62769735D01*
X155266503Y-62769737D01*
X155421153Y-62800499D01*
X155421156Y-62800500D01*
X155421158Y-62800500D01*
X155578844Y-62800500D01*
X155578845Y-62800499D01*
X155733497Y-62769737D01*
X155879179Y-62709394D01*
X156010289Y-62621789D01*
X156121789Y-62510289D01*
X156209394Y-62379179D01*
X156269737Y-62233497D01*
X156300500Y-62078842D01*
X156300500Y-61921158D01*
X156300500Y-61921155D01*
X156300499Y-61921153D01*
X156296526Y-61901181D01*
X156269737Y-61766503D01*
X156254793Y-61730425D01*
X156209397Y-61620827D01*
X156209390Y-61620814D01*
X156121789Y-61489711D01*
X156121786Y-61489707D01*
X156010292Y-61378213D01*
X156010288Y-61378210D01*
X155879185Y-61290609D01*
X155879172Y-61290602D01*
X155733501Y-61230264D01*
X155733489Y-61230261D01*
X155578845Y-61199500D01*
X155578842Y-61199500D01*
X155421158Y-61199500D01*
X155421155Y-61199500D01*
X155266510Y-61230261D01*
X155266498Y-61230264D01*
X155120827Y-61290602D01*
X155120814Y-61290609D01*
X154989711Y-61378210D01*
X154989707Y-61378213D01*
X154878213Y-61489707D01*
X154878210Y-61489711D01*
X154790609Y-61620814D01*
X154790602Y-61620827D01*
X154730264Y-61766498D01*
X154730261Y-61766510D01*
X154699500Y-61921153D01*
X149300499Y-61921153D01*
X149296526Y-61901181D01*
X149269737Y-61766503D01*
X149254793Y-61730425D01*
X149209397Y-61620827D01*
X149209390Y-61620814D01*
X149121789Y-61489711D01*
X149121786Y-61489707D01*
X149010292Y-61378213D01*
X149010288Y-61378210D01*
X148879185Y-61290609D01*
X148879172Y-61290602D01*
X148733501Y-61230264D01*
X148733489Y-61230261D01*
X148578845Y-61199500D01*
X148578842Y-61199500D01*
X148421158Y-61199500D01*
X148421155Y-61199500D01*
X148266510Y-61230261D01*
X148266498Y-61230264D01*
X148120827Y-61290602D01*
X148120814Y-61290609D01*
X147989711Y-61378210D01*
X147989707Y-61378213D01*
X147878213Y-61489707D01*
X147878210Y-61489711D01*
X147790609Y-61620814D01*
X147790602Y-61620827D01*
X147730264Y-61766498D01*
X147730261Y-61766510D01*
X147699500Y-61921153D01*
X113179010Y-61921153D01*
X113181261Y-61901182D01*
X113181261Y-61901181D01*
X113196435Y-61766503D01*
X113200500Y-61730425D01*
X113200500Y-61449575D01*
X113175790Y-61230263D01*
X113169057Y-61170505D01*
X113169054Y-61170487D01*
X113137540Y-61032413D01*
X113132167Y-61008872D01*
X181099500Y-61008872D01*
X181099500Y-61271127D01*
X181113599Y-61378210D01*
X181133730Y-61531116D01*
X181198831Y-61774076D01*
X181201602Y-61784418D01*
X181201605Y-61784428D01*
X181301953Y-62026690D01*
X181301958Y-62026700D01*
X181433075Y-62253803D01*
X181592718Y-62461851D01*
X181592726Y-62461860D01*
X181778140Y-62647274D01*
X181778148Y-62647281D01*
X181986196Y-62806924D01*
X182213299Y-62938041D01*
X182213309Y-62938046D01*
X182455571Y-63038394D01*
X182455581Y-63038398D01*
X182708884Y-63106270D01*
X182968880Y-63140500D01*
X182968887Y-63140500D01*
X183231113Y-63140500D01*
X183231120Y-63140500D01*
X183491116Y-63106270D01*
X183744419Y-63038398D01*
X183986697Y-62938043D01*
X184213803Y-62806924D01*
X184421851Y-62647282D01*
X184421855Y-62647277D01*
X184421860Y-62647274D01*
X184607274Y-62461860D01*
X184607277Y-62461855D01*
X184607282Y-62461851D01*
X184766924Y-62253803D01*
X184898043Y-62026697D01*
X184998398Y-61784419D01*
X185066270Y-61531116D01*
X185100500Y-61271120D01*
X185100500Y-61008880D01*
X185066270Y-60748884D01*
X184998398Y-60495581D01*
X184900204Y-60258520D01*
X184898046Y-60253309D01*
X184898041Y-60253299D01*
X184766924Y-60026196D01*
X184607281Y-59818148D01*
X184607274Y-59818140D01*
X184421860Y-59632726D01*
X184421851Y-59632718D01*
X184213803Y-59473075D01*
X183986700Y-59341958D01*
X183986690Y-59341953D01*
X183744428Y-59241605D01*
X183744421Y-59241603D01*
X183744419Y-59241602D01*
X183491116Y-59173730D01*
X183433339Y-59166123D01*
X183231127Y-59139500D01*
X183231120Y-59139500D01*
X182968880Y-59139500D01*
X182968872Y-59139500D01*
X182737772Y-59169926D01*
X182708884Y-59173730D01*
X182455581Y-59241602D01*
X182455571Y-59241605D01*
X182213309Y-59341953D01*
X182213299Y-59341958D01*
X181986196Y-59473075D01*
X181778148Y-59632718D01*
X181592718Y-59818148D01*
X181433075Y-60026196D01*
X181301958Y-60253299D01*
X181301953Y-60253309D01*
X181201605Y-60495571D01*
X181201602Y-60495581D01*
X181133730Y-60748885D01*
X181099500Y-61008872D01*
X113132167Y-61008872D01*
X113106559Y-60896678D01*
X113106556Y-60896670D01*
X113083465Y-60830680D01*
X113013801Y-60631592D01*
X112891945Y-60378555D01*
X112742523Y-60140752D01*
X112567416Y-59921175D01*
X112368825Y-59722584D01*
X112149248Y-59547477D01*
X111911445Y-59398055D01*
X111911442Y-59398053D01*
X111658411Y-59276200D01*
X111393329Y-59183443D01*
X111393317Y-59183439D01*
X111119512Y-59120945D01*
X111119494Y-59120942D01*
X110840431Y-59089500D01*
X110840425Y-59089500D01*
X110559575Y-59089500D01*
X110559568Y-59089500D01*
X110280505Y-59120942D01*
X110280487Y-59120945D01*
X110006682Y-59183439D01*
X110006670Y-59183443D01*
X109741588Y-59276200D01*
X109488557Y-59398053D01*
X109250753Y-59547476D01*
X109031175Y-59722583D01*
X108832583Y-59921175D01*
X108657476Y-60140753D01*
X108508053Y-60378557D01*
X108386200Y-60631588D01*
X108293443Y-60896670D01*
X108293439Y-60896682D01*
X108230945Y-61170487D01*
X108230942Y-61170505D01*
X108199500Y-61449568D01*
X103150499Y-61449568D01*
X103125790Y-61230263D01*
X103119057Y-61170505D01*
X103119054Y-61170487D01*
X103056560Y-60896682D01*
X103056556Y-60896670D01*
X103033465Y-60830680D01*
X102963801Y-60631592D01*
X102841945Y-60378555D01*
X102692523Y-60140752D01*
X102517416Y-59921175D01*
X102318825Y-59722584D01*
X102099248Y-59547477D01*
X101861445Y-59398055D01*
X101861442Y-59398053D01*
X101608411Y-59276200D01*
X101343329Y-59183443D01*
X101343317Y-59183439D01*
X101069512Y-59120945D01*
X101069494Y-59120942D01*
X100790431Y-59089500D01*
X100790425Y-59089500D01*
X100509575Y-59089500D01*
X100509568Y-59089500D01*
X100230505Y-59120942D01*
X100230487Y-59120945D01*
X99956682Y-59183439D01*
X99956670Y-59183443D01*
X99691588Y-59276200D01*
X99438557Y-59398053D01*
X99200753Y-59547476D01*
X98981175Y-59722583D01*
X98782583Y-59921175D01*
X98607476Y-60140753D01*
X98458053Y-60378557D01*
X98336200Y-60631588D01*
X98243443Y-60896670D01*
X98243439Y-60896682D01*
X98180945Y-61170487D01*
X98180942Y-61170505D01*
X98149500Y-61449568D01*
X97600500Y-61449568D01*
X97600500Y-58764500D01*
X97620185Y-58697461D01*
X97672989Y-58651706D01*
X97724500Y-58640500D01*
X185475500Y-58640500D01*
X185542539Y-58660185D01*
G37*
%TD.AperFunction*%
%TD*%
M02*
